<?xml version="1.0" encoding="UTF-8" standalone="no"?>
<!DOCTYPE svg PUBLIC "-//W3C//DTD SVG 1.1//EN"
 "http://www.w3.org/Graphics/SVG/1.1/DTD/svg11.dtd">
<!-- Generated by graphviz version 2.38.0 (20140413.2041)
 -->
<!-- Title: erpc::TransportArbitrator Pages: 1 -->
<svg width="907pt" height="192pt"
 viewBox="0.00 0.00 906.57 192.00" xmlns="http://www.w3.org/2000/svg" xmlns:xlink="http://www.w3.org/1999/xlink">
<g id="graph0" class="graph" transform="scale(1 1) rotate(0) translate(4 188)">
<title>erpc::TransportArbitrator</title>
<polygon fill="white" stroke="none" points="-4,4 -4,-188 902.565,-188 902.565,4 -4,4"/>
<!-- Node1 -->
<g id="node1" class="node"><title>Node1</title>
<polygon fill="#bfbfbf" stroke="black" points="774.006,-112.5 774.006,-130.5 898.565,-130.5 898.565,-112.5 774.006,-112.5"/>
<text text-anchor="middle" x="836.286" y="-118.5" font-family="Helvetica,sans-Serif" font-size="10.00">erpc::TransportArbitrator</text>
</g>
<!-- Node2 -->
<g id="node2" class="node"><title>Node2</title>
<g id="a_node2"><a xlink:href="classerpc_1_1_transport.html" target="_top" xlink:title="Abstract interface for transport layer. ">
<polygon fill="white" stroke="black" points="544.335,-165.5 544.335,-183.5 627.771,-183.5 627.771,-165.5 544.335,-165.5"/>
<text text-anchor="middle" x="586.053" y="-171.5" font-family="Helvetica,sans-Serif" font-size="10.00">erpc::Transport</text>
</a>
</g>
</g>
<!-- Node2&#45;&gt;Node1 -->
<g id="edge1" class="edge"><title>Node2&#45;&gt;Node1</title>
<path fill="none" stroke="midnightblue" d="M638.05,-163.612C683.792,-153.845 750.127,-139.682 792.987,-130.531"/>
<polygon fill="midnightblue" stroke="midnightblue" points="637.092,-160.237 628.044,-165.748 638.554,-167.083 637.092,-160.237"/>
</g>
<!-- Node2&#45;&gt;Node1 -->
<g id="edge6" class="edge"><title>Node2&#45;&gt;Node1</title>
<path fill="none" stroke="#9a32cd" stroke-dasharray="5,2" d="M638.149,-173.671C672.072,-172.076 717.312,-167.929 756.006,-157.5 779.067,-151.285 803.861,-139.028 819.465,-130.555"/>
<polygon fill="#9a32cd" stroke="#9a32cd" points="637.852,-170.18 628.004,-174.089 638.14,-177.175 637.852,-170.18"/>
<text text-anchor="middle" x="711.169" y="-173.5" font-family="Helvetica,sans-Serif" font-size="10.00"> m_sharedTransport</text>
</g>
<!-- Node3 -->
<g id="node3" class="node"><title>Node3</title>
<g id="a_node3"><a xlink:href="classerpc_1_1_mutex.html" target="_top" xlink:title="Simple mutex class. ">
<polygon fill="white" stroke="black" points="551.933,-118.5 551.933,-136.5 620.174,-136.5 620.174,-118.5 551.933,-118.5"/>
<text text-anchor="middle" x="586.053" y="-124.5" font-family="Helvetica,sans-Serif" font-size="10.00">erpc::Mutex</text>
</a>
</g>
</g>
<!-- Node3&#45;&gt;Node1 -->
<g id="edge2" class="edge"><title>Node3&#45;&gt;Node1</title>
<path fill="none" stroke="#9a32cd" stroke-dasharray="5,2" d="M630.202,-124.33C641.918,-123.592 654.607,-122.904 666.333,-122.5 701.951,-121.272 741.817,-120.985 773.876,-121.021"/>
<polygon fill="#9a32cd" stroke="#9a32cd" points="629.955,-120.839 620.206,-124.986 630.413,-127.824 629.955,-120.839"/>
<text text-anchor="middle" x="711.169" y="-124.5" font-family="Helvetica,sans-Serif" font-size="10.00"> m_clientListMutex</text>
</g>
<!-- Node4 -->
<g id="node4" class="node"><title>Node4</title>
<g id="a_node4"><a xlink:href="classerpc_1_1_codec.html" target="_top" xlink:title="Abstract serialization encoder/decoder interface. ">
<polygon fill="white" stroke="black" points="188.543,-21.5 188.543,-39.5 258.459,-39.5 258.459,-21.5 188.543,-21.5"/>
<text text-anchor="middle" x="223.501" y="-27.5" font-family="Helvetica,sans-Serif" font-size="10.00">erpc::Codec</text>
</a>
</g>
</g>
<!-- Node4&#45;&gt;Node1 -->
<g id="edge3" class="edge"><title>Node4&#45;&gt;Node1</title>
<path fill="none" stroke="#9a32cd" stroke-dasharray="5,2" d="M269.021,-25.9013C346.736,-18.9614 511.882,-9.05142 648.333,-33.5 698.432,-42.4765 710.188,-50.3362 756.006,-72.5 780.622,-84.4078 807.288,-101.948 822.569,-112.495"/>
<polygon fill="#9a32cd" stroke="#9a32cd" points="268.285,-22.4542 258.648,-26.8569 268.927,-29.4247 268.285,-22.4542"/>
<text text-anchor="middle" x="480.761" y="-21.5" font-family="Helvetica,sans-Serif" font-size="10.00"> m_codec</text>
</g>
<!-- Node9 -->
<g id="node9" class="node"><title>Node9</title>
<g id="a_node9"><a xlink:href="classerpc_1_1_request_context.html" target="_top" xlink:title="Encapsulates all information about a request. ">
<polygon fill="white" stroke="black" points="325.03,-80.5 325.03,-98.5 437.749,-98.5 437.749,-80.5 325.03,-80.5"/>
<text text-anchor="middle" x="381.39" y="-86.5" font-family="Helvetica,sans-Serif" font-size="10.00">erpc::RequestContext</text>
</a>
</g>
</g>
<!-- Node4&#45;&gt;Node9 -->
<g id="edge11" class="edge"><title>Node4&#45;&gt;Node9</title>
<path fill="none" stroke="#9a32cd" stroke-dasharray="5,2" d="M255.777,-43.3936C275.542,-51.4301 301.673,-61.8507 325.03,-70.5 334.178,-73.8875 344.25,-77.4063 353.266,-80.4815"/>
<polygon fill="#9a32cd" stroke="#9a32cd" points="256.929,-40.0836 246.348,-39.5444 254.283,-46.5644 256.929,-40.0836"/>
<text text-anchor="middle" x="291.745" y="-75.5" font-family="Helvetica,sans-Serif" font-size="10.00"> m_out</text>
<text text-anchor="middle" x="291.745" y="-65.5" font-family="Helvetica,sans-Serif" font-size="10.00">m_in</text>
</g>
<!-- Node5 -->
<g id="node5" class="node"><title>Node5</title>
<g id="a_node5"><a xlink:href="classerpc_1_1_message_buffer_1_1_cursor.html" target="_top" xlink:title="Cursor within a MessageBuffer. ">
<polygon fill="white" stroke="black" points="0,-37.5 0,-65.5 108.09,-65.5 108.09,-37.5 0,-37.5"/>
<text text-anchor="start" x="8" y="-53.5" font-family="Helvetica,sans-Serif" font-size="10.00">erpc::MessageBuffer</text>
<text text-anchor="middle" x="54.0449" y="-43.5" font-family="Helvetica,sans-Serif" font-size="10.00">::Cursor</text>
</a>
</g>
</g>
<!-- Node5&#45;&gt;Node4 -->
<g id="edge4" class="edge"><title>Node5&#45;&gt;Node4</title>
<path fill="none" stroke="#9a32cd" stroke-dasharray="5,2" d="M118.515,-43.5405C142.296,-40.5582 168.396,-37.2851 188.499,-34.7641"/>
<polygon fill="#9a32cd" stroke="#9a32cd" points="117.976,-40.0805 108.489,-44.7977 118.847,-47.0261 117.976,-40.0805"/>
<text text-anchor="middle" x="148.316" y="-44.5" font-family="Helvetica,sans-Serif" font-size="10.00"> m_cursor</text>
</g>
<!-- Node6 -->
<g id="node6" class="node"><title>Node6</title>
<g id="a_node6"><a xlink:href="classerpc_1_1_message_buffer.html" target="_top" xlink:title="Represents a memory buffer containing a message. ">
<polygon fill="white" stroke="black" points="0,-0.5 0,-18.5 108.09,-18.5 108.09,-0.5 0,-0.5"/>
<text text-anchor="middle" x="54.0449" y="-6.5" font-family="Helvetica,sans-Serif" font-size="10.00">erpc::MessageBuffer</text>
</a>
</g>
</g>
<!-- Node6&#45;&gt;Node4 -->
<g id="edge5" class="edge"><title>Node6&#45;&gt;Node4</title>
<path fill="none" stroke="#9a32cd" stroke-dasharray="5,2" d="M118.574,-17.0467C135.469,-19.0959 153.702,-21.345 170.543,-23.5 176.321,-24.2394 182.458,-25.0466 188.412,-25.8415"/>
<polygon fill="#9a32cd" stroke="#9a32cd" points="118.599,-13.5244 108.251,-15.7993 117.759,-20.4738 118.599,-13.5244"/>
<text text-anchor="middle" x="148.316" y="-25.5" font-family="Helvetica,sans-Serif" font-size="10.00"> m_buffer</text>
</g>
<!-- Node7 -->
<g id="node7" class="node"><title>Node7</title>
<g id="a_node7"><a xlink:href="structerpc_1_1_transport_arbitrator_1_1_pending_client_info.html" target="_top" xlink:title="Request info for a client trying to receive a response. ">
<polygon fill="white" stroke="black" points="523.773,-43.5 523.773,-71.5 648.333,-71.5 648.333,-43.5 523.773,-43.5"/>
<text text-anchor="start" x="531.773" y="-59.5" font-family="Helvetica,sans-Serif" font-size="10.00">erpc::TransportArbitrator</text>
<text text-anchor="middle" x="586.053" y="-49.5" font-family="Helvetica,sans-Serif" font-size="10.00">::PendingClientInfo</text>
</a>
</g>
</g>
<!-- Node7&#45;&gt;Node1 -->
<g id="edge7" class="edge"><title>Node7&#45;&gt;Node1</title>
<path fill="none" stroke="#9a32cd" stroke-dasharray="5,2" d="M658.687,-73.4336C688.839,-80.4059 724.235,-88.9389 756.006,-97.5 772.946,-102.065 791.746,-107.729 806.785,-112.409"/>
<polygon fill="#9a32cd" stroke="#9a32cd" points="659.205,-69.9615 648.675,-71.1312 657.636,-76.7834 659.205,-69.9615"/>
<text text-anchor="middle" x="711.169" y="-109.5" font-family="Helvetica,sans-Serif" font-size="10.00"> m_clientFreeList</text>
<text text-anchor="middle" x="711.169" y="-99.5" font-family="Helvetica,sans-Serif" font-size="10.00">m_clientList</text>
</g>
<!-- Node7&#45;&gt;Node7 -->
<g id="edge9" class="edge"><title>Node7&#45;&gt;Node7</title>
<path fill="none" stroke="#9a32cd" stroke-dasharray="5,2" d="M567.253,-81.4873C569.249,-86.4413 575.516,-90 586.053,-90 602.913,-90 608.84,-80.8898 603.835,-71.5305"/>
<polygon fill="#9a32cd" stroke="#9a32cd" points="570.736,-81.8348 568.272,-71.5305 563.772,-81.1223 570.736,-81.8348"/>
<text text-anchor="middle" x="586.053" y="-92" font-family="Helvetica,sans-Serif" font-size="10.00"> m_next</text>
</g>
<!-- Node8 -->
<g id="node8" class="node"><title>Node8</title>
<g id="a_node8"><a xlink:href="classerpc_1_1_semaphore.html" target="_top" xlink:title="Simple semaphore class. ">
<polygon fill="white" stroke="black" points="335.035,-43.5 335.035,-61.5 427.744,-61.5 427.744,-43.5 335.035,-43.5"/>
<text text-anchor="middle" x="381.39" y="-49.5" font-family="Helvetica,sans-Serif" font-size="10.00">erpc::Semaphore</text>
</a>
</g>
</g>
<!-- Node8&#45;&gt;Node7 -->
<g id="edge8" class="edge"><title>Node8&#45;&gt;Node7</title>
<path fill="none" stroke="#9a32cd" stroke-dasharray="5,2" d="M437.942,-53.8399C459.166,-54.3547 483.591,-54.9505 505.773,-55.5 511.554,-55.6432 517.572,-55.7932 523.594,-55.944"/>
<polygon fill="#9a32cd" stroke="#9a32cd" points="437.885,-50.3376 427.804,-53.5943 437.716,-57.3356 437.885,-50.3376"/>
<text text-anchor="middle" x="480.761" y="-57.5" font-family="Helvetica,sans-Serif" font-size="10.00"> m_sem</text>
</g>
<!-- Node9&#45;&gt;Node7 -->
<g id="edge10" class="edge"><title>Node9&#45;&gt;Node7</title>
<path fill="none" stroke="#9a32cd" stroke-dasharray="5,2" d="M447.651,-79.1954C472.046,-75.3435 499.648,-70.9852 523.68,-67.1906"/>
<polygon fill="#9a32cd" stroke="#9a32cd" points="447.1,-75.739 437.768,-80.7559 448.192,-82.6533 447.1,-75.739"/>
<text text-anchor="middle" x="480.761" y="-79.5" font-family="Helvetica,sans-Serif" font-size="10.00"> m_request</text>
</g>
</g>
</svg>
