<?xml version="1.0" encoding="UTF-8" standalone="no"?>
<!DOCTYPE svg PUBLIC "-//W3C//DTD SVG 1.1//EN"
 "http://www.w3.org/Graphics/SVG/1.1/DTD/svg11.dtd">
<!-- Generated by graphviz version 2.38.0 (20140413.2041)
 -->
<!-- Title: BasicMessageBufferFactory Pages: 1 -->
<svg width="149pt" height="82pt"
 viewBox="0.00 0.00 149.43 82.00" xmlns="http://www.w3.org/2000/svg" xmlns:xlink="http://www.w3.org/1999/xlink">
<g id="graph0" class="graph" transform="scale(1 1) rotate(0) translate(4 78)">
<title>BasicMessageBufferFactory</title>
<polygon fill="white" stroke="none" points="-4,4 -4,-78 145.43,-78 145.43,4 -4,4"/>
<!-- Node1 -->
<g id="node1" class="node"><title>Node1</title>
<polygon fill="#bfbfbf" stroke="black" points="0.27832,-0.5 0.27832,-18.5 141.151,-18.5 141.151,-0.5 0.27832,-0.5"/>
<text text-anchor="middle" x="70.7148" y="-6.5" font-family="Helvetica,sans-Serif" font-size="10.00">BasicMessageBufferFactory</text>
</g>
<!-- Node2 -->
<g id="node2" class="node"><title>Node2</title>
<g id="a_node2"><a xlink:href="classerpc_1_1_message_buffer_factory.html" target="_top" xlink:title="Abstract interface for message buffer factory. ">
<polygon fill="white" stroke="black" points="0,-55.5 0,-73.5 141.43,-73.5 141.43,-55.5 0,-55.5"/>
<text text-anchor="middle" x="70.7148" y="-61.5" font-family="Helvetica,sans-Serif" font-size="10.00">erpc::MessageBufferFactory</text>
</a>
</g>
</g>
<!-- Node2&#45;&gt;Node1 -->
<g id="edge1" class="edge"><title>Node2&#45;&gt;Node1</title>
<path fill="none" stroke="midnightblue" d="M57.8479,-45.4734C56.4362,-36.3257 57.3856,-25.6724 60.6961,-18.5496"/>
<polygon fill="midnightblue" stroke="midnightblue" points="54.5122,-46.5405 60.5898,-55.2188 61.2505,-44.6445 54.5122,-46.5405"/>
</g>
<!-- Node2&#45;&gt;Node1 -->
<g id="edge2" class="edge"><title>Node2&#45;&gt;Node1</title>
<path fill="none" stroke="midnightblue" d="M70.7148,-45.1746C70.7148,-36.0945 70.7148,-25.5949 70.7148,-18.5496"/>
<polygon fill="midnightblue" stroke="midnightblue" points="67.2149,-45.2187 70.7148,-55.2188 74.2149,-45.2188 67.2149,-45.2187"/>
</g>
<!-- Node2&#45;&gt;Node1 -->
<g id="edge3" class="edge"><title>Node2&#45;&gt;Node1</title>
<path fill="none" stroke="midnightblue" d="M83.5818,-45.4734C84.9935,-36.3257 84.0441,-25.6724 80.7336,-18.5496"/>
<polygon fill="midnightblue" stroke="midnightblue" points="80.1791,-44.6445 80.8398,-55.2188 86.9175,-46.5405 80.1791,-44.6445"/>
</g>
</g>
</svg>
