<?xml version="1.0" encoding="UTF-8" standalone="no"?>
<!DOCTYPE svg PUBLIC "-//W3C//DTD SVG 1.1//EN"
 "http://www.w3.org/Graphics/SVG/1.1/DTD/svg11.dtd">
<!-- Generated by graphviz version 2.38.0 (20140413.2041)
 -->
<!-- Title: erpc::FramedTransport Pages: 1 -->
<svg width="415pt" height="286pt"
 viewBox="0.00 0.00 415.33 286.00" xmlns="http://www.w3.org/2000/svg" xmlns:xlink="http://www.w3.org/1999/xlink">
<g id="graph0" class="graph" transform="scale(1 1) rotate(0) translate(4 282)">
<title>erpc::FramedTransport</title>
<polygon fill="white" stroke="none" points="-4,4 -4,-282 411.329,-282 411.329,4 -4,4"/>
<!-- Node1 -->
<g id="node1" class="node"><title>Node1</title>
<polygon fill="#bfbfbf" stroke="black" points="119.437,-129.5 119.437,-147.5 237.326,-147.5 237.326,-129.5 119.437,-129.5"/>
<text text-anchor="middle" x="178.381" y="-135.5" font-family="Helvetica,sans-Serif" font-size="10.00">erpc::FramedTransport</text>
</g>
<!-- Node3 -->
<g id="node3" class="node"><title>Node3</title>
<g id="a_node3"><a xlink:href="classerpc_1_1_dspi_master_transport.html" target="_top" xlink:title="Very basic transport to send/receive messages via DSPI. ">
<polygon fill="white" stroke="black" points="273.326,-259.5 273.326,-277.5 407.329,-277.5 407.329,-259.5 273.326,-259.5"/>
<text text-anchor="middle" x="340.328" y="-265.5" font-family="Helvetica,sans-Serif" font-size="10.00">erpc::DspiMasterTransport</text>
</a>
</g>
</g>
<!-- Node1&#45;&gt;Node3 -->
<g id="edge2" class="edge"><title>Node1&#45;&gt;Node3</title>
<path fill="none" stroke="midnightblue" d="M189.552,-156.434C204.612,-181.343 235.212,-226.095 273.326,-250.5 279.027,-254.151 285.462,-257.068 292.021,-259.398"/>
<polygon fill="midnightblue" stroke="midnightblue" points="192.479,-154.506 184.395,-147.658 186.444,-158.053 192.479,-154.506"/>
</g>
<!-- Node4 -->
<g id="node4" class="node"><title>Node4</title>
<g id="a_node4"><a xlink:href="classerpc_1_1_dspi_slave_transport.html" target="_top" xlink:title="Very basic transport to send/receive messages via DSPI. ">
<polygon fill="white" stroke="black" points="276.1,-222.5 276.1,-240.5 404.556,-240.5 404.556,-222.5 276.1,-222.5"/>
<text text-anchor="middle" x="340.328" y="-228.5" font-family="Helvetica,sans-Serif" font-size="10.00">erpc::DspiSlaveTransport</text>
</a>
</g>
</g>
<!-- Node1&#45;&gt;Node4 -->
<g id="edge3" class="edge"><title>Node1&#45;&gt;Node4</title>
<path fill="none" stroke="midnightblue" d="M195.55,-154.893C213.192,-171.891 242.991,-198.091 273.326,-213.5 280.421,-217.104 288.323,-220.054 296.124,-222.446"/>
<polygon fill="midnightblue" stroke="midnightblue" points="197.925,-152.32 188.341,-147.803 193.016,-157.31 197.925,-152.32"/>
</g>
<!-- Node5 -->
<g id="node5" class="node"><title>Node5</title>
<g id="a_node5"><a xlink:href="classerpc_1_1_lpuart_transport.html" target="_top" xlink:title="Very basic transport to send/receive messages via LPUART. ">
<polygon fill="white" stroke="black" points="284.432,-185.5 284.432,-203.5 396.223,-203.5 396.223,-185.5 284.432,-185.5"/>
<text text-anchor="middle" x="340.328" y="-191.5" font-family="Helvetica,sans-Serif" font-size="10.00">erpc::LpuartTransport</text>
</a>
</g>
</g>
<!-- Node1&#45;&gt;Node5 -->
<g id="edge4" class="edge"><title>Node1&#45;&gt;Node5</title>
<path fill="none" stroke="midnightblue" d="M208.92,-151.495C227.257,-159.298 251.423,-169.112 273.326,-176.5 282.892,-179.727 293.382,-182.795 303.128,-185.454"/>
<polygon fill="midnightblue" stroke="midnightblue" points="210.215,-148.241 199.646,-147.508 207.45,-154.672 210.215,-148.241"/>
</g>
<!-- Node6 -->
<g id="node6" class="node"><title>Node6</title>
<g id="a_node6"><a xlink:href="classerpc_1_1_serial_transport.html" target="_top" xlink:title="Serial transport layer for host PC. ">
<polygon fill="white" stroke="black" points="285.826,-148.5 285.826,-166.5 394.829,-166.5 394.829,-148.5 285.826,-148.5"/>
<text text-anchor="middle" x="340.328" y="-154.5" font-family="Helvetica,sans-Serif" font-size="10.00">erpc::SerialTransport</text>
</a>
</g>
</g>
<!-- Node1&#45;&gt;Node6 -->
<g id="edge5" class="edge"><title>Node1&#45;&gt;Node6</title>
<path fill="none" stroke="midnightblue" d="M247.663,-146.611C260.378,-148.122 273.495,-149.68 285.692,-151.129"/>
<polygon fill="midnightblue" stroke="midnightblue" points="247.921,-143.117 237.578,-145.413 247.095,-150.068 247.921,-143.117"/>
</g>
<!-- Node7 -->
<g id="node7" class="node"><title>Node7</title>
<g id="a_node7"><a xlink:href="classerpc_1_1_spi_master_transport.html" target="_top" xlink:title="Very basic transport to send/receive messages via SPI. ">
<polygon fill="white" stroke="black" points="276.102,-111.5 276.102,-129.5 404.553,-129.5 404.553,-111.5 276.102,-111.5"/>
<text text-anchor="middle" x="340.328" y="-117.5" font-family="Helvetica,sans-Serif" font-size="10.00">erpc::SpiMasterTransport</text>
</a>
</g>
</g>
<!-- Node1&#45;&gt;Node7 -->
<g id="edge6" class="edge"><title>Node1&#45;&gt;Node7</title>
<path fill="none" stroke="midnightblue" d="M247.68,-130.814C257.093,-129.754 266.727,-128.67 276.044,-127.622"/>
<polygon fill="midnightblue" stroke="midnightblue" points="247.124,-127.354 237.578,-131.951 247.907,-134.31 247.124,-127.354"/>
</g>
<!-- Node8 -->
<g id="node8" class="node"><title>Node8</title>
<g id="a_node8"><a xlink:href="classerpc_1_1_spi_slave_transport.html" target="_top" xlink:title="Very basic transport to send/receive messages via SPI. ">
<polygon fill="white" stroke="black" points="278.875,-74.5 278.875,-92.5 401.78,-92.5 401.78,-74.5 278.875,-74.5"/>
<text text-anchor="middle" x="340.328" y="-80.5" font-family="Helvetica,sans-Serif" font-size="10.00">erpc::SpiSlaveTransport</text>
</a>
</g>
</g>
<!-- Node1&#45;&gt;Node8 -->
<g id="edge7" class="edge"><title>Node1&#45;&gt;Node8</title>
<path fill="none" stroke="midnightblue" d="M209.667,-125.601C227.926,-118.068 251.751,-108.667 273.326,-101.5 283.02,-98.28 293.649,-95.192 303.491,-92.5108"/>
<polygon fill="midnightblue" stroke="midnightblue" points="208.293,-122.381 200.407,-129.457 210.984,-128.843 208.293,-122.381"/>
</g>
<!-- Node9 -->
<g id="node9" class="node"><title>Node9</title>
<g id="a_node9"><a xlink:href="classerpc_1_1_t_c_p_transport.html" target="_top" xlink:title="Client side of TCP/IP transport. ">
<polygon fill="white" stroke="black" points="288.609,-37.5 288.609,-55.5 392.046,-55.5 392.046,-37.5 288.609,-37.5"/>
<text text-anchor="middle" x="340.328" y="-43.5" font-family="Helvetica,sans-Serif" font-size="10.00">erpc::TCPTransport</text>
</a>
</g>
</g>
<!-- Node1&#45;&gt;Node9 -->
<g id="edge8" class="edge"><title>Node1&#45;&gt;Node9</title>
<path fill="none" stroke="midnightblue" d="M195.592,-122.336C213.27,-105.574 243.098,-79.7305 273.326,-64.5 280.433,-60.9194 288.34,-57.9801 296.143,-55.5916"/>
<polygon fill="midnightblue" stroke="midnightblue" points="193.119,-119.859 188.367,-129.328 197.987,-124.889 193.119,-119.859"/>
</g>
<!-- Node10 -->
<g id="node10" class="node"><title>Node10</title>
<g id="a_node10"><a xlink:href="classerpc_1_1_uart_transport.html" target="_top" xlink:title="Very basic transport to send/receive messages via UART. ">
<polygon fill="white" stroke="black" points="289.164,-0.5 289.164,-18.5 391.492,-18.5 391.492,-0.5 289.164,-0.5"/>
<text text-anchor="middle" x="340.328" y="-6.5" font-family="Helvetica,sans-Serif" font-size="10.00">erpc::UartTransport</text>
</a>
</g>
</g>
<!-- Node1&#45;&gt;Node10 -->
<g id="edge9" class="edge"><title>Node1&#45;&gt;Node10</title>
<path fill="none" stroke="midnightblue" d="M189.592,-120.728C204.701,-96.0431 235.358,-51.6939 273.326,-27.5 279.136,-23.7981 285.701,-20.8497 292.381,-18.5033"/>
<polygon fill="midnightblue" stroke="midnightblue" points="186.523,-119.042 184.417,-129.425 192.539,-122.621 186.523,-119.042"/>
</g>
<!-- Node2 -->
<g id="node2" class="node"><title>Node2</title>
<g id="a_node2"><a xlink:href="classerpc_1_1_transport.html" target="_top" xlink:title="Abstract interface for transport layer. ">
<polygon fill="white" stroke="black" points="0,-129.5 0,-147.5 83.4365,-147.5 83.4365,-129.5 0,-129.5"/>
<text text-anchor="middle" x="41.7183" y="-135.5" font-family="Helvetica,sans-Serif" font-size="10.00">erpc::Transport</text>
</a>
</g>
</g>
<!-- Node2&#45;&gt;Node1 -->
<g id="edge1" class="edge"><title>Node2&#45;&gt;Node1</title>
<path fill="none" stroke="midnightblue" d="M93.5476,-138.5C101.977,-138.5 110.773,-138.5 119.364,-138.5"/>
<polygon fill="midnightblue" stroke="midnightblue" points="93.4871,-135 83.4871,-138.5 93.487,-142 93.4871,-135"/>
</g>
</g>
</svg>
