<?xml version="1.0" encoding="UTF-8" standalone="no"?>
<!DOCTYPE svg PUBLIC "-//W3C//DTD SVG 1.1//EN"
 "http://www.w3.org/Graphics/SVG/1.1/DTD/svg11.dtd">
<!-- Generated by graphviz version 2.38.0 (20140413.2041)
 -->
<!-- Title: erpc::Transport Pages: 1 -->
<svg width="459pt" height="304pt"
 viewBox="0.00 0.00 459.07 304.00" xmlns="http://www.w3.org/2000/svg" xmlns:xlink="http://www.w3.org/1999/xlink">
<g id="graph0" class="graph" transform="scale(1 1) rotate(0) translate(4 300)">
<title>erpc::Transport</title>
<polygon fill="white" stroke="none" points="-4,4 -4,-300 455.074,-300 455.074,4 -4,4"/>
<!-- Node1 -->
<g id="node1" class="node"><title>Node1</title>
<polygon fill="#bfbfbf" stroke="black" points="0,-74.5 0,-92.5 83.4365,-92.5 83.4365,-74.5 0,-74.5"/>
<text text-anchor="middle" x="41.7183" y="-80.5" font-family="Helvetica,sans-Serif" font-size="10.00">erpc::Transport</text>
</g>
<!-- Node2 -->
<g id="node2" class="node"><title>Node2</title>
<g id="a_node2"><a xlink:href="classerpc_1_1_framed_transport.html" target="_top" xlink:title="Base class for framed transport layers. ">
<polygon fill="white" stroke="black" points="141.309,-148.5 141.309,-166.5 259.199,-166.5 259.199,-148.5 141.309,-148.5"/>
<text text-anchor="middle" x="200.254" y="-154.5" font-family="Helvetica,sans-Serif" font-size="10.00">erpc::FramedTransport</text>
</a>
</g>
</g>
<!-- Node1&#45;&gt;Node2 -->
<g id="edge1" class="edge"><title>Node1&#45;&gt;Node2</title>
<path fill="none" stroke="midnightblue" d="M60.0572,-99.3999C74.8063,-112.086 97.0946,-129.357 119.437,-139.5 127.456,-143.141 136.273,-146.074 145.03,-148.428"/>
<polygon fill="midnightblue" stroke="midnightblue" points="62.113,-96.5459 52.301,-92.5489 57.4789,-101.792 62.113,-96.5459"/>
</g>
<!-- Node11 -->
<g id="node11" class="node"><title>Node11</title>
<g id="a_node11"><a xlink:href="classerpc_1_1_inter_thread_buffer_transport.html" target="_top" xlink:title="Very basic transport to send/receive messages between threads. ">
<polygon fill="white" stroke="black" points="119.437,-111.5 119.437,-129.5 281.071,-129.5 281.071,-111.5 119.437,-111.5"/>
<text text-anchor="middle" x="200.254" y="-117.5" font-family="Helvetica,sans-Serif" font-size="10.00">erpc::InterThreadBufferTransport</text>
</a>
</g>
</g>
<!-- Node1&#45;&gt;Node11 -->
<g id="edge10" class="edge"><title>Node1&#45;&gt;Node11</title>
<path fill="none" stroke="midnightblue" d="M88.5215,-95.0103C98.6903,-97.5192 109.422,-100.131 119.437,-102.5 132.016,-105.476 145.738,-108.61 158.2,-111.415"/>
<polygon fill="midnightblue" stroke="midnightblue" points="89.1361,-91.5568 78.5878,-92.5485 87.4523,-98.3513 89.1361,-91.5568"/>
</g>
<!-- Node12 -->
<g id="node12" class="node"><title>Node12</title>
<g id="a_node12"><a xlink:href="classerpc_1_1_r_p_msg_r_t_o_s_transport.html" target="_top" xlink:title="Transport that uses RPMsg RTOS API for interprocessor messaging. ">
<polygon fill="white" stroke="black" points="128.431,-74.5 128.431,-92.5 272.077,-92.5 272.077,-74.5 128.431,-74.5"/>
<text text-anchor="middle" x="200.254" y="-80.5" font-family="Helvetica,sans-Serif" font-size="10.00">erpc::RPMsgRTOSTransport</text>
</a>
</g>
</g>
<!-- Node1&#45;&gt;Node12 -->
<g id="edge11" class="edge"><title>Node1&#45;&gt;Node12</title>
<path fill="none" stroke="midnightblue" d="M93.765,-77.1268C104.838,-76.8082 116.741,-76.6916 128.421,-76.7771"/>
<polygon fill="midnightblue" stroke="midnightblue" points="93.3067,-73.6408 83.4375,-77.4942 93.5557,-80.6363 93.3067,-73.6408"/>
</g>
<!-- Node1&#45;&gt;Node12 -->
<g id="edge12" class="edge"><title>Node1&#45;&gt;Node12</title>
<path fill="none" stroke="midnightblue" d="M93.765,-89.8732C104.838,-90.1918 116.741,-90.3084 128.421,-90.2229"/>
<polygon fill="midnightblue" stroke="midnightblue" points="93.5557,-86.3637 83.4375,-89.5058 93.3067,-93.3592 93.5557,-86.3637"/>
</g>
<!-- Node13 -->
<g id="node13" class="node"><title>Node13</title>
<g id="a_node13"><a xlink:href="classerpc_1_1_r_p_msg_transport.html" target="_top" xlink:title="Transport that uses RPMsg for interprocessor messaging. ">
<polygon fill="white" stroke="black" points="142.144,-37.5 142.144,-55.5 258.364,-55.5 258.364,-37.5 142.144,-37.5"/>
<text text-anchor="middle" x="200.254" y="-43.5" font-family="Helvetica,sans-Serif" font-size="10.00">erpc::RPMsgTransport</text>
</a>
</g>
</g>
<!-- Node1&#45;&gt;Node13 -->
<g id="edge13" class="edge"><title>Node1&#45;&gt;Node13</title>
<path fill="none" stroke="midnightblue" d="M71.1988,-71.4192C90.9119,-65.4564 117.83,-58.6998 141.9,-53.5256"/>
<polygon fill="midnightblue" stroke="midnightblue" points="70.0807,-68.1019 61.6001,-74.4524 72.19,-74.7765 70.0807,-68.1019"/>
</g>
<!-- Node1&#45;&gt;Node13 -->
<g id="edge14" class="edge"><title>Node1&#45;&gt;Node13</title>
<path fill="none" stroke="midnightblue" d="M93.2833,-77.9073C123.1,-71.7352 159.076,-62.6357 180.509,-55.5019"/>
<polygon fill="midnightblue" stroke="midnightblue" points="92.5544,-74.4837 83.4375,-79.8811 93.9304,-81.3471 92.5544,-74.4837"/>
</g>
<!-- Node14 -->
<g id="node14" class="node"><title>Node14</title>
<g id="a_node14"><a xlink:href="classerpc_1_1_transport_arbitrator.html" target="_top" xlink:title="Interposer to share transport between client and server. ">
<polygon fill="white" stroke="black" points="137.974,-0.5 137.974,-18.5 262.534,-18.5 262.534,-0.5 137.974,-0.5"/>
<text text-anchor="middle" x="200.254" y="-6.5" font-family="Helvetica,sans-Serif" font-size="10.00">erpc::TransportArbitrator</text>
</a>
</g>
</g>
<!-- Node1&#45;&gt;Node14 -->
<g id="edge15" class="edge"><title>Node1&#45;&gt;Node14</title>
<path fill="none" stroke="midnightblue" d="M60.6402,-67.5458C75.4373,-55.175 97.4986,-38.5039 119.437,-28.5 128.379,-24.422 138.3,-21.1621 148.021,-18.5754"/>
<polygon fill="midnightblue" stroke="midnightblue" points="58.1356,-65.0829 52.8233,-74.2497 62.6926,-70.3965 58.1356,-65.0829"/>
</g>
<!-- Node3 -->
<g id="node3" class="node"><title>Node3</title>
<g id="a_node3"><a xlink:href="classerpc_1_1_dspi_master_transport.html" target="_top" xlink:title="Very basic transport to send/receive messages via DSPI. ">
<polygon fill="white" stroke="black" points="317.071,-277.5 317.071,-295.5 451.074,-295.5 451.074,-277.5 317.071,-277.5"/>
<text text-anchor="middle" x="384.073" y="-283.5" font-family="Helvetica,sans-Serif" font-size="10.00">erpc::DspiMasterTransport</text>
</a>
</g>
</g>
<!-- Node2&#45;&gt;Node3 -->
<g id="edge2" class="edge"><title>Node2&#45;&gt;Node3</title>
<path fill="none" stroke="midnightblue" d="M214.312,-174.548C233.952,-199.004 273.47,-243.813 317.071,-268.5 323.479,-272.128 330.655,-275.055 337.85,-277.407"/>
<polygon fill="midnightblue" stroke="midnightblue" points="216.94,-172.227 208.005,-166.533 211.439,-176.556 216.94,-172.227"/>
</g>
<!-- Node4 -->
<g id="node4" class="node"><title>Node4</title>
<g id="a_node4"><a xlink:href="classerpc_1_1_dspi_slave_transport.html" target="_top" xlink:title="Very basic transport to send/receive messages via DSPI. ">
<polygon fill="white" stroke="black" points="319.845,-240.5 319.845,-258.5 448.301,-258.5 448.301,-240.5 319.845,-240.5"/>
<text text-anchor="middle" x="384.073" y="-246.5" font-family="Helvetica,sans-Serif" font-size="10.00">erpc::DspiSlaveTransport</text>
</a>
</g>
</g>
<!-- Node2&#45;&gt;Node4 -->
<g id="edge3" class="edge"><title>Node2&#45;&gt;Node4</title>
<path fill="none" stroke="midnightblue" d="M221.015,-172.783C243.264,-189.338 281.03,-215.517 317.071,-231.5 324.997,-235.015 333.77,-237.989 342.261,-240.444"/>
<polygon fill="midnightblue" stroke="midnightblue" points="222.837,-169.773 212.748,-166.541 218.619,-175.36 222.837,-169.773"/>
</g>
<!-- Node5 -->
<g id="node5" class="node"><title>Node5</title>
<g id="a_node5"><a xlink:href="classerpc_1_1_lpuart_transport.html" target="_top" xlink:title="Very basic transport to send/receive messages via LPUART. ">
<polygon fill="white" stroke="black" points="328.177,-203.5 328.177,-221.5 439.968,-221.5 439.968,-203.5 328.177,-203.5"/>
<text text-anchor="middle" x="384.073" y="-209.5" font-family="Helvetica,sans-Serif" font-size="10.00">erpc::LpuartTransport</text>
</a>
</g>
</g>
<!-- Node2&#45;&gt;Node5 -->
<g id="edge4" class="edge"><title>Node2&#45;&gt;Node5</title>
<path fill="none" stroke="midnightblue" d="M237.884,-169.646C260.607,-177.071 290.448,-186.621 317.071,-194.5 327.321,-197.533 338.522,-200.659 348.738,-203.436"/>
<polygon fill="midnightblue" stroke="midnightblue" points="238.89,-166.293 228.298,-166.502 236.709,-172.944 238.89,-166.293"/>
</g>
<!-- Node6 -->
<g id="node6" class="node"><title>Node6</title>
<g id="a_node6"><a xlink:href="classerpc_1_1_serial_transport.html" target="_top" xlink:title="Serial transport layer for host PC. ">
<polygon fill="white" stroke="black" points="329.571,-166.5 329.571,-184.5 438.574,-184.5 438.574,-166.5 329.571,-166.5"/>
<text text-anchor="middle" x="384.073" y="-172.5" font-family="Helvetica,sans-Serif" font-size="10.00">erpc::SerialTransport</text>
</a>
</g>
</g>
<!-- Node2&#45;&gt;Node6 -->
<g id="edge5" class="edge"><title>Node2&#45;&gt;Node6</title>
<path fill="none" stroke="midnightblue" d="M269.462,-164.253C289.235,-166.21 310.54,-168.319 329.297,-170.176"/>
<polygon fill="midnightblue" stroke="midnightblue" points="269.579,-160.747 259.282,-163.245 268.889,-167.713 269.579,-160.747"/>
</g>
<!-- Node7 -->
<g id="node7" class="node"><title>Node7</title>
<g id="a_node7"><a xlink:href="classerpc_1_1_spi_master_transport.html" target="_top" xlink:title="Very basic transport to send/receive messages via SPI. ">
<polygon fill="white" stroke="black" points="319.847,-129.5 319.847,-147.5 448.298,-147.5 448.298,-129.5 319.847,-129.5"/>
<text text-anchor="middle" x="384.073" y="-135.5" font-family="Helvetica,sans-Serif" font-size="10.00">erpc::SpiMasterTransport</text>
</a>
</g>
</g>
<!-- Node2&#45;&gt;Node7 -->
<g id="edge6" class="edge"><title>Node2&#45;&gt;Node7</title>
<path fill="none" stroke="midnightblue" d="M269.376,-150.381C285.842,-148.661 303.374,-146.828 319.616,-145.131"/>
<polygon fill="midnightblue" stroke="midnightblue" points="268.864,-146.916 259.282,-151.436 269.592,-153.878 268.864,-146.916"/>
</g>
<!-- Node8 -->
<g id="node8" class="node"><title>Node8</title>
<g id="a_node8"><a xlink:href="classerpc_1_1_spi_slave_transport.html" target="_top" xlink:title="Very basic transport to send/receive messages via SPI. ">
<polygon fill="white" stroke="black" points="322.621,-92.5 322.621,-110.5 445.525,-110.5 445.525,-92.5 322.621,-92.5"/>
<text text-anchor="middle" x="384.073" y="-98.5" font-family="Helvetica,sans-Serif" font-size="10.00">erpc::SpiSlaveTransport</text>
</a>
</g>
</g>
<!-- Node2&#45;&gt;Node8 -->
<g id="edge7" class="edge"><title>Node2&#45;&gt;Node8</title>
<path fill="none" stroke="midnightblue" d="M260.877,-145.882C267.765,-144.004 274.625,-141.88 281.071,-139.5 298.043,-133.233 300.29,-127.26 317.071,-120.5 326.472,-116.713 336.907,-113.346 346.652,-110.538"/>
<polygon fill="midnightblue" stroke="midnightblue" points="259.63,-142.589 250.812,-148.461 261.368,-149.37 259.63,-142.589"/>
</g>
<!-- Node9 -->
<g id="node9" class="node"><title>Node9</title>
<g id="a_node9"><a xlink:href="classerpc_1_1_t_c_p_transport.html" target="_top" xlink:title="Client side of TCP/IP transport. ">
<polygon fill="white" stroke="black" points="332.354,-55.5 332.354,-73.5 435.791,-73.5 435.791,-55.5 332.354,-55.5"/>
<text text-anchor="middle" x="384.073" y="-61.5" font-family="Helvetica,sans-Serif" font-size="10.00">erpc::TCPTransport</text>
</a>
</g>
</g>
<!-- Node2&#45;&gt;Node9 -->
<g id="edge8" class="edge"><title>Node2&#45;&gt;Node9</title>
<path fill="none" stroke="midnightblue" d="M268.939,-146.327C273.212,-144.395 277.303,-142.137 281.071,-139.5 305.312,-122.535 293.337,-101.167 317.071,-83.5 322.619,-79.3706 329.041,-76.137 335.656,-73.6053"/>
<polygon fill="midnightblue" stroke="midnightblue" points="267.4,-143.17 259.351,-150.059 269.939,-149.694 267.4,-143.17"/>
</g>
<!-- Node10 -->
<g id="node10" class="node"><title>Node10</title>
<g id="a_node10"><a xlink:href="classerpc_1_1_uart_transport.html" target="_top" xlink:title="Very basic transport to send/receive messages via UART. ">
<polygon fill="white" stroke="black" points="332.909,-18.5 332.909,-36.5 435.237,-36.5 435.237,-18.5 332.909,-18.5"/>
<text text-anchor="middle" x="384.073" y="-24.5" font-family="Helvetica,sans-Serif" font-size="10.00">erpc::UartTransport</text>
</a>
</g>
</g>
<!-- Node2&#45;&gt;Node10 -->
<g id="edge9" class="edge"><title>Node2&#45;&gt;Node10</title>
<path fill="none" stroke="midnightblue" d="M268.802,-147.569C273.214,-145.356 277.367,-142.695 281.071,-139.5 314.636,-110.555 284.367,-76.4146 317.071,-46.5 321.646,-42.3151 327.086,-39.0464 332.85,-36.4943"/>
<polygon fill="midnightblue" stroke="midnightblue" points="267.298,-144.404 259.439,-151.509 270.014,-150.856 267.298,-144.404"/>
</g>
</g>
</svg>
