<?xml version="1.0" encoding="UTF-8" standalone="no"?>
<!DOCTYPE svg PUBLIC "-//W3C//DTD SVG 1.1//EN"
 "http://www.w3.org/Graphics/SVG/1.1/DTD/svg11.dtd">
<!-- Generated by graphviz version 2.38.0 (20140413.2041)
 -->
<!-- Title: erpc::RequestContext Pages: 1 -->
<svg width="242pt" height="177pt"
 viewBox="0.00 0.00 242.09 177.00" xmlns="http://www.w3.org/2000/svg" xmlns:xlink="http://www.w3.org/1999/xlink">
<g id="graph0" class="graph" transform="scale(1 1) rotate(0) translate(4 173)">
<title>erpc::RequestContext</title>
<polygon fill="white" stroke="none" points="-4,4 -4,-173 238.09,-173 238.09,4 -4,4"/>
<!-- Node1 -->
<g id="node1" class="node"><title>Node1</title>
<polygon fill="#bfbfbf" stroke="black" points="60.6855,-0.5 60.6855,-18.5 173.404,-18.5 173.404,-0.5 60.6855,-0.5"/>
<text text-anchor="middle" x="117.045" y="-6.5" font-family="Helvetica,sans-Serif" font-size="10.00">erpc::RequestContext</text>
</g>
<!-- Node2 -->
<g id="node2" class="node"><title>Node2</title>
<g id="a_node2"><a xlink:href="classerpc_1_1_codec.html" target="_top" xlink:title="Abstract serialization encoder/decoder interface. ">
<polygon fill="white" stroke="black" points="82.0869,-75.5 82.0869,-93.5 152.003,-93.5 152.003,-75.5 82.0869,-75.5"/>
<text text-anchor="middle" x="117.045" y="-81.5" font-family="Helvetica,sans-Serif" font-size="10.00">erpc::Codec</text>
</a>
</g>
</g>
<!-- Node2&#45;&gt;Node1 -->
<g id="edge1" class="edge"><title>Node2&#45;&gt;Node1</title>
<path fill="none" stroke="#9a32cd" stroke-dasharray="5,2" d="M117.045,-65.3494C117.045,-50.479 117.045,-30.1165 117.045,-18.8518"/>
<polygon fill="#9a32cd" stroke="#9a32cd" points="113.545,-65.4088 117.045,-75.4088 120.545,-65.4088 113.545,-65.4088"/>
<text text-anchor="middle" x="132.331" y="-49" font-family="Helvetica,sans-Serif" font-size="10.00"> m_out</text>
<text text-anchor="middle" x="132.331" y="-39" font-family="Helvetica,sans-Serif" font-size="10.00">m_in</text>
</g>
<!-- Node3 -->
<g id="node3" class="node"><title>Node3</title>
<g id="a_node3"><a xlink:href="classerpc_1_1_message_buffer_1_1_cursor.html" target="_top" xlink:title="Cursor within a MessageBuffer. ">
<polygon fill="white" stroke="black" points="0,-140.5 0,-168.5 108.09,-168.5 108.09,-140.5 0,-140.5"/>
<text text-anchor="start" x="8" y="-156.5" font-family="Helvetica,sans-Serif" font-size="10.00">erpc::MessageBuffer</text>
<text text-anchor="middle" x="54.0449" y="-146.5" font-family="Helvetica,sans-Serif" font-size="10.00">::Cursor</text>
</a>
</g>
</g>
<!-- Node3&#45;&gt;Node2 -->
<g id="edge2" class="edge"><title>Node3&#45;&gt;Node2</title>
<path fill="none" stroke="#9a32cd" stroke-dasharray="5,2" d="M73.2856,-132.732C85.4018,-119.654 100.385,-103.482 109.304,-93.8552"/>
<polygon fill="#9a32cd" stroke="#9a32cd" points="70.4207,-130.675 66.192,-140.389 75.5557,-135.432 70.4207,-130.675"/>
<text text-anchor="middle" x="114.271" y="-114" font-family="Helvetica,sans-Serif" font-size="10.00"> m_cursor</text>
</g>
<!-- Node4 -->
<g id="node4" class="node"><title>Node4</title>
<g id="a_node4"><a xlink:href="classerpc_1_1_message_buffer.html" target="_top" xlink:title="Represents a memory buffer containing a message. ">
<polygon fill="white" stroke="black" points="126,-145.5 126,-163.5 234.09,-163.5 234.09,-145.5 126,-145.5"/>
<text text-anchor="middle" x="180.045" y="-151.5" font-family="Helvetica,sans-Serif" font-size="10.00">erpc::MessageBuffer</text>
</a>
</g>
</g>
<!-- Node4&#45;&gt;Node2 -->
<g id="edge3" class="edge"><title>Node4&#45;&gt;Node2</title>
<path fill="none" stroke="#9a32cd" stroke-dasharray="5,2" d="M165.762,-138.084C152.945,-124.25 134.64,-104.491 124.51,-93.557"/>
<polygon fill="#9a32cd" stroke="#9a32cd" points="163.207,-140.476 172.571,-145.432 168.342,-135.718 163.207,-140.476"/>
<text text-anchor="middle" x="171.078" y="-114" font-family="Helvetica,sans-Serif" font-size="10.00"> m_buffer</text>
</g>
</g>
</svg>
