<?xml version="1.0" encoding="UTF-8" standalone="no"?>
<!DOCTYPE svg PUBLIC "-//W3C//DTD SVG 1.1//EN"
 "http://www.w3.org/Graphics/SVG/1.1/DTD/svg11.dtd">
<!-- Generated by graphviz version 2.38.0 (20140413.2041)
 -->
<!-- Title: erpc::ArbitratedClientManager Pages: 1 -->
<svg width="1166pt" height="299pt"
 viewBox="0.00 0.00 1166.43 299.00" xmlns="http://www.w3.org/2000/svg" xmlns:xlink="http://www.w3.org/1999/xlink">
<g id="graph0" class="graph" transform="scale(1 1) rotate(0) translate(4 295)">
<title>erpc::ArbitratedClientManager</title>
<polygon fill="white" stroke="none" points="-4,4 -4,-295 1162.43,-295 1162.43,4 -4,4"/>
<!-- Node1 -->
<g id="node1" class="node"><title>Node1</title>
<polygon fill="#bfbfbf" stroke="black" points="1009.03,-184.5 1009.03,-202.5 1158.43,-202.5 1158.43,-184.5 1009.03,-184.5"/>
<text text-anchor="middle" x="1083.73" y="-190.5" font-family="Helvetica,sans-Serif" font-size="10.00">erpc::ArbitratedClientManager</text>
</g>
<!-- Node2 -->
<g id="node2" class="node"><title>Node2</title>
<g id="a_node2"><a xlink:href="classerpc_1_1_client_manager.html" target="_top" xlink:title="Base client implementation. ">
<polygon fill="white" stroke="black" points="801.047,-218.5 801.047,-236.5 907.091,-236.5 907.091,-218.5 801.047,-218.5"/>
<text text-anchor="middle" x="854.069" y="-224.5" font-family="Helvetica,sans-Serif" font-size="10.00">erpc::ClientManager</text>
</a>
</g>
</g>
<!-- Node2&#45;&gt;Node1 -->
<g id="edge1" class="edge"><title>Node2&#45;&gt;Node1</title>
<path fill="none" stroke="midnightblue" d="M917.201,-218.221C949.905,-213.337 989.839,-207.373 1022.29,-202.527"/>
<polygon fill="midnightblue" stroke="midnightblue" points="916.673,-214.761 907.299,-219.7 917.707,-221.684 916.673,-214.761"/>
</g>
<!-- Node3 -->
<g id="node3" class="node"><title>Node3</title>
<g id="a_node3"><a xlink:href="classerpc_1_1_codec_factory.html" target="_top" xlink:title="Abstract interface for codec factory. ">
<polygon fill="white" stroke="black" points="542.86,-272.5 542.86,-290.5 646.116,-290.5 646.116,-272.5 542.86,-272.5"/>
<text text-anchor="middle" x="594.488" y="-278.5" font-family="Helvetica,sans-Serif" font-size="10.00">erpc::CodecFactory</text>
</a>
</g>
</g>
<!-- Node3&#45;&gt;Node2 -->
<g id="edge2" class="edge"><title>Node3&#45;&gt;Node2</title>
<path fill="none" stroke="#9a32cd" stroke-dasharray="5,2" d="M656.239,-274.43C690.94,-269.778 735.111,-262.815 773.789,-253.5 792.519,-248.989 813.186,-242.148 828.722,-236.615"/>
<polygon fill="#9a32cd" stroke="#9a32cd" points="655.714,-270.969 646.254,-275.74 656.624,-277.909 655.714,-270.969"/>
<text text-anchor="middle" x="728.496" y="-272.5" font-family="Helvetica,sans-Serif" font-size="10.00"> m_codecFactory</text>
</g>
<!-- Node4 -->
<g id="node4" class="node"><title>Node4</title>
<g id="a_node4"><a xlink:href="classerpc_1_1_transport.html" target="_top" xlink:title="Abstract interface for transport layer. ">
<polygon fill="white" stroke="black" points="552.77,-169.5 552.77,-187.5 636.207,-187.5 636.207,-169.5 552.77,-169.5"/>
<text text-anchor="middle" x="594.488" y="-175.5" font-family="Helvetica,sans-Serif" font-size="10.00">erpc::Transport</text>
</a>
</g>
</g>
<!-- Node4&#45;&gt;Node2 -->
<g id="edge3" class="edge"><title>Node4&#45;&gt;Node2</title>
<path fill="none" stroke="#9a32cd" stroke-dasharray="5,2" d="M646.403,-188.186C692.626,-196.979 760.276,-209.848 805.445,-218.44"/>
<polygon fill="#9a32cd" stroke="#9a32cd" points="646.781,-184.695 636.303,-186.264 645.472,-191.571 646.781,-184.695"/>
<text text-anchor="middle" x="728.496" y="-214.5" font-family="Helvetica,sans-Serif" font-size="10.00"> m_transport</text>
</g>
<!-- Node6 -->
<g id="node6" class="node"><title>Node6</title>
<g id="a_node6"><a xlink:href="classerpc_1_1_transport_arbitrator.html" target="_top" xlink:title="Interposer to share transport between client and server. ">
<polygon fill="white" stroke="black" points="791.789,-121.5 791.789,-139.5 916.349,-139.5 916.349,-121.5 791.789,-121.5"/>
<text text-anchor="middle" x="854.069" y="-127.5" font-family="Helvetica,sans-Serif" font-size="10.00">erpc::TransportArbitrator</text>
</a>
</g>
</g>
<!-- Node4&#45;&gt;Node6 -->
<g id="edge6" class="edge"><title>Node4&#45;&gt;Node6</title>
<path fill="none" stroke="midnightblue" d="M646.719,-178.879C682.741,-178.084 731.808,-174.851 773.789,-164.5 796.327,-158.943 820.636,-147.651 836.31,-139.606"/>
<polygon fill="midnightblue" stroke="midnightblue" points="646.393,-175.384 636.452,-179.048 646.508,-182.383 646.393,-175.384"/>
</g>
<!-- Node4&#45;&gt;Node6 -->
<g id="edge11" class="edge"><title>Node4&#45;&gt;Node6</title>
<path fill="none" stroke="#9a32cd" stroke-dasharray="5,2" d="M632.989,-166.535C648.419,-161.947 666.547,-156.983 683.203,-153.5 718.887,-146.039 759.316,-140.452 791.777,-136.654"/>
<polygon fill="#9a32cd" stroke="#9a32cd" points="631.837,-163.226 623.281,-169.476 633.867,-169.926 631.837,-163.226"/>
<text text-anchor="middle" x="728.496" y="-155.5" font-family="Helvetica,sans-Serif" font-size="10.00"> m_sharedTransport</text>
</g>
<!-- Node5 -->
<g id="node5" class="node"><title>Node5</title>
<g id="a_node5"><a xlink:href="classerpc_1_1_message_buffer_factory.html" target="_top" xlink:title="Abstract interface for message buffer factory. ">
<polygon fill="white" stroke="black" points="523.773,-235.5 523.773,-253.5 665.203,-253.5 665.203,-235.5 523.773,-235.5"/>
<text text-anchor="middle" x="594.488" y="-241.5" font-family="Helvetica,sans-Serif" font-size="10.00">erpc::MessageBufferFactory</text>
</a>
</g>
</g>
<!-- Node5&#45;&gt;Node2 -->
<g id="edge4" class="edge"><title>Node5&#45;&gt;Node2</title>
<path fill="none" stroke="#9a32cd" stroke-dasharray="5,2" d="M675.743,-239.203C716.597,-236.507 765.083,-233.307 801.02,-230.935"/>
<polygon fill="#9a32cd" stroke="#9a32cd" points="675.281,-235.726 665.533,-239.877 675.742,-242.711 675.281,-235.726"/>
<text text-anchor="middle" x="728.496" y="-241.5" font-family="Helvetica,sans-Serif" font-size="10.00"> m_messageFactory</text>
</g>
<!-- Node6&#45;&gt;Node1 -->
<g id="edge5" class="edge"><title>Node6&#45;&gt;Node1</title>
<path fill="none" stroke="#9a32cd" stroke-dasharray="5,2" d="M897.558,-142.258C941.774,-154.493 1010.05,-173.387 1050.17,-184.49"/>
<polygon fill="#9a32cd" stroke="#9a32cd" points="898.259,-138.82 887.687,-139.526 896.392,-145.567 898.259,-138.82"/>
<text text-anchor="middle" x="962.691" y="-170.5" font-family="Helvetica,sans-Serif" font-size="10.00"> m_arbitrator</text>
</g>
<!-- Node7 -->
<g id="node7" class="node"><title>Node7</title>
<g id="a_node7"><a xlink:href="classerpc_1_1_mutex.html" target="_top" xlink:title="Simple mutex class. ">
<polygon fill="white" stroke="black" points="560.368,-114.5 560.368,-132.5 628.609,-132.5 628.609,-114.5 560.368,-114.5"/>
<text text-anchor="middle" x="594.488" y="-120.5" font-family="Helvetica,sans-Serif" font-size="10.00">erpc::Mutex</text>
</a>
</g>
</g>
<!-- Node7&#45;&gt;Node6 -->
<g id="edge7" class="edge"><title>Node7&#45;&gt;Node6</title>
<path fill="none" stroke="#9a32cd" stroke-dasharray="5,2" d="M638.898,-121.373C675.025,-119.997 727.795,-118.898 773.789,-121.5 779.598,-121.829 785.634,-122.292 791.668,-122.836"/>
<polygon fill="#9a32cd" stroke="#9a32cd" points="638.559,-117.884 628.709,-121.785 638.842,-124.878 638.559,-117.884"/>
<text text-anchor="middle" x="728.496" y="-123.5" font-family="Helvetica,sans-Serif" font-size="10.00"> m_clientListMutex</text>
</g>
<!-- Node8 -->
<g id="node8" class="node"><title>Node8</title>
<g id="a_node8"><a xlink:href="classerpc_1_1_codec.html" target="_top" xlink:title="Abstract serialization encoder/decoder interface. ">
<polygon fill="white" stroke="black" points="188.543,-48.5 188.543,-66.5 258.459,-66.5 258.459,-48.5 188.543,-48.5"/>
<text text-anchor="middle" x="223.501" y="-54.5" font-family="Helvetica,sans-Serif" font-size="10.00">erpc::Codec</text>
</a>
</g>
</g>
<!-- Node8&#45;&gt;Node6 -->
<g id="edge8" class="edge"><title>Node8&#45;&gt;Node6</title>
<path fill="none" stroke="#9a32cd" stroke-dasharray="5,2" d="M268.698,-64.4673C271.322,-64.8305 273.924,-65.1779 276.459,-65.5 448.717,-87.3865 492.517,-86.2964 665.203,-104.5 713.49,-109.59 725.726,-109.608 773.789,-116.5 783.889,-117.948 794.675,-119.709 804.935,-121.486"/>
<polygon fill="#9a32cd" stroke="#9a32cd" points="268.959,-60.969 258.562,-63.0076 267.961,-67.8975 268.959,-60.969"/>
<text text-anchor="middle" x="480.761" y="-91.5" font-family="Helvetica,sans-Serif" font-size="10.00"> m_codec</text>
</g>
<!-- Node13 -->
<g id="node13" class="node"><title>Node13</title>
<g id="a_node13"><a xlink:href="classerpc_1_1_request_context.html" target="_top" xlink:title="Encapsulates all information about a request. ">
<polygon fill="white" stroke="black" points="325.03,-1.5 325.03,-19.5 437.749,-19.5 437.749,-1.5 325.03,-1.5"/>
<text text-anchor="middle" x="381.39" y="-7.5" font-family="Helvetica,sans-Serif" font-size="10.00">erpc::RequestContext</text>
</a>
</g>
</g>
<!-- Node8&#45;&gt;Node13 -->
<g id="edge16" class="edge"><title>Node8&#45;&gt;Node13</title>
<path fill="none" stroke="#9a32cd" stroke-dasharray="5,2" d="M264.405,-45.4692C291.212,-37.3867 325.974,-26.9063 350.425,-19.5343"/>
<polygon fill="#9a32cd" stroke="#9a32cd" points="263.122,-42.2002 254.558,-48.4379 265.143,-48.9022 263.122,-42.2002"/>
<text text-anchor="middle" x="291.745" y="-53.5" font-family="Helvetica,sans-Serif" font-size="10.00"> m_out</text>
<text text-anchor="middle" x="291.745" y="-43.5" font-family="Helvetica,sans-Serif" font-size="10.00">m_in</text>
</g>
<!-- Node9 -->
<g id="node9" class="node"><title>Node9</title>
<g id="a_node9"><a xlink:href="classerpc_1_1_message_buffer_1_1_cursor.html" target="_top" xlink:title="Cursor within a MessageBuffer. ">
<polygon fill="white" stroke="black" points="0,-64.5 0,-92.5 108.09,-92.5 108.09,-64.5 0,-64.5"/>
<text text-anchor="start" x="8" y="-80.5" font-family="Helvetica,sans-Serif" font-size="10.00">erpc::MessageBuffer</text>
<text text-anchor="middle" x="54.0449" y="-70.5" font-family="Helvetica,sans-Serif" font-size="10.00">::Cursor</text>
</a>
</g>
</g>
<!-- Node9&#45;&gt;Node8 -->
<g id="edge9" class="edge"><title>Node9&#45;&gt;Node8</title>
<path fill="none" stroke="#9a32cd" stroke-dasharray="5,2" d="M118.515,-70.5405C142.296,-67.5582 168.396,-64.2851 188.499,-61.7641"/>
<polygon fill="#9a32cd" stroke="#9a32cd" points="117.976,-67.0805 108.489,-71.7977 118.847,-74.0261 117.976,-67.0805"/>
<text text-anchor="middle" x="148.316" y="-71.5" font-family="Helvetica,sans-Serif" font-size="10.00"> m_cursor</text>
</g>
<!-- Node10 -->
<g id="node10" class="node"><title>Node10</title>
<g id="a_node10"><a xlink:href="classerpc_1_1_message_buffer.html" target="_top" xlink:title="Represents a memory buffer containing a message. ">
<polygon fill="white" stroke="black" points="0,-27.5 0,-45.5 108.09,-45.5 108.09,-27.5 0,-27.5"/>
<text text-anchor="middle" x="54.0449" y="-33.5" font-family="Helvetica,sans-Serif" font-size="10.00">erpc::MessageBuffer</text>
</a>
</g>
</g>
<!-- Node10&#45;&gt;Node8 -->
<g id="edge10" class="edge"><title>Node10&#45;&gt;Node8</title>
<path fill="none" stroke="#9a32cd" stroke-dasharray="5,2" d="M118.574,-44.0467C135.469,-46.0959 153.702,-48.345 170.543,-50.5 176.321,-51.2394 182.458,-52.0466 188.412,-52.8415"/>
<polygon fill="#9a32cd" stroke="#9a32cd" points="118.599,-40.5244 108.251,-42.7993 117.759,-47.4738 118.599,-40.5244"/>
<text text-anchor="middle" x="148.316" y="-52.5" font-family="Helvetica,sans-Serif" font-size="10.00"> m_buffer</text>
</g>
<!-- Node11 -->
<g id="node11" class="node"><title>Node11</title>
<g id="a_node11"><a xlink:href="structerpc_1_1_transport_arbitrator_1_1_pending_client_info.html" target="_top" xlink:title="Request info for a client trying to receive a response. ">
<polygon fill="white" stroke="black" points="532.208,-0.5 532.208,-28.5 656.768,-28.5 656.768,-0.5 532.208,-0.5"/>
<text text-anchor="start" x="540.208" y="-16.5" font-family="Helvetica,sans-Serif" font-size="10.00">erpc::TransportArbitrator</text>
<text text-anchor="middle" x="594.488" y="-6.5" font-family="Helvetica,sans-Serif" font-size="10.00">::PendingClientInfo</text>
</a>
</g>
</g>
<!-- Node11&#45;&gt;Node6 -->
<g id="edge12" class="edge"><title>Node11&#45;&gt;Node6</title>
<path fill="none" stroke="#9a32cd" stroke-dasharray="5,2" d="M667.382,-19.8754C701.247,-24.7365 741.251,-33.9718 773.789,-51.5 806.634,-69.1931 834.806,-104.784 846.84,-121.474"/>
<polygon fill="#9a32cd" stroke="#9a32cd" points="667.459,-16.3548 657.085,-18.5029 666.535,-23.2934 667.459,-16.3548"/>
<text text-anchor="middle" x="728.496" y="-63.5" font-family="Helvetica,sans-Serif" font-size="10.00"> m_clientFreeList</text>
<text text-anchor="middle" x="728.496" y="-53.5" font-family="Helvetica,sans-Serif" font-size="10.00">m_clientList</text>
</g>
<!-- Node11&#45;&gt;Node11 -->
<g id="edge14" class="edge"><title>Node11&#45;&gt;Node11</title>
<path fill="none" stroke="#9a32cd" stroke-dasharray="5,2" d="M574.242,-38.4873C576.392,-43.4413 583.141,-47 594.488,-47 612.645,-47 619.028,-37.8898 613.637,-28.5305"/>
<polygon fill="#9a32cd" stroke="#9a32cd" points="577.723,-38.8537 575.339,-28.5305 570.765,-38.087 577.723,-38.8537"/>
<text text-anchor="middle" x="594.488" y="-49" font-family="Helvetica,sans-Serif" font-size="10.00"> m_next</text>
</g>
<!-- Node12 -->
<g id="node12" class="node"><title>Node12</title>
<g id="a_node12"><a xlink:href="classerpc_1_1_semaphore.html" target="_top" xlink:title="Simple semaphore class. ">
<polygon fill="white" stroke="black" points="335.035,-38.5 335.035,-56.5 427.744,-56.5 427.744,-38.5 335.035,-38.5"/>
<text text-anchor="middle" x="381.39" y="-44.5" font-family="Helvetica,sans-Serif" font-size="10.00">erpc::Semaphore</text>
</a>
</g>
</g>
<!-- Node12&#45;&gt;Node11 -->
<g id="edge13" class="edge"><title>Node12&#45;&gt;Node11</title>
<path fill="none" stroke="#9a32cd" stroke-dasharray="5,2" d="M437.873,-38.8265C466.796,-34.3051 502.248,-28.7632 532.004,-24.1116"/>
<polygon fill="#9a32cd" stroke="#9a32cd" points="437.274,-35.3775 427.935,-40.3801 438.356,-42.2935 437.274,-35.3775"/>
<text text-anchor="middle" x="480.761" y="-38.5" font-family="Helvetica,sans-Serif" font-size="10.00"> m_sem</text>
</g>
<!-- Node13&#45;&gt;Node11 -->
<g id="edge15" class="edge"><title>Node13&#45;&gt;Node11</title>
<path fill="none" stroke="#9a32cd" stroke-dasharray="5,2" d="M447.926,-11.7418C474.774,-12.2505 505.674,-12.8361 532.08,-13.3364"/>
<polygon fill="#9a32cd" stroke="#9a32cd" points="447.918,-8.24113 437.853,-11.551 447.785,-15.2399 447.918,-8.24113"/>
<text text-anchor="middle" x="480.761" y="-15.5" font-family="Helvetica,sans-Serif" font-size="10.00"> m_request</text>
</g>
</g>
</svg>
