<?xml version="1.0" encoding="UTF-8" standalone="no"?>
<!DOCTYPE svg PUBLIC "-//W3C//DTD SVG 1.1//EN"
 "http://www.w3.org/Graphics/SVG/1.1/DTD/svg11.dtd">
<!-- Generated by graphviz version 2.38.0 (20140413.2041)
 -->
<!-- Title: dspi_master_transport.h Pages: 1 -->
<svg width="505pt" height="247pt"
 viewBox="0.00 0.00 505.04 247.00" xmlns="http://www.w3.org/2000/svg" xmlns:xlink="http://www.w3.org/1999/xlink">
<g id="graph0" class="graph" transform="scale(1 1) rotate(0) translate(4 243)">
<title>dspi_master_transport.h</title>
<polygon fill="white" stroke="none" points="-4,4 -4,-243 501.042,-243 501.042,4 -4,4"/>
<!-- Node1 -->
<g id="node1" class="node"><title>Node1</title>
<polygon fill="#bfbfbf" stroke="black" points="53.9263,-220.5 53.9263,-238.5 177.758,-238.5 177.758,-220.5 53.9263,-220.5"/>
<text text-anchor="middle" x="115.842" y="-226.5" font-family="Helvetica,sans-Serif" font-size="10.00">dspi_master_transport.h</text>
</g>
<!-- Node2 -->
<g id="node2" class="node"><title>Node2</title>
<polygon fill="white" stroke="#bfbfbf" points="0,-165.5 0,-183.5 47.6846,-183.5 47.6846,-165.5 0,-165.5"/>
<text text-anchor="middle" x="23.8423" y="-171.5" font-family="Helvetica,sans-Serif" font-size="10.00">stdlib.h</text>
</g>
<!-- Node1&#45;&gt;Node2 -->
<g id="edge1" class="edge"><title>Node1&#45;&gt;Node2</title>
<path fill="none" stroke="midnightblue" d="M101.869,-220.45C87.2795,-212.045 64.1559,-198.724 46.8628,-188.762"/>
<polygon fill="midnightblue" stroke="midnightblue" points="48.3587,-185.584 37.9466,-183.625 44.8645,-191.65 48.3587,-185.584"/>
</g>
<!-- Node3 -->
<g id="node3" class="node"><title>Node3</title>
<g id="a_node3"><a xlink:href="framed__transport_8h.html" target="_top" xlink:title="framed_transport.h">
<polygon fill="white" stroke="black" points="65.5986,-165.5 65.5986,-183.5 166.086,-183.5 166.086,-165.5 65.5986,-165.5"/>
<text text-anchor="middle" x="115.842" y="-171.5" font-family="Helvetica,sans-Serif" font-size="10.00">framed_transport.h</text>
</a>
</g>
</g>
<!-- Node1&#45;&gt;Node3 -->
<g id="edge2" class="edge"><title>Node1&#45;&gt;Node3</title>
<path fill="none" stroke="midnightblue" d="M115.842,-220.219C115.842,-213.177 115.842,-202.808 115.842,-193.828"/>
<polygon fill="midnightblue" stroke="midnightblue" points="119.342,-193.55 115.842,-183.55 112.342,-193.55 119.342,-193.55"/>
</g>
<!-- Node13 -->
<g id="node13" class="node"><title>Node13</title>
<polygon fill="white" stroke="#bfbfbf" points="183.719,-165.5 183.719,-183.5 241.965,-183.5 241.965,-165.5 183.719,-165.5"/>
<text text-anchor="middle" x="212.842" y="-171.5" font-family="Helvetica,sans-Serif" font-size="10.00">fsl_dspi.h</text>
</g>
<!-- Node1&#45;&gt;Node13 -->
<g id="edge18" class="edge"><title>Node1&#45;&gt;Node13</title>
<path fill="none" stroke="midnightblue" d="M130.574,-220.45C146.1,-211.968 170.79,-198.477 189.076,-188.486"/>
<polygon fill="midnightblue" stroke="midnightblue" points="190.874,-191.492 197.971,-183.625 187.518,-185.349 190.874,-191.492"/>
</g>
<!-- Node4 -->
<g id="node4" class="node"><title>Node4</title>
<polygon fill="white" stroke="#bfbfbf" points="154.722,-0.5 154.722,-18.5 202.963,-18.5 202.963,-0.5 154.722,-0.5"/>
<text text-anchor="middle" x="178.842" y="-6.5" font-family="Helvetica,sans-Serif" font-size="10.00">stdint.h</text>
</g>
<!-- Node3&#45;&gt;Node4 -->
<g id="edge3" class="edge"><title>Node3&#45;&gt;Node4</title>
<path fill="none" stroke="midnightblue" d="M100.566,-165.231C67.0229,-146.019 -7.65656,-96.8145 23.8423,-55 38.3621,-35.725 103.614,-22.2303 144.688,-15.4715"/>
<polygon fill="midnightblue" stroke="midnightblue" points="145.239,-18.928 154.564,-13.8989 144.138,-12.0151 145.239,-18.928"/>
</g>
<!-- Node5 -->
<g id="node5" class="node"><title>Node5</title>
<polygon fill="white" stroke="#bfbfbf" points="33.1157,-55.5 33.1157,-73.5 78.5688,-73.5 78.5688,-55.5 33.1157,-55.5"/>
<text text-anchor="middle" x="55.8423" y="-61.5" font-family="Helvetica,sans-Serif" font-size="10.00">cstring</text>
</g>
<!-- Node3&#45;&gt;Node5 -->
<g id="edge4" class="edge"><title>Node3&#45;&gt;Node5</title>
<path fill="none" stroke="midnightblue" d="M106.028,-165.27C96.7478,-156.994 83.0549,-143.424 74.8423,-129 66.8273,-114.924 61.882,-97.1282 59.0538,-83.9596"/>
<polygon fill="midnightblue" stroke="midnightblue" points="62.4223,-82.943 57.0896,-73.788 55.5492,-84.2703 62.4223,-82.943"/>
</g>
<!-- Node6 -->
<g id="node6" class="node"><title>Node6</title>
<g id="a_node6"><a xlink:href="transport_8h.html" target="_top" xlink:title="transport.h">
<polygon fill="white" stroke="black" points="83.9409,-110.5 83.9409,-128.5 147.744,-128.5 147.744,-110.5 83.9409,-110.5"/>
<text text-anchor="middle" x="115.842" y="-116.5" font-family="Helvetica,sans-Serif" font-size="10.00">transport.h</text>
</a>
</g>
</g>
<!-- Node3&#45;&gt;Node6 -->
<g id="edge5" class="edge"><title>Node3&#45;&gt;Node6</title>
<path fill="none" stroke="midnightblue" d="M115.842,-165.219C115.842,-158.177 115.842,-147.808 115.842,-138.828"/>
<polygon fill="midnightblue" stroke="midnightblue" points="119.342,-138.55 115.842,-128.55 112.342,-138.55 119.342,-138.55"/>
</g>
<!-- Node8 -->
<g id="node8" class="node"><title>Node8</title>
<g id="a_node8"><a xlink:href="message__buffer_8h.html" target="_top" xlink:title="message_buffer.h">
<polygon fill="white" stroke="black" points="181.179,-110.5 181.179,-128.5 276.505,-128.5 276.505,-110.5 181.179,-110.5"/>
<text text-anchor="middle" x="228.842" y="-116.5" font-family="Helvetica,sans-Serif" font-size="10.00">message_buffer.h</text>
</a>
</g>
</g>
<!-- Node3&#45;&gt;Node8 -->
<g id="edge10" class="edge"><title>Node3&#45;&gt;Node8</title>
<path fill="none" stroke="midnightblue" d="M133.005,-165.45C151.423,-156.812 180.913,-142.98 202.32,-132.94"/>
<polygon fill="midnightblue" stroke="midnightblue" points="203.951,-136.041 211.519,-128.625 200.979,-129.703 203.951,-136.041"/>
</g>
<!-- Node10 -->
<g id="node10" class="node"><title>Node10</title>
<g id="a_node10"><a xlink:href="erpc__threading_8h.html" target="_top" xlink:title="erpc_threading.h">
<polygon fill="white" stroke="black" points="309.315,-110.5 309.315,-128.5 400.369,-128.5 400.369,-110.5 309.315,-110.5"/>
<text text-anchor="middle" x="354.842" y="-116.5" font-family="Helvetica,sans-Serif" font-size="10.00">erpc_threading.h</text>
</a>
</g>
</g>
<!-- Node3&#45;&gt;Node10 -->
<g id="edge14" class="edge"><title>Node3&#45;&gt;Node10</title>
<path fill="none" stroke="midnightblue" d="M152.141,-165.45C194.025,-156.162 262.981,-140.871 308.653,-130.743"/>
<polygon fill="midnightblue" stroke="midnightblue" points="309.589,-134.12 318.594,-128.538 308.073,-127.286 309.589,-134.12"/>
</g>
<!-- Node6&#45;&gt;Node4 -->
<g id="edge6" class="edge"><title>Node6&#45;&gt;Node4</title>
<path fill="none" stroke="midnightblue" d="M115.373,-110.499C114.994,-97.8609 115.741,-72.8785 125.842,-55 132.861,-42.5781 144.772,-32.1052 155.527,-24.4461"/>
<polygon fill="midnightblue" stroke="midnightblue" points="157.777,-27.1524 164.156,-18.6931 153.894,-21.3281 157.777,-27.1524"/>
</g>
<!-- Node6&#45;&gt;Node5 -->
<g id="edge7" class="edge"><title>Node6&#45;&gt;Node5</title>
<path fill="none" stroke="midnightblue" d="M106.73,-110.45C97.743,-102.512 83.7922,-90.1891 72.769,-80.4519"/>
<polygon fill="midnightblue" stroke="midnightblue" points="74.8526,-77.6225 65.0408,-73.6253 70.2184,-82.8689 74.8526,-77.6225"/>
</g>
<!-- Node7 -->
<g id="node7" class="node"><title>Node7</title>
<g id="a_node7"><a xlink:href="erpc__common_8h_source.html" target="_top" xlink:title="erpc_common.h">
<polygon fill="white" stroke="black" points="134.993,-55.5 134.993,-73.5 222.692,-73.5 222.692,-55.5 134.993,-55.5"/>
<text text-anchor="middle" x="178.842" y="-61.5" font-family="Helvetica,sans-Serif" font-size="10.00">erpc_common.h</text>
</a>
</g>
</g>
<!-- Node6&#45;&gt;Node7 -->
<g id="edge8" class="edge"><title>Node6&#45;&gt;Node7</title>
<path fill="none" stroke="midnightblue" d="M125.411,-110.45C134.939,-102.434 149.783,-89.9471 161.409,-80.1663"/>
<polygon fill="midnightblue" stroke="midnightblue" points="163.785,-82.7413 169.184,-73.6253 159.278,-77.3847 163.785,-82.7413"/>
</g>
<!-- Node7&#45;&gt;Node4 -->
<g id="edge9" class="edge"><title>Node7&#45;&gt;Node4</title>
<path fill="none" stroke="midnightblue" d="M178.842,-55.2188C178.842,-48.1769 178.842,-37.8083 178.842,-28.8277"/>
<polygon fill="midnightblue" stroke="midnightblue" points="182.342,-28.5495 178.842,-18.5496 175.342,-28.5496 182.342,-28.5495"/>
</g>
<!-- Node8&#45;&gt;Node4 -->
<g id="edge12" class="edge"><title>Node8&#45;&gt;Node4</title>
<path fill="none" stroke="midnightblue" d="M231.577,-110.214C235.232,-97.6203 240.328,-73.206 231.842,-55 225.794,-42.025 213.895,-31.4882 202.902,-23.9306"/>
<polygon fill="midnightblue" stroke="midnightblue" points="204.723,-20.9408 194.408,-18.5187 200.961,-26.8442 204.723,-20.9408"/>
</g>
<!-- Node8&#45;&gt;Node7 -->
<g id="edge11" class="edge"><title>Node8&#45;&gt;Node7</title>
<path fill="none" stroke="midnightblue" d="M221.03,-110.219C213.648,-102.394 202.392,-90.4631 193.363,-80.8921"/>
<polygon fill="midnightblue" stroke="midnightblue" points="195.844,-78.4217 186.436,-73.5496 190.753,-83.2253 195.844,-78.4217"/>
</g>
<!-- Node9 -->
<g id="node9" class="node"><title>Node9</title>
<polygon fill="white" stroke="#bfbfbf" points="278.722,-55.5 278.722,-73.5 326.963,-73.5 326.963,-55.5 278.722,-55.5"/>
<text text-anchor="middle" x="302.842" y="-61.5" font-family="Helvetica,sans-Serif" font-size="10.00">cstddef</text>
</g>
<!-- Node8&#45;&gt;Node9 -->
<g id="edge13" class="edge"><title>Node8&#45;&gt;Node9</title>
<path fill="none" stroke="midnightblue" d="M240.081,-110.45C251.491,-102.279 269.388,-89.4604 283.156,-79.5996"/>
<polygon fill="midnightblue" stroke="midnightblue" points="285.406,-82.2936 291.498,-73.6253 281.33,-76.6027 285.406,-82.2936"/>
</g>
<!-- Node10&#45;&gt;Node4 -->
<g id="edge17" class="edge"><title>Node10&#45;&gt;Node4</title>
<path fill="none" stroke="midnightblue" d="M354.777,-110.223C354.209,-96.7375 351.086,-70.0241 335.842,-55 303.11,-22.7401 248.82,-13.496 213.436,-11.0525"/>
<polygon fill="midnightblue" stroke="midnightblue" points="213.28,-7.53906 203.106,-10.4945 212.903,-14.5289 213.28,-7.53906"/>
</g>
<!-- Node11 -->
<g id="node11" class="node"><title>Node11</title>
<g id="a_node11"><a xlink:href="erpc__config__internal_8h_source.html" target="_top" xlink:title="erpc_config_internal.h">
<polygon fill="white" stroke="black" points="382.643,-55.5 382.643,-73.5 497.042,-73.5 497.042,-55.5 382.643,-55.5"/>
<text text-anchor="middle" x="439.842" y="-61.5" font-family="Helvetica,sans-Serif" font-size="10.00">erpc_config_internal.h</text>
</a>
</g>
</g>
<!-- Node10&#45;&gt;Node11 -->
<g id="edge15" class="edge"><title>Node10&#45;&gt;Node11</title>
<path fill="none" stroke="midnightblue" d="M367.752,-110.45C381.107,-102.123 402.201,-88.9704 418.128,-79.0394"/>
<polygon fill="midnightblue" stroke="midnightblue" points="420.177,-81.8863 426.811,-73.6253 416.474,-75.9464 420.177,-81.8863"/>
</g>
<!-- Node12 -->
<g id="node12" class="node"><title>Node12</title>
<g id="a_node12"><a xlink:href="erpc__config_8h.html" target="_top" xlink:title="erpc_config.h">
<polygon fill="white" stroke="black" points="401.823,-0.5 401.823,-18.5 477.862,-18.5 477.862,-0.5 401.823,-0.5"/>
<text text-anchor="middle" x="439.842" y="-6.5" font-family="Helvetica,sans-Serif" font-size="10.00">erpc_config.h</text>
</a>
</g>
</g>
<!-- Node11&#45;&gt;Node12 -->
<g id="edge16" class="edge"><title>Node11&#45;&gt;Node12</title>
<path fill="none" stroke="midnightblue" d="M439.842,-55.2188C439.842,-48.1769 439.842,-37.8083 439.842,-28.8277"/>
<polygon fill="midnightblue" stroke="midnightblue" points="443.342,-28.5495 439.842,-18.5496 436.342,-28.5496 443.342,-28.5495"/>
</g>
</g>
</svg>
