<?xml version="1.0" encoding="UTF-8" standalone="no"?>
<!DOCTYPE svg PUBLIC "-//W3C//DTD SVG 1.1//EN"
 "http://www.w3.org/Graphics/SVG/1.1/DTD/svg11.dtd">
<!-- Generated by graphviz version 2.38.0 (20140413.2041)
 -->
<!-- Title: erpc_arbitrated_client_setup.h Pages: 1 -->
<svg width="177pt" height="147pt"
 viewBox="0.00 0.00 176.54 147.00" xmlns="http://www.w3.org/2000/svg" xmlns:xlink="http://www.w3.org/1999/xlink">
<g id="graph0" class="graph" transform="scale(1 1) rotate(0) translate(4 143)">
<title>erpc_arbitrated_client_setup.h</title>
<polygon fill="white" stroke="none" points="-4,4 -4,-143 172.542,-143 172.542,4 -4,4"/>
<!-- Node1 -->
<g id="node1" class="node"><title>Node1</title>
<polygon fill="#bfbfbf" stroke="black" points="9.03711,-110.5 9.03711,-138.5 121.204,-138.5 121.204,-110.5 9.03711,-110.5"/>
<text text-anchor="start" x="17.0371" y="-126.5" font-family="Helvetica,sans-Serif" font-size="10.00">erpc_arbitrated_client</text>
<text text-anchor="middle" x="65.1206" y="-116.5" font-family="Helvetica,sans-Serif" font-size="10.00">_setup.h</text>
</g>
<!-- Node2 -->
<g id="node2" class="node"><title>Node2</title>
<polygon fill="white" stroke="#bfbfbf" points="0,-0.5 0,-18.5 48.2412,-18.5 48.2412,-0.5 0,-0.5"/>
<text text-anchor="middle" x="24.1206" y="-6.5" font-family="Helvetica,sans-Serif" font-size="10.00">stdint.h</text>
</g>
<!-- Node1&#45;&gt;Node2 -->
<g id="edge1" class="edge"><title>Node1&#45;&gt;Node2</title>
<path fill="none" stroke="midnightblue" d="M57.8974,-110.355C52.7204,-100.549 45.8539,-86.709 41.1206,-74 35.5753,-59.1107 31.0337,-41.636 28.0441,-28.7913"/>
<polygon fill="midnightblue" stroke="midnightblue" points="31.4255,-27.8736 25.8302,-18.8767 24.5937,-29.3992 31.4255,-27.8736"/>
</g>
<!-- Node3 -->
<g id="node3" class="node"><title>Node3</title>
<g id="a_node3"><a xlink:href="erpc__transport__setup_8h.html" target="_top" xlink:title="erpc_transport_setup.h">
<polygon fill="white" stroke="black" points="49.6997,-55.5 49.6997,-73.5 168.542,-73.5 168.542,-55.5 49.6997,-55.5"/>
<text text-anchor="middle" x="109.121" y="-61.5" font-family="Helvetica,sans-Serif" font-size="10.00">erpc_transport_setup.h</text>
</a>
</g>
</g>
<!-- Node1&#45;&gt;Node3 -->
<g id="edge2" class="edge"><title>Node1&#45;&gt;Node3</title>
<path fill="none" stroke="midnightblue" d="M75.1049,-110.339C81.4944,-101.916 89.8345,-90.9226 96.6572,-81.929"/>
<polygon fill="midnightblue" stroke="midnightblue" points="99.5902,-83.8538 102.846,-73.7715 94.0134,-79.623 99.5902,-83.8538"/>
</g>
<!-- Node3&#45;&gt;Node2 -->
<g id="edge4" class="edge"><title>Node3&#45;&gt;Node2</title>
<path fill="none" stroke="midnightblue" d="M96.2109,-55.4504C82.8559,-47.1232 61.7618,-33.9704 45.8348,-24.0394"/>
<polygon fill="midnightblue" stroke="midnightblue" points="47.4892,-20.9464 37.1518,-18.6253 43.7855,-26.8863 47.4892,-20.9464"/>
</g>
<!-- Node4 -->
<g id="node4" class="node"><title>Node4</title>
<g id="a_node4"><a xlink:href="erpc__version_8h_source.html" target="_top" xlink:title="erpc_version.h">
<polygon fill="white" stroke="black" points="68.3252,-0.5 68.3252,-18.5 149.916,-18.5 149.916,-0.5 68.3252,-0.5"/>
<text text-anchor="middle" x="109.121" y="-6.5" font-family="Helvetica,sans-Serif" font-size="10.00">erpc_version.h</text>
</a>
</g>
</g>
<!-- Node3&#45;&gt;Node4 -->
<g id="edge3" class="edge"><title>Node3&#45;&gt;Node4</title>
<path fill="none" stroke="midnightblue" d="M109.121,-55.2188C109.121,-48.1769 109.121,-37.8083 109.121,-28.8277"/>
<polygon fill="midnightblue" stroke="midnightblue" points="112.621,-28.5495 109.121,-18.5496 105.621,-28.5496 112.621,-28.5495"/>
</g>
</g>
</svg>
