<?xml version="1.0" encoding="UTF-8" standalone="no"?>
<!DOCTYPE svg PUBLIC "-//W3C//DTD SVG 1.1//EN"
 "http://www.w3.org/Graphics/SVG/1.1/DTD/svg11.dtd">
<!-- Generated by graphviz version 2.38.0 (20140413.2041)
 -->
<!-- Title: erpc_threading.h Pages: 1 -->
<svg width="961pt" height="147pt"
 viewBox="0.00 0.00 961.27 147.00" xmlns="http://www.w3.org/2000/svg" xmlns:xlink="http://www.w3.org/1999/xlink">
<g id="graph0" class="graph" transform="scale(1 1) rotate(0) translate(4 143)">
<title>erpc_threading.h</title>
<polygon fill="white" stroke="none" points="-4,4 -4,-143 957.268,-143 957.268,4 -4,4"/>
<!-- Node1 -->
<g id="node1" class="node"><title>Node1</title>
<polygon fill="#bfbfbf" stroke="black" points="552.389,-120.5 552.389,-138.5 643.443,-138.5 643.443,-120.5 552.389,-120.5"/>
<text text-anchor="middle" x="597.916" y="-126.5" font-family="Helvetica,sans-Serif" font-size="10.00">erpc_threading.h</text>
</g>
<!-- Node2 -->
<g id="node2" class="node"><title>Node2</title>
<g id="a_node2"><a xlink:href="transport__arbitrator_8h.html" target="_top" xlink:title="transport_arbitrator.h">
<polygon fill="white" stroke="black" points="381.5,-60.5 381.5,-78.5 490.332,-78.5 490.332,-60.5 381.5,-60.5"/>
<text text-anchor="middle" x="435.916" y="-66.5" font-family="Helvetica,sans-Serif" font-size="10.00">transport_arbitrator.h</text>
</a>
</g>
</g>
<!-- Node1&#45;&gt;Node2 -->
<g id="edge1" class="edge"><title>Node1&#45;&gt;Node2</title>
<path fill="none" stroke="midnightblue" d="M565.7,-116.966C533.993,-105.614 486.393,-88.572 458.511,-78.5894"/>
<polygon fill="midnightblue" stroke="midnightblue" points="564.796,-120.36 575.391,-120.435 567.156,-113.769 564.796,-120.36"/>
</g>
<!-- Node3 -->
<g id="node3" class="node"><title>Node3</title>
<g id="a_node3"><a xlink:href="framed__transport_8h.html" target="_top" xlink:title="framed_transport.h">
<polygon fill="white" stroke="black" points="508.672,-60.5 508.672,-78.5 609.16,-78.5 609.16,-60.5 508.672,-60.5"/>
<text text-anchor="middle" x="558.916" y="-66.5" font-family="Helvetica,sans-Serif" font-size="10.00">framed_transport.h</text>
</a>
</g>
</g>
<!-- Node1&#45;&gt;Node3 -->
<g id="edge2" class="edge"><title>Node1&#45;&gt;Node3</title>
<path fill="none" stroke="midnightblue" d="M586.734,-111.87C579.476,-101.076 570.325,-87.4673 564.545,-78.8718"/>
<polygon fill="midnightblue" stroke="midnightblue" points="584.009,-114.09 592.493,-120.435 589.818,-110.184 584.009,-114.09"/>
</g>
<!-- Node10 -->
<g id="node10" class="node"><title>Node10</title>
<g id="a_node10"><a xlink:href="tcp__transport_8h.html" target="_top" xlink:title="tcp_transport.h">
<polygon fill="white" stroke="black" points="870.564,-0.5 870.564,-18.5 953.268,-18.5 953.268,-0.5 870.564,-0.5"/>
<text text-anchor="middle" x="911.916" y="-6.5" font-family="Helvetica,sans-Serif" font-size="10.00">tcp_transport.h</text>
</a>
</g>
</g>
<!-- Node1&#45;&gt;Node10 -->
<g id="edge12" class="edge"><title>Node1&#45;&gt;Node10</title>
<path fill="none" stroke="midnightblue" d="M606.453,-111.555C616.041,-94.3877 633.271,-68.4947 655.916,-55 658.22,-53.627 798.486,-29.7177 870.385,-17.5267"/>
<polygon fill="midnightblue" stroke="midnightblue" points="603.304,-110.022 601.707,-120.495 609.487,-113.304 603.304,-110.022"/>
</g>
<!-- Node12 -->
<g id="node12" class="node"><title>Node12</title>
<g id="a_node12"><a xlink:href="inter__thread__buffer__transport_8h.html" target="_top" xlink:title="inter_thread_buffer\l_transport.h">
<polygon fill="white" stroke="black" points="664.753,-55.5 664.753,-83.5 765.079,-83.5 765.079,-55.5 664.753,-55.5"/>
<text text-anchor="start" x="672.753" y="-71.5" font-family="Helvetica,sans-Serif" font-size="10.00">inter_thread_buffer</text>
<text text-anchor="middle" x="714.916" y="-61.5" font-family="Helvetica,sans-Serif" font-size="10.00">_transport.h</text>
</a>
</g>
</g>
<!-- Node1&#45;&gt;Node12 -->
<g id="edge11" class="edge"><title>Node1&#45;&gt;Node12</title>
<path fill="none" stroke="midnightblue" d="M623.263,-115.935C642.517,-106.39 668.925,-93.2991 688.449,-83.6203"/>
<polygon fill="midnightblue" stroke="midnightblue" points="621.589,-112.858 614.184,-120.435 624.698,-119.13 621.589,-112.858"/>
</g>
<!-- Node4 -->
<g id="node4" class="node"><title>Node4</title>
<g id="a_node4"><a xlink:href="dspi__master__transport_8h.html" target="_top" xlink:title="dspi_master_transport.h">
<polygon fill="white" stroke="black" points="0,-0.5 0,-18.5 123.832,-18.5 123.832,-0.5 0,-0.5"/>
<text text-anchor="middle" x="61.916" y="-6.5" font-family="Helvetica,sans-Serif" font-size="10.00">dspi_master_transport.h</text>
</a>
</g>
</g>
<!-- Node3&#45;&gt;Node4 -->
<g id="edge3" class="edge"><title>Node3&#45;&gt;Node4</title>
<path fill="none" stroke="midnightblue" d="M516.787,-58.3348C510.81,-57.0933 504.724,-55.9353 498.916,-55 337.544,-29.0108 295.405,-36.7157 132.916,-19 129.954,-18.6771 126.924,-18.34 123.863,-17.9942"/>
<polygon fill="midnightblue" stroke="midnightblue" points="516.159,-61.7798 526.673,-60.4785 517.642,-54.9388 516.159,-61.7798"/>
</g>
<!-- Node5 -->
<g id="node5" class="node"><title>Node5</title>
<g id="a_node5"><a xlink:href="dspi__slave__transport_8h.html" target="_top" xlink:title="dspi_slave_transport.h">
<polygon fill="white" stroke="black" points="141.608,-0.5 141.608,-18.5 258.224,-18.5 258.224,-0.5 141.608,-0.5"/>
<text text-anchor="middle" x="199.916" y="-6.5" font-family="Helvetica,sans-Serif" font-size="10.00">dspi_slave_transport.h</text>
</a>
</g>
</g>
<!-- Node3&#45;&gt;Node5 -->
<g id="edge4" class="edge"><title>Node3&#45;&gt;Node5</title>
<path fill="none" stroke="midnightblue" d="M515.49,-58.3333C509.925,-57.1471 504.295,-56.004 498.916,-55 415.726,-39.4724 318.707,-25.8505 258.286,-17.8941"/>
<polygon fill="midnightblue" stroke="midnightblue" points="514.851,-61.7763 525.368,-60.4944 516.347,-54.938 514.851,-61.7763"/>
</g>
<!-- Node6 -->
<g id="node6" class="node"><title>Node6</title>
<g id="a_node6"><a xlink:href="lpuart__transport_8h.html" target="_top" xlink:title="lpuart_transport.h">
<polygon fill="white" stroke="black" points="275.727,-0.5 275.727,-18.5 370.105,-18.5 370.105,-0.5 275.727,-0.5"/>
<text text-anchor="middle" x="322.916" y="-6.5" font-family="Helvetica,sans-Serif" font-size="10.00">lpuart_transport.h</text>
</a>
</g>
</g>
<!-- Node3&#45;&gt;Node6 -->
<g id="edge5" class="edge"><title>Node3&#45;&gt;Node6</title>
<path fill="none" stroke="midnightblue" d="M516.118,-57.9818C470.023,-46.6533 397.681,-28.8745 355.832,-18.5894"/>
<polygon fill="midnightblue" stroke="midnightblue" points="515.555,-61.4475 526.101,-60.4353 517.226,-54.6498 515.555,-61.4475"/>
</g>
<!-- Node7 -->
<g id="node7" class="node"><title>Node7</title>
<g id="a_node7"><a xlink:href="serial__transport_8h.html" target="_top" xlink:title="serial_transport.h">
<polygon fill="white" stroke="black" points="388.286,-0.5 388.286,-18.5 481.546,-18.5 481.546,-0.5 388.286,-0.5"/>
<text text-anchor="middle" x="434.916" y="-6.5" font-family="Helvetica,sans-Serif" font-size="10.00">serial_transport.h</text>
</a>
</g>
</g>
<!-- Node3&#45;&gt;Node7 -->
<g id="edge6" class="edge"><title>Node3&#45;&gt;Node7</title>
<path fill="none" stroke="midnightblue" d="M532.37,-56.0831C508.21,-44.7825 473.231,-28.4217 452.411,-18.6831"/>
<polygon fill="midnightblue" stroke="midnightblue" points="531.133,-59.3688 541.674,-60.4353 534.099,-53.0281 531.133,-59.3688"/>
</g>
<!-- Node8 -->
<g id="node8" class="node"><title>Node8</title>
<g id="a_node8"><a xlink:href="spi__master__transport_8h.html" target="_top" xlink:title="spi_master_transport.h">
<polygon fill="white" stroke="black" points="499.781,-0.5 499.781,-18.5 618.051,-18.5 618.051,-0.5 499.781,-0.5"/>
<text text-anchor="middle" x="558.916" y="-6.5" font-family="Helvetica,sans-Serif" font-size="10.00">spi_master_transport.h</text>
</a>
</g>
</g>
<!-- Node3&#45;&gt;Node8 -->
<g id="edge7" class="edge"><title>Node3&#45;&gt;Node8</title>
<path fill="none" stroke="midnightblue" d="M558.916,-50.2144C558.916,-39.7141 558.916,-27.0332 558.916,-18.8718"/>
<polygon fill="midnightblue" stroke="midnightblue" points="555.416,-50.4353 558.916,-60.4353 562.416,-50.4354 555.416,-50.4353"/>
</g>
<!-- Node9 -->
<g id="node9" class="node"><title>Node9</title>
<g id="a_node9"><a xlink:href="spi__slave__transport_8h.html" target="_top" xlink:title="spi_slave_transport.h">
<polygon fill="white" stroke="black" points="636.389,-0.5 636.389,-18.5 747.443,-18.5 747.443,-0.5 636.389,-0.5"/>
<text text-anchor="middle" x="691.916" y="-6.5" font-family="Helvetica,sans-Serif" font-size="10.00">spi_slave_transport.h</text>
</a>
</g>
</g>
<!-- Node3&#45;&gt;Node9 -->
<g id="edge8" class="edge"><title>Node3&#45;&gt;Node9</title>
<path fill="none" stroke="midnightblue" d="M586.701,-56.3833C612.634,-45.0739 650.621,-28.5083 673.151,-18.6831"/>
<polygon fill="midnightblue" stroke="midnightblue" points="585.176,-53.2297 577.409,-60.4353 587.975,-59.6462 585.176,-53.2297"/>
</g>
<!-- Node3&#45;&gt;Node10 -->
<g id="edge9" class="edge"><title>Node3&#45;&gt;Node10</title>
<path fill="none" stroke="midnightblue" d="M605.036,-58.44C611.04,-57.2277 617.118,-56.0492 622.916,-55 728.188,-35.9518 755.261,-35.7943 860.916,-19 864.019,-18.5068 867.226,-17.9896 870.452,-17.4641"/>
<polygon fill="midnightblue" stroke="midnightblue" points="604.148,-55.0492 595.06,-60.4952 605.561,-61.9052 604.148,-55.0492"/>
</g>
<!-- Node11 -->
<g id="node11" class="node"><title>Node11</title>
<g id="a_node11"><a xlink:href="uart__transport_8h.html" target="_top" xlink:title="uart_transport.h">
<polygon fill="white" stroke="black" points="765.618,-0.5 765.618,-18.5 852.214,-18.5 852.214,-0.5 765.618,-0.5"/>
<text text-anchor="middle" x="808.916" y="-6.5" font-family="Helvetica,sans-Serif" font-size="10.00">uart_transport.h</text>
</a>
</g>
</g>
<!-- Node3&#45;&gt;Node11 -->
<g id="edge10" class="edge"><title>Node3&#45;&gt;Node11</title>
<path fill="none" stroke="midnightblue" d="M603.394,-58.1812C652.297,-46.8356 729.828,-28.8485 774.37,-18.5147"/>
<polygon fill="midnightblue" stroke="midnightblue" points="602.365,-54.8267 593.415,-60.4962 603.947,-61.6456 602.365,-54.8267"/>
</g>
</g>
</svg>
