<?xml version="1.0" encoding="UTF-8" standalone="no"?>
<!DOCTYPE svg PUBLIC "-//W3C//DTD SVG 1.1//EN"
 "http://www.w3.org/Graphics/SVG/1.1/DTD/svg11.dtd">
<!-- Generated by graphviz version 2.38.0 (20140413.2041)
 -->
<!-- Title: erpc_server_setup.h Pages: 1 -->
<svg width="345pt" height="137pt"
 viewBox="0.00 0.00 344.71 137.00" xmlns="http://www.w3.org/2000/svg" xmlns:xlink="http://www.w3.org/1999/xlink">
<g id="graph0" class="graph" transform="scale(1 1) rotate(0) translate(4 133)">
<title>erpc_server_setup.h</title>
<polygon fill="white" stroke="none" points="-4,4 -4,-133 340.714,-133 340.714,4 -4,4"/>
<!-- Node1 -->
<g id="node1" class="node"><title>Node1</title>
<polygon fill="#bfbfbf" stroke="black" points="128.84,-110.5 128.84,-128.5 236.002,-128.5 236.002,-110.5 128.84,-110.5"/>
<text text-anchor="middle" x="182.421" y="-116.5" font-family="Helvetica,sans-Serif" font-size="10.00">erpc_server_setup.h</text>
</g>
<!-- Node2 -->
<g id="node2" class="node"><title>Node2</title>
<g id="a_node2"><a xlink:href="erpc__transport__setup_8h.html" target="_top" xlink:title="erpc_transport_setup.h">
<polygon fill="white" stroke="black" points="0,-55.5 0,-73.5 118.842,-73.5 118.842,-55.5 0,-55.5"/>
<text text-anchor="middle" x="59.4209" y="-61.5" font-family="Helvetica,sans-Serif" font-size="10.00">erpc_transport_setup.h</text>
</a>
</g>
</g>
<!-- Node1&#45;&gt;Node2 -->
<g id="edge1" class="edge"><title>Node1&#45;&gt;Node2</title>
<path fill="none" stroke="midnightblue" d="M163.74,-110.45C143.511,-101.734 111.013,-87.7306 87.6625,-77.6691"/>
<polygon fill="midnightblue" stroke="midnightblue" points="88.8465,-74.3683 78.2778,-73.6253 86.0764,-80.7969 88.8465,-74.3683"/>
</g>
<!-- Node4 -->
<g id="node4" class="node"><title>Node4</title>
<polygon fill="white" stroke="#bfbfbf" points="122.3,-0.5 122.3,-18.5 170.542,-18.5 170.542,-0.5 122.3,-0.5"/>
<text text-anchor="middle" x="146.421" y="-6.5" font-family="Helvetica,sans-Serif" font-size="10.00">stdint.h</text>
</g>
<!-- Node1&#45;&gt;Node4 -->
<g id="edge6" class="edge"><title>Node1&#45;&gt;Node4</title>
<path fill="none" stroke="midnightblue" d="M179.104,-110.364C175.537,-101.492 169.788,-86.8409 165.421,-74 160.263,-58.8329 155.096,-41.3826 151.455,-28.6179"/>
<polygon fill="midnightblue" stroke="midnightblue" points="154.765,-27.4598 148.687,-18.7818 148.027,-29.356 154.765,-27.4598"/>
</g>
<!-- Node5 -->
<g id="node5" class="node"><title>Node5</title>
<g id="a_node5"><a xlink:href="erpc__common_8h_source.html" target="_top" xlink:title="erpc_common.h">
<polygon fill="white" stroke="black" points="174.571,-55.5 174.571,-73.5 262.271,-73.5 262.271,-55.5 174.571,-55.5"/>
<text text-anchor="middle" x="218.421" y="-61.5" font-family="Helvetica,sans-Serif" font-size="10.00">erpc_common.h</text>
</a>
</g>
</g>
<!-- Node1&#45;&gt;Node5 -->
<g id="edge4" class="edge"><title>Node1&#45;&gt;Node5</title>
<path fill="none" stroke="midnightblue" d="M188.046,-110.219C193.148,-102.707 200.821,-91.411 207.178,-82.0515"/>
<polygon fill="midnightblue" stroke="midnightblue" points="210.23,-83.7883 212.953,-73.5496 204.439,-79.8551 210.23,-83.7883"/>
</g>
<!-- Node6 -->
<g id="node6" class="node"><title>Node6</title>
<polygon fill="white" stroke="#bfbfbf" points="280.128,-55.5 280.128,-73.5 336.714,-73.5 336.714,-55.5 280.128,-55.5"/>
<text text-anchor="middle" x="308.421" y="-61.5" font-family="Helvetica,sans-Serif" font-size="10.00">stdbool.h</text>
</g>
<!-- Node1&#45;&gt;Node6 -->
<g id="edge7" class="edge"><title>Node1&#45;&gt;Node6</title>
<path fill="none" stroke="midnightblue" d="M201.558,-110.45C222.372,-101.695 255.868,-87.6055 279.81,-77.5346"/>
<polygon fill="midnightblue" stroke="midnightblue" points="281.243,-80.7289 289.104,-73.6253 278.529,-74.2765 281.243,-80.7289"/>
</g>
<!-- Node3 -->
<g id="node3" class="node"><title>Node3</title>
<g id="a_node3"><a xlink:href="erpc__version_8h_source.html" target="_top" xlink:title="erpc_version.h">
<polygon fill="white" stroke="black" points="18.6255,-0.5 18.6255,-18.5 100.216,-18.5 100.216,-0.5 18.6255,-0.5"/>
<text text-anchor="middle" x="59.4209" y="-6.5" font-family="Helvetica,sans-Serif" font-size="10.00">erpc_version.h</text>
</a>
</g>
</g>
<!-- Node2&#45;&gt;Node3 -->
<g id="edge2" class="edge"><title>Node2&#45;&gt;Node3</title>
<path fill="none" stroke="midnightblue" d="M59.4209,-55.2188C59.4209,-48.1769 59.4209,-37.8083 59.4209,-28.8277"/>
<polygon fill="midnightblue" stroke="midnightblue" points="62.921,-28.5495 59.4209,-18.5496 55.921,-28.5496 62.921,-28.5495"/>
</g>
<!-- Node2&#45;&gt;Node4 -->
<g id="edge3" class="edge"><title>Node2&#45;&gt;Node4</title>
<path fill="none" stroke="midnightblue" d="M72.6343,-55.4504C86.3036,-47.1232 107.894,-33.9704 124.196,-24.0394"/>
<polygon fill="midnightblue" stroke="midnightblue" points="126.364,-26.817 133.083,-18.6253 122.722,-20.8389 126.364,-26.817"/>
</g>
<!-- Node5&#45;&gt;Node4 -->
<g id="edge5" class="edge"><title>Node5&#45;&gt;Node4</title>
<path fill="none" stroke="midnightblue" d="M207.486,-55.4504C196.385,-47.2788 178.971,-34.4604 165.575,-24.5996"/>
<polygon fill="midnightblue" stroke="midnightblue" points="167.587,-21.7348 157.459,-18.6253 163.438,-27.3722 167.587,-21.7348"/>
</g>
</g>
</svg>
