<?xml version="1.0" encoding="UTF-8" standalone="no"?>
<!DOCTYPE svg PUBLIC "-//W3C//DTD SVG 1.1//EN"
 "http://www.w3.org/Graphics/SVG/1.1/DTD/svg11.dtd">
<!-- Generated by graphviz version 2.38.0 (20140413.2041)
 -->
<!-- Title: erpc_client_setup.h Pages: 1 -->
<svg width="244pt" height="137pt"
 viewBox="0.00 0.00 244.17 137.00" xmlns="http://www.w3.org/2000/svg" xmlns:xlink="http://www.w3.org/1999/xlink">
<g id="graph0" class="graph" transform="scale(1 1) rotate(0) translate(4 133)">
<title>erpc_client_setup.h</title>
<polygon fill="white" stroke="none" points="-4,4 -4,-133 240.175,-133 240.175,4 -4,4"/>
<!-- Node1 -->
<g id="node1" class="node"><title>Node1</title>
<polygon fill="#bfbfbf" stroke="black" points="4.39216,-110.5 4.39216,-128.5 107.116,-128.5 107.116,-110.5 4.39216,-110.5"/>
<text text-anchor="middle" x="55.754" y="-116.5" font-family="Helvetica,sans-Serif" font-size="10.00">erpc_client_setup.h</text>
</g>
<!-- Node2 -->
<g id="node2" class="node"><title>Node2</title>
<polygon fill="white" stroke="#bfbfbf" points="31.6334,-0.5 31.6334,-18.5 79.8746,-18.5 79.8746,-0.5 31.6334,-0.5"/>
<text text-anchor="middle" x="55.754" y="-6.5" font-family="Helvetica,sans-Serif" font-size="10.00">stdint.h</text>
</g>
<!-- Node1&#45;&gt;Node2 -->
<g id="edge1" class="edge"><title>Node1&#45;&gt;Node2</title>
<path fill="none" stroke="midnightblue" d="M40.1879,-110.481C27.4809,-102.971 10.4186,-90.4435 2.75397,-74 -6.42187,-54.3145 13.7455,-35.7243 31.7859,-23.8068"/>
<polygon fill="midnightblue" stroke="midnightblue" points="33.672,-26.7556 40.3334,-18.5168 29.9882,-20.8033 33.672,-26.7556"/>
</g>
<!-- Node3 -->
<g id="node3" class="node"><title>Node3</title>
<g id="a_node3"><a xlink:href="erpc__transport__setup_8h.html" target="_top" xlink:title="erpc_transport_setup.h">
<polygon fill="white" stroke="black" points="117.333,-55.5 117.333,-73.5 236.175,-73.5 236.175,-55.5 117.333,-55.5"/>
<text text-anchor="middle" x="176.754" y="-61.5" font-family="Helvetica,sans-Serif" font-size="10.00">erpc_transport_setup.h</text>
</a>
</g>
</g>
<!-- Node1&#45;&gt;Node3 -->
<g id="edge2" class="edge"><title>Node1&#45;&gt;Node3</title>
<path fill="none" stroke="midnightblue" d="M74.1313,-110.45C94.031,-101.734 126.001,-87.7306 148.972,-77.6691"/>
<polygon fill="midnightblue" stroke="midnightblue" points="150.448,-80.8435 158.204,-73.6253 147.64,-74.4316 150.448,-80.8435"/>
</g>
<!-- Node5 -->
<g id="node5" class="node"><title>Node5</title>
<g id="a_node5"><a xlink:href="erpc__common_8h_source.html" target="_top" xlink:title="erpc_common.h">
<polygon fill="white" stroke="black" points="11.9044,-55.5 11.9044,-73.5 99.6036,-73.5 99.6036,-55.5 11.9044,-55.5"/>
<text text-anchor="middle" x="55.754" y="-61.5" font-family="Helvetica,sans-Serif" font-size="10.00">erpc_common.h</text>
</a>
</g>
</g>
<!-- Node1&#45;&gt;Node5 -->
<g id="edge5" class="edge"><title>Node1&#45;&gt;Node5</title>
<path fill="none" stroke="midnightblue" d="M55.754,-110.219C55.754,-103.177 55.754,-92.8083 55.754,-83.8277"/>
<polygon fill="midnightblue" stroke="midnightblue" points="59.2541,-83.5495 55.754,-73.5496 52.2541,-83.5496 59.2541,-83.5495"/>
</g>
<!-- Node3&#45;&gt;Node2 -->
<g id="edge4" class="edge"><title>Node3&#45;&gt;Node2</title>
<path fill="none" stroke="midnightblue" d="M158.377,-55.4504C138.477,-46.734 106.507,-32.7306 83.5364,-22.6691"/>
<polygon fill="midnightblue" stroke="midnightblue" points="84.8683,-19.4316 74.3042,-18.6253 82.0598,-25.8435 84.8683,-19.4316"/>
</g>
<!-- Node4 -->
<g id="node4" class="node"><title>Node4</title>
<g id="a_node4"><a xlink:href="erpc__version_8h_source.html" target="_top" xlink:title="erpc_version.h">
<polygon fill="white" stroke="black" points="135.959,-0.5 135.959,-18.5 217.549,-18.5 217.549,-0.5 135.959,-0.5"/>
<text text-anchor="middle" x="176.754" y="-6.5" font-family="Helvetica,sans-Serif" font-size="10.00">erpc_version.h</text>
</a>
</g>
</g>
<!-- Node3&#45;&gt;Node4 -->
<g id="edge3" class="edge"><title>Node3&#45;&gt;Node4</title>
<path fill="none" stroke="midnightblue" d="M176.754,-55.2188C176.754,-48.1769 176.754,-37.8083 176.754,-28.8277"/>
<polygon fill="midnightblue" stroke="midnightblue" points="180.254,-28.5495 176.754,-18.5496 173.254,-28.5496 180.254,-28.5495"/>
</g>
<!-- Node5&#45;&gt;Node2 -->
<g id="edge6" class="edge"><title>Node5&#45;&gt;Node2</title>
<path fill="none" stroke="midnightblue" d="M55.754,-55.2188C55.754,-48.1769 55.754,-37.8083 55.754,-28.8277"/>
<polygon fill="midnightblue" stroke="midnightblue" points="59.2541,-28.5495 55.754,-18.5496 52.2541,-28.5496 59.2541,-28.5495"/>
</g>
</g>
</svg>
