<?xml version="1.0" encoding="UTF-8" standalone="no"?>
<!DOCTYPE svg PUBLIC "-//W3C//DTD SVG 1.1//EN"
 "http://www.w3.org/Graphics/SVG/1.1/DTD/svg11.dtd">
<!-- Generated by graphviz version 2.38.0 (20140413.2041)
 -->
<!-- Title: framed_transport.h Pages: 1 -->
<svg width="489pt" height="192pt"
 viewBox="0.00 0.00 489.23 192.00" xmlns="http://www.w3.org/2000/svg" xmlns:xlink="http://www.w3.org/1999/xlink">
<g id="graph0" class="graph" transform="scale(1 1) rotate(0) translate(4 188)">
<title>framed_transport.h</title>
<polygon fill="white" stroke="none" points="-4,4 -4,-188 485.229,-188 485.229,4 -4,4"/>
<!-- Node1 -->
<g id="node1" class="node"><title>Node1</title>
<polygon fill="#bfbfbf" stroke="black" points="49.786,-165.5 49.786,-183.5 150.273,-183.5 150.273,-165.5 49.786,-165.5"/>
<text text-anchor="middle" x="100.03" y="-171.5" font-family="Helvetica,sans-Serif" font-size="10.00">framed_transport.h</text>
</g>
<!-- Node2 -->
<g id="node2" class="node"><title>Node2</title>
<polygon fill="white" stroke="#bfbfbf" points="138.909,-0.5 138.909,-18.5 187.15,-18.5 187.15,-0.5 138.909,-0.5"/>
<text text-anchor="middle" x="163.03" y="-6.5" font-family="Helvetica,sans-Serif" font-size="10.00">stdint.h</text>
</g>
<!-- Node1&#45;&gt;Node2 -->
<g id="edge1" class="edge"><title>Node1&#45;&gt;Node2</title>
<path fill="none" stroke="midnightblue" d="M84.753,-165.231C51.2103,-146.019 -23.4692,-96.8145 8.02969,-55 22.5495,-35.725 87.8017,-22.2303 128.875,-15.4715"/>
<polygon fill="midnightblue" stroke="midnightblue" points="129.426,-18.928 138.751,-13.8989 128.325,-12.0151 129.426,-18.928"/>
</g>
<!-- Node3 -->
<g id="node3" class="node"><title>Node3</title>
<polygon fill="white" stroke="#bfbfbf" points="17.3031,-55.5 17.3031,-73.5 62.7563,-73.5 62.7563,-55.5 17.3031,-55.5"/>
<text text-anchor="middle" x="40.0297" y="-61.5" font-family="Helvetica,sans-Serif" font-size="10.00">cstring</text>
</g>
<!-- Node1&#45;&gt;Node3 -->
<g id="edge2" class="edge"><title>Node1&#45;&gt;Node3</title>
<path fill="none" stroke="midnightblue" d="M90.2153,-165.27C80.9352,-156.994 67.2423,-143.424 59.0297,-129 51.0147,-114.924 46.0694,-97.1282 43.2412,-83.9596"/>
<polygon fill="midnightblue" stroke="midnightblue" points="46.6097,-82.943 41.277,-73.788 39.7367,-84.2703 46.6097,-82.943"/>
</g>
<!-- Node4 -->
<g id="node4" class="node"><title>Node4</title>
<g id="a_node4"><a xlink:href="transport_8h.html" target="_top" xlink:title="transport.h">
<polygon fill="white" stroke="black" points="68.1283,-110.5 68.1283,-128.5 131.931,-128.5 131.931,-110.5 68.1283,-110.5"/>
<text text-anchor="middle" x="100.03" y="-116.5" font-family="Helvetica,sans-Serif" font-size="10.00">transport.h</text>
</a>
</g>
</g>
<!-- Node1&#45;&gt;Node4 -->
<g id="edge3" class="edge"><title>Node1&#45;&gt;Node4</title>
<path fill="none" stroke="midnightblue" d="M100.03,-165.219C100.03,-158.177 100.03,-147.808 100.03,-138.828"/>
<polygon fill="midnightblue" stroke="midnightblue" points="103.53,-138.55 100.03,-128.55 96.5298,-138.55 103.53,-138.55"/>
</g>
<!-- Node6 -->
<g id="node6" class="node"><title>Node6</title>
<g id="a_node6"><a xlink:href="message__buffer_8h.html" target="_top" xlink:title="message_buffer.h">
<polygon fill="white" stroke="black" points="165.367,-110.5 165.367,-128.5 260.693,-128.5 260.693,-110.5 165.367,-110.5"/>
<text text-anchor="middle" x="213.03" y="-116.5" font-family="Helvetica,sans-Serif" font-size="10.00">message_buffer.h</text>
</a>
</g>
</g>
<!-- Node1&#45;&gt;Node6 -->
<g id="edge8" class="edge"><title>Node1&#45;&gt;Node6</title>
<path fill="none" stroke="midnightblue" d="M117.192,-165.45C135.61,-156.812 165.1,-142.98 186.508,-132.94"/>
<polygon fill="midnightblue" stroke="midnightblue" points="188.139,-136.041 195.706,-128.625 185.166,-129.703 188.139,-136.041"/>
</g>
<!-- Node8 -->
<g id="node8" class="node"><title>Node8</title>
<g id="a_node8"><a xlink:href="erpc__threading_8h.html" target="_top" xlink:title="erpc_threading.h">
<polygon fill="white" stroke="black" points="293.503,-110.5 293.503,-128.5 384.557,-128.5 384.557,-110.5 293.503,-110.5"/>
<text text-anchor="middle" x="339.03" y="-116.5" font-family="Helvetica,sans-Serif" font-size="10.00">erpc_threading.h</text>
</a>
</g>
</g>
<!-- Node1&#45;&gt;Node8 -->
<g id="edge12" class="edge"><title>Node1&#45;&gt;Node8</title>
<path fill="none" stroke="midnightblue" d="M136.329,-165.45C178.213,-156.162 247.168,-140.871 292.84,-130.743"/>
<polygon fill="midnightblue" stroke="midnightblue" points="293.776,-134.12 302.781,-128.538 292.261,-127.286 293.776,-134.12"/>
</g>
<!-- Node4&#45;&gt;Node2 -->
<g id="edge4" class="edge"><title>Node4&#45;&gt;Node2</title>
<path fill="none" stroke="midnightblue" d="M99.5607,-110.499C99.1818,-97.8609 99.9285,-72.8785 110.03,-55 117.048,-42.5781 128.959,-32.1052 139.714,-24.4461"/>
<polygon fill="midnightblue" stroke="midnightblue" points="141.964,-27.1524 148.343,-18.6931 138.081,-21.3281 141.964,-27.1524"/>
</g>
<!-- Node4&#45;&gt;Node3 -->
<g id="edge5" class="edge"><title>Node4&#45;&gt;Node3</title>
<path fill="none" stroke="midnightblue" d="M90.917,-110.45C81.9304,-102.512 67.9796,-90.1891 56.9564,-80.4519"/>
<polygon fill="midnightblue" stroke="midnightblue" points="59.04,-77.6225 49.2282,-73.6253 54.4058,-82.8689 59.04,-77.6225"/>
</g>
<!-- Node5 -->
<g id="node5" class="node"><title>Node5</title>
<g id="a_node5"><a xlink:href="erpc__common_8h_source.html" target="_top" xlink:title="erpc_common.h">
<polygon fill="white" stroke="black" points="119.18,-55.5 119.18,-73.5 206.879,-73.5 206.879,-55.5 119.18,-55.5"/>
<text text-anchor="middle" x="163.03" y="-61.5" font-family="Helvetica,sans-Serif" font-size="10.00">erpc_common.h</text>
</a>
</g>
</g>
<!-- Node4&#45;&gt;Node5 -->
<g id="edge6" class="edge"><title>Node4&#45;&gt;Node5</title>
<path fill="none" stroke="midnightblue" d="M109.598,-110.45C119.126,-102.434 133.97,-89.9471 145.596,-80.1663"/>
<polygon fill="midnightblue" stroke="midnightblue" points="147.972,-82.7413 153.371,-73.6253 143.466,-77.3847 147.972,-82.7413"/>
</g>
<!-- Node5&#45;&gt;Node2 -->
<g id="edge7" class="edge"><title>Node5&#45;&gt;Node2</title>
<path fill="none" stroke="midnightblue" d="M163.03,-55.2188C163.03,-48.1769 163.03,-37.8083 163.03,-28.8277"/>
<polygon fill="midnightblue" stroke="midnightblue" points="166.53,-28.5495 163.03,-18.5496 159.53,-28.5496 166.53,-28.5495"/>
</g>
<!-- Node6&#45;&gt;Node2 -->
<g id="edge10" class="edge"><title>Node6&#45;&gt;Node2</title>
<path fill="none" stroke="midnightblue" d="M215.764,-110.214C219.419,-97.6203 224.516,-73.206 216.03,-55 209.982,-42.025 198.083,-31.4882 187.089,-23.9306"/>
<polygon fill="midnightblue" stroke="midnightblue" points="188.91,-20.9408 178.596,-18.5187 185.148,-26.8442 188.91,-20.9408"/>
</g>
<!-- Node6&#45;&gt;Node5 -->
<g id="edge9" class="edge"><title>Node6&#45;&gt;Node5</title>
<path fill="none" stroke="midnightblue" d="M205.217,-110.219C197.836,-102.394 186.58,-90.4631 177.551,-80.8921"/>
<polygon fill="midnightblue" stroke="midnightblue" points="180.032,-78.4217 170.624,-73.5496 174.94,-83.2253 180.032,-78.4217"/>
</g>
<!-- Node7 -->
<g id="node7" class="node"><title>Node7</title>
<polygon fill="white" stroke="#bfbfbf" points="262.909,-55.5 262.909,-73.5 311.15,-73.5 311.15,-55.5 262.909,-55.5"/>
<text text-anchor="middle" x="287.03" y="-61.5" font-family="Helvetica,sans-Serif" font-size="10.00">cstddef</text>
</g>
<!-- Node6&#45;&gt;Node7 -->
<g id="edge11" class="edge"><title>Node6&#45;&gt;Node7</title>
<path fill="none" stroke="midnightblue" d="M224.269,-110.45C235.678,-102.279 253.576,-89.4604 267.343,-79.5996"/>
<polygon fill="midnightblue" stroke="midnightblue" points="269.593,-82.2936 275.685,-73.6253 265.517,-76.6027 269.593,-82.2936"/>
</g>
<!-- Node8&#45;&gt;Node2 -->
<g id="edge15" class="edge"><title>Node8&#45;&gt;Node2</title>
<path fill="none" stroke="midnightblue" d="M338.964,-110.223C338.396,-96.7375 335.274,-70.0241 320.03,-55 287.297,-22.7401 233.007,-13.496 197.623,-11.0525"/>
<polygon fill="midnightblue" stroke="midnightblue" points="197.468,-7.53906 187.294,-10.4945 197.09,-14.5289 197.468,-7.53906"/>
</g>
<!-- Node9 -->
<g id="node9" class="node"><title>Node9</title>
<g id="a_node9"><a xlink:href="erpc__config__internal_8h_source.html" target="_top" xlink:title="erpc_config_internal.h">
<polygon fill="white" stroke="black" points="366.83,-55.5 366.83,-73.5 481.229,-73.5 481.229,-55.5 366.83,-55.5"/>
<text text-anchor="middle" x="424.03" y="-61.5" font-family="Helvetica,sans-Serif" font-size="10.00">erpc_config_internal.h</text>
</a>
</g>
</g>
<!-- Node8&#45;&gt;Node9 -->
<g id="edge13" class="edge"><title>Node8&#45;&gt;Node9</title>
<path fill="none" stroke="midnightblue" d="M351.939,-110.45C365.294,-102.123 386.388,-88.9704 402.316,-79.0394"/>
<polygon fill="midnightblue" stroke="midnightblue" points="404.365,-81.8863 410.999,-73.6253 400.661,-75.9464 404.365,-81.8863"/>
</g>
<!-- Node10 -->
<g id="node10" class="node"><title>Node10</title>
<g id="a_node10"><a xlink:href="erpc__config_8h.html" target="_top" xlink:title="erpc_config.h">
<polygon fill="white" stroke="black" points="386.01,-0.5 386.01,-18.5 462.049,-18.5 462.049,-0.5 386.01,-0.5"/>
<text text-anchor="middle" x="424.03" y="-6.5" font-family="Helvetica,sans-Serif" font-size="10.00">erpc_config.h</text>
</a>
</g>
</g>
<!-- Node9&#45;&gt;Node10 -->
<g id="edge14" class="edge"><title>Node9&#45;&gt;Node10</title>
<path fill="none" stroke="midnightblue" d="M424.03,-55.2188C424.03,-48.1769 424.03,-37.8083 424.03,-28.8277"/>
<polygon fill="midnightblue" stroke="midnightblue" points="427.53,-28.5495 424.03,-18.5496 420.53,-28.5496 427.53,-28.5495"/>
</g>
</g>
</svg>
