<?xml version="1.0" encoding="UTF-8" standalone="no"?>
<!DOCTYPE svg PUBLIC "-//W3C//DTD SVG 1.1//EN"
 "http://www.w3.org/Graphics/SVG/1.1/DTD/svg11.dtd">
<!-- Generated by graphviz version 2.38.0 (20140413.2041)
 -->
<!-- Title: framed_transport.h Pages: 1 -->
<svg width="961pt" height="82pt"
 viewBox="0.00 0.00 961.21 82.00" xmlns="http://www.w3.org/2000/svg" xmlns:xlink="http://www.w3.org/1999/xlink">
<g id="graph0" class="graph" transform="scale(1 1) rotate(0) translate(4 78)">
<title>framed_transport.h</title>
<polygon fill="white" stroke="none" points="-4,4 -4,-78 957.214,-78 957.214,4 -4,4"/>
<!-- Node1 -->
<g id="node1" class="node"><title>Node1</title>
<polygon fill="#bfbfbf" stroke="black" points="446.672,-55.5 446.672,-73.5 547.16,-73.5 547.16,-55.5 446.672,-55.5"/>
<text text-anchor="middle" x="496.916" y="-61.5" font-family="Helvetica,sans-Serif" font-size="10.00">framed_transport.h</text>
</g>
<!-- Node2 -->
<g id="node2" class="node"><title>Node2</title>
<g id="a_node2"><a xlink:href="dspi__master__transport_8h.html" target="_top" xlink:title="dspi_master_transport.h">
<polygon fill="white" stroke="black" points="0,-0.5 0,-18.5 123.832,-18.5 123.832,-0.5 0,-0.5"/>
<text text-anchor="middle" x="61.916" y="-6.5" font-family="Helvetica,sans-Serif" font-size="10.00">dspi_master_transport.h</text>
</a>
</g>
</g>
<!-- Node1&#45;&gt;Node2 -->
<g id="edge1" class="edge"><title>Node1&#45;&gt;Node2</title>
<path fill="none" stroke="midnightblue" d="M436.632,-56.155C354.269,-46.1201 207.319,-28.2157 124.018,-18.0665"/>
<polygon fill="midnightblue" stroke="midnightblue" points="436.241,-59.6332 446.591,-57.3685 437.088,-52.6846 436.241,-59.6332"/>
</g>
<!-- Node3 -->
<g id="node3" class="node"><title>Node3</title>
<g id="a_node3"><a xlink:href="dspi__slave__transport_8h.html" target="_top" xlink:title="dspi_slave_transport.h">
<polygon fill="white" stroke="black" points="141.608,-0.5 141.608,-18.5 258.224,-18.5 258.224,-0.5 141.608,-0.5"/>
<text text-anchor="middle" x="199.916" y="-6.5" font-family="Helvetica,sans-Serif" font-size="10.00">dspi_slave_transport.h</text>
</a>
</g>
</g>
<!-- Node1&#45;&gt;Node3 -->
<g id="edge2" class="edge"><title>Node1&#45;&gt;Node3</title>
<path fill="none" stroke="midnightblue" d="M441.935,-53.6885C385.197,-43.5636 297.747,-27.9581 244.961,-18.5383"/>
<polygon fill="midnightblue" stroke="midnightblue" points="441.349,-57.1392 451.808,-55.4504 442.579,-50.248 441.349,-57.1392"/>
</g>
<!-- Node4 -->
<g id="node4" class="node"><title>Node4</title>
<g id="a_node4"><a xlink:href="lpuart__transport_8h.html" target="_top" xlink:title="lpuart_transport.h">
<polygon fill="white" stroke="black" points="275.727,-0.5 275.727,-18.5 370.105,-18.5 370.105,-0.5 275.727,-0.5"/>
<text text-anchor="middle" x="322.916" y="-6.5" font-family="Helvetica,sans-Serif" font-size="10.00">lpuart_transport.h</text>
</a>
</g>
</g>
<!-- Node1&#45;&gt;Node4 -->
<g id="edge3" class="edge"><title>Node1&#45;&gt;Node4</title>
<path fill="none" stroke="midnightblue" d="M460.701,-52.4689C427.465,-42.3454 379.015,-27.5875 349.306,-18.5383"/>
<polygon fill="midnightblue" stroke="midnightblue" points="459.903,-55.8847 470.489,-55.4504 461.943,-49.1884 459.903,-55.8847"/>
</g>
<!-- Node5 -->
<g id="node5" class="node"><title>Node5</title>
<g id="a_node5"><a xlink:href="serial__transport_8h.html" target="_top" xlink:title="serial_transport.h">
<polygon fill="white" stroke="black" points="388.286,-0.5 388.286,-18.5 481.546,-18.5 481.546,-0.5 388.286,-0.5"/>
<text text-anchor="middle" x="434.916" y="-6.5" font-family="Helvetica,sans-Serif" font-size="10.00">serial_transport.h</text>
</a>
</g>
</g>
<!-- Node1&#45;&gt;Node5 -->
<g id="edge4" class="edge"><title>Node1&#45;&gt;Node5</title>
<path fill="none" stroke="midnightblue" d="M479.867,-48.9259C468.445,-39.1622 453.831,-26.6693 444.421,-18.6253"/>
<polygon fill="midnightblue" stroke="midnightblue" points="477.624,-51.613 487.5,-55.4504 482.173,-46.2922 477.624,-51.613"/>
</g>
<!-- Node6 -->
<g id="node6" class="node"><title>Node6</title>
<g id="a_node6"><a xlink:href="spi__master__transport_8h.html" target="_top" xlink:title="spi_master_transport.h">
<polygon fill="white" stroke="black" points="499.781,-0.5 499.781,-18.5 618.051,-18.5 618.051,-0.5 499.781,-0.5"/>
<text text-anchor="middle" x="558.916" y="-6.5" font-family="Helvetica,sans-Serif" font-size="10.00">spi_master_transport.h</text>
</a>
</g>
</g>
<!-- Node1&#45;&gt;Node6 -->
<g id="edge5" class="edge"><title>Node1&#45;&gt;Node6</title>
<path fill="none" stroke="midnightblue" d="M513.965,-48.9259C525.387,-39.1622 540.001,-26.6693 549.411,-18.6253"/>
<polygon fill="midnightblue" stroke="midnightblue" points="511.659,-46.2922 506.332,-55.4504 516.208,-51.613 511.659,-46.2922"/>
</g>
<!-- Node7 -->
<g id="node7" class="node"><title>Node7</title>
<g id="a_node7"><a xlink:href="spi__slave__transport_8h.html" target="_top" xlink:title="spi_slave_transport.h">
<polygon fill="white" stroke="black" points="636.389,-0.5 636.389,-18.5 747.443,-18.5 747.443,-0.5 636.389,-0.5"/>
<text text-anchor="middle" x="691.916" y="-6.5" font-family="Helvetica,sans-Serif" font-size="10.00">spi_slave_transport.h</text>
</a>
</g>
</g>
<!-- Node1&#45;&gt;Node7 -->
<g id="edge6" class="edge"><title>Node1&#45;&gt;Node7</title>
<path fill="none" stroke="midnightblue" d="M536.543,-52.7297C573.811,-42.6003 628.76,-27.6655 662.341,-18.5383"/>
<polygon fill="midnightblue" stroke="midnightblue" points="535.264,-49.4501 526.532,-55.4504 537.1,-56.205 535.264,-49.4501"/>
</g>
<!-- Node8 -->
<g id="node8" class="node"><title>Node8</title>
<g id="a_node8"><a xlink:href="tcp__transport_8h.html" target="_top" xlink:title="tcp_transport.h">
<polygon fill="white" stroke="black" points="765.564,-0.5 765.564,-18.5 848.268,-18.5 848.268,-0.5 765.564,-0.5"/>
<text text-anchor="middle" x="806.916" y="-6.5" font-family="Helvetica,sans-Serif" font-size="10.00">tcp_transport.h</text>
</a>
</g>
</g>
<!-- Node1&#45;&gt;Node8 -->
<g id="edge7" class="edge"><title>Node1&#45;&gt;Node8</title>
<path fill="none" stroke="midnightblue" d="M553.886,-53.76C615.091,-43.2959 710.885,-26.9181 765.359,-17.6048"/>
<polygon fill="midnightblue" stroke="midnightblue" points="553.265,-50.3152 543.998,-55.4504 554.445,-57.2151 553.265,-50.3152"/>
</g>
<!-- Node9 -->
<g id="node9" class="node"><title>Node9</title>
<g id="a_node9"><a xlink:href="uart__transport_8h.html" target="_top" xlink:title="uart_transport.h">
<polygon fill="white" stroke="black" points="866.618,-0.5 866.618,-18.5 953.214,-18.5 953.214,-0.5 866.618,-0.5"/>
<text text-anchor="middle" x="909.916" y="-6.5" font-family="Helvetica,sans-Serif" font-size="10.00">uart_transport.h</text>
</a>
</g>
</g>
<!-- Node1&#45;&gt;Node9 -->
<g id="edge8" class="edge"><title>Node1&#45;&gt;Node9</title>
<path fill="none" stroke="midnightblue" d="M557.561,-56.6792C629.185,-48.4672 751.877,-33.91 856.916,-19 860.053,-18.5547 863.292,-18.0778 866.55,-17.5854"/>
<polygon fill="midnightblue" stroke="midnightblue" points="556.91,-53.2307 547.372,-57.844 557.705,-60.1854 556.91,-53.2307"/>
</g>
</g>
</svg>
