<?xml version="1.0" encoding="UTF-8" standalone="no"?>
<!DOCTYPE svg PUBLIC "-//W3C//DTD SVG 1.1//EN"
 "http://www.w3.org/Graphics/SVG/1.1/DTD/svg11.dtd">
<!-- Generated by graphviz version 2.38.0 (20140413.2041)
 -->
<!-- Title: Threads Pages: 1 -->
<svg width="299pt" height="656pt"
 viewBox="0.00 0.00 299.26 656.00" xmlns="http://www.w3.org/2000/svg" xmlns:xlink="http://www.w3.org/1999/xlink">
<g id="graph0" class="graph" transform="scale(1 1) rotate(0) translate(4 652)">
<title>Threads</title>
<polygon fill="white" stroke="none" points="-4,4 -4,-652 295.264,-652 295.264,4 -4,4"/>
<!-- Node8 -->
<g id="node1" class="node"><title>Node8</title>
<g id="a_node1"><a xlink:href="group__dspi__slave__transport.html" target="_top" xlink:title="Kinetis SDK DSPI slave driver transport. ">
<polygon fill="white" stroke="black" points="208.477,-629.5 208.477,-647.5 275.609,-647.5 275.609,-629.5 208.477,-629.5"/>
<text text-anchor="middle" x="242.043" y="-635.5" font-family="Helvetica,sans-Serif" font-size="10.00">DSPI Slave</text>
</a>
</g>
</g>
<!-- Node0 -->
<g id="node2" class="node"><title>Node0</title>
<polygon fill="#bfbfbf" stroke="black" points="84.6846,-314.5 84.6846,-332.5 137.369,-332.5 137.369,-314.5 84.6846,-314.5"/>
<text text-anchor="middle" x="111.027" y="-320.5" font-family="Helvetica,sans-Serif" font-size="10.00">Threads</text>
</g>
<!-- Node0&#45;&gt;Node8 -->
<g id="edge8" class="edge"><title>Node0&#45;&gt;Node8</title>
<path fill="none" stroke="blueviolet" stroke-dasharray="5,2" d="M112.747,-332.624C116.092,-373.526 130.995,-539.978 155.369,-585.5 166.123,-605.585 173.452,-608.506 192.822,-620.5 198.444,-623.981 204.845,-626.954 211.105,-629.421"/>
<text text-anchor="middle" x="165.096" y="-610.5" font-family="Helvetica,sans-Serif" font-size="10.00">erpc</text>
</g>
<!-- Node18 -->
<g id="node3" class="node"><title>Node18</title>
<g id="a_node3"><a xlink:href="group__tcp__transport.html" target="_top" xlink:title="Simple TCP/IP transport. ">
<polygon fill="white" stroke="black" points="217.93,-592.5 217.93,-610.5 266.156,-610.5 266.156,-592.5 217.93,-592.5"/>
<text text-anchor="middle" x="242.043" y="-598.5" font-family="Helvetica,sans-Serif" font-size="10.00">TCP/IP</text>
</a>
</g>
</g>
<!-- Node0&#45;&gt;Node18 -->
<g id="edge18" class="edge"><title>Node0&#45;&gt;Node18</title>
<path fill="none" stroke="blueviolet" stroke-dasharray="5,2" d="M111.827,-332.754C111.527,-364.816 113.815,-473.29 155.369,-548.5 166.387,-568.441 173.452,-571.506 192.822,-583.5 200.42,-588.204 209.439,-591.98 217.611,-594.835"/>
<text text-anchor="middle" x="165.096" y="-573.5" font-family="Helvetica,sans-Serif" font-size="10.00">erpc</text>
</g>
<!-- Node14 -->
<g id="node4" class="node"><title>Node14</title>
<g id="a_node4"><a xlink:href="group__rpmsg__transport.html" target="_top" xlink:title="OpenAMP RPMsg transport. ">
<polygon fill="white" stroke="black" points="217.651,-555.5 217.651,-573.5 266.435,-573.5 266.435,-555.5 217.651,-555.5"/>
<text text-anchor="middle" x="242.043" y="-561.5" font-family="Helvetica,sans-Serif" font-size="10.00">RPMsg</text>
</a>
</g>
</g>
<!-- Node0&#45;&gt;Node14 -->
<g id="edge14" class="edge"><title>Node0&#45;&gt;Node14</title>
<path fill="none" stroke="blueviolet" stroke-dasharray="5,2" d="M112.336,-332.729C113.653,-361.139 120.481,-449.064 155.369,-510.5 166.771,-530.577 173.278,-534.207 192.822,-546.5 200.386,-551.258 209.399,-555.045 217.574,-557.894"/>
<text text-anchor="middle" x="165.096" y="-536.5" font-family="Helvetica,sans-Serif" font-size="10.00">erpc</text>
</g>
<!-- Node2 -->
<g id="node5" class="node"><title>Node2</title>
<g id="a_node5"><a xlink:href="group__infra__client.html" target="_top" xlink:title="Client classes. ">
<polygon fill="white" stroke="black" points="221.26,-518.5 221.26,-536.5 262.826,-536.5 262.826,-518.5 221.26,-518.5"/>
<text text-anchor="middle" x="242.043" y="-524.5" font-family="Helvetica,sans-Serif" font-size="10.00">Client</text>
</a>
</g>
</g>
<!-- Node0&#45;&gt;Node2 -->
<g id="edge2" class="edge"><title>Node0&#45;&gt;Node2</title>
<path fill="none" stroke="blueviolet" stroke-dasharray="5,2" d="M112.995,-332.603C115.928,-357.038 126.365,-425.466 155.369,-473.5 167.304,-493.265 173.278,-497.207 192.822,-509.5 201.445,-514.924 211.951,-519.086 220.952,-522.035"/>
<text text-anchor="middle" x="165.096" y="-498.5" font-family="Helvetica,sans-Serif" font-size="10.00">erpc</text>
</g>
<!-- Node4 -->
<g id="node6" class="node"><title>Node4</title>
<g id="a_node6"><a xlink:href="group__infra__transport.html" target="_top" xlink:title="Superclasses for building transports. ">
<polygon fill="white" stroke="black" points="210.33,-481.5 210.33,-499.5 273.756,-499.5 273.756,-481.5 210.33,-481.5"/>
<text text-anchor="middle" x="242.043" y="-487.5" font-family="Helvetica,sans-Serif" font-size="10.00">Transports</text>
</a>
</g>
</g>
<!-- Node0&#45;&gt;Node4 -->
<g id="edge4" class="edge"><title>Node0&#45;&gt;Node4</title>
<path fill="none" stroke="blueviolet" stroke-dasharray="5,2" d="M114.133,-332.524C119.048,-352.371 132.619,-400.803 155.369,-435.5 168.199,-455.068 173.101,-459.907 192.822,-472.5 198.32,-476.011 204.604,-478.983 210.777,-481.438"/>
<text text-anchor="middle" x="165.096" y="-461.5" font-family="Helvetica,sans-Serif" font-size="10.00">erpc</text>
</g>
<!-- Node15 -->
<g id="node7" class="node"><title>Node15</title>
<g id="a_node7"><a xlink:href="group__serial__transport.html" target="_top" xlink:title="POSIX and Win32 serial port transport. ">
<polygon fill="white" stroke="black" points="211.255,-444.5 211.255,-462.5 272.831,-462.5 272.831,-444.5 211.255,-444.5"/>
<text text-anchor="middle" x="242.043" y="-450.5" font-family="Helvetica,sans-Serif" font-size="10.00">Serial port</text>
</a>
</g>
</g>
<!-- Node0&#45;&gt;Node15 -->
<g id="edge15" class="edge"><title>Node0&#45;&gt;Node15</title>
<path fill="none" stroke="blueviolet" stroke-dasharray="5,2" d="M115.707,-332.546C125.033,-354.228 151.801,-409.306 192.822,-435.5 198.395,-439.059 204.776,-442.064 211.031,-444.539"/>
<text text-anchor="middle" x="165.096" y="-423.5" font-family="Helvetica,sans-Serif" font-size="10.00">erpc</text>
</g>
<!-- Node5 -->
<g id="node8" class="node"><title>Node5</title>
<g id="a_node8"><a xlink:href="group__infra__utility.html" target="_top" xlink:title="Utility code used by the infrastructure. ">
<polygon fill="white" stroke="black" points="217.93,-407.5 217.93,-425.5 266.156,-425.5 266.156,-407.5 217.93,-407.5"/>
<text text-anchor="middle" x="242.043" y="-413.5" font-family="Helvetica,sans-Serif" font-size="10.00">Utilities</text>
</a>
</g>
</g>
<!-- Node0&#45;&gt;Node5 -->
<g id="edge5" class="edge"><title>Node0&#45;&gt;Node5</title>
<path fill="none" stroke="blueviolet" stroke-dasharray="5,2" d="M119.507,-332.751C132.702,-348.482 161.675,-380.486 192.822,-398.5 200.558,-402.974 209.608,-406.699 217.765,-409.578"/>
<text text-anchor="middle" x="165.096" y="-386.5" font-family="Helvetica,sans-Serif" font-size="10.00">erpc</text>
</g>
<!-- Node10 -->
<g id="node9" class="node"><title>Node10</title>
<g id="a_node9"><a xlink:href="group__lpuart__transport.html" target="_top" xlink:title="Kinetis SDK LPUART driver transport. ">
<polygon fill="white" stroke="black" points="214.404,-370.5 214.404,-388.5 269.682,-388.5 269.682,-370.5 214.404,-370.5"/>
<text text-anchor="middle" x="242.043" y="-376.5" font-family="Helvetica,sans-Serif" font-size="10.00">LPUART</text>
</a>
</g>
</g>
<!-- Node0&#45;&gt;Node10 -->
<g id="edge10" class="edge"><title>Node0&#45;&gt;Node10</title>
<path fill="none" stroke="blueviolet" stroke-dasharray="5,2" d="M129.193,-332.542C137.104,-336.623 146.652,-341.431 155.369,-345.5 175.38,-354.84 198.712,-363.991 215.97,-370.442"/>
<text text-anchor="middle" x="165.096" y="-355.5" font-family="Helvetica,sans-Serif" font-size="10.00">erpc</text>
</g>
<!-- Node17 -->
<g id="node10" class="node"><title>Node17</title>
<g id="a_node10"><a xlink:href="group__spi__slave__transport.html" target="_top" xlink:title="Kinetis SDK SPI slave driver transport. ">
<polygon fill="white" stroke="black" points="212.087,-333.5 212.087,-351.5 271.999,-351.5 271.999,-333.5 212.087,-333.5"/>
<text text-anchor="middle" x="242.043" y="-339.5" font-family="Helvetica,sans-Serif" font-size="10.00">SPI Slave</text>
</a>
</g>
</g>
<!-- Node0&#45;&gt;Node17 -->
<g id="edge17" class="edge"><title>Node0&#45;&gt;Node17</title>
<path fill="none" stroke="blueviolet" stroke-dasharray="5,2" d="M137.516,-327.254C158.96,-330.412 189.617,-334.927 212.004,-338.223"/>
<text text-anchor="middle" x="165.096" y="-333.5" font-family="Helvetica,sans-Serif" font-size="10.00">erpc</text>
</g>
<!-- Node19 -->
<g id="node11" class="node"><title>Node19</title>
<g id="a_node11"><a xlink:href="group__uart__transport.html" target="_top" xlink:title="Kinetis SDK UART driver transport. ">
<polygon fill="white" stroke="black" points="220.52,-296.5 220.52,-314.5 263.566,-314.5 263.566,-296.5 220.52,-296.5"/>
<text text-anchor="middle" x="242.043" y="-302.5" font-family="Helvetica,sans-Serif" font-size="10.00">UART</text>
</a>
</g>
</g>
<!-- Node0&#45;&gt;Node19 -->
<g id="edge19" class="edge"><title>Node0&#45;&gt;Node19</title>
<path fill="none" stroke="blueviolet" stroke-dasharray="5,2" d="M137.457,-314.797C143.281,-313.106 149.49,-311.539 155.369,-310.5 177.377,-306.612 203.008,-305.564 220.461,-305.362"/>
<text text-anchor="middle" x="165.096" y="-312.5" font-family="Helvetica,sans-Serif" font-size="10.00">erpc</text>
</g>
<!-- Node16 -->
<g id="node12" class="node"><title>Node16</title>
<g id="a_node12"><a xlink:href="group__spi__master__transport.html" target="_top" xlink:title="Kinetis SDK SPI master driver transport. ">
<polygon fill="white" stroke="black" points="209.314,-259.5 209.314,-277.5 274.772,-277.5 274.772,-259.5 209.314,-259.5"/>
<text text-anchor="middle" x="242.043" y="-265.5" font-family="Helvetica,sans-Serif" font-size="10.00">SPI Master</text>
</a>
</g>
</g>
<!-- Node0&#45;&gt;Node16 -->
<g id="edge16" class="edge"><title>Node0&#45;&gt;Node16</title>
<path fill="none" stroke="blueviolet" stroke-dasharray="5,2" d="M123.603,-314.374C132.024,-308.088 143.913,-299.924 155.369,-294.5 172.509,-286.386 192.77,-280.1 209.284,-275.744"/>
<text text-anchor="middle" x="165.096" y="-296.5" font-family="Helvetica,sans-Serif" font-size="10.00">erpc</text>
</g>
<!-- Node6 -->
<g id="node13" class="node"><title>Node6</title>
<g id="a_node13"><a xlink:href="group__infra__server.html" target="_top" xlink:title="Server classes. ">
<polygon fill="white" stroke="black" points="219.316,-222.5 219.316,-240.5 264.77,-240.5 264.77,-222.5 219.316,-222.5"/>
<text text-anchor="middle" x="242.043" y="-228.5" font-family="Helvetica,sans-Serif" font-size="10.00">Server</text>
</a>
</g>
</g>
<!-- Node0&#45;&gt;Node6 -->
<g id="edge6" class="edge"><title>Node0&#45;&gt;Node6</title>
<path fill="none" stroke="blueviolet" stroke-dasharray="5,2" d="M118.696,-314.314C126.669,-303.715 140.774,-286.128 155.369,-273.5 170.32,-260.565 175.139,-258.34 192.822,-249.5 201.135,-245.345 210.652,-241.595 219.023,-238.607"/>
<text text-anchor="middle" x="165.096" y="-275.5" font-family="Helvetica,sans-Serif" font-size="10.00">erpc</text>
</g>
<!-- Node9 -->
<g id="node14" class="node"><title>Node9</title>
<g id="a_node14"><a xlink:href="group__itbp__transport.html" target="_top" xlink:title="Simple inter&#45;thread communications transport. ">
<polygon fill="white" stroke="black" points="208.196,-185.5 208.196,-203.5 275.89,-203.5 275.89,-185.5 208.196,-185.5"/>
<text text-anchor="middle" x="242.043" y="-191.5" font-family="Helvetica,sans-Serif" font-size="10.00">Inter&#45;thread</text>
</a>
</g>
</g>
<!-- Node0&#45;&gt;Node9 -->
<g id="edge9" class="edge"><title>Node0&#45;&gt;Node9</title>
<path fill="none" stroke="blueviolet" stroke-dasharray="5,2" d="M115.923,-314.228C122.607,-298.95 137.299,-267.944 155.369,-245.5 169.282,-228.219 173.791,-223.902 192.822,-212.5 198.648,-209.01 205.265,-206.005 211.689,-203.506"/>
<text text-anchor="middle" x="165.096" y="-247.5" font-family="Helvetica,sans-Serif" font-size="10.00">erpc</text>
</g>
<!-- Node7 -->
<g id="node15" class="node"><title>Node7</title>
<g id="a_node15"><a xlink:href="group__dspi__master__transport.html" target="_top" xlink:title="Kinetis SDK DSPI master driver transport. ">
<polygon fill="white" stroke="black" points="205.703,-148.5 205.703,-166.5 278.383,-166.5 278.383,-148.5 205.703,-148.5"/>
<text text-anchor="middle" x="242.043" y="-154.5" font-family="Helvetica,sans-Serif" font-size="10.00">DSPI Master</text>
</a>
</g>
</g>
<!-- Node0&#45;&gt;Node7 -->
<g id="edge7" class="edge"><title>Node0&#45;&gt;Node7</title>
<path fill="none" stroke="blueviolet" stroke-dasharray="5,2" d="M114.097,-314.452C118.942,-294.559 132.382,-246.041 155.369,-211.5 168.161,-192.279 173.278,-187.793 192.822,-175.5 198.42,-171.979 204.81,-168.99 211.068,-166.519"/>
<text text-anchor="middle" x="165.096" y="-213.5" font-family="Helvetica,sans-Serif" font-size="10.00">erpc</text>
</g>
<!-- Node13 -->
<g id="node17" class="node"><title>Node13</title>
<g id="a_node17"><a xlink:href="group__rpmsg__rtos__transport.html" target="_top" xlink:title="OpenAMP RPMsg RTOS layer transport. ">
<polygon fill="white" stroke="black" points="202.549,-111.5 202.549,-129.5 281.537,-129.5 281.537,-111.5 202.549,-111.5"/>
<text text-anchor="middle" x="242.043" y="-117.5" font-family="Helvetica,sans-Serif" font-size="10.00">RPMsg RTOS</text>
</a>
</g>
</g>
<!-- Node0&#45;&gt;Node13 -->
<g id="edge13" class="edge"><title>Node0&#45;&gt;Node13</title>
<path fill="none" stroke="blueviolet" stroke-dasharray="5,2" d="M113.01,-314.457C115.98,-290.185 126.5,-222.213 155.369,-174.5 167.321,-154.746 173.278,-150.793 192.822,-138.5 198.42,-134.979 204.81,-131.99 211.068,-129.519"/>
<text text-anchor="middle" x="165.096" y="-176.5" font-family="Helvetica,sans-Serif" font-size="10.00">erpc</text>
</g>
<!-- Node3 -->
<g id="node18" class="node"><title>Node3</title>
<g id="a_node18"><a xlink:href="group__infra__codec.html" target="_top" xlink:title="Classes used for message serialization. ">
<polygon fill="white" stroke="black" points="206.807,-74.5 206.807,-92.5 277.279,-92.5 277.279,-74.5 206.807,-74.5"/>
<text text-anchor="middle" x="242.043" y="-80.5" font-family="Helvetica,sans-Serif" font-size="10.00">Serialization</text>
</a>
</g>
</g>
<!-- Node0&#45;&gt;Node3 -->
<g id="edge3" class="edge"><title>Node0&#45;&gt;Node3</title>
<path fill="none" stroke="blueviolet" stroke-dasharray="5,2" d="M112.348,-314.32C113.701,-286.061 120.622,-198.604 155.369,-137.5 166.782,-117.43 173.278,-113.793 192.822,-101.5 198.42,-97.9794 204.81,-94.9902 211.068,-92.5192"/>
<text text-anchor="middle" x="165.096" y="-139.5" font-family="Helvetica,sans-Serif" font-size="10.00">erpc</text>
</g>
<!-- Node11 -->
<g id="node19" class="node"><title>Node11</title>
<g id="a_node19"><a xlink:href="group__rpmsg__lite__rtos__transport.html" target="_top" xlink:title="RPMsg&#45;Lite transport using RTOS API. ">
<polygon fill="white" stroke="black" points="192.822,-37.5 192.822,-55.5 291.264,-55.5 291.264,-37.5 192.822,-37.5"/>
<text text-anchor="middle" x="242.043" y="-43.5" font-family="Helvetica,sans-Serif" font-size="10.00">RPMsg&#45;Lite RTOS</text>
</a>
</g>
</g>
<!-- Node0&#45;&gt;Node11 -->
<g id="edge11" class="edge"><title>Node0&#45;&gt;Node11</title>
<path fill="none" stroke="blueviolet" stroke-dasharray="5,2" d="M111.838,-314.286C111.573,-282.366 113.962,-174.37 155.369,-99.5 166.395,-79.5631 173.452,-76.4938 192.822,-64.5 198.444,-61.0189 204.845,-58.0463 211.105,-55.579"/>
<text text-anchor="middle" x="165.096" y="-101.5" font-family="Helvetica,sans-Serif" font-size="10.00">erpc</text>
</g>
<!-- Node12 -->
<g id="node20" class="node"><title>Node12</title>
<g id="a_node20"><a xlink:href="group__rpmsg__lite__transport.html" target="_top" xlink:title="RPMsg&#45;Lite transport. ">
<polygon fill="white" stroke="black" points="207.925,-0.5 207.925,-18.5 276.161,-18.5 276.161,-0.5 207.925,-0.5"/>
<text text-anchor="middle" x="242.043" y="-6.5" font-family="Helvetica,sans-Serif" font-size="10.00">RPMsg&#45;Lite</text>
</a>
</g>
</g>
<!-- Node0&#45;&gt;Node12 -->
<g id="edge12" class="edge"><title>Node0&#45;&gt;Node12</title>
<path fill="none" stroke="blueviolet" stroke-dasharray="5,2" d="M112.75,-314.411C116.111,-273.664 131.072,-107.845 155.369,-62.5 166.13,-42.4184 173.452,-39.4938 192.822,-27.5 198.444,-24.0189 204.845,-21.0463 211.105,-18.579"/>
<text text-anchor="middle" x="165.096" y="-64.5" font-family="Helvetica,sans-Serif" font-size="10.00">erpc</text>
</g>
<!-- Node1 -->
<g id="node16" class="node"><title>Node1</title>
<g id="a_node16"><a xlink:href="group__port.html" target="_top" xlink:title="Porting layer. ">
<polygon fill="white" stroke="black" points="0,-314.5 0,-332.5 47.6846,-332.5 47.6846,-314.5 0,-314.5"/>
<text text-anchor="middle" x="23.8423" y="-320.5" font-family="Helvetica,sans-Serif" font-size="10.00">Porting</text>
</a>
</g>
</g>
<!-- Node1&#45;&gt;Node0 -->
<g id="edge1" class="edge"><title>Node1&#45;&gt;Node0</title>
<path fill="none" stroke="black" d="M58.3263,-323.5C66.993,-323.5 76.1876,-323.5 84.382,-323.5"/>
<polygon fill="black" stroke="black" points="58.1194,-320 48.1193,-323.5 58.1193,-327 58.1194,-320"/>
</g>
</g>
</svg>
