<?xml version="1.0" encoding="UTF-8" standalone="no"?>
<!DOCTYPE svg PUBLIC "-//W3C//DTD SVG 1.1//EN"
 "http://www.w3.org/Graphics/SVG/1.1/DTD/svg11.dtd">
<!-- Generated by graphviz version 2.38.0 (20140413.2041)
 -->
<!-- Title: DSPI Master Pages: 1 -->
<svg width="363pt" height="656pt"
 viewBox="0.00 0.00 362.79 656.00" xmlns="http://www.w3.org/2000/svg" xmlns:xlink="http://www.w3.org/1999/xlink">
<g id="graph0" class="graph" transform="scale(1 1) rotate(0) translate(4 652)">
<title>DSPI Master</title>
<polygon fill="white" stroke="none" points="-4,4 -4,-652 358.794,-652 358.794,4 -4,4"/>
<!-- Node1 -->
<g id="node1" class="node"><title>Node1</title>
<g id="a_node1"><a xlink:href="group__transports.html" target="_top" xlink:title="Transport layer classes. ">
<polygon fill="white" stroke="black" points="0,-314.5 0,-332.5 91.2197,-332.5 91.2197,-314.5 0,-314.5"/>
<text text-anchor="middle" x="45.6099" y="-320.5" font-family="Helvetica,sans-Serif" font-size="10.00">Transport Layers</text>
</a>
</g>
</g>
<!-- Node0 -->
<g id="node16" class="node"><title>Node0</title>
<polygon fill="#bfbfbf" stroke="black" points="128.22,-314.5 128.22,-332.5 200.899,-332.5 200.899,-314.5 128.22,-314.5"/>
<text text-anchor="middle" x="164.56" y="-320.5" font-family="Helvetica,sans-Serif" font-size="10.00">DSPI Master</text>
</g>
<!-- Node1&#45;&gt;Node0 -->
<g id="edge1" class="edge"><title>Node1&#45;&gt;Node0</title>
<path fill="none" stroke="black" d="M101.564,-323.5C110.568,-323.5 119.685,-323.5 128.054,-323.5"/>
<polygon fill="black" stroke="black" points="101.491,-320 91.4912,-323.5 101.491,-327 101.491,-320"/>
</g>
<!-- Node8 -->
<g id="node2" class="node"><title>Node8</title>
<g id="a_node2"><a xlink:href="group__dspi__slave__transport.html" target="_top" xlink:title="Kinetis SDK DSPI slave driver transport. ">
<polygon fill="white" stroke="black" points="272.007,-629.5 272.007,-647.5 339.14,-647.5 339.14,-629.5 272.007,-629.5"/>
<text text-anchor="middle" x="305.573" y="-635.5" font-family="Helvetica,sans-Serif" font-size="10.00">DSPI Slave</text>
</a>
</g>
</g>
<!-- Node7 -->
<g id="node3" class="node"><title>Node7</title>
<g id="a_node3"><a xlink:href="group__port__threads.html" target="_top" xlink:title="Threading model. ">
<polygon fill="white" stroke="black" points="279.231,-592.5 279.231,-610.5 331.916,-610.5 331.916,-592.5 279.231,-592.5"/>
<text text-anchor="middle" x="305.573" y="-598.5" font-family="Helvetica,sans-Serif" font-size="10.00">Threads</text>
</a>
</g>
</g>
<!-- Node18 -->
<g id="node4" class="node"><title>Node18</title>
<g id="a_node4"><a xlink:href="group__tcp__transport.html" target="_top" xlink:title="Simple TCP/IP transport. ">
<polygon fill="white" stroke="black" points="281.46,-555.5 281.46,-573.5 329.687,-573.5 329.687,-555.5 281.46,-555.5"/>
<text text-anchor="middle" x="305.573" y="-561.5" font-family="Helvetica,sans-Serif" font-size="10.00">TCP/IP</text>
</a>
</g>
</g>
<!-- Node14 -->
<g id="node5" class="node"><title>Node14</title>
<g id="a_node5"><a xlink:href="group__rpmsg__transport.html" target="_top" xlink:title="OpenAMP RPMsg transport. ">
<polygon fill="white" stroke="black" points="281.182,-518.5 281.182,-536.5 329.965,-536.5 329.965,-518.5 281.182,-518.5"/>
<text text-anchor="middle" x="305.573" y="-524.5" font-family="Helvetica,sans-Serif" font-size="10.00">RPMsg</text>
</a>
</g>
</g>
<!-- Node2 -->
<g id="node6" class="node"><title>Node2</title>
<g id="a_node6"><a xlink:href="group__infra__client.html" target="_top" xlink:title="Client classes. ">
<polygon fill="white" stroke="black" points="284.79,-481.5 284.79,-499.5 326.356,-499.5 326.356,-481.5 284.79,-481.5"/>
<text text-anchor="middle" x="305.573" y="-487.5" font-family="Helvetica,sans-Serif" font-size="10.00">Client</text>
</a>
</g>
</g>
<!-- Node4 -->
<g id="node7" class="node"><title>Node4</title>
<g id="a_node7"><a xlink:href="group__infra__transport.html" target="_top" xlink:title="Superclasses for building transports. ">
<polygon fill="white" stroke="black" points="273.86,-444.5 273.86,-462.5 337.287,-462.5 337.287,-444.5 273.86,-444.5"/>
<text text-anchor="middle" x="305.573" y="-450.5" font-family="Helvetica,sans-Serif" font-size="10.00">Transports</text>
</a>
</g>
</g>
<!-- Node15 -->
<g id="node8" class="node"><title>Node15</title>
<g id="a_node8"><a xlink:href="group__serial__transport.html" target="_top" xlink:title="POSIX and Win32 serial port transport. ">
<polygon fill="white" stroke="black" points="274.785,-407.5 274.785,-425.5 336.361,-425.5 336.361,-407.5 274.785,-407.5"/>
<text text-anchor="middle" x="305.573" y="-413.5" font-family="Helvetica,sans-Serif" font-size="10.00">Serial port</text>
</a>
</g>
</g>
<!-- Node5 -->
<g id="node9" class="node"><title>Node5</title>
<g id="a_node9"><a xlink:href="group__infra__utility.html" target="_top" xlink:title="Utility code used by the infrastructure. ">
<polygon fill="white" stroke="black" points="281.46,-370.5 281.46,-388.5 329.687,-388.5 329.687,-370.5 281.46,-370.5"/>
<text text-anchor="middle" x="305.573" y="-376.5" font-family="Helvetica,sans-Serif" font-size="10.00">Utilities</text>
</a>
</g>
</g>
<!-- Node10 -->
<g id="node10" class="node"><title>Node10</title>
<g id="a_node10"><a xlink:href="group__lpuart__transport.html" target="_top" xlink:title="Kinetis SDK LPUART driver transport. ">
<polygon fill="white" stroke="black" points="277.935,-333.5 277.935,-351.5 333.212,-351.5 333.212,-333.5 277.935,-333.5"/>
<text text-anchor="middle" x="305.573" y="-339.5" font-family="Helvetica,sans-Serif" font-size="10.00">LPUART</text>
</a>
</g>
</g>
<!-- Node17 -->
<g id="node11" class="node"><title>Node17</title>
<g id="a_node11"><a xlink:href="group__spi__slave__transport.html" target="_top" xlink:title="Kinetis SDK SPI slave driver transport. ">
<polygon fill="white" stroke="black" points="275.618,-296.5 275.618,-314.5 335.529,-314.5 335.529,-296.5 275.618,-296.5"/>
<text text-anchor="middle" x="305.573" y="-302.5" font-family="Helvetica,sans-Serif" font-size="10.00">SPI Slave</text>
</a>
</g>
</g>
<!-- Node19 -->
<g id="node12" class="node"><title>Node19</title>
<g id="a_node12"><a xlink:href="group__uart__transport.html" target="_top" xlink:title="Kinetis SDK UART driver transport. ">
<polygon fill="white" stroke="black" points="284.05,-259.5 284.05,-277.5 327.096,-277.5 327.096,-259.5 284.05,-259.5"/>
<text text-anchor="middle" x="305.573" y="-265.5" font-family="Helvetica,sans-Serif" font-size="10.00">UART</text>
</a>
</g>
</g>
<!-- Node16 -->
<g id="node13" class="node"><title>Node16</title>
<g id="a_node13"><a xlink:href="group__spi__master__transport.html" target="_top" xlink:title="Kinetis SDK SPI master driver transport. ">
<polygon fill="white" stroke="black" points="272.844,-222.5 272.844,-240.5 338.302,-240.5 338.302,-222.5 272.844,-222.5"/>
<text text-anchor="middle" x="305.573" y="-228.5" font-family="Helvetica,sans-Serif" font-size="10.00">SPI Master</text>
</a>
</g>
</g>
<!-- Node6 -->
<g id="node14" class="node"><title>Node6</title>
<g id="a_node14"><a xlink:href="group__infra__server.html" target="_top" xlink:title="Server classes. ">
<polygon fill="white" stroke="black" points="282.847,-185.5 282.847,-203.5 328.3,-203.5 328.3,-185.5 282.847,-185.5"/>
<text text-anchor="middle" x="305.573" y="-191.5" font-family="Helvetica,sans-Serif" font-size="10.00">Server</text>
</a>
</g>
</g>
<!-- Node9 -->
<g id="node15" class="node"><title>Node9</title>
<g id="a_node15"><a xlink:href="group__itbp__transport.html" target="_top" xlink:title="Simple inter&#45;thread communications transport. ">
<polygon fill="white" stroke="black" points="271.726,-148.5 271.726,-166.5 339.42,-166.5 339.42,-148.5 271.726,-148.5"/>
<text text-anchor="middle" x="305.573" y="-154.5" font-family="Helvetica,sans-Serif" font-size="10.00">Inter&#45;thread</text>
</a>
</g>
</g>
<!-- Node0&#45;&gt;Node8 -->
<g id="edge8" class="edge"><title>Node0&#45;&gt;Node8</title>
<path fill="none" stroke="blueviolet" stroke-dasharray="5,2" d="M165.47,-332.777C165.517,-368.116 169.268,-496.781 218.899,-585.5 230.022,-605.383 236.982,-608.506 256.353,-620.5 261.975,-623.981 268.376,-626.954 274.635,-629.421"/>
<text text-anchor="middle" x="228.626" y="-610.5" font-family="Helvetica,sans-Serif" font-size="10.00">erpc</text>
</g>
<!-- Node0&#45;&gt;Node7 -->
<g id="edge7" class="edge"><title>Node0&#45;&gt;Node7</title>
<path fill="none" stroke="blueviolet" stroke-dasharray="5,2" d="M165.92,-332.707C167.531,-364.607 176.034,-472.542 218.899,-547.5 230.361,-567.543 236.808,-571.207 256.353,-583.5 263.312,-587.877 271.496,-591.433 279.127,-594.192"/>
<text text-anchor="middle" x="228.626" y="-573.5" font-family="Helvetica,sans-Serif" font-size="10.00">erpc</text>
</g>
<!-- Node0&#45;&gt;Node18 -->
<g id="edge18" class="edge"><title>Node0&#45;&gt;Node18</title>
<path fill="none" stroke="blueviolet" stroke-dasharray="5,2" d="M166.476,-332.738C169.638,-361.174 182.009,-449.168 218.899,-510.5 230.8,-530.285 236.808,-534.207 256.353,-546.5 263.917,-551.258 272.929,-555.045 281.104,-557.894"/>
<text text-anchor="middle" x="228.626" y="-535.5" font-family="Helvetica,sans-Serif" font-size="10.00">erpc</text>
</g>
<!-- Node0&#45;&gt;Node14 -->
<g id="edge14" class="edge"><title>Node0&#45;&gt;Node14</title>
<path fill="none" stroke="blueviolet" stroke-dasharray="5,2" d="M167.263,-332.6C172.143,-357.028 187.861,-425.438 218.899,-473.5 231.425,-492.896 236.808,-497.207 256.353,-509.5 263.917,-514.258 272.929,-518.045 281.104,-520.894"/>
<text text-anchor="middle" x="228.626" y="-498.5" font-family="Helvetica,sans-Serif" font-size="10.00">erpc</text>
</g>
<!-- Node0&#45;&gt;Node2 -->
<g id="edge2" class="edge"><title>Node0&#45;&gt;Node2</title>
<path fill="none" stroke="blueviolet" stroke-dasharray="5,2" d="M168.728,-332.79C175.796,-352.752 194.193,-400.744 218.899,-435.5 232.456,-454.571 236.631,-459.907 256.353,-472.5 264.938,-477.983 275.44,-482.152 284.448,-485.09"/>
<text text-anchor="middle" x="228.626" y="-461.5" font-family="Helvetica,sans-Serif" font-size="10.00">erpc</text>
</g>
<!-- Node0&#45;&gt;Node4 -->
<g id="edge4" class="edge"><title>Node0&#45;&gt;Node4</title>
<path fill="none" stroke="blueviolet" stroke-dasharray="5,2" d="M170.261,-332.754C181.767,-354.41 213.552,-408.58 256.353,-435.5 261.95,-439.021 268.341,-442.01 274.598,-444.481"/>
<text text-anchor="middle" x="228.626" y="-423.5" font-family="Helvetica,sans-Serif" font-size="10.00">erpc</text>
</g>
<!-- Node0&#45;&gt;Node15 -->
<g id="edge15" class="edge"><title>Node0&#45;&gt;Node15</title>
<path fill="none" stroke="blueviolet" stroke-dasharray="5,2" d="M174.826,-332.989C190.416,-348.505 223.424,-379.478 256.353,-398.5 262.31,-401.942 269.047,-404.942 275.554,-407.454"/>
<text text-anchor="middle" x="228.626" y="-387.5" font-family="Helvetica,sans-Serif" font-size="10.00">erpc</text>
</g>
<!-- Node0&#45;&gt;Node5 -->
<g id="edge5" class="edge"><title>Node0&#45;&gt;Node5</title>
<path fill="none" stroke="blueviolet" stroke-dasharray="5,2" d="M186.277,-332.583C196.133,-336.866 208.098,-342.009 218.899,-346.5 235.457,-353.384 239.629,-355.031 256.353,-361.5 264.353,-364.595 273.134,-367.9 280.986,-370.822"/>
<text text-anchor="middle" x="228.626" y="-355.5" font-family="Helvetica,sans-Serif" font-size="10.00">erpc</text>
</g>
<!-- Node0&#45;&gt;Node10 -->
<g id="edge10" class="edge"><title>Node0&#45;&gt;Node10</title>
<path fill="none" stroke="blueviolet" stroke-dasharray="5,2" d="M200.998,-328.344C224.809,-331.598 255.706,-335.821 277.538,-338.805"/>
<text text-anchor="middle" x="228.626" y="-334.5" font-family="Helvetica,sans-Serif" font-size="10.00">erpc</text>
</g>
<!-- Node0&#45;&gt;Node17 -->
<g id="edge17" class="edge"><title>Node0&#45;&gt;Node17</title>
<path fill="none" stroke="blueviolet" stroke-dasharray="5,2" d="M198.666,-314.45C205.323,-312.908 212.301,-311.488 218.899,-310.5 237.613,-307.697 258.844,-306.445 275.489,-305.894"/>
<text text-anchor="middle" x="228.626" y="-312.5" font-family="Helvetica,sans-Serif" font-size="10.00">erpc</text>
</g>
<!-- Node0&#45;&gt;Node19 -->
<g id="edge19" class="edge"><title>Node0&#45;&gt;Node19</title>
<path fill="none" stroke="blueviolet" stroke-dasharray="5,2" d="M179.598,-314.431C190.102,-307.94 204.992,-299.349 218.899,-293.5 240.466,-284.429 266.398,-277.361 284.042,-273.089"/>
<text text-anchor="middle" x="228.626" y="-295.5" font-family="Helvetica,sans-Serif" font-size="10.00">erpc</text>
</g>
<!-- Node0&#45;&gt;Node16 -->
<g id="edge16" class="edge"><title>Node0&#45;&gt;Node16</title>
<path fill="none" stroke="blueviolet" stroke-dasharray="5,2" d="M174.047,-314.164C184.121,-303.385 201.726,-285.476 218.899,-272.5 234.302,-260.862 238.996,-258.953 256.353,-250.5 263.633,-246.954 271.755,-243.553 279.226,-240.633"/>
<text text-anchor="middle" x="228.626" y="-274.5" font-family="Helvetica,sans-Serif" font-size="10.00">erpc</text>
</g>
<!-- Node0&#45;&gt;Node6 -->
<g id="edge6" class="edge"><title>Node0&#45;&gt;Node6</title>
<path fill="none" stroke="blueviolet" stroke-dasharray="5,2" d="M170.252,-314.321C181.737,-292.859 213.481,-239.268 256.353,-213.5 264.527,-208.586 274.2,-204.484 282.728,-201.364"/>
<text text-anchor="middle" x="228.626" y="-244.5" font-family="Helvetica,sans-Serif" font-size="10.00">erpc</text>
</g>
<!-- Node0&#45;&gt;Node9 -->
<g id="edge9" class="edge"><title>Node0&#45;&gt;Node9</title>
<path fill="none" stroke="blueviolet" stroke-dasharray="5,2" d="M168.71,-314.269C175.743,-294.439 194.077,-246.792 218.899,-212.5 232.438,-193.797 236.92,-188.969 256.353,-176.5 262.411,-172.613 269.392,-169.299 276.127,-166.581"/>
<text text-anchor="middle" x="228.626" y="-214.5" font-family="Helvetica,sans-Serif" font-size="10.00">erpc</text>
</g>
<!-- Node13 -->
<g id="node17" class="node"><title>Node13</title>
<g id="a_node17"><a xlink:href="group__rpmsg__rtos__transport.html" target="_top" xlink:title="OpenAMP RPMsg RTOS layer transport. ">
<polygon fill="white" stroke="black" points="266.079,-111.5 266.079,-129.5 345.067,-129.5 345.067,-111.5 266.079,-111.5"/>
<text text-anchor="middle" x="305.573" y="-117.5" font-family="Helvetica,sans-Serif" font-size="10.00">RPMsg RTOS</text>
</a>
</g>
</g>
<!-- Node0&#45;&gt;Node13 -->
<g id="edge13" class="edge"><title>Node0&#45;&gt;Node13</title>
<path fill="none" stroke="blueviolet" stroke-dasharray="5,2" d="M167.24,-314.437C172.065,-290.113 187.659,-222.026 218.899,-174.5 231.414,-155.462 237.091,-151.668 256.353,-139.5 262.514,-135.607 269.604,-132.276 276.418,-129.54"/>
<text text-anchor="middle" x="228.626" y="-176.5" font-family="Helvetica,sans-Serif" font-size="10.00">erpc</text>
</g>
<!-- Node3 -->
<g id="node18" class="node"><title>Node3</title>
<g id="a_node18"><a xlink:href="group__infra__codec.html" target="_top" xlink:title="Classes used for message serialization. ">
<polygon fill="white" stroke="black" points="270.337,-74.5 270.337,-92.5 340.81,-92.5 340.81,-74.5 270.337,-74.5"/>
<text text-anchor="middle" x="305.573" y="-80.5" font-family="Helvetica,sans-Serif" font-size="10.00">Serialization</text>
</a>
</g>
</g>
<!-- Node0&#45;&gt;Node3 -->
<g id="edge3" class="edge"><title>Node0&#45;&gt;Node3</title>
<path fill="none" stroke="blueviolet" stroke-dasharray="5,2" d="M166.45,-314.288C169.539,-285.937 181.72,-198.242 218.899,-137.5 230.793,-118.068 237.091,-114.668 256.353,-102.5 262.514,-98.6072 269.604,-95.2757 276.418,-92.54"/>
<text text-anchor="middle" x="228.626" y="-139.5" font-family="Helvetica,sans-Serif" font-size="10.00">erpc</text>
</g>
<!-- Node11 -->
<g id="node19" class="node"><title>Node11</title>
<g id="a_node19"><a xlink:href="group__rpmsg__lite__rtos__transport.html" target="_top" xlink:title="RPMsg&#45;Lite transport using RTOS API. ">
<polygon fill="white" stroke="black" points="256.353,-37.5 256.353,-55.5 354.794,-55.5 354.794,-37.5 256.353,-37.5"/>
<text text-anchor="middle" x="305.573" y="-43.5" font-family="Helvetica,sans-Serif" font-size="10.00">RPMsg&#45;Lite RTOS</text>
</a>
</g>
</g>
<!-- Node0&#45;&gt;Node11 -->
<g id="edge11" class="edge"><title>Node0&#45;&gt;Node11</title>
<path fill="none" stroke="blueviolet" stroke-dasharray="5,2" d="M165.842,-314.247C167.198,-282.2 174.97,-173.839 218.899,-99.5 230.337,-80.1451 237.26,-77.37 256.353,-65.5 262.619,-61.6043 269.818,-58.2549 276.71,-55.5015"/>
<text text-anchor="middle" x="228.626" y="-101.5" font-family="Helvetica,sans-Serif" font-size="10.00">erpc</text>
</g>
<!-- Node12 -->
<g id="node20" class="node"><title>Node12</title>
<g id="a_node20"><a xlink:href="group__rpmsg__lite__transport.html" target="_top" xlink:title="RPMsg&#45;Lite transport. ">
<polygon fill="white" stroke="black" points="271.455,-0.5 271.455,-18.5 339.691,-18.5 339.691,-0.5 271.455,-0.5"/>
<text text-anchor="middle" x="305.573" y="-6.5" font-family="Helvetica,sans-Serif" font-size="10.00">RPMsg&#45;Lite</text>
</a>
</g>
</g>
<!-- Node0&#45;&gt;Node12 -->
<g id="edge12" class="edge"><title>Node0&#45;&gt;Node12</title>
<path fill="none" stroke="blueviolet" stroke-dasharray="5,2" d="M165.439,-314.235C165.376,-278.949 168.78,-150.516 218.899,-62.5 231.275,-40.766 256.558,-26.7755 276.466,-18.6592"/>
<text text-anchor="middle" x="228.626" y="-64.5" font-family="Helvetica,sans-Serif" font-size="10.00">erpc</text>
</g>
</g>
</svg>
