<?xml version="1.0" encoding="UTF-8" standalone="no"?>
<!DOCTYPE svg PUBLIC "-//W3C//DTD SVG 1.1//EN"
 "http://www.w3.org/Graphics/SVG/1.1/DTD/svg11.dtd">
<!-- Generated by graphviz version 2.38.0 (20140413.2041)
 -->
<!-- Title: RPMsg Pages: 1 -->
<svg width="420pt" height="695pt"
 viewBox="0.00 0.00 419.66 695.32" xmlns="http://www.w3.org/2000/svg" xmlns:xlink="http://www.w3.org/1999/xlink">
<g id="graph0" class="graph" transform="scale(1 1) rotate(0) translate(4 691.323)">
<title>RPMsg</title>
<polygon fill="white" stroke="none" points="-4,4 -4,-691.323 415.664,-691.323 415.664,4 -4,4"/>
<!-- Node1 -->
<g id="node1" class="node"><title>Node1</title>
<g id="a_node1"><a xlink:href="group__transports.html" target="_top" xlink:title="Transport layer classes. ">
<polygon fill="white" stroke="black" points="0,-328.323 0,-346.323 91.2197,-346.323 91.2197,-328.323 0,-328.323"/>
<text text-anchor="middle" x="45.6099" y="-334.323" font-family="Helvetica,sans-Serif" font-size="10.00">Transport Layers</text>
</a>
</g>
</g>
<!-- Node0 -->
<g id="node5" class="node"><title>Node0</title>
<polygon fill="#bfbfbf" stroke="black" points="128.22,-328.323 128.22,-346.323 177.003,-346.323 177.003,-328.323 128.22,-328.323"/>
<text text-anchor="middle" x="152.611" y="-334.323" font-family="Helvetica,sans-Serif" font-size="10.00">RPMsg</text>
</g>
<!-- Node1&#45;&gt;Node0 -->
<g id="edge1" class="edge"><title>Node1&#45;&gt;Node0</title>
<path fill="none" stroke="black" d="M101.554,-337.323C110.886,-337.323 120.114,-337.323 128.056,-337.323"/>
<polygon fill="black" stroke="black" points="101.445,-333.823 91.4445,-337.323 101.444,-340.823 101.445,-333.823"/>
</g>
<!-- Node10 -->
<g id="node2" class="node"><title>Node10</title>
<g id="a_node2"><a xlink:href="group__dspi__slave__transport.html" target="_top" xlink:title="Kinetis SDK DSPI slave driver transport. ">
<polygon fill="white" stroke="black" points="328.877,-661.323 328.877,-679.323 396.01,-679.323 396.01,-661.323 328.877,-661.323"/>
<text text-anchor="middle" x="362.443" y="-667.323" font-family="Helvetica,sans-Serif" font-size="10.00">DSPI Slave</text>
</a>
</g>
</g>
<!-- Node8 -->
<g id="node3" class="node"><title>Node8</title>
<g id="a_node3"><a xlink:href="group__port__threads.html" target="_top" xlink:title="Threading model. ">
<polygon fill="white" stroke="black" points="336.101,-624.323 336.101,-642.323 388.786,-642.323 388.786,-624.323 336.101,-624.323"/>
<text text-anchor="middle" x="362.443" y="-630.323" font-family="Helvetica,sans-Serif" font-size="10.00">Threads</text>
</a>
</g>
</g>
<!-- Node18 -->
<g id="node4" class="node"><title>Node18</title>
<g id="a_node4"><a xlink:href="group__tcp__transport.html" target="_top" xlink:title="Simple TCP/IP transport. ">
<polygon fill="white" stroke="black" points="338.33,-587.323 338.33,-605.323 386.557,-605.323 386.557,-587.323 338.33,-587.323"/>
<text text-anchor="middle" x="362.443" y="-593.323" font-family="Helvetica,sans-Serif" font-size="10.00">TCP/IP</text>
</a>
</g>
</g>
<!-- Node0&#45;&gt;Node10 -->
<g id="edge10" class="edge"><title>Node0&#45;&gt;Node10</title>
<path fill="none" stroke="blueviolet" stroke-dasharray="5,2" d="M153.44,-346.57C152.782,-393.057 152.295,-600.711 195.003,-644.323 229.585,-679.637 291.044,-679.656 328.822,-675.591"/>
<text text-anchor="middle" x="245.113" y="-679.323" font-family="Helvetica,sans-Serif" font-size="10.00">erpc</text>
</g>
<!-- Node0&#45;&gt;Node8 -->
<g id="edge8" class="edge"><title>Node0&#45;&gt;Node8</title>
<path fill="none" stroke="blueviolet" stroke-dasharray="5,2" d="M153.628,-346.58C153.906,-389.605 157.332,-569.545 195.003,-607.323 214.312,-626.686 294.222,-631.634 335.895,-632.895"/>
<text text-anchor="middle" x="245.113" y="-632.323" font-family="Helvetica,sans-Serif" font-size="10.00">erpc</text>
</g>
<!-- Node0&#45;&gt;Node18 -->
<g id="edge19" class="edge"><title>Node0&#45;&gt;Node18</title>
<path fill="none" stroke="blueviolet" stroke-dasharray="5,2" d="M153.866,-346.342C155.157,-385.258 162.275,-538.27 195.003,-570.323 214.905,-589.814 297.353,-594.694 338.24,-595.916"/>
<text text-anchor="middle" x="245.113" y="-595.323" font-family="Helvetica,sans-Serif" font-size="10.00">erpc</text>
</g>
<!-- Node3 -->
<g id="node6" class="node"><title>Node3</title>
<g id="a_node6"><a xlink:href="group__infra__client.html" target="_top" xlink:title="Client classes. ">
<polygon fill="white" stroke="black" points="341.66,-550.323 341.66,-568.323 383.227,-568.323 383.227,-550.323 341.66,-550.323"/>
<text text-anchor="middle" x="362.443" y="-556.323" font-family="Helvetica,sans-Serif" font-size="10.00">Client</text>
</a>
</g>
</g>
<!-- Node0&#45;&gt;Node3 -->
<g id="edge3" class="edge"><title>Node0&#45;&gt;Node3</title>
<path fill="none" stroke="blueviolet" stroke-dasharray="5,2" d="M154.224,-346.78C156.723,-382.311 167.369,-507.12 195.003,-533.323 215.748,-552.993 301.875,-557.783 341.425,-558.949"/>
<text text-anchor="middle" x="245.113" y="-558.323" font-family="Helvetica,sans-Serif" font-size="10.00">erpc</text>
</g>
<!-- Node5 -->
<g id="node7" class="node"><title>Node5</title>
<g id="a_node7"><a xlink:href="group__infra__transport.html" target="_top" xlink:title="Superclasses for building transports. ">
<polygon fill="white" stroke="black" points="330.73,-513.323 330.73,-531.323 394.157,-531.323 394.157,-513.323 330.73,-513.323"/>
<text text-anchor="middle" x="362.443" y="-519.323" font-family="Helvetica,sans-Serif" font-size="10.00">Transports</text>
</a>
</g>
</g>
<!-- Node0&#45;&gt;Node5 -->
<g id="edge5" class="edge"><title>Node0&#45;&gt;Node5</title>
<path fill="none" stroke="blueviolet" stroke-dasharray="5,2" d="M154.693,-346.732C158.468,-377.856 172.088,-476.677 195.003,-497.323 214.432,-514.828 288.064,-520.076 330.601,-521.649"/>
<text text-anchor="middle" x="245.113" y="-521.323" font-family="Helvetica,sans-Serif" font-size="10.00">erpc</text>
</g>
<!-- Node15 -->
<g id="node8" class="node"><title>Node15</title>
<g id="a_node8"><a xlink:href="group__serial__transport.html" target="_top" xlink:title="POSIX and Win32 serial port transport. ">
<polygon fill="white" stroke="black" points="331.655,-476.323 331.655,-494.323 393.231,-494.323 393.231,-476.323 331.655,-476.323"/>
<text text-anchor="middle" x="362.443" y="-482.323" font-family="Helvetica,sans-Serif" font-size="10.00">Serial port</text>
</a>
</g>
</g>
<!-- Node0&#45;&gt;Node15 -->
<g id="edge16" class="edge"><title>Node0&#45;&gt;Node15</title>
<path fill="none" stroke="blueviolet" stroke-dasharray="5,2" d="M153.553,-346.4C153.94,-369.907 158.494,-433.043 195.003,-463.323 215.194,-480.07 289.277,-484.143 331.484,-485.085"/>
<text text-anchor="middle" x="245.113" y="-485.323" font-family="Helvetica,sans-Serif" font-size="10.00">erpc</text>
</g>
<!-- Node6 -->
<g id="node9" class="node"><title>Node6</title>
<g id="a_node9"><a xlink:href="group__infra__utility.html" target="_top" xlink:title="Utility code used by the infrastructure. ">
<polygon fill="white" stroke="black" points="338.33,-439.323 338.33,-457.323 386.557,-457.323 386.557,-439.323 338.33,-439.323"/>
<text text-anchor="middle" x="362.443" y="-445.323" font-family="Helvetica,sans-Serif" font-size="10.00">Utilities</text>
</a>
</g>
</g>
<!-- Node0&#45;&gt;Node6 -->
<g id="edge6" class="edge"><title>Node0&#45;&gt;Node6</title>
<path fill="none" stroke="blueviolet" stroke-dasharray="5,2" d="M155.212,-346.535C158.827,-364.344 169.392,-403.401 195.003,-422.323 237.697,-453.865 303.515,-453.751 338.207,-451.013"/>
<text text-anchor="middle" x="245.113" y="-453.323" font-family="Helvetica,sans-Serif" font-size="10.00">erpc</text>
</g>
<!-- Node12 -->
<g id="node10" class="node"><title>Node12</title>
<g id="a_node10"><a xlink:href="group__lpuart__transport.html" target="_top" xlink:title="Kinetis SDK LPUART driver transport. ">
<polygon fill="white" stroke="black" points="334.805,-402.323 334.805,-420.323 390.082,-420.323 390.082,-402.323 334.805,-402.323"/>
<text text-anchor="middle" x="362.443" y="-408.323" font-family="Helvetica,sans-Serif" font-size="10.00">LPUART</text>
</a>
</g>
</g>
<!-- Node0&#45;&gt;Node12 -->
<g id="edge12" class="edge"><title>Node0&#45;&gt;Node12</title>
<path fill="none" stroke="blueviolet" stroke-dasharray="5,2" d="M159.432,-346.367C166.53,-356.597 179.516,-372.92 195.003,-381.323 239.779,-405.618 300.312,-410.761 334.678,-411.553"/>
<text text-anchor="middle" x="245.113" y="-410.323" font-family="Helvetica,sans-Serif" font-size="10.00">erpc</text>
</g>
<!-- Node17 -->
<g id="node11" class="node"><title>Node17</title>
<g id="a_node11"><a xlink:href="group__spi__slave__transport.html" target="_top" xlink:title="Kinetis SDK SPI slave driver transport. ">
<polygon fill="white" stroke="black" points="332.488,-365.323 332.488,-383.323 392.399,-383.323 392.399,-365.323 332.488,-365.323"/>
<text text-anchor="middle" x="362.443" y="-371.323" font-family="Helvetica,sans-Serif" font-size="10.00">SPI Slave</text>
</a>
</g>
</g>
<!-- Node0&#45;&gt;Node17 -->
<g id="edge18" class="edge"><title>Node0&#45;&gt;Node17</title>
<path fill="none" stroke="blueviolet" stroke-dasharray="5,2" d="M177.028,-346.099C182.839,-348.039 189.096,-349.929 195.003,-351.323 242.415,-362.511 298.799,-368.89 332.272,-371.973"/>
<text text-anchor="middle" x="245.113" y="-369.323" font-family="Helvetica,sans-Serif" font-size="10.00">erpc</text>
</g>
<!-- Node19 -->
<g id="node12" class="node"><title>Node19</title>
<g id="a_node12"><a xlink:href="group__uart__transport.html" target="_top" xlink:title="Kinetis SDK UART driver transport. ">
<polygon fill="white" stroke="black" points="340.92,-328.323 340.92,-346.323 383.966,-346.323 383.966,-328.323 340.92,-328.323"/>
<text text-anchor="middle" x="362.443" y="-334.323" font-family="Helvetica,sans-Serif" font-size="10.00">UART</text>
</a>
</g>
</g>
<!-- Node0&#45;&gt;Node19 -->
<g id="edge20" class="edge"><title>Node0&#45;&gt;Node19</title>
<path fill="none" stroke="blueviolet" stroke-dasharray="5,2" d="M177.048,-337.323C218.026,-337.323 302.022,-337.323 340.883,-337.323"/>
<text text-anchor="middle" x="245.113" y="-339.323" font-family="Helvetica,sans-Serif" font-size="10.00">erpc</text>
</g>
<!-- Node16 -->
<g id="node13" class="node"><title>Node16</title>
<g id="a_node13"><a xlink:href="group__spi__master__transport.html" target="_top" xlink:title="Kinetis SDK SPI master driver transport. ">
<polygon fill="white" stroke="black" points="329.714,-291.323 329.714,-309.323 395.172,-309.323 395.172,-291.323 329.714,-291.323"/>
<text text-anchor="middle" x="362.443" y="-297.323" font-family="Helvetica,sans-Serif" font-size="10.00">SPI Master</text>
</a>
</g>
</g>
<!-- Node0&#45;&gt;Node16 -->
<g id="edge17" class="edge"><title>Node0&#45;&gt;Node16</title>
<path fill="none" stroke="blueviolet" stroke-dasharray="5,2" d="M177.028,-328.546C182.839,-326.607 189.096,-324.717 195.003,-323.323 241.138,-312.436 295.766,-306.103 329.517,-302.929"/>
<text text-anchor="middle" x="245.113" y="-325.323" font-family="Helvetica,sans-Serif" font-size="10.00">erpc</text>
</g>
<!-- Node7 -->
<g id="node14" class="node"><title>Node7</title>
<g id="a_node14"><a xlink:href="group__infra__server.html" target="_top" xlink:title="Server classes. ">
<polygon fill="white" stroke="black" points="339.717,-254.323 339.717,-272.323 385.17,-272.323 385.17,-254.323 339.717,-254.323"/>
<text text-anchor="middle" x="362.443" y="-260.323" font-family="Helvetica,sans-Serif" font-size="10.00">Server</text>
</a>
</g>
</g>
<!-- Node0&#45;&gt;Node7 -->
<g id="edge7" class="edge"><title>Node0&#45;&gt;Node7</title>
<path fill="none" stroke="blueviolet" stroke-dasharray="5,2" d="M159.373,-328.056C166.417,-317.579 179.352,-300.87 195.003,-292.323 241.855,-266.738 306.214,-262.874 339.506,-262.778"/>
<text text-anchor="middle" x="245.113" y="-294.323" font-family="Helvetica,sans-Serif" font-size="10.00">erpc</text>
</g>
<!-- Node11 -->
<g id="node15" class="node"><title>Node11</title>
<g id="a_node15"><a xlink:href="group__itbp__transport.html" target="_top" xlink:title="Simple inter&#45;thread communications transport. ">
<polygon fill="white" stroke="black" points="328.596,-217.323 328.596,-235.323 396.291,-235.323 396.291,-217.323 328.596,-217.323"/>
<text text-anchor="middle" x="362.443" y="-223.323" font-family="Helvetica,sans-Serif" font-size="10.00">Inter&#45;thread</text>
</a>
</g>
</g>
<!-- Node0&#45;&gt;Node11 -->
<g id="edge11" class="edge"><title>Node0&#45;&gt;Node11</title>
<path fill="none" stroke="blueviolet" stroke-dasharray="5,2" d="M155.069,-328.153C158.473,-310.021 168.744,-269.669 195.003,-250.323 233.903,-221.663 292.069,-220.029 328.333,-222.455"/>
<text text-anchor="middle" x="245.113" y="-252.323" font-family="Helvetica,sans-Serif" font-size="10.00">erpc</text>
</g>
<!-- Node9 -->
<g id="node16" class="node"><title>Node9</title>
<g id="a_node16"><a xlink:href="group__dspi__master__transport.html" target="_top" xlink:title="Kinetis SDK DSPI master driver transport. ">
<polygon fill="white" stroke="black" points="326.104,-180.323 326.104,-198.323 398.783,-198.323 398.783,-180.323 326.104,-180.323"/>
<text text-anchor="middle" x="362.443" y="-186.323" font-family="Helvetica,sans-Serif" font-size="10.00">DSPI Master</text>
</a>
</g>
</g>
<!-- Node0&#45;&gt;Node9 -->
<g id="edge9" class="edge"><title>Node0&#45;&gt;Node9</title>
<path fill="none" stroke="blueviolet" stroke-dasharray="5,2" d="M153.407,-328.268C153.407,-304.197 157.038,-238.348 195.003,-207.323 231.687,-177.345 289.133,-178.245 326.03,-182.855"/>
<text text-anchor="middle" x="245.113" y="-209.323" font-family="Helvetica,sans-Serif" font-size="10.00">erpc</text>
</g>
<!-- Node14 -->
<g id="node17" class="node"><title>Node14</title>
<g id="a_node17"><a xlink:href="group__rpmsg__rtos__transport.html" target="_top" xlink:title="OpenAMP RPMsg RTOS layer transport. ">
<polygon fill="white" stroke="black" points="322.949,-143.323 322.949,-161.323 401.938,-161.323 401.938,-143.323 322.949,-143.323"/>
<text text-anchor="middle" x="362.443" y="-149.323" font-family="Helvetica,sans-Serif" font-size="10.00">RPMsg RTOS</text>
</a>
</g>
</g>
<!-- Node0&#45;&gt;Node14 -->
<g id="edge15" class="edge"><title>Node0&#45;&gt;Node14</title>
<path fill="none" stroke="blueviolet" stroke-dasharray="5,2" d="M154.449,-328.128C157.595,-295.761 169.84,-187.891 195.003,-166.323 230.01,-136.318 285.738,-138.184 322.942,-143.906"/>
<text text-anchor="middle" x="245.113" y="-168.323" font-family="Helvetica,sans-Serif" font-size="10.00">erpc</text>
</g>
<!-- Node4 -->
<g id="node18" class="node"><title>Node4</title>
<g id="a_node18"><a xlink:href="group__infra__codec.html" target="_top" xlink:title="Classes used for message serialization. ">
<polygon fill="white" stroke="black" points="327.207,-106.323 327.207,-124.323 397.68,-124.323 397.68,-106.323 327.207,-106.323"/>
<text text-anchor="middle" x="362.443" y="-112.323" font-family="Helvetica,sans-Serif" font-size="10.00">Serialization</text>
</a>
</g>
</g>
<!-- Node0&#45;&gt;Node4 -->
<g id="edge4" class="edge"><title>Node0&#45;&gt;Node4</title>
<path fill="none" stroke="blueviolet" stroke-dasharray="5,2" d="M153.984,-328.097C155.687,-291.022 164.033,-153.57 195.003,-126.323 230.877,-94.7607 289.65,-99.3145 326.901,-106.54"/>
<text text-anchor="middle" x="245.113" y="-128.323" font-family="Helvetica,sans-Serif" font-size="10.00">erpc</text>
</g>
<!-- Node13 -->
<g id="node19" class="node"><title>Node13</title>
<g id="a_node19"><a xlink:href="group__rpmsg__lite__rtos__transport.html" target="_top" xlink:title="RPMsg&#45;Lite transport using RTOS API. ">
<polygon fill="white" stroke="black" points="313.223,-69.3229 313.223,-87.3229 411.664,-87.3229 411.664,-69.3229 313.223,-69.3229"/>
<text text-anchor="middle" x="362.443" y="-75.3229" font-family="Helvetica,sans-Serif" font-size="10.00">RPMsg&#45;Lite RTOS</text>
</a>
</g>
</g>
<!-- Node0&#45;&gt;Node13 -->
<g id="edge13" class="edge"><title>Node0&#45;&gt;Node13</title>
<path fill="none" stroke="blueviolet" stroke-dasharray="5,2" d="M153.659,-328.08C154.079,-286.72 158.067,-119.224 195.003,-86.3229 211.906,-71.2658 270.345,-71.6286 313.219,-74.1852"/>
<text text-anchor="middle" x="245.113" y="-88.3229" font-family="Helvetica,sans-Serif" font-size="10.00">erpc</text>
</g>
<!-- Node2 -->
<g id="node20" class="node"><title>Node2</title>
<g id="a_node20"><a xlink:href="group__rpmsg__lite__transport.html" target="_top" xlink:title="RPMsg&#45;Lite transport. ">
<polygon fill="white" stroke="black" points="328.325,-21.3229 328.325,-39.3229 396.562,-39.3229 396.562,-21.3229 328.325,-21.3229"/>
<text text-anchor="middle" x="362.443" y="-27.3229" font-family="Helvetica,sans-Serif" font-size="10.00">RPMsg&#45;Lite</text>
</a>
</g>
</g>
<!-- Node0&#45;&gt;Node2 -->
<g id="edge2" class="edge"><title>Node0&#45;&gt;Node2</title>
<path fill="none" stroke="orange" stroke-dasharray="5,2" d="M153.588,-328.064C153.675,-284.195 156.343,-97.7395 195.003,-58.3229 213.059,-39.9138 284.957,-33.5828 328.13,-31.4237"/>
<text text-anchor="middle" x="245.113" y="-60.3229" font-family="Helvetica,sans-Serif" font-size="10.00">erpc::RPMsgTransport</text>
</g>
<!-- Node0&#45;&gt;Node2 -->
<g id="edge14" class="edge"><title>Node0&#45;&gt;Node2</title>
<path fill="none" stroke="blueviolet" stroke-dasharray="5,2" d="M154.096,-328.159C156.83,-278.219 171.055,-40.356 195.003,-19.3229 236.344,16.9859 308.002,-6.66042 342.203,-21.2664"/>
<text text-anchor="middle" x="245.113" y="-21.3229" font-family="Helvetica,sans-Serif" font-size="10.00">erpc</text>
</g>
</g>
</svg>
