<?xml version="1.0" encoding="UTF-8" standalone="no"?>
<!DOCTYPE svg PUBLIC "-//W3C//DTD SVG 1.1//EN"
 "http://www.w3.org/Graphics/SVG/1.1/DTD/svg11.dtd">
<!-- Generated by graphviz version 2.38.0 (20140413.2041)
 -->
<!-- Title: RPMsg&#45;Lite Pages: 1 -->
<svg width="439pt" height="678pt"
 viewBox="0.00 0.00 439.12 677.81" xmlns="http://www.w3.org/2000/svg" xmlns:xlink="http://www.w3.org/1999/xlink">
<g id="graph0" class="graph" transform="scale(1 1) rotate(0) translate(4 673.813)">
<title>RPMsg&#45;Lite</title>
<polygon fill="white" stroke="none" points="-4,4 -4,-673.813 435.117,-673.813 435.117,4 -4,4"/>
<!-- Node1 -->
<g id="node1" class="node"><title>Node1</title>
<g id="a_node1"><a xlink:href="group__transports.html" target="_top" xlink:title="Transport layer classes. ">
<polygon fill="white" stroke="black" points="0,-341.813 0,-359.813 91.2197,-359.813 91.2197,-341.813 0,-341.813"/>
<text text-anchor="middle" x="45.6099" y="-347.813" font-family="Helvetica,sans-Serif" font-size="10.00">Transport Layers</text>
</a>
</g>
</g>
<!-- Node0 -->
<g id="node20" class="node"><title>Node0</title>
<polygon fill="#bfbfbf" stroke="black" points="128.22,-341.813 128.22,-359.813 196.456,-359.813 196.456,-341.813 128.22,-341.813"/>
<text text-anchor="middle" x="162.338" y="-347.813" font-family="Helvetica,sans-Serif" font-size="10.00">RPMsg&#45;Lite</text>
</g>
<!-- Node1&#45;&gt;Node0 -->
<g id="edge1" class="edge"><title>Node1&#45;&gt;Node0</title>
<path fill="none" stroke="black" d="M101.44,-350.813C110.501,-350.813 119.646,-350.813 127.968,-350.813"/>
<polygon fill="black" stroke="black" points="101.295,-347.313 91.2952,-350.813 101.295,-354.313 101.295,-347.313"/>
</g>
<!-- Node10 -->
<g id="node2" class="node"><title>Node10</title>
<g id="a_node2"><a xlink:href="group__dspi__slave__transport.html" target="_top" xlink:title="Kinetis SDK DSPI slave driver transport. ">
<polygon fill="white" stroke="black" points="348.33,-644.813 348.33,-662.813 415.463,-662.813 415.463,-644.813 348.33,-644.813"/>
<text text-anchor="middle" x="381.896" y="-650.813" font-family="Helvetica,sans-Serif" font-size="10.00">DSPI Slave</text>
</a>
</g>
</g>
<!-- Node8 -->
<g id="node3" class="node"><title>Node8</title>
<g id="a_node3"><a xlink:href="group__port__threads.html" target="_top" xlink:title="Threading model. ">
<polygon fill="white" stroke="black" points="355.554,-607.813 355.554,-625.813 408.239,-625.813 408.239,-607.813 355.554,-607.813"/>
<text text-anchor="middle" x="381.896" y="-613.813" font-family="Helvetica,sans-Serif" font-size="10.00">Threads</text>
</a>
</g>
</g>
<!-- Node18 -->
<g id="node4" class="node"><title>Node18</title>
<g id="a_node4"><a xlink:href="group__tcp__transport.html" target="_top" xlink:title="Simple TCP/IP transport. ">
<polygon fill="white" stroke="black" points="357.783,-570.813 357.783,-588.813 406.01,-588.813 406.01,-570.813 357.783,-570.813"/>
<text text-anchor="middle" x="381.896" y="-576.813" font-family="Helvetica,sans-Serif" font-size="10.00">TCP/IP</text>
</a>
</g>
</g>
<!-- Node2 -->
<g id="node5" class="node"><title>Node2</title>
<g id="a_node5"><a xlink:href="group__rpmsg__transport.html" target="_top" xlink:title="OpenAMP RPMsg transport. ">
<polygon fill="white" stroke="black" points="357.505,-530.813 357.505,-548.813 406.288,-548.813 406.288,-530.813 357.505,-530.813"/>
<text text-anchor="middle" x="381.896" y="-536.813" font-family="Helvetica,sans-Serif" font-size="10.00">RPMsg</text>
</a>
</g>
</g>
<!-- Node3 -->
<g id="node6" class="node"><title>Node3</title>
<g id="a_node6"><a xlink:href="group__infra__client.html" target="_top" xlink:title="Client classes. ">
<polygon fill="white" stroke="black" points="361.113,-489.813 361.113,-507.813 402.68,-507.813 402.68,-489.813 361.113,-489.813"/>
<text text-anchor="middle" x="381.896" y="-495.813" font-family="Helvetica,sans-Serif" font-size="10.00">Client</text>
</a>
</g>
</g>
<!-- Node5 -->
<g id="node7" class="node"><title>Node5</title>
<g id="a_node7"><a xlink:href="group__infra__transport.html" target="_top" xlink:title="Superclasses for building transports. ">
<polygon fill="white" stroke="black" points="350.183,-452.813 350.183,-470.813 413.61,-470.813 413.61,-452.813 350.183,-452.813"/>
<text text-anchor="middle" x="381.896" y="-458.813" font-family="Helvetica,sans-Serif" font-size="10.00">Transports</text>
</a>
</g>
</g>
<!-- Node15 -->
<g id="node8" class="node"><title>Node15</title>
<g id="a_node8"><a xlink:href="group__serial__transport.html" target="_top" xlink:title="POSIX and Win32 serial port transport. ">
<polygon fill="white" stroke="black" points="351.108,-415.813 351.108,-433.813 412.685,-433.813 412.685,-415.813 351.108,-415.813"/>
<text text-anchor="middle" x="381.896" y="-421.813" font-family="Helvetica,sans-Serif" font-size="10.00">Serial port</text>
</a>
</g>
</g>
<!-- Node6 -->
<g id="node9" class="node"><title>Node6</title>
<g id="a_node9"><a xlink:href="group__infra__utility.html" target="_top" xlink:title="Utility code used by the infrastructure. ">
<polygon fill="white" stroke="black" points="357.783,-378.813 357.783,-396.813 406.01,-396.813 406.01,-378.813 357.783,-378.813"/>
<text text-anchor="middle" x="381.896" y="-384.813" font-family="Helvetica,sans-Serif" font-size="10.00">Utilities</text>
</a>
</g>
</g>
<!-- Node12 -->
<g id="node10" class="node"><title>Node12</title>
<g id="a_node10"><a xlink:href="group__lpuart__transport.html" target="_top" xlink:title="Kinetis SDK LPUART driver transport. ">
<polygon fill="white" stroke="black" points="354.258,-341.813 354.258,-359.813 409.535,-359.813 409.535,-341.813 354.258,-341.813"/>
<text text-anchor="middle" x="381.896" y="-347.813" font-family="Helvetica,sans-Serif" font-size="10.00">LPUART</text>
</a>
</g>
</g>
<!-- Node17 -->
<g id="node11" class="node"><title>Node17</title>
<g id="a_node11"><a xlink:href="group__spi__slave__transport.html" target="_top" xlink:title="Kinetis SDK SPI slave driver transport. ">
<polygon fill="white" stroke="black" points="351.941,-304.813 351.941,-322.813 411.852,-322.813 411.852,-304.813 351.941,-304.813"/>
<text text-anchor="middle" x="381.896" y="-310.813" font-family="Helvetica,sans-Serif" font-size="10.00">SPI Slave</text>
</a>
</g>
</g>
<!-- Node19 -->
<g id="node12" class="node"><title>Node19</title>
<g id="a_node12"><a xlink:href="group__uart__transport.html" target="_top" xlink:title="Kinetis SDK UART driver transport. ">
<polygon fill="white" stroke="black" points="360.374,-267.813 360.374,-285.813 403.419,-285.813 403.419,-267.813 360.374,-267.813"/>
<text text-anchor="middle" x="381.896" y="-273.813" font-family="Helvetica,sans-Serif" font-size="10.00">UART</text>
</a>
</g>
</g>
<!-- Node16 -->
<g id="node13" class="node"><title>Node16</title>
<g id="a_node13"><a xlink:href="group__spi__master__transport.html" target="_top" xlink:title="Kinetis SDK SPI master driver transport. ">
<polygon fill="white" stroke="black" points="349.167,-230.813 349.167,-248.813 414.625,-248.813 414.625,-230.813 349.167,-230.813"/>
<text text-anchor="middle" x="381.896" y="-236.813" font-family="Helvetica,sans-Serif" font-size="10.00">SPI Master</text>
</a>
</g>
</g>
<!-- Node7 -->
<g id="node14" class="node"><title>Node7</title>
<g id="a_node14"><a xlink:href="group__infra__server.html" target="_top" xlink:title="Server classes. ">
<polygon fill="white" stroke="black" points="359.17,-193.813 359.17,-211.813 404.623,-211.813 404.623,-193.813 359.17,-193.813"/>
<text text-anchor="middle" x="381.896" y="-199.813" font-family="Helvetica,sans-Serif" font-size="10.00">Server</text>
</a>
</g>
</g>
<!-- Node11 -->
<g id="node15" class="node"><title>Node11</title>
<g id="a_node15"><a xlink:href="group__itbp__transport.html" target="_top" xlink:title="Simple inter&#45;thread communications transport. ">
<polygon fill="white" stroke="black" points="348.049,-156.813 348.049,-174.813 415.744,-174.813 415.744,-156.813 348.049,-156.813"/>
<text text-anchor="middle" x="381.896" y="-162.813" font-family="Helvetica,sans-Serif" font-size="10.00">Inter&#45;thread</text>
</a>
</g>
</g>
<!-- Node9 -->
<g id="node16" class="node"><title>Node9</title>
<g id="a_node16"><a xlink:href="group__dspi__master__transport.html" target="_top" xlink:title="Kinetis SDK DSPI master driver transport. ">
<polygon fill="white" stroke="black" points="345.557,-119.813 345.557,-137.813 418.236,-137.813 418.236,-119.813 345.557,-119.813"/>
<text text-anchor="middle" x="381.896" y="-125.813" font-family="Helvetica,sans-Serif" font-size="10.00">DSPI Master</text>
</a>
</g>
</g>
<!-- Node14 -->
<g id="node17" class="node"><title>Node14</title>
<g id="a_node17"><a xlink:href="group__rpmsg__rtos__transport.html" target="_top" xlink:title="OpenAMP RPMsg RTOS layer transport. ">
<polygon fill="white" stroke="black" points="342.402,-82.8128 342.402,-100.813 421.391,-100.813 421.391,-82.8128 342.402,-82.8128"/>
<text text-anchor="middle" x="381.896" y="-88.8128" font-family="Helvetica,sans-Serif" font-size="10.00">RPMsg RTOS</text>
</a>
</g>
</g>
<!-- Node4 -->
<g id="node18" class="node"><title>Node4</title>
<g id="a_node18"><a xlink:href="group__infra__codec.html" target="_top" xlink:title="Classes used for message serialization. ">
<polygon fill="white" stroke="black" points="346.66,-45.8128 346.66,-63.8128 417.133,-63.8128 417.133,-45.8128 346.66,-45.8128"/>
<text text-anchor="middle" x="381.896" y="-51.8128" font-family="Helvetica,sans-Serif" font-size="10.00">Serialization</text>
</a>
</g>
</g>
<!-- Node13 -->
<g id="node19" class="node"><title>Node13</title>
<g id="a_node19"><a xlink:href="group__rpmsg__lite__rtos__transport.html" target="_top" xlink:title="RPMsg&#45;Lite transport using RTOS API. ">
<polygon fill="white" stroke="black" points="332.676,-8.81285 332.676,-26.8128 431.117,-26.8128 431.117,-8.81285 332.676,-8.81285"/>
<text text-anchor="middle" x="381.896" y="-14.8128" font-family="Helvetica,sans-Serif" font-size="10.00">RPMsg&#45;Lite RTOS</text>
</a>
</g>
</g>
<!-- Node0&#45;&gt;Node10 -->
<g id="edge10" class="edge"><title>Node0&#45;&gt;Node10</title>
<path fill="none" stroke="blueviolet" stroke-dasharray="5,2" d="M163.659,-360.034C165.376,-403.724 174.935,-589.365 214.456,-627.813 249.779,-662.176 310.71,-662.567 348.235,-658.82"/>
<text text-anchor="middle" x="264.566" y="-661.813" font-family="Helvetica,sans-Serif" font-size="10.00">erpc</text>
</g>
<!-- Node0&#45;&gt;Node8 -->
<g id="edge8" class="edge"><title>Node0&#45;&gt;Node8</title>
<path fill="none" stroke="blueviolet" stroke-dasharray="5,2" d="M163.929,-359.853C166.715,-399.573 179.882,-558.086 214.456,-590.813 234.316,-609.611 313.972,-614.819 355.468,-616.261"/>
<text text-anchor="middle" x="264.566" y="-615.813" font-family="Helvetica,sans-Serif" font-size="10.00">erpc</text>
</g>
<!-- Node0&#45;&gt;Node18 -->
<g id="edge19" class="edge"><title>Node0&#45;&gt;Node18</title>
<path fill="none" stroke="blueviolet" stroke-dasharray="5,2" d="M164.31,-360.23C168.284,-396.807 184.52,-528.761 214.456,-555.813 235.034,-574.408 316.749,-578.621 357.516,-579.558"/>
<text text-anchor="middle" x="264.566" y="-578.813" font-family="Helvetica,sans-Serif" font-size="10.00">erpc</text>
</g>
<!-- Node0&#45;&gt;Node2 -->
<g id="edge2" class="edge"><title>Node0&#45;&gt;Node2</title>
<path fill="none" stroke="orange" stroke-dasharray="5,2" d="M162.749,-360C161.405,-389.724 161.641,-483.837 214.456,-526.813 235.757,-544.146 316.723,-542.941 357.35,-541.146"/>
<text text-anchor="middle" x="264.566" y="-543.813" font-family="Helvetica,sans-Serif" font-size="10.00">erpc::RPMsgTransport</text>
</g>
<!-- Node0&#45;&gt;Node2 -->
<g id="edge15" class="edge"><title>Node0&#45;&gt;Node2</title>
<path fill="none" stroke="blueviolet" stroke-dasharray="5,2" d="M163.692,-359.822C165.197,-385.132 173.094,-457.405 214.456,-493.813 248.687,-523.944 270.873,-503.127 314.676,-515.813 329.358,-520.065 345.49,-525.887 358.156,-530.731"/>
<text text-anchor="middle" x="264.566" y="-517.813" font-family="Helvetica,sans-Serif" font-size="10.00">erpc</text>
</g>
<!-- Node0&#45;&gt;Node3 -->
<g id="edge3" class="edge"><title>Node0&#45;&gt;Node3</title>
<path fill="none" stroke="blueviolet" stroke-dasharray="5,2" d="M164.787,-359.86C168.676,-381.039 181.383,-434.061 214.456,-460.813 214.817,-461.105 316.708,-484.249 360.871,-494.27"/>
<text text-anchor="middle" x="264.566" y="-484.813" font-family="Helvetica,sans-Serif" font-size="10.00">erpc</text>
</g>
<!-- Node0&#45;&gt;Node5 -->
<g id="edge5" class="edge"><title>Node0&#45;&gt;Node5</title>
<path fill="none" stroke="blueviolet" stroke-dasharray="5,2" d="M166.636,-359.871C173.096,-376.251 189.043,-410.683 214.456,-427.813 225.583,-435.313 305.013,-449.334 350.004,-456.813"/>
<text text-anchor="middle" x="264.566" y="-451.813" font-family="Helvetica,sans-Serif" font-size="10.00">erpc</text>
</g>
<!-- Node0&#45;&gt;Node15 -->
<g id="edge16" class="edge"><title>Node0&#45;&gt;Node15</title>
<path fill="none" stroke="blueviolet" stroke-dasharray="5,2" d="M171.845,-359.84C181.321,-369.325 197.543,-383.936 214.456,-391.813 238.29,-402.913 309.806,-414.578 350.923,-420.623"/>
<text text-anchor="middle" x="264.566" y="-416.813" font-family="Helvetica,sans-Serif" font-size="10.00">erpc</text>
</g>
<!-- Node0&#45;&gt;Node6 -->
<g id="edge6" class="edge"><title>Node0&#45;&gt;Node6</title>
<path fill="none" stroke="blueviolet" stroke-dasharray="5,2" d="M196.555,-358.248C202.504,-359.497 208.654,-360.736 214.456,-361.813 265.353,-371.257 325.435,-380.07 357.669,-384.611"/>
<text text-anchor="middle" x="264.566" y="-379.813" font-family="Helvetica,sans-Serif" font-size="10.00">erpc</text>
</g>
<!-- Node0&#45;&gt;Node12 -->
<g id="edge12" class="edge"><title>Node0&#45;&gt;Node12</title>
<path fill="none" stroke="blueviolet" stroke-dasharray="5,2" d="M196.855,-350.813C240.122,-350.813 314.548,-350.813 354.202,-350.813"/>
<text text-anchor="middle" x="264.566" y="-352.813" font-family="Helvetica,sans-Serif" font-size="10.00">erpc</text>
</g>
<!-- Node0&#45;&gt;Node17 -->
<g id="edge18" class="edge"><title>Node0&#45;&gt;Node17</title>
<path fill="none" stroke="blueviolet" stroke-dasharray="5,2" d="M193.726,-341.793C200.509,-339.975 207.696,-338.2 214.456,-336.813 262.177,-327.024 318.466,-320.219 351.837,-316.67"/>
<text text-anchor="middle" x="264.566" y="-338.813" font-family="Helvetica,sans-Serif" font-size="10.00">erpc</text>
</g>
<!-- Node0&#45;&gt;Node19 -->
<g id="edge20" class="edge"><title>Node0&#45;&gt;Node19</title>
<path fill="none" stroke="blueviolet" stroke-dasharray="5,2" d="M171.01,-341.788C180.231,-331.578 196.696,-315.272 214.456,-306.813 263.099,-283.644 327.524,-278.276 360.114,-277.094"/>
<text text-anchor="middle" x="264.566" y="-308.813" font-family="Helvetica,sans-Serif" font-size="10.00">erpc</text>
</g>
<!-- Node0&#45;&gt;Node16 -->
<g id="edge17" class="edge"><title>Node0&#45;&gt;Node16</title>
<path fill="none" stroke="blueviolet" stroke-dasharray="5,2" d="M166.003,-341.552C171.674,-323.658 186.737,-284.459 214.456,-265.813 254.86,-238.634 313.113,-235.81 348.906,-237.158"/>
<text text-anchor="middle" x="264.566" y="-267.813" font-family="Helvetica,sans-Serif" font-size="10.00">erpc</text>
</g>
<!-- Node0&#45;&gt;Node7 -->
<g id="edge7" class="edge"><title>Node0&#45;&gt;Node7</title>
<path fill="none" stroke="blueviolet" stroke-dasharray="5,2" d="M163.953,-341.509C166.088,-317.428 175.371,-252.849 214.456,-222.813 257.033,-190.094 324.691,-194.148 359.162,-198.965"/>
<text text-anchor="middle" x="264.566" y="-224.813" font-family="Helvetica,sans-Serif" font-size="10.00">erpc</text>
</g>
<!-- Node0&#45;&gt;Node11 -->
<g id="edge11" class="edge"><title>Node0&#45;&gt;Node11</title>
<path fill="none" stroke="blueviolet" stroke-dasharray="5,2" d="M162.875,-341.547C161.98,-312.44 163.59,-222.309 214.456,-180.813 251.887,-150.277 311.034,-153.117 347.816,-158.834"/>
<text text-anchor="middle" x="264.566" y="-182.813" font-family="Helvetica,sans-Serif" font-size="10.00">erpc</text>
</g>
<!-- Node0&#45;&gt;Node9 -->
<g id="edge9" class="edge"><title>Node0&#45;&gt;Node9</title>
<path fill="none" stroke="blueviolet" stroke-dasharray="5,2" d="M164.168,-341.612C167.703,-304.637 182.797,-167.587 214.456,-140.813 250.513,-110.319 308.13,-113.792 345.235,-120.34"/>
<text text-anchor="middle" x="264.566" y="-142.813" font-family="Helvetica,sans-Serif" font-size="10.00">erpc</text>
</g>
<!-- Node0&#45;&gt;Node14 -->
<g id="edge14" class="edge"><title>Node0&#45;&gt;Node14</title>
<path fill="none" stroke="blueviolet" stroke-dasharray="5,2" d="M163.784,-341.631C165.982,-300.547 177.107,-134.186 214.456,-101.813 250.439,-70.6228 308.903,-75.3878 346.098,-82.7785"/>
<text text-anchor="middle" x="264.566" y="-103.813" font-family="Helvetica,sans-Serif" font-size="10.00">erpc</text>
</g>
<!-- Node0&#45;&gt;Node4 -->
<g id="edge4" class="edge"><title>Node0&#45;&gt;Node4</title>
<path fill="none" stroke="blueviolet" stroke-dasharray="5,2" d="M163.498,-341.735C164.489,-297.018 171.28,-100.802 214.456,-62.8128 251.161,-30.5172 311.94,-37.3754 349.011,-45.7669"/>
<text text-anchor="middle" x="264.566" y="-64.8128" font-family="Helvetica,sans-Serif" font-size="10.00">erpc</text>
</g>
<!-- Node0&#45;&gt;Node13 -->
<g id="edge13" class="edge"><title>Node0&#45;&gt;Node13</title>
<path fill="none" stroke="blueviolet" stroke-dasharray="5,2" d="M163.281,-341.812C163.182,-293.695 165.357,-67.3899 214.456,-23.8128 251.76,9.29574 314.363,0.509598 351.232,-8.74435"/>
<text text-anchor="middle" x="264.566" y="-25.8128" font-family="Helvetica,sans-Serif" font-size="10.00">erpc</text>
</g>
</g>
</svg>
