<?xml version="1.0" encoding="UTF-8" standalone="no"?>
<!DOCTYPE svg PUBLIC "-//W3C//DTD SVG 1.1//EN"
 "http://www.w3.org/Graphics/SVG/1.1/DTD/svg11.dtd">
<!-- Generated by graphviz version 2.38.0 (20140413.2041)
 -->
<!-- Title: RPMsg RTOS Pages: 1 -->
<svg width="477pt" height="697pt"
 viewBox="0.00 0.00 477.30 696.68" xmlns="http://www.w3.org/2000/svg" xmlns:xlink="http://www.w3.org/1999/xlink">
<g id="graph0" class="graph" transform="scale(1 1) rotate(0) translate(4 692.682)">
<title>RPMsg RTOS</title>
<polygon fill="white" stroke="none" points="-4,4 -4,-692.682 473.296,-692.682 473.296,4 -4,4"/>
<!-- Node1 -->
<g id="node1" class="node"><title>Node1</title>
<g id="a_node1"><a xlink:href="group__transports.html" target="_top" xlink:title="Transport layer classes. ">
<polygon fill="white" stroke="black" points="0,-326.682 0,-344.682 91.2197,-344.682 91.2197,-326.682 0,-326.682"/>
<text text-anchor="middle" x="45.6099" y="-332.682" font-family="Helvetica,sans-Serif" font-size="10.00">Transport Layers</text>
</a>
</g>
</g>
<!-- Node0 -->
<g id="node17" class="node"><title>Node0</title>
<polygon fill="#bfbfbf" stroke="black" points="128.22,-326.682 128.22,-344.682 207.208,-344.682 207.208,-326.682 128.22,-326.682"/>
<text text-anchor="middle" x="167.714" y="-332.682" font-family="Helvetica,sans-Serif" font-size="10.00">RPMsg RTOS</text>
</g>
<!-- Node1&#45;&gt;Node0 -->
<g id="edge1" class="edge"><title>Node1&#45;&gt;Node0</title>
<path fill="none" stroke="black" d="M101.333,-335.682C110.29,-335.682 119.405,-335.682 127.875,-335.682"/>
<polygon fill="black" stroke="black" points="101.332,-332.182 91.3322,-335.682 101.332,-339.182 101.332,-332.182"/>
</g>
<!-- Node10 -->
<g id="node2" class="node"><title>Node10</title>
<g id="a_node2"><a xlink:href="group__dspi__slave__transport.html" target="_top" xlink:title="Kinetis SDK DSPI slave driver transport. ">
<polygon fill="white" stroke="black" points="386.509,-659.682 386.509,-677.682 453.642,-677.682 453.642,-659.682 386.509,-659.682"/>
<text text-anchor="middle" x="420.075" y="-665.682" font-family="Helvetica,sans-Serif" font-size="10.00">DSPI Slave</text>
</a>
</g>
</g>
<!-- Node8 -->
<g id="node3" class="node"><title>Node8</title>
<g id="a_node3"><a xlink:href="group__port__threads.html" target="_top" xlink:title="Threading model. ">
<polygon fill="white" stroke="black" points="393.733,-622.682 393.733,-640.682 446.417,-640.682 446.417,-622.682 393.733,-622.682"/>
<text text-anchor="middle" x="420.075" y="-628.682" font-family="Helvetica,sans-Serif" font-size="10.00">Threads</text>
</a>
</g>
</g>
<!-- Node18 -->
<g id="node4" class="node"><title>Node18</title>
<g id="a_node4"><a xlink:href="group__tcp__transport.html" target="_top" xlink:title="Simple TCP/IP transport. ">
<polygon fill="white" stroke="black" points="395.962,-585.682 395.962,-603.682 444.188,-603.682 444.188,-585.682 395.962,-585.682"/>
<text text-anchor="middle" x="420.075" y="-591.682" font-family="Helvetica,sans-Serif" font-size="10.00">TCP/IP</text>
</a>
</g>
</g>
<!-- Node14 -->
<g id="node5" class="node"><title>Node14</title>
<g id="a_node5"><a xlink:href="group__rpmsg__transport.html" target="_top" xlink:title="OpenAMP RPMsg transport. ">
<polygon fill="white" stroke="black" points="395.684,-548.682 395.684,-566.682 444.467,-566.682 444.467,-548.682 395.684,-548.682"/>
<text text-anchor="middle" x="420.075" y="-554.682" font-family="Helvetica,sans-Serif" font-size="10.00">RPMsg</text>
</a>
</g>
</g>
<!-- Node3 -->
<g id="node6" class="node"><title>Node3</title>
<g id="a_node6"><a xlink:href="group__infra__client.html" target="_top" xlink:title="Client classes. ">
<polygon fill="white" stroke="black" points="399.292,-511.682 399.292,-529.682 440.858,-529.682 440.858,-511.682 399.292,-511.682"/>
<text text-anchor="middle" x="420.075" y="-517.682" font-family="Helvetica,sans-Serif" font-size="10.00">Client</text>
</a>
</g>
</g>
<!-- Node5 -->
<g id="node7" class="node"><title>Node5</title>
<g id="a_node7"><a xlink:href="group__infra__transport.html" target="_top" xlink:title="Superclasses for building transports. ">
<polygon fill="white" stroke="black" points="388.362,-474.682 388.362,-492.682 451.789,-492.682 451.789,-474.682 388.362,-474.682"/>
<text text-anchor="middle" x="420.075" y="-480.682" font-family="Helvetica,sans-Serif" font-size="10.00">Transports</text>
</a>
</g>
</g>
<!-- Node15 -->
<g id="node8" class="node"><title>Node15</title>
<g id="a_node8"><a xlink:href="group__serial__transport.html" target="_top" xlink:title="POSIX and Win32 serial port transport. ">
<polygon fill="white" stroke="black" points="389.287,-437.682 389.287,-455.682 450.863,-455.682 450.863,-437.682 389.287,-437.682"/>
<text text-anchor="middle" x="420.075" y="-443.682" font-family="Helvetica,sans-Serif" font-size="10.00">Serial port</text>
</a>
</g>
</g>
<!-- Node6 -->
<g id="node9" class="node"><title>Node6</title>
<g id="a_node9"><a xlink:href="group__infra__utility.html" target="_top" xlink:title="Utility code used by the infrastructure. ">
<polygon fill="white" stroke="black" points="395.962,-400.682 395.962,-418.682 444.188,-418.682 444.188,-400.682 395.962,-400.682"/>
<text text-anchor="middle" x="420.075" y="-406.682" font-family="Helvetica,sans-Serif" font-size="10.00">Utilities</text>
</a>
</g>
</g>
<!-- Node12 -->
<g id="node10" class="node"><title>Node12</title>
<g id="a_node10"><a xlink:href="group__lpuart__transport.html" target="_top" xlink:title="Kinetis SDK LPUART driver transport. ">
<polygon fill="white" stroke="black" points="392.437,-363.682 392.437,-381.682 447.714,-381.682 447.714,-363.682 392.437,-363.682"/>
<text text-anchor="middle" x="420.075" y="-369.682" font-family="Helvetica,sans-Serif" font-size="10.00">LPUART</text>
</a>
</g>
</g>
<!-- Node17 -->
<g id="node11" class="node"><title>Node17</title>
<g id="a_node11"><a xlink:href="group__spi__slave__transport.html" target="_top" xlink:title="Kinetis SDK SPI slave driver transport. ">
<polygon fill="white" stroke="black" points="390.12,-326.682 390.12,-344.682 450.031,-344.682 450.031,-326.682 390.12,-326.682"/>
<text text-anchor="middle" x="420.075" y="-332.682" font-family="Helvetica,sans-Serif" font-size="10.00">SPI Slave</text>
</a>
</g>
</g>
<!-- Node19 -->
<g id="node12" class="node"><title>Node19</title>
<g id="a_node12"><a xlink:href="group__uart__transport.html" target="_top" xlink:title="Kinetis SDK UART driver transport. ">
<polygon fill="white" stroke="black" points="398.552,-289.682 398.552,-307.682 441.598,-307.682 441.598,-289.682 398.552,-289.682"/>
<text text-anchor="middle" x="420.075" y="-295.682" font-family="Helvetica,sans-Serif" font-size="10.00">UART</text>
</a>
</g>
</g>
<!-- Node16 -->
<g id="node13" class="node"><title>Node16</title>
<g id="a_node13"><a xlink:href="group__spi__master__transport.html" target="_top" xlink:title="Kinetis SDK SPI master driver transport. ">
<polygon fill="white" stroke="black" points="387.346,-252.682 387.346,-270.682 452.804,-270.682 452.804,-252.682 387.346,-252.682"/>
<text text-anchor="middle" x="420.075" y="-258.682" font-family="Helvetica,sans-Serif" font-size="10.00">SPI Master</text>
</a>
</g>
</g>
<!-- Node7 -->
<g id="node14" class="node"><title>Node7</title>
<g id="a_node14"><a xlink:href="group__infra__server.html" target="_top" xlink:title="Server classes. ">
<polygon fill="white" stroke="black" points="397.349,-215.682 397.349,-233.682 442.802,-233.682 442.802,-215.682 397.349,-215.682"/>
<text text-anchor="middle" x="420.075" y="-221.682" font-family="Helvetica,sans-Serif" font-size="10.00">Server</text>
</a>
</g>
</g>
<!-- Node11 -->
<g id="node15" class="node"><title>Node11</title>
<g id="a_node15"><a xlink:href="group__itbp__transport.html" target="_top" xlink:title="Simple inter&#45;thread communications transport. ">
<polygon fill="white" stroke="black" points="386.228,-178.682 386.228,-196.682 453.922,-196.682 453.922,-178.682 386.228,-178.682"/>
<text text-anchor="middle" x="420.075" y="-184.682" font-family="Helvetica,sans-Serif" font-size="10.00">Inter&#45;thread</text>
</a>
</g>
</g>
<!-- Node9 -->
<g id="node16" class="node"><title>Node9</title>
<g id="a_node16"><a xlink:href="group__dspi__master__transport.html" target="_top" xlink:title="Kinetis SDK DSPI master driver transport. ">
<polygon fill="white" stroke="black" points="383.735,-141.682 383.735,-159.682 456.415,-159.682 456.415,-141.682 383.735,-141.682"/>
<text text-anchor="middle" x="420.075" y="-147.682" font-family="Helvetica,sans-Serif" font-size="10.00">DSPI Master</text>
</a>
</g>
</g>
<!-- Node0&#45;&gt;Node10 -->
<g id="edge10" class="edge"><title>Node0&#45;&gt;Node10</title>
<path fill="none" stroke="blueviolet" stroke-dasharray="5,2" d="M168.981,-344.735C170.548,-391.172 180.097,-602.1 225.208,-644.682 268.491,-685.538 343.541,-681.656 386.461,-675.175"/>
<text text-anchor="middle" x="289.031" y="-680.682" font-family="Helvetica,sans-Serif" font-size="10.00">erpc</text>
</g>
<!-- Node0&#45;&gt;Node8 -->
<g id="edge8" class="edge"><title>Node0&#45;&gt;Node8</title>
<path fill="none" stroke="blueviolet" stroke-dasharray="5,2" d="M169.226,-344.775C171.845,-387.852 185.219,-570.831 225.208,-607.682 249.212,-629.803 346.735,-632.226 393.639,-632.068"/>
<text text-anchor="middle" x="289.031" y="-632.682" font-family="Helvetica,sans-Serif" font-size="10.00">erpc</text>
</g>
<!-- Node0&#45;&gt;Node18 -->
<g id="edge19" class="edge"><title>Node0&#45;&gt;Node18</title>
<path fill="none" stroke="blueviolet" stroke-dasharray="5,2" d="M169.549,-344.836C173.344,-384.328 190.313,-539.515 225.208,-570.682 249.933,-592.765 349.957,-595.116 395.853,-594.994"/>
<text text-anchor="middle" x="289.031" y="-595.682" font-family="Helvetica,sans-Serif" font-size="10.00">erpc</text>
</g>
<!-- Node0&#45;&gt;Node14 -->
<g id="edge15" class="edge"><title>Node0&#45;&gt;Node14</title>
<path fill="none" stroke="blueviolet" stroke-dasharray="5,2" d="M168.125,-344.995C166.659,-377.031 166.553,-483.468 225.208,-533.682 250.327,-555.186 349.664,-557.855 395.577,-557.906"/>
<text text-anchor="middle" x="289.031" y="-558.682" font-family="Helvetica,sans-Serif" font-size="10.00">erpc</text>
</g>
<!-- Node0&#45;&gt;Node3 -->
<g id="edge3" class="edge"><title>Node0&#45;&gt;Node3</title>
<path fill="none" stroke="blueviolet" stroke-dasharray="5,2" d="M168.813,-344.823C169.655,-372.725 176.308,-457.28 225.208,-496.682 251.616,-517.961 355.089,-520.64 399.094,-520.794"/>
<text text-anchor="middle" x="289.031" y="-521.682" font-family="Helvetica,sans-Serif" font-size="10.00">erpc</text>
</g>
<!-- Node0&#45;&gt;Node5 -->
<g id="edge5" class="edge"><title>Node0&#45;&gt;Node5</title>
<path fill="none" stroke="blueviolet" stroke-dasharray="5,2" d="M169.774,-344.889C173.052,-368.711 185.337,-432.541 225.208,-461.682 250.436,-480.121 339.998,-483.409 388.058,-483.807"/>
<text text-anchor="middle" x="289.031" y="-484.682" font-family="Helvetica,sans-Serif" font-size="10.00">erpc</text>
</g>
<!-- Node0&#45;&gt;Node15 -->
<g id="edge16" class="edge"><title>Node0&#45;&gt;Node15</title>
<path fill="none" stroke="blueviolet" stroke-dasharray="5,2" d="M171.818,-344.74C178.467,-362.634 195.911,-402.365 225.208,-420.682 275.886,-452.367 348.514,-452.774 388.958,-449.934"/>
<text text-anchor="middle" x="289.031" y="-452.682" font-family="Helvetica,sans-Serif" font-size="10.00">erpc</text>
</g>
<!-- Node0&#45;&gt;Node6 -->
<g id="edge6" class="edge"><title>Node0&#45;&gt;Node6</title>
<path fill="none" stroke="blueviolet" stroke-dasharray="5,2" d="M177.354,-344.77C187.696,-355.04 206.034,-371.402 225.208,-379.682 283.053,-404.659 358.538,-409.204 395.959,-409.803"/>
<text text-anchor="middle" x="289.031" y="-408.682" font-family="Helvetica,sans-Serif" font-size="10.00">erpc</text>
</g>
<!-- Node0&#45;&gt;Node12 -->
<g id="edge12" class="edge"><title>Node0&#45;&gt;Node12</title>
<path fill="none" stroke="blueviolet" stroke-dasharray="5,2" d="M202.322,-344.741C209.817,-346.556 217.753,-348.321 225.208,-349.682 284.392,-360.482 354.705,-367.363 392.262,-370.567"/>
<text text-anchor="middle" x="289.031" y="-367.682" font-family="Helvetica,sans-Serif" font-size="10.00">erpc</text>
</g>
<!-- Node0&#45;&gt;Node17 -->
<g id="edge18" class="edge"><title>Node0&#45;&gt;Node17</title>
<path fill="none" stroke="blueviolet" stroke-dasharray="5,2" d="M207.284,-335.682C257.624,-335.682 344.615,-335.682 389.849,-335.682"/>
<text text-anchor="middle" x="289.031" y="-337.682" font-family="Helvetica,sans-Serif" font-size="10.00">erpc</text>
</g>
<!-- Node0&#45;&gt;Node19 -->
<g id="edge20" class="edge"><title>Node0&#45;&gt;Node19</title>
<path fill="none" stroke="blueviolet" stroke-dasharray="5,2" d="M202.322,-326.623C209.817,-324.807 217.753,-323.042 225.208,-321.682 287.726,-310.273 362.663,-303.238 398.29,-300.29"/>
<text text-anchor="middle" x="289.031" y="-323.682" font-family="Helvetica,sans-Serif" font-size="10.00">erpc</text>
</g>
<!-- Node0&#45;&gt;Node16 -->
<g id="edge17" class="edge"><title>Node0&#45;&gt;Node16</title>
<path fill="none" stroke="blueviolet" stroke-dasharray="5,2" d="M177.304,-326.366C187.599,-315.842 205.893,-299.09 225.208,-290.682 278.723,-267.387 347.543,-262.289 387.144,-261.461"/>
<text text-anchor="middle" x="289.031" y="-292.682" font-family="Helvetica,sans-Serif" font-size="10.00">erpc</text>
</g>
<!-- Node0&#45;&gt;Node7 -->
<g id="edge7" class="edge"><title>Node0&#45;&gt;Node7</title>
<path fill="none" stroke="blueviolet" stroke-dasharray="5,2" d="M171.638,-326.67C178.065,-308.455 195.283,-267.402 225.208,-248.682 279.405,-214.777 358.899,-217.79 397.052,-221.736"/>
<text text-anchor="middle" x="289.031" y="-250.682" font-family="Helvetica,sans-Serif" font-size="10.00">erpc</text>
</g>
<!-- Node0&#45;&gt;Node11 -->
<g id="edge11" class="edge"><title>Node0&#45;&gt;Node11</title>
<path fill="none" stroke="blueviolet" stroke-dasharray="5,2" d="M169.563,-326.42C172.361,-301.825 183.647,-234.702 225.208,-204.682 272.591,-170.456 344.468,-174.725 386.095,-181.091"/>
<text text-anchor="middle" x="289.031" y="-206.682" font-family="Helvetica,sans-Serif" font-size="10.00">erpc</text>
</g>
<!-- Node0&#45;&gt;Node9 -->
<g id="edge9" class="edge"><title>Node0&#45;&gt;Node9</title>
<path fill="none" stroke="blueviolet" stroke-dasharray="5,2" d="M168.458,-326.581C168.183,-297.149 171.73,-204.057 225.208,-162.682 270.549,-127.602 341.163,-133.821 383.49,-141.958"/>
<text text-anchor="middle" x="289.031" y="-164.682" font-family="Helvetica,sans-Serif" font-size="10.00">erpc</text>
</g>
<!-- Node4 -->
<g id="node18" class="node"><title>Node4</title>
<g id="a_node18"><a xlink:href="group__infra__codec.html" target="_top" xlink:title="Classes used for message serialization. ">
<polygon fill="white" stroke="black" points="384.839,-104.682 384.839,-122.682 455.312,-122.682 455.312,-104.682 384.839,-104.682"/>
<text text-anchor="middle" x="420.075" y="-110.682" font-family="Helvetica,sans-Serif" font-size="10.00">Serialization</text>
</a>
</g>
</g>
<!-- Node0&#45;&gt;Node4 -->
<g id="edge4" class="edge"><title>Node0&#45;&gt;Node4</title>
<path fill="none" stroke="blueviolet" stroke-dasharray="5,2" d="M169.73,-326.616C174.081,-289.549 192.432,-150.238 225.208,-123.682 248.841,-104.534 335.526,-107.416 384.601,-110.782"/>
<text text-anchor="middle" x="289.031" y="-125.682" font-family="Helvetica,sans-Serif" font-size="10.00">erpc</text>
</g>
<!-- Node2 -->
<g id="node19" class="node"><title>Node2</title>
<g id="a_node19"><a xlink:href="group__rpmsg__lite__rtos__transport.html" target="_top" xlink:title="RPMsg&#45;Lite transport using RTOS API. ">
<polygon fill="white" stroke="black" points="370.854,-60.6818 370.854,-78.6818 469.296,-78.6818 469.296,-60.6818 370.854,-60.6818"/>
<text text-anchor="middle" x="420.075" y="-66.6818" font-family="Helvetica,sans-Serif" font-size="10.00">RPMsg&#45;Lite RTOS</text>
</a>
</g>
</g>
<!-- Node0&#45;&gt;Node2 -->
<g id="edge2" class="edge"><title>Node0&#45;&gt;Node2</title>
<path fill="none" stroke="orange" stroke-dasharray="5,2" d="M169.481,-326.53C173.044,-286.321 189.355,-125.917 225.208,-93.6818 245.951,-75.0317 320.085,-70.4401 370.43,-69.5404"/>
<text text-anchor="middle" x="289.031" y="-95.6818" font-family="Helvetica,sans-Serif" font-size="10.00">erpc::RPMsgRTOSTransport</text>
</g>
<!-- Node0&#45;&gt;Node2 -->
<g id="edge13" class="edge"><title>Node0&#45;&gt;Node2</title>
<path fill="none" stroke="blueviolet" stroke-dasharray="5,2" d="M169.084,-326.574C171.079,-282.597 182.115,-92.8986 225.208,-57.6818 275.864,-16.2841 361.079,-44.5212 399.383,-60.6266"/>
<text text-anchor="middle" x="289.031" y="-59.6818" font-family="Helvetica,sans-Serif" font-size="10.00">erpc</text>
</g>
<!-- Node13 -->
<g id="node20" class="node"><title>Node13</title>
<g id="a_node20"><a xlink:href="group__rpmsg__lite__transport.html" target="_top" xlink:title="RPMsg&#45;Lite transport. ">
<polygon fill="white" stroke="black" points="385.957,-15.6818 385.957,-33.6818 454.193,-33.6818 454.193,-15.6818 385.957,-15.6818"/>
<text text-anchor="middle" x="420.075" y="-21.6818" font-family="Helvetica,sans-Serif" font-size="10.00">RPMsg&#45;Lite</text>
</a>
</g>
</g>
<!-- Node0&#45;&gt;Node13 -->
<g id="edge14" class="edge"><title>Node0&#45;&gt;Node13</title>
<path fill="none" stroke="blueviolet" stroke-dasharray="5,2" d="M168.877,-326.464C169.922,-279.197 177.286,-64.6825 225.208,-24.6818 273.139,15.3269 353.399,-2.64577 393.97,-15.579"/>
<text text-anchor="middle" x="289.031" y="-26.6818" font-family="Helvetica,sans-Serif" font-size="10.00">erpc</text>
</g>
</g>
</svg>
