<?xml version="1.0" encoding="UTF-8" standalone="no"?>
<!DOCTYPE svg PUBLIC "-//W3C//DTD SVG 1.1//EN"
 "http://www.w3.org/Graphics/SVG/1.1/DTD/svg11.dtd">
<!-- Generated by graphviz version 2.38.0 (20140413.2041)
 -->
<!-- Title: SPI Master Pages: 1 -->
<svg width="356pt" height="656pt"
 viewBox="0.00 0.00 355.57 656.00" xmlns="http://www.w3.org/2000/svg" xmlns:xlink="http://www.w3.org/1999/xlink">
<g id="graph0" class="graph" transform="scale(1 1) rotate(0) translate(4 652)">
<title>SPI Master</title>
<polygon fill="white" stroke="none" points="-4,4 -4,-652 351.572,-652 351.572,4 -4,4"/>
<!-- Node1 -->
<g id="node1" class="node"><title>Node1</title>
<g id="a_node1"><a xlink:href="group__transports.html" target="_top" xlink:title="Transport layer classes. ">
<polygon fill="white" stroke="black" points="0,-314.5 0,-332.5 91.2197,-332.5 91.2197,-314.5 0,-314.5"/>
<text text-anchor="middle" x="45.6099" y="-320.5" font-family="Helvetica,sans-Serif" font-size="10.00">Transport Layers</text>
</a>
</g>
</g>
<!-- Node0 -->
<g id="node13" class="node"><title>Node0</title>
<polygon fill="#bfbfbf" stroke="black" points="128.22,-314.5 128.22,-332.5 193.678,-332.5 193.678,-314.5 128.22,-314.5"/>
<text text-anchor="middle" x="160.949" y="-320.5" font-family="Helvetica,sans-Serif" font-size="10.00">SPI Master</text>
</g>
<!-- Node1&#45;&gt;Node0 -->
<g id="edge1" class="edge"><title>Node1&#45;&gt;Node0</title>
<path fill="none" stroke="black" d="M101.578,-323.5C110.656,-323.5 119.791,-323.5 128.052,-323.5"/>
<polygon fill="black" stroke="black" points="101.404,-320 91.4044,-323.5 101.404,-327 101.404,-320"/>
</g>
<!-- Node9 -->
<g id="node2" class="node"><title>Node9</title>
<g id="a_node2"><a xlink:href="group__dspi__slave__transport.html" target="_top" xlink:title="Kinetis SDK DSPI slave driver transport. ">
<polygon fill="white" stroke="black" points="264.785,-629.5 264.785,-647.5 331.918,-647.5 331.918,-629.5 264.785,-629.5"/>
<text text-anchor="middle" x="298.352" y="-635.5" font-family="Helvetica,sans-Serif" font-size="10.00">DSPI Slave</text>
</a>
</g>
</g>
<!-- Node7 -->
<g id="node3" class="node"><title>Node7</title>
<g id="a_node3"><a xlink:href="group__port__threads.html" target="_top" xlink:title="Threading model. ">
<polygon fill="white" stroke="black" points="272.009,-592.5 272.009,-610.5 324.694,-610.5 324.694,-592.5 272.009,-592.5"/>
<text text-anchor="middle" x="298.352" y="-598.5" font-family="Helvetica,sans-Serif" font-size="10.00">Threads</text>
</a>
</g>
</g>
<!-- Node18 -->
<g id="node4" class="node"><title>Node18</title>
<g id="a_node4"><a xlink:href="group__tcp__transport.html" target="_top" xlink:title="Simple TCP/IP transport. ">
<polygon fill="white" stroke="black" points="274.238,-555.5 274.238,-573.5 322.465,-573.5 322.465,-555.5 274.238,-555.5"/>
<text text-anchor="middle" x="298.352" y="-561.5" font-family="Helvetica,sans-Serif" font-size="10.00">TCP/IP</text>
</a>
</g>
</g>
<!-- Node15 -->
<g id="node5" class="node"><title>Node15</title>
<g id="a_node5"><a xlink:href="group__rpmsg__transport.html" target="_top" xlink:title="OpenAMP RPMsg transport. ">
<polygon fill="white" stroke="black" points="273.96,-518.5 273.96,-536.5 322.743,-536.5 322.743,-518.5 273.96,-518.5"/>
<text text-anchor="middle" x="298.352" y="-524.5" font-family="Helvetica,sans-Serif" font-size="10.00">RPMsg</text>
</a>
</g>
</g>
<!-- Node2 -->
<g id="node6" class="node"><title>Node2</title>
<g id="a_node6"><a xlink:href="group__infra__client.html" target="_top" xlink:title="Client classes. ">
<polygon fill="white" stroke="black" points="277.568,-481.5 277.568,-499.5 319.135,-499.5 319.135,-481.5 277.568,-481.5"/>
<text text-anchor="middle" x="298.352" y="-487.5" font-family="Helvetica,sans-Serif" font-size="10.00">Client</text>
</a>
</g>
</g>
<!-- Node4 -->
<g id="node7" class="node"><title>Node4</title>
<g id="a_node7"><a xlink:href="group__infra__transport.html" target="_top" xlink:title="Superclasses for building transports. ">
<polygon fill="white" stroke="black" points="266.638,-444.5 266.638,-462.5 330.065,-462.5 330.065,-444.5 266.638,-444.5"/>
<text text-anchor="middle" x="298.352" y="-450.5" font-family="Helvetica,sans-Serif" font-size="10.00">Transports</text>
</a>
</g>
</g>
<!-- Node16 -->
<g id="node8" class="node"><title>Node16</title>
<g id="a_node8"><a xlink:href="group__serial__transport.html" target="_top" xlink:title="POSIX and Win32 serial port transport. ">
<polygon fill="white" stroke="black" points="267.563,-407.5 267.563,-425.5 329.14,-425.5 329.14,-407.5 267.563,-407.5"/>
<text text-anchor="middle" x="298.352" y="-413.5" font-family="Helvetica,sans-Serif" font-size="10.00">Serial port</text>
</a>
</g>
</g>
<!-- Node5 -->
<g id="node9" class="node"><title>Node5</title>
<g id="a_node9"><a xlink:href="group__infra__utility.html" target="_top" xlink:title="Utility code used by the infrastructure. ">
<polygon fill="white" stroke="black" points="274.238,-370.5 274.238,-388.5 322.465,-388.5 322.465,-370.5 274.238,-370.5"/>
<text text-anchor="middle" x="298.352" y="-376.5" font-family="Helvetica,sans-Serif" font-size="10.00">Utilities</text>
</a>
</g>
</g>
<!-- Node11 -->
<g id="node10" class="node"><title>Node11</title>
<g id="a_node10"><a xlink:href="group__lpuart__transport.html" target="_top" xlink:title="Kinetis SDK LPUART driver transport. ">
<polygon fill="white" stroke="black" points="270.713,-333.5 270.713,-351.5 325.99,-351.5 325.99,-333.5 270.713,-333.5"/>
<text text-anchor="middle" x="298.352" y="-339.5" font-family="Helvetica,sans-Serif" font-size="10.00">LPUART</text>
</a>
</g>
</g>
<!-- Node17 -->
<g id="node11" class="node"><title>Node17</title>
<g id="a_node11"><a xlink:href="group__spi__slave__transport.html" target="_top" xlink:title="Kinetis SDK SPI slave driver transport. ">
<polygon fill="white" stroke="black" points="268.396,-296.5 268.396,-314.5 328.307,-314.5 328.307,-296.5 268.396,-296.5"/>
<text text-anchor="middle" x="298.352" y="-302.5" font-family="Helvetica,sans-Serif" font-size="10.00">SPI Slave</text>
</a>
</g>
</g>
<!-- Node19 -->
<g id="node12" class="node"><title>Node19</title>
<g id="a_node12"><a xlink:href="group__uart__transport.html" target="_top" xlink:title="Kinetis SDK UART driver transport. ">
<polygon fill="white" stroke="black" points="276.829,-259.5 276.829,-277.5 319.875,-277.5 319.875,-259.5 276.829,-259.5"/>
<text text-anchor="middle" x="298.352" y="-265.5" font-family="Helvetica,sans-Serif" font-size="10.00">UART</text>
</a>
</g>
</g>
<!-- Node0&#45;&gt;Node9 -->
<g id="edge9" class="edge"><title>Node0&#45;&gt;Node9</title>
<path fill="none" stroke="blueviolet" stroke-dasharray="5,2" d="M161.7,-332.771C161.146,-368.088 162.764,-496.685 211.678,-585.5 222.669,-605.456 229.761,-608.506 249.131,-620.5 254.753,-623.981 261.154,-626.954 267.414,-629.421"/>
<text text-anchor="middle" x="221.404" y="-610.5" font-family="Helvetica,sans-Serif" font-size="10.00">erpc</text>
</g>
<!-- Node0&#45;&gt;Node7 -->
<g id="edge7" class="edge"><title>Node0&#45;&gt;Node7</title>
<path fill="none" stroke="blueviolet" stroke-dasharray="5,2" d="M162.125,-332.703C163.106,-364.588 169.536,-472.481 211.678,-547.5 222.986,-567.63 229.587,-571.207 249.131,-583.5 256.09,-587.877 264.275,-591.433 271.906,-594.192"/>
<text text-anchor="middle" x="221.404" y="-573.5" font-family="Helvetica,sans-Serif" font-size="10.00">erpc</text>
</g>
<!-- Node0&#45;&gt;Node18 -->
<g id="edge18" class="edge"><title>Node0&#45;&gt;Node18</title>
<path fill="none" stroke="blueviolet" stroke-dasharray="5,2" d="M162.646,-332.736C165.144,-361.166 175.518,-449.144 211.678,-510.5 223.4,-530.391 229.587,-534.207 249.131,-546.5 256.695,-551.258 265.708,-555.045 273.883,-557.894"/>
<text text-anchor="middle" x="221.404" y="-535.5" font-family="Helvetica,sans-Serif" font-size="10.00">erpc</text>
</g>
<!-- Node0&#45;&gt;Node15 -->
<g id="edge15" class="edge"><title>Node0&#45;&gt;Node15</title>
<path fill="none" stroke="blueviolet" stroke-dasharray="5,2" d="M163.387,-332.603C167.567,-357.037 181.383,-425.463 211.678,-473.5 223.994,-493.029 229.587,-497.207 249.131,-509.5 256.695,-514.258 265.708,-518.045 273.883,-520.894"/>
<text text-anchor="middle" x="221.404" y="-498.5" font-family="Helvetica,sans-Serif" font-size="10.00">erpc</text>
</g>
<!-- Node0&#45;&gt;Node2 -->
<g id="edge2" class="edge"><title>Node0&#45;&gt;Node2</title>
<path fill="none" stroke="blueviolet" stroke-dasharray="5,2" d="M164.667,-332.505C170.91,-352.312 187.609,-400.67 211.678,-435.5 224.98,-454.75 229.41,-459.907 249.131,-472.5 257.717,-477.983 268.218,-482.152 277.226,-485.09"/>
<text text-anchor="middle" x="221.404" y="-461.5" font-family="Helvetica,sans-Serif" font-size="10.00">erpc</text>
</g>
<!-- Node0&#45;&gt;Node4 -->
<g id="edge4" class="edge"><title>Node0&#45;&gt;Node4</title>
<path fill="none" stroke="blueviolet" stroke-dasharray="5,2" d="M166.143,-332.528C176.701,-354.171 206.602,-409.167 249.131,-435.5 254.753,-438.981 261.154,-441.954 267.414,-444.421"/>
<text text-anchor="middle" x="221.404" y="-423.5" font-family="Helvetica,sans-Serif" font-size="10.00">erpc</text>
</g>
<!-- Node0&#45;&gt;Node16 -->
<g id="edge16" class="edge"><title>Node0&#45;&gt;Node16</title>
<path fill="none" stroke="blueviolet" stroke-dasharray="5,2" d="M170.225,-332.642C184.771,-348.208 216.488,-379.97 249.131,-398.5 255.192,-401.941 262.037,-404.956 268.624,-407.485"/>
<text text-anchor="middle" x="221.404" y="-388.5" font-family="Helvetica,sans-Serif" font-size="10.00">erpc</text>
</g>
<!-- Node0&#45;&gt;Node5 -->
<g id="edge5" class="edge"><title>Node0&#45;&gt;Node5</title>
<path fill="none" stroke="blueviolet" stroke-dasharray="5,2" d="M181.209,-332.693C190.385,-336.999 201.545,-342.131 211.678,-346.5 228.144,-353.599 232.407,-355.031 249.131,-361.5 257.132,-364.595 265.913,-367.9 273.764,-370.822"/>
<text text-anchor="middle" x="221.404" y="-356.5" font-family="Helvetica,sans-Serif" font-size="10.00">erpc</text>
</g>
<!-- Node0&#45;&gt;Node11 -->
<g id="edge11" class="edge"><title>Node0&#45;&gt;Node11</title>
<path fill="none" stroke="blueviolet" stroke-dasharray="5,2" d="M193.695,-327.955C216.988,-331.223 248.281,-335.614 270.371,-338.714"/>
<text text-anchor="middle" x="221.404" y="-334.5" font-family="Helvetica,sans-Serif" font-size="10.00">erpc</text>
</g>
<!-- Node0&#45;&gt;Node17 -->
<g id="edge17" class="edge"><title>Node0&#45;&gt;Node17</title>
<path fill="none" stroke="blueviolet" stroke-dasharray="5,2" d="M192.52,-314.497C198.808,-312.932 205.42,-311.491 211.678,-310.5 230.367,-307.542 251.598,-306.288 268.25,-305.776"/>
<text text-anchor="middle" x="221.404" y="-312.5" font-family="Helvetica,sans-Serif" font-size="10.00">erpc</text>
</g>
<!-- Node0&#45;&gt;Node19 -->
<g id="edge19" class="edge"><title>Node0&#45;&gt;Node19</title>
<path fill="none" stroke="blueviolet" stroke-dasharray="5,2" d="M174.95,-314.373C184.7,-307.853 198.566,-299.251 211.678,-293.5 233.103,-284.102 259.061,-277.093 276.749,-272.924"/>
<text text-anchor="middle" x="221.404" y="-295.5" font-family="Helvetica,sans-Serif" font-size="10.00">erpc</text>
</g>
<!-- Node6 -->
<g id="node14" class="node"><title>Node6</title>
<g id="a_node14"><a xlink:href="group__infra__server.html" target="_top" xlink:title="Server classes. ">
<polygon fill="white" stroke="black" points="275.625,-222.5 275.625,-240.5 321.078,-240.5 321.078,-222.5 275.625,-222.5"/>
<text text-anchor="middle" x="298.352" y="-228.5" font-family="Helvetica,sans-Serif" font-size="10.00">Server</text>
</a>
</g>
</g>
<!-- Node0&#45;&gt;Node6 -->
<g id="edge6" class="edge"><title>Node0&#45;&gt;Node6</title>
<path fill="none" stroke="blueviolet" stroke-dasharray="5,2" d="M169.332,-314.242C178.471,-303.172 194.894,-284.509 211.678,-271.5 226.761,-259.809 231.891,-258.683 249.131,-250.5 257.585,-246.487 267.128,-242.599 275.481,-239.396"/>
<text text-anchor="middle" x="221.404" y="-273.5" font-family="Helvetica,sans-Serif" font-size="10.00">erpc</text>
</g>
<!-- Node10 -->
<g id="node15" class="node"><title>Node10</title>
<g id="a_node15"><a xlink:href="group__itbp__transport.html" target="_top" xlink:title="Simple inter&#45;thread communications transport. ">
<polygon fill="white" stroke="black" points="264.504,-185.5 264.504,-203.5 332.199,-203.5 332.199,-185.5 264.504,-185.5"/>
<text text-anchor="middle" x="298.352" y="-191.5" font-family="Helvetica,sans-Serif" font-size="10.00">Inter&#45;thread</text>
</a>
</g>
</g>
<!-- Node0&#45;&gt;Node10 -->
<g id="edge10" class="edge"><title>Node0&#45;&gt;Node10</title>
<path fill="none" stroke="blueviolet" stroke-dasharray="5,2" d="M166.608,-314.091C174.549,-298.59 191.788,-267.15 211.678,-244.5 225.936,-228.263 230.524,-224.486 249.131,-213.5 255.639,-209.657 263.068,-206.29 270.113,-203.501"/>
<text text-anchor="middle" x="221.404" y="-246.5" font-family="Helvetica,sans-Serif" font-size="10.00">erpc</text>
</g>
<!-- Node8 -->
<g id="node16" class="node"><title>Node8</title>
<g id="a_node16"><a xlink:href="group__dspi__master__transport.html" target="_top" xlink:title="Kinetis SDK DSPI master driver transport. ">
<polygon fill="white" stroke="black" points="262.012,-148.5 262.012,-166.5 334.691,-166.5 334.691,-148.5 262.012,-148.5"/>
<text text-anchor="middle" x="298.352" y="-154.5" font-family="Helvetica,sans-Serif" font-size="10.00">DSPI Master</text>
</a>
</g>
</g>
<!-- Node0&#45;&gt;Node8 -->
<g id="edge8" class="edge"><title>Node0&#45;&gt;Node8</title>
<path fill="none" stroke="blueviolet" stroke-dasharray="5,2" d="M164.54,-314.336C170.528,-294.195 186.752,-245.112 211.678,-210.5 224.816,-192.257 230.038,-188.37 249.131,-176.5 255.397,-172.604 262.596,-169.255 269.488,-166.501"/>
<text text-anchor="middle" x="221.404" y="-212.5" font-family="Helvetica,sans-Serif" font-size="10.00">erpc</text>
</g>
<!-- Node14 -->
<g id="node17" class="node"><title>Node14</title>
<g id="a_node17"><a xlink:href="group__rpmsg__rtos__transport.html" target="_top" xlink:title="OpenAMP RPMsg RTOS layer transport. ">
<polygon fill="white" stroke="black" points="258.857,-111.5 258.857,-129.5 337.846,-129.5 337.846,-111.5 258.857,-111.5"/>
<text text-anchor="middle" x="298.352" y="-117.5" font-family="Helvetica,sans-Serif" font-size="10.00">RPMsg RTOS</text>
</a>
</g>
</g>
<!-- Node0&#45;&gt;Node14 -->
<g id="edge14" class="edge"><title>Node0&#45;&gt;Node14</title>
<path fill="none" stroke="blueviolet" stroke-dasharray="5,2" d="M163.312,-314.349C167.306,-289.795 180.702,-221.1 211.678,-173.5 223.94,-154.657 230.038,-151.37 249.131,-139.5 255.397,-135.604 262.596,-132.255 269.488,-129.501"/>
<text text-anchor="middle" x="221.404" y="-175.5" font-family="Helvetica,sans-Serif" font-size="10.00">erpc</text>
</g>
<!-- Node3 -->
<g id="node18" class="node"><title>Node3</title>
<g id="a_node18"><a xlink:href="group__infra__codec.html" target="_top" xlink:title="Classes used for message serialization. ">
<polygon fill="white" stroke="black" points="263.115,-74.5 263.115,-92.5 333.588,-92.5 333.588,-74.5 263.115,-74.5"/>
<text text-anchor="middle" x="298.352" y="-80.5" font-family="Helvetica,sans-Serif" font-size="10.00">Serialization</text>
</a>
</g>
</g>
<!-- Node0&#45;&gt;Node3 -->
<g id="edge3" class="edge"><title>Node0&#45;&gt;Node3</title>
<path fill="none" stroke="blueviolet" stroke-dasharray="5,2" d="M162.569,-314.218C164.845,-285.655 174.647,-197.334 211.678,-136.5 223.367,-117.296 230.038,-114.37 249.131,-102.5 255.397,-98.6043 262.596,-95.2549 269.488,-92.5015"/>
<text text-anchor="middle" x="221.404" y="-138.5" font-family="Helvetica,sans-Serif" font-size="10.00">erpc</text>
</g>
<!-- Node12 -->
<g id="node19" class="node"><title>Node12</title>
<g id="a_node19"><a xlink:href="group__rpmsg__lite__rtos__transport.html" target="_top" xlink:title="RPMsg&#45;Lite transport using RTOS API. ">
<polygon fill="white" stroke="black" points="249.131,-37.5 249.131,-55.5 347.572,-55.5 347.572,-37.5 249.131,-37.5"/>
<text text-anchor="middle" x="298.352" y="-43.5" font-family="Helvetica,sans-Serif" font-size="10.00">RPMsg&#45;Lite RTOS</text>
</a>
</g>
</g>
<!-- Node0&#45;&gt;Node12 -->
<g id="edge12" class="edge"><title>Node0&#45;&gt;Node12</title>
<path fill="none" stroke="blueviolet" stroke-dasharray="5,2" d="M162.047,-314.253C162.773,-282.222 168.471,-173.911 211.678,-99.5 224.324,-77.7199 249.851,-63.6729 269.767,-55.5506"/>
<text text-anchor="middle" x="221.404" y="-101.5" font-family="Helvetica,sans-Serif" font-size="10.00">erpc</text>
</g>
<!-- Node13 -->
<g id="node20" class="node"><title>Node13</title>
<g id="a_node20"><a xlink:href="group__rpmsg__lite__transport.html" target="_top" xlink:title="RPMsg&#45;Lite transport. ">
<polygon fill="white" stroke="black" points="264.233,-0.5 264.233,-18.5 332.47,-18.5 332.47,-0.5 264.233,-0.5"/>
<text text-anchor="middle" x="298.352" y="-6.5" font-family="Helvetica,sans-Serif" font-size="10.00">RPMsg&#45;Lite</text>
</a>
</g>
</g>
<!-- Node0&#45;&gt;Node13 -->
<g id="edge13" class="edge"><title>Node0&#45;&gt;Node13</title>
<path fill="none" stroke="blueviolet" stroke-dasharray="5,2" d="M161.669,-314.242C161.004,-278.978 162.276,-150.616 211.678,-62.5 223.909,-40.6841 249.208,-26.7032 269.159,-18.6113"/>
<text text-anchor="middle" x="221.404" y="-64.5" font-family="Helvetica,sans-Serif" font-size="10.00">erpc</text>
</g>
</g>
</svg>
