<?xml version="1.0" encoding="UTF-8" standalone="no"?>
<!DOCTYPE svg PUBLIC "-//W3C//DTD SVG 1.1//EN"
 "http://www.w3.org/Graphics/SVG/1.1/DTD/svg11.dtd">
<!-- Generated by graphviz version 2.38.0 (20140413.2041)
 -->
<!-- Title: Serial port Pages: 1 -->
<svg width="352pt" height="656pt"
 viewBox="0.00 0.00 351.69 656.00" xmlns="http://www.w3.org/2000/svg" xmlns:xlink="http://www.w3.org/1999/xlink">
<g id="graph0" class="graph" transform="scale(1 1) rotate(0) translate(4 652)">
<title>Serial port</title>
<polygon fill="white" stroke="none" points="-4,4 -4,-652 347.69,-652 347.69,4 -4,4"/>
<!-- Node1 -->
<g id="node1" class="node"><title>Node1</title>
<g id="a_node1"><a xlink:href="group__transports.html" target="_top" xlink:title="Transport layer classes. ">
<polygon fill="white" stroke="black" points="0,-314.5 0,-332.5 91.2197,-332.5 91.2197,-314.5 0,-314.5"/>
<text text-anchor="middle" x="45.6099" y="-320.5" font-family="Helvetica,sans-Serif" font-size="10.00">Transport Layers</text>
</a>
</g>
</g>
<!-- Node0 -->
<g id="node8" class="node"><title>Node0</title>
<polygon fill="#bfbfbf" stroke="black" points="128.22,-314.5 128.22,-332.5 189.796,-332.5 189.796,-314.5 128.22,-314.5"/>
<text text-anchor="middle" x="159.008" y="-320.5" font-family="Helvetica,sans-Serif" font-size="10.00">Serial port</text>
</g>
<!-- Node1&#45;&gt;Node0 -->
<g id="edge1" class="edge"><title>Node1&#45;&gt;Node0</title>
<path fill="none" stroke="black" d="M101.524,-323.5C110.656,-323.5 119.816,-323.5 128.022,-323.5"/>
<polygon fill="black" stroke="black" points="101.278,-320 91.2778,-323.5 101.278,-327 101.278,-320"/>
</g>
<!-- Node9 -->
<g id="node2" class="node"><title>Node9</title>
<g id="a_node2"><a xlink:href="group__dspi__slave__transport.html" target="_top" xlink:title="Kinetis SDK DSPI slave driver transport. ">
<polygon fill="white" stroke="black" points="260.903,-629.5 260.903,-647.5 328.036,-647.5 328.036,-629.5 260.903,-629.5"/>
<text text-anchor="middle" x="294.47" y="-635.5" font-family="Helvetica,sans-Serif" font-size="10.00">DSPI Slave</text>
</a>
</g>
</g>
<!-- Node7 -->
<g id="node3" class="node"><title>Node7</title>
<g id="a_node3"><a xlink:href="group__port__threads.html" target="_top" xlink:title="Threading model. ">
<polygon fill="white" stroke="black" points="268.127,-592.5 268.127,-610.5 320.812,-610.5 320.812,-592.5 268.127,-592.5"/>
<text text-anchor="middle" x="294.47" y="-598.5" font-family="Helvetica,sans-Serif" font-size="10.00">Threads</text>
</a>
</g>
</g>
<!-- Node18 -->
<g id="node4" class="node"><title>Node18</title>
<g id="a_node4"><a xlink:href="group__tcp__transport.html" target="_top" xlink:title="Simple TCP/IP transport. ">
<polygon fill="white" stroke="black" points="270.356,-555.5 270.356,-573.5 318.583,-573.5 318.583,-555.5 270.356,-555.5"/>
<text text-anchor="middle" x="294.47" y="-561.5" font-family="Helvetica,sans-Serif" font-size="10.00">TCP/IP</text>
</a>
</g>
</g>
<!-- Node15 -->
<g id="node5" class="node"><title>Node15</title>
<g id="a_node5"><a xlink:href="group__rpmsg__transport.html" target="_top" xlink:title="OpenAMP RPMsg transport. ">
<polygon fill="white" stroke="black" points="270.078,-518.5 270.078,-536.5 318.861,-536.5 318.861,-518.5 270.078,-518.5"/>
<text text-anchor="middle" x="294.47" y="-524.5" font-family="Helvetica,sans-Serif" font-size="10.00">RPMsg</text>
</a>
</g>
</g>
<!-- Node2 -->
<g id="node6" class="node"><title>Node2</title>
<g id="a_node6"><a xlink:href="group__infra__client.html" target="_top" xlink:title="Client classes. ">
<polygon fill="white" stroke="black" points="273.687,-481.5 273.687,-499.5 315.253,-499.5 315.253,-481.5 273.687,-481.5"/>
<text text-anchor="middle" x="294.47" y="-487.5" font-family="Helvetica,sans-Serif" font-size="10.00">Client</text>
</a>
</g>
</g>
<!-- Node4 -->
<g id="node7" class="node"><title>Node4</title>
<g id="a_node7"><a xlink:href="group__infra__transport.html" target="_top" xlink:title="Superclasses for building transports. ">
<polygon fill="white" stroke="black" points="262.756,-444.5 262.756,-462.5 326.183,-462.5 326.183,-444.5 262.756,-444.5"/>
<text text-anchor="middle" x="294.47" y="-450.5" font-family="Helvetica,sans-Serif" font-size="10.00">Transports</text>
</a>
</g>
</g>
<!-- Node0&#45;&gt;Node9 -->
<g id="edge9" class="edge"><title>Node0&#45;&gt;Node9</title>
<path fill="none" stroke="blueviolet" stroke-dasharray="5,2" d="M159.673,-332.768C158.795,-368.072 159.265,-496.629 207.796,-585.5 218.715,-605.496 225.879,-608.506 245.249,-620.5 250.871,-623.981 257.272,-626.954 263.532,-629.421"/>
<text text-anchor="middle" x="217.522" y="-610.5" font-family="Helvetica,sans-Serif" font-size="10.00">erpc</text>
</g>
<!-- Node0&#45;&gt;Node7 -->
<g id="edge7" class="edge"><title>Node0&#45;&gt;Node7</title>
<path fill="none" stroke="blueviolet" stroke-dasharray="5,2" d="M160.085,-332.7C160.726,-364.576 166.04,-472.443 207.796,-547.5 219.021,-567.677 225.705,-571.207 245.249,-583.5 252.208,-587.877 260.393,-591.433 268.024,-594.192"/>
<text text-anchor="middle" x="217.522" y="-573.5" font-family="Helvetica,sans-Serif" font-size="10.00">erpc</text>
</g>
<!-- Node0&#45;&gt;Node18 -->
<g id="edge18" class="edge"><title>Node0&#45;&gt;Node18</title>
<path fill="none" stroke="blueviolet" stroke-dasharray="5,2" d="M160.588,-332.734C162.727,-361.159 172.026,-449.125 207.796,-510.5 219.422,-530.448 225.705,-534.207 245.249,-546.5 252.813,-551.258 261.826,-555.045 270.001,-557.894"/>
<text text-anchor="middle" x="217.522" y="-535.5" font-family="Helvetica,sans-Serif" font-size="10.00">erpc</text>
</g>
<!-- Node0&#45;&gt;Node15 -->
<g id="edge15" class="edge"><title>Node0&#45;&gt;Node15</title>
<path fill="none" stroke="blueviolet" stroke-dasharray="5,2" d="M161.304,-332.604C165.105,-357.04 177.897,-425.47 207.796,-473.5 219.998,-493.101 225.705,-497.207 245.249,-509.5 252.813,-514.258 261.826,-518.045 270.001,-520.894"/>
<text text-anchor="middle" x="217.522" y="-498.5" font-family="Helvetica,sans-Serif" font-size="10.00">erpc</text>
</g>
<!-- Node0&#45;&gt;Node2 -->
<g id="edge2" class="edge"><title>Node0&#45;&gt;Node2</title>
<path fill="none" stroke="blueviolet" stroke-dasharray="5,2" d="M162.541,-332.512C168.382,-352.333 184.132,-400.717 207.796,-435.5 220.957,-454.846 225.528,-459.907 245.249,-472.5 253.835,-477.983 264.336,-482.152 273.345,-485.09"/>
<text text-anchor="middle" x="217.522" y="-461.5" font-family="Helvetica,sans-Serif" font-size="10.00">erpc</text>
</g>
<!-- Node0&#45;&gt;Node4 -->
<g id="edge4" class="edge"><title>Node0&#45;&gt;Node4</title>
<path fill="none" stroke="blueviolet" stroke-dasharray="5,2" d="M164.033,-332.556C174.187,-354.262 203.075,-409.386 245.249,-435.5 250.871,-438.981 257.272,-441.954 263.532,-444.421"/>
<text text-anchor="middle" x="217.522" y="-423.5" font-family="Helvetica,sans-Serif" font-size="10.00">erpc</text>
</g>
<!-- Node5 -->
<g id="node9" class="node"><title>Node5</title>
<g id="a_node9"><a xlink:href="group__infra__utility.html" target="_top" xlink:title="Utility code used by the infrastructure. ">
<polygon fill="white" stroke="black" points="270.356,-407.5 270.356,-425.5 318.583,-425.5 318.583,-407.5 270.356,-407.5"/>
<text text-anchor="middle" x="294.47" y="-413.5" font-family="Helvetica,sans-Serif" font-size="10.00">Utilities</text>
</a>
</g>
</g>
<!-- Node0&#45;&gt;Node5 -->
<g id="edge5" class="edge"><title>Node0&#45;&gt;Node5</title>
<path fill="none" stroke="blueviolet" stroke-dasharray="5,2" d="M168.034,-332.692C182.157,-348.333 213.022,-380.206 245.249,-398.5 253.02,-402.911 262.078,-406.623 270.231,-409.508"/>
<text text-anchor="middle" x="217.522" y="-388.5" font-family="Helvetica,sans-Serif" font-size="10.00">erpc</text>
</g>
<!-- Node11 -->
<g id="node10" class="node"><title>Node11</title>
<g id="a_node10"><a xlink:href="group__lpuart__transport.html" target="_top" xlink:title="Kinetis SDK LPUART driver transport. ">
<polygon fill="white" stroke="black" points="266.831,-370.5 266.831,-388.5 322.108,-388.5 322.108,-370.5 266.831,-370.5"/>
<text text-anchor="middle" x="294.47" y="-376.5" font-family="Helvetica,sans-Serif" font-size="10.00">LPUART</text>
</a>
</g>
</g>
<!-- Node0&#45;&gt;Node11 -->
<g id="edge11" class="edge"><title>Node0&#45;&gt;Node11</title>
<path fill="none" stroke="blueviolet" stroke-dasharray="5,2" d="M178.028,-332.528C186.922,-336.893 197.852,-342.122 207.796,-346.5 224.207,-353.726 228.525,-355.031 245.249,-361.5 252.916,-364.466 261.301,-367.625 268.896,-370.455"/>
<text text-anchor="middle" x="217.522" y="-356.5" font-family="Helvetica,sans-Serif" font-size="10.00">erpc</text>
</g>
<!-- Node17 -->
<g id="node11" class="node"><title>Node17</title>
<g id="a_node11"><a xlink:href="group__spi__slave__transport.html" target="_top" xlink:title="Kinetis SDK SPI slave driver transport. ">
<polygon fill="white" stroke="black" points="264.514,-333.5 264.514,-351.5 324.425,-351.5 324.425,-333.5 264.514,-333.5"/>
<text text-anchor="middle" x="294.47" y="-339.5" font-family="Helvetica,sans-Serif" font-size="10.00">SPI Slave</text>
</a>
</g>
</g>
<!-- Node0&#45;&gt;Node17 -->
<g id="edge17" class="edge"><title>Node0&#45;&gt;Node17</title>
<path fill="none" stroke="blueviolet" stroke-dasharray="5,2" d="M189.959,-327.764C212.093,-330.915 242.078,-335.184 264.078,-338.316"/>
<text text-anchor="middle" x="217.522" y="-334.5" font-family="Helvetica,sans-Serif" font-size="10.00">erpc</text>
</g>
<!-- Node19 -->
<g id="node12" class="node"><title>Node19</title>
<g id="a_node12"><a xlink:href="group__uart__transport.html" target="_top" xlink:title="Kinetis SDK UART driver transport. ">
<polygon fill="white" stroke="black" points="272.947,-296.5 272.947,-314.5 315.993,-314.5 315.993,-296.5 272.947,-296.5"/>
<text text-anchor="middle" x="294.47" y="-302.5" font-family="Helvetica,sans-Serif" font-size="10.00">UART</text>
</a>
</g>
</g>
<!-- Node0&#45;&gt;Node19 -->
<g id="edge19" class="edge"><title>Node0&#45;&gt;Node19</title>
<path fill="none" stroke="blueviolet" stroke-dasharray="5,2" d="M189.368,-314.487C195.412,-312.923 201.771,-311.484 207.796,-310.5 229.852,-306.896 255.475,-305.799 272.913,-305.508"/>
<text text-anchor="middle" x="217.522" y="-312.5" font-family="Helvetica,sans-Serif" font-size="10.00">erpc</text>
</g>
<!-- Node16 -->
<g id="node13" class="node"><title>Node16</title>
<g id="a_node13"><a xlink:href="group__spi__master__transport.html" target="_top" xlink:title="Kinetis SDK SPI master driver transport. ">
<polygon fill="white" stroke="black" points="261.741,-259.5 261.741,-277.5 327.199,-277.5 327.199,-259.5 261.741,-259.5"/>
<text text-anchor="middle" x="294.47" y="-265.5" font-family="Helvetica,sans-Serif" font-size="10.00">SPI Master</text>
</a>
</g>
</g>
<!-- Node0&#45;&gt;Node16 -->
<g id="edge16" class="edge"><title>Node0&#45;&gt;Node16</title>
<path fill="none" stroke="blueviolet" stroke-dasharray="5,2" d="M172.449,-314.342C181.792,-307.807 195.108,-299.201 207.796,-293.5 224.897,-285.817 244.972,-279.811 261.39,-275.614"/>
<text text-anchor="middle" x="217.522" y="-295.5" font-family="Helvetica,sans-Serif" font-size="10.00">erpc</text>
</g>
<!-- Node6 -->
<g id="node14" class="node"><title>Node6</title>
<g id="a_node14"><a xlink:href="group__infra__server.html" target="_top" xlink:title="Server classes. ">
<polygon fill="white" stroke="black" points="271.743,-222.5 271.743,-240.5 317.196,-240.5 317.196,-222.5 271.743,-222.5"/>
<text text-anchor="middle" x="294.47" y="-228.5" font-family="Helvetica,sans-Serif" font-size="10.00">Server</text>
</a>
</g>
</g>
<!-- Node0&#45;&gt;Node6 -->
<g id="edge6" class="edge"><title>Node0&#45;&gt;Node6</title>
<path fill="none" stroke="blueviolet" stroke-dasharray="5,2" d="M167.029,-314.216C175.739,-303.12 191.449,-284.432 207.796,-271.5 222.763,-259.66 228.009,-258.683 245.249,-250.5 253.703,-246.487 263.246,-242.599 271.599,-239.396"/>
<text text-anchor="middle" x="217.522" y="-273.5" font-family="Helvetica,sans-Serif" font-size="10.00">erpc</text>
</g>
<!-- Node10 -->
<g id="node15" class="node"><title>Node10</title>
<g id="a_node15"><a xlink:href="group__itbp__transport.html" target="_top" xlink:title="Simple inter&#45;thread communications transport. ">
<polygon fill="white" stroke="black" points="260.623,-185.5 260.623,-203.5 328.317,-203.5 328.317,-185.5 260.623,-185.5"/>
<text text-anchor="middle" x="294.47" y="-191.5" font-family="Helvetica,sans-Serif" font-size="10.00">Inter&#45;thread</text>
</a>
</g>
</g>
<!-- Node0&#45;&gt;Node10 -->
<g id="edge10" class="edge"><title>Node0&#45;&gt;Node10</title>
<path fill="none" stroke="blueviolet" stroke-dasharray="5,2" d="M164.405,-314.074C171.92,-298.55 188.323,-267.077 207.796,-244.5 221.909,-228.137 226.642,-224.486 245.249,-213.5 251.758,-209.657 259.187,-206.29 266.231,-203.501"/>
<text text-anchor="middle" x="217.522" y="-246.5" font-family="Helvetica,sans-Serif" font-size="10.00">erpc</text>
</g>
<!-- Node8 -->
<g id="node16" class="node"><title>Node8</title>
<g id="a_node16"><a xlink:href="group__dspi__master__transport.html" target="_top" xlink:title="Kinetis SDK DSPI master driver transport. ">
<polygon fill="white" stroke="black" points="258.13,-148.5 258.13,-166.5 330.81,-166.5 330.81,-148.5 258.13,-148.5"/>
<text text-anchor="middle" x="294.47" y="-154.5" font-family="Helvetica,sans-Serif" font-size="10.00">DSPI Master</text>
</a>
</g>
</g>
<!-- Node0&#45;&gt;Node8 -->
<g id="edge8" class="edge"><title>Node0&#45;&gt;Node8</title>
<path fill="none" stroke="blueviolet" stroke-dasharray="5,2" d="M162.413,-314.331C168,-294.178 183.275,-245.075 207.796,-210.5 220.802,-192.162 226.156,-188.37 245.249,-176.5 251.515,-172.604 258.715,-169.255 265.606,-166.501"/>
<text text-anchor="middle" x="217.522" y="-212.5" font-family="Helvetica,sans-Serif" font-size="10.00">erpc</text>
</g>
<!-- Node14 -->
<g id="node17" class="node"><title>Node14</title>
<g id="a_node17"><a xlink:href="group__rpmsg__rtos__transport.html" target="_top" xlink:title="OpenAMP RPMsg RTOS layer transport. ">
<polygon fill="white" stroke="black" points="254.976,-111.5 254.976,-129.5 333.964,-129.5 333.964,-111.5 254.976,-111.5"/>
<text text-anchor="middle" x="294.47" y="-117.5" font-family="Helvetica,sans-Serif" font-size="10.00">RPMsg RTOS</text>
</a>
</g>
</g>
<!-- Node0&#45;&gt;Node14 -->
<g id="edge14" class="edge"><title>Node0&#45;&gt;Node14</title>
<path fill="none" stroke="blueviolet" stroke-dasharray="5,2" d="M161.229,-314.349C164.844,-289.795 177.216,-221.099 207.796,-173.5 219.948,-154.585 226.156,-151.37 245.249,-139.5 251.515,-135.604 258.715,-132.255 265.606,-129.501"/>
<text text-anchor="middle" x="217.522" y="-175.5" font-family="Helvetica,sans-Serif" font-size="10.00">erpc</text>
</g>
<!-- Node3 -->
<g id="node18" class="node"><title>Node3</title>
<g id="a_node18"><a xlink:href="group__infra__codec.html" target="_top" xlink:title="Classes used for message serialization. ">
<polygon fill="white" stroke="black" points="259.233,-74.5 259.233,-92.5 329.706,-92.5 329.706,-74.5 259.233,-74.5"/>
<text text-anchor="middle" x="294.47" y="-80.5" font-family="Helvetica,sans-Serif" font-size="10.00">Serialization</text>
</a>
</g>
</g>
<!-- Node0&#45;&gt;Node3 -->
<g id="edge3" class="edge"><title>Node0&#45;&gt;Node3</title>
<path fill="none" stroke="blueviolet" stroke-dasharray="5,2" d="M160.51,-314.22C162.428,-285.663 171.154,-197.359 207.796,-136.5 219.392,-117.24 226.156,-114.37 245.249,-102.5 251.515,-98.6043 258.715,-95.2549 265.606,-92.5015"/>
<text text-anchor="middle" x="217.522" y="-138.5" font-family="Helvetica,sans-Serif" font-size="10.00">erpc</text>
</g>
<!-- Node12 -->
<g id="node19" class="node"><title>Node12</title>
<g id="a_node19"><a xlink:href="group__rpmsg__lite__rtos__transport.html" target="_top" xlink:title="RPMsg&#45;Lite transport using RTOS API. ">
<polygon fill="white" stroke="black" points="245.249,-37.5 245.249,-55.5 343.69,-55.5 343.69,-37.5 245.249,-37.5"/>
<text text-anchor="middle" x="294.47" y="-43.5" font-family="Helvetica,sans-Serif" font-size="10.00">RPMsg&#45;Lite RTOS</text>
</a>
</g>
</g>
<!-- Node0&#45;&gt;Node12 -->
<g id="edge12" class="edge"><title>Node0&#45;&gt;Node12</title>
<path fill="none" stroke="blueviolet" stroke-dasharray="5,2" d="M160.007,-314.256C160.393,-282.236 164.974,-173.954 207.796,-99.5 220.352,-77.6678 245.891,-63.6273 265.833,-55.5207"/>
<text text-anchor="middle" x="217.522" y="-101.5" font-family="Helvetica,sans-Serif" font-size="10.00">erpc</text>
</g>
<!-- Node13 -->
<g id="node20" class="node"><title>Node13</title>
<g id="a_node20"><a xlink:href="group__rpmsg__lite__transport.html" target="_top" xlink:title="RPMsg&#45;Lite transport. ">
<polygon fill="white" stroke="black" points="260.352,-0.5 260.352,-18.5 328.588,-18.5 328.588,-0.5 260.352,-0.5"/>
<text text-anchor="middle" x="294.47" y="-6.5" font-family="Helvetica,sans-Serif" font-size="10.00">RPMsg&#45;Lite</text>
</a>
</g>
</g>
<!-- Node0&#45;&gt;Node13 -->
<g id="edge13" class="edge"><title>Node0&#45;&gt;Node13</title>
<path fill="none" stroke="blueviolet" stroke-dasharray="5,2" d="M159.642,-314.245C158.654,-278.995 158.777,-150.674 207.796,-62.5 219.949,-40.6403 245.257,-26.6645 265.232,-18.5857"/>
<text text-anchor="middle" x="217.522" y="-64.5" font-family="Helvetica,sans-Serif" font-size="10.00">erpc</text>
</g>
</g>
</svg>
