<?xml version="1.0" encoding="UTF-8" standalone="no"?>
<!DOCTYPE svg PUBLIC "-//W3C//DTD SVG 1.1//EN"
 "http://www.w3.org/Graphics/SVG/1.1/DTD/svg11.dtd">
<!-- Generated by graphviz version 2.38.0 (20140413.2041)
 -->
<!-- Title: RPMsg&#45;Lite RTOS Pages: 1 -->
<svg width="477pt" height="690pt"
 viewBox="0.00 0.00 477.30 689.97" xmlns="http://www.w3.org/2000/svg" xmlns:xlink="http://www.w3.org/1999/xlink">
<g id="graph0" class="graph" transform="scale(1 1) rotate(0) translate(4 685.972)">
<title>RPMsg&#45;Lite RTOS</title>
<polygon fill="white" stroke="none" points="-4,4 -4,-685.972 473.296,-685.972 473.296,4 -4,4"/>
<!-- Node1 -->
<g id="node1" class="node"><title>Node1</title>
<g id="a_node1"><a xlink:href="group__transports.html" target="_top" xlink:title="Transport layer classes. ">
<polygon fill="white" stroke="black" points="0,-320.972 0,-338.972 91.2197,-338.972 91.2197,-320.972 0,-320.972"/>
<text text-anchor="middle" x="45.6099" y="-326.972" font-family="Helvetica,sans-Serif" font-size="10.00">Transport Layers</text>
</a>
</g>
</g>
<!-- Node0 -->
<g id="node19" class="node"><title>Node0</title>
<polygon fill="#bfbfbf" stroke="black" points="128.22,-320.972 128.22,-338.972 226.661,-338.972 226.661,-320.972 128.22,-320.972"/>
<text text-anchor="middle" x="177.44" y="-326.972" font-family="Helvetica,sans-Serif" font-size="10.00">RPMsg&#45;Lite RTOS</text>
</g>
<!-- Node1&#45;&gt;Node0 -->
<g id="edge1" class="edge"><title>Node1&#45;&gt;Node0</title>
<path fill="none" stroke="black" d="M101.514,-329.972C110.357,-329.972 119.455,-329.972 128.128,-329.972"/>
<polygon fill="black" stroke="black" points="101.29,-326.472 91.2902,-329.972 101.29,-333.472 101.29,-326.472"/>
</g>
<!-- Node10 -->
<g id="node2" class="node"><title>Node10</title>
<g id="a_node2"><a xlink:href="group__dspi__slave__transport.html" target="_top" xlink:title="Kinetis SDK DSPI slave driver transport. ">
<polygon fill="white" stroke="black" points="396.235,-653.972 396.235,-671.972 463.368,-671.972 463.368,-653.972 396.235,-653.972"/>
<text text-anchor="middle" x="429.802" y="-659.972" font-family="Helvetica,sans-Serif" font-size="10.00">DSPI Slave</text>
</a>
</g>
</g>
<!-- Node8 -->
<g id="node3" class="node"><title>Node8</title>
<g id="a_node3"><a xlink:href="group__port__threads.html" target="_top" xlink:title="Threading model. ">
<polygon fill="white" stroke="black" points="403.459,-616.972 403.459,-634.972 456.144,-634.972 456.144,-616.972 403.459,-616.972"/>
<text text-anchor="middle" x="429.802" y="-622.972" font-family="Helvetica,sans-Serif" font-size="10.00">Threads</text>
</a>
</g>
</g>
<!-- Node18 -->
<g id="node4" class="node"><title>Node18</title>
<g id="a_node4"><a xlink:href="group__tcp__transport.html" target="_top" xlink:title="Simple TCP/IP transport. ">
<polygon fill="white" stroke="black" points="405.688,-579.972 405.688,-597.972 453.915,-597.972 453.915,-579.972 405.688,-579.972"/>
<text text-anchor="middle" x="429.802" y="-585.972" font-family="Helvetica,sans-Serif" font-size="10.00">TCP/IP</text>
</a>
</g>
</g>
<!-- Node14 -->
<g id="node5" class="node"><title>Node14</title>
<g id="a_node5"><a xlink:href="group__rpmsg__transport.html" target="_top" xlink:title="OpenAMP RPMsg transport. ">
<polygon fill="white" stroke="black" points="405.41,-542.972 405.41,-560.972 454.193,-560.972 454.193,-542.972 405.41,-542.972"/>
<text text-anchor="middle" x="429.802" y="-548.972" font-family="Helvetica,sans-Serif" font-size="10.00">RPMsg</text>
</a>
</g>
</g>
<!-- Node3 -->
<g id="node6" class="node"><title>Node3</title>
<g id="a_node6"><a xlink:href="group__infra__client.html" target="_top" xlink:title="Client classes. ">
<polygon fill="white" stroke="black" points="409.019,-505.972 409.019,-523.972 450.585,-523.972 450.585,-505.972 409.019,-505.972"/>
<text text-anchor="middle" x="429.802" y="-511.972" font-family="Helvetica,sans-Serif" font-size="10.00">Client</text>
</a>
</g>
</g>
<!-- Node5 -->
<g id="node7" class="node"><title>Node5</title>
<g id="a_node7"><a xlink:href="group__infra__transport.html" target="_top" xlink:title="Superclasses for building transports. ">
<polygon fill="white" stroke="black" points="398.088,-468.972 398.088,-486.972 461.515,-486.972 461.515,-468.972 398.088,-468.972"/>
<text text-anchor="middle" x="429.802" y="-474.972" font-family="Helvetica,sans-Serif" font-size="10.00">Transports</text>
</a>
</g>
</g>
<!-- Node15 -->
<g id="node8" class="node"><title>Node15</title>
<g id="a_node8"><a xlink:href="group__serial__transport.html" target="_top" xlink:title="POSIX and Win32 serial port transport. ">
<polygon fill="white" stroke="black" points="399.014,-431.972 399.014,-449.972 460.59,-449.972 460.59,-431.972 399.014,-431.972"/>
<text text-anchor="middle" x="429.802" y="-437.972" font-family="Helvetica,sans-Serif" font-size="10.00">Serial port</text>
</a>
</g>
</g>
<!-- Node6 -->
<g id="node9" class="node"><title>Node6</title>
<g id="a_node9"><a xlink:href="group__infra__utility.html" target="_top" xlink:title="Utility code used by the infrastructure. ">
<polygon fill="white" stroke="black" points="405.688,-394.972 405.688,-412.972 453.915,-412.972 453.915,-394.972 405.688,-394.972"/>
<text text-anchor="middle" x="429.802" y="-400.972" font-family="Helvetica,sans-Serif" font-size="10.00">Utilities</text>
</a>
</g>
</g>
<!-- Node12 -->
<g id="node10" class="node"><title>Node12</title>
<g id="a_node10"><a xlink:href="group__lpuart__transport.html" target="_top" xlink:title="Kinetis SDK LPUART driver transport. ">
<polygon fill="white" stroke="black" points="402.163,-357.972 402.163,-375.972 457.44,-375.972 457.44,-357.972 402.163,-357.972"/>
<text text-anchor="middle" x="429.802" y="-363.972" font-family="Helvetica,sans-Serif" font-size="10.00">LPUART</text>
</a>
</g>
</g>
<!-- Node17 -->
<g id="node11" class="node"><title>Node17</title>
<g id="a_node11"><a xlink:href="group__spi__slave__transport.html" target="_top" xlink:title="Kinetis SDK SPI slave driver transport. ">
<polygon fill="white" stroke="black" points="399.846,-320.972 399.846,-338.972 459.757,-338.972 459.757,-320.972 399.846,-320.972"/>
<text text-anchor="middle" x="429.802" y="-326.972" font-family="Helvetica,sans-Serif" font-size="10.00">SPI Slave</text>
</a>
</g>
</g>
<!-- Node19 -->
<g id="node12" class="node"><title>Node19</title>
<g id="a_node12"><a xlink:href="group__uart__transport.html" target="_top" xlink:title="Kinetis SDK UART driver transport. ">
<polygon fill="white" stroke="black" points="408.279,-283.972 408.279,-301.972 451.325,-301.972 451.325,-283.972 408.279,-283.972"/>
<text text-anchor="middle" x="429.802" y="-289.972" font-family="Helvetica,sans-Serif" font-size="10.00">UART</text>
</a>
</g>
</g>
<!-- Node16 -->
<g id="node13" class="node"><title>Node16</title>
<g id="a_node13"><a xlink:href="group__spi__master__transport.html" target="_top" xlink:title="Kinetis SDK SPI master driver transport. ">
<polygon fill="white" stroke="black" points="397.073,-246.972 397.073,-264.972 462.531,-264.972 462.531,-246.972 397.073,-246.972"/>
<text text-anchor="middle" x="429.802" y="-252.972" font-family="Helvetica,sans-Serif" font-size="10.00">SPI Master</text>
</a>
</g>
</g>
<!-- Node7 -->
<g id="node14" class="node"><title>Node7</title>
<g id="a_node14"><a xlink:href="group__infra__server.html" target="_top" xlink:title="Server classes. ">
<polygon fill="white" stroke="black" points="407.075,-209.972 407.075,-227.972 452.528,-227.972 452.528,-209.972 407.075,-209.972"/>
<text text-anchor="middle" x="429.802" y="-215.972" font-family="Helvetica,sans-Serif" font-size="10.00">Server</text>
</a>
</g>
</g>
<!-- Node11 -->
<g id="node15" class="node"><title>Node11</title>
<g id="a_node15"><a xlink:href="group__itbp__transport.html" target="_top" xlink:title="Simple inter&#45;thread communications transport. ">
<polygon fill="white" stroke="black" points="395.955,-172.972 395.955,-190.972 463.649,-190.972 463.649,-172.972 395.955,-172.972"/>
<text text-anchor="middle" x="429.802" y="-178.972" font-family="Helvetica,sans-Serif" font-size="10.00">Inter&#45;thread</text>
</a>
</g>
</g>
<!-- Node9 -->
<g id="node16" class="node"><title>Node9</title>
<g id="a_node16"><a xlink:href="group__dspi__master__transport.html" target="_top" xlink:title="Kinetis SDK DSPI master driver transport. ">
<polygon fill="white" stroke="black" points="393.462,-135.972 393.462,-153.972 466.142,-153.972 466.142,-135.972 393.462,-135.972"/>
<text text-anchor="middle" x="429.802" y="-141.972" font-family="Helvetica,sans-Serif" font-size="10.00">DSPI Master</text>
</a>
</g>
</g>
<!-- Node2 -->
<g id="node17" class="node"><title>Node2</title>
<g id="a_node17"><a xlink:href="group__rpmsg__rtos__transport.html" target="_top" xlink:title="OpenAMP RPMsg RTOS layer transport. ">
<polygon fill="white" stroke="black" points="390.308,-93.972 390.308,-111.972 469.296,-111.972 469.296,-93.972 390.308,-93.972"/>
<text text-anchor="middle" x="429.802" y="-99.972" font-family="Helvetica,sans-Serif" font-size="10.00">RPMsg RTOS</text>
</a>
</g>
</g>
<!-- Node4 -->
<g id="node18" class="node"><title>Node4</title>
<g id="a_node18"><a xlink:href="group__infra__codec.html" target="_top" xlink:title="Classes used for message serialization. ">
<polygon fill="white" stroke="black" points="394.565,-50.972 394.565,-68.972 465.038,-68.972 465.038,-50.972 394.565,-50.972"/>
<text text-anchor="middle" x="429.802" y="-56.972" font-family="Helvetica,sans-Serif" font-size="10.00">Serialization</text>
</a>
</g>
</g>
<!-- Node0&#45;&gt;Node10 -->
<g id="edge10" class="edge"><title>Node0&#45;&gt;Node10</title>
<path fill="none" stroke="blueviolet" stroke-dasharray="5,2" d="M179.014,-339.036C182.146,-385.526 198.771,-596.678 244.661,-638.972 285.673,-676.77 355.348,-674.442 396.217,-668.959"/>
<text text-anchor="middle" x="308.484" y="-673.972" font-family="Helvetica,sans-Serif" font-size="10.00">erpc</text>
</g>
<!-- Node0&#45;&gt;Node8 -->
<g id="edge8" class="edge"><title>Node0&#45;&gt;Node8</title>
<path fill="none" stroke="blueviolet" stroke-dasharray="5,2" d="M179.308,-339.039C183.61,-381.993 204.079,-564.432 244.661,-600.972 267.498,-621.534 358.314,-625.338 403.291,-625.938"/>
<text text-anchor="middle" x="308.484" y="-626.972" font-family="Helvetica,sans-Serif" font-size="10.00">erpc</text>
</g>
<!-- Node0&#45;&gt;Node18 -->
<g id="edge19" class="edge"><title>Node0&#45;&gt;Node18</title>
<path fill="none" stroke="blueviolet" stroke-dasharray="5,2" d="M179.686,-339.096C185.248,-378.455 209.114,-533.109 244.661,-563.972 268.231,-584.436 361.374,-588.247 405.449,-588.888"/>
<text text-anchor="middle" x="308.484" y="-588.972" font-family="Helvetica,sans-Serif" font-size="10.00">erpc</text>
</g>
<!-- Node0&#45;&gt;Node14 -->
<g id="edge15" class="edge"><title>Node0&#45;&gt;Node14</title>
<path fill="none" stroke="blueviolet" stroke-dasharray="5,2" d="M178.386,-339.261C178.745,-371.208 184.589,-477.318 244.661,-526.972 268.658,-546.807 361.133,-550.944 405.195,-551.779"/>
<text text-anchor="middle" x="308.484" y="-551.972" font-family="Helvetica,sans-Serif" font-size="10.00">erpc</text>
</g>
<!-- Node0&#45;&gt;Node3 -->
<g id="edge3" class="edge"><title>Node0&#45;&gt;Node3</title>
<path fill="none" stroke="blueviolet" stroke-dasharray="5,2" d="M179.163,-339.079C181.895,-366.871 194.182,-451.064 244.661,-489.972 270.022,-509.52 366.765,-513.784 408.944,-514.713"/>
<text text-anchor="middle" x="308.484" y="-514.972" font-family="Helvetica,sans-Serif" font-size="10.00">erpc</text>
</g>
<!-- Node0&#45;&gt;Node5 -->
<g id="edge5" class="edge"><title>Node0&#45;&gt;Node5</title>
<path fill="none" stroke="blueviolet" stroke-dasharray="5,2" d="M180.233,-339.21C185.402,-363.108 202.73,-427.106 244.661,-455.972 268.86,-472.631 352.139,-476.719 397.965,-477.693"/>
<text text-anchor="middle" x="308.484" y="-477.972" font-family="Helvetica,sans-Serif" font-size="10.00">erpc</text>
</g>
<!-- Node0&#45;&gt;Node15 -->
<g id="edge16" class="edge"><title>Node0&#45;&gt;Node15</title>
<path fill="none" stroke="blueviolet" stroke-dasharray="5,2" d="M182.55,-339.038C191.193,-356.946 213.089,-396.701 244.661,-414.972 293.144,-443.029 360.49,-444.998 398.862,-443.353"/>
<text text-anchor="middle" x="308.484" y="-444.972" font-family="Helvetica,sans-Serif" font-size="10.00">erpc</text>
</g>
<!-- Node0&#45;&gt;Node6 -->
<g id="edge6" class="edge"><title>Node0&#45;&gt;Node6</title>
<path fill="none" stroke="blueviolet" stroke-dasharray="5,2" d="M188.837,-339.225C201.213,-349.689 222.945,-366.385 244.661,-374.972 299.586,-396.689 369.783,-402.181 405.563,-403.544"/>
<text text-anchor="middle" x="308.484" y="-402.972" font-family="Helvetica,sans-Serif" font-size="10.00">erpc</text>
</g>
<!-- Node0&#45;&gt;Node12 -->
<g id="edge12" class="edge"><title>Node0&#45;&gt;Node12</title>
<path fill="none" stroke="blueviolet" stroke-dasharray="5,2" d="M218.609,-339.029C227.182,-340.803 236.201,-342.552 244.661,-343.972 300.263,-353.305 365.896,-360.626 401.863,-364.324"/>
<text text-anchor="middle" x="308.484" y="-362.972" font-family="Helvetica,sans-Serif" font-size="10.00">erpc</text>
</g>
<!-- Node0&#45;&gt;Node17 -->
<g id="edge18" class="edge"><title>Node0&#45;&gt;Node17</title>
<path fill="none" stroke="blueviolet" stroke-dasharray="5,2" d="M226.713,-329.972C278.009,-329.972 357.435,-329.972 399.822,-329.972"/>
<text text-anchor="middle" x="308.484" y="-331.972" font-family="Helvetica,sans-Serif" font-size="10.00">erpc</text>
</g>
<!-- Node0&#45;&gt;Node19 -->
<g id="edge20" class="edge"><title>Node0&#45;&gt;Node19</title>
<path fill="none" stroke="blueviolet" stroke-dasharray="5,2" d="M218.609,-320.915C227.182,-319.141 236.201,-317.392 244.661,-315.972 303.6,-306.079 373.808,-298.447 408.008,-294.993"/>
<text text-anchor="middle" x="308.484" y="-317.972" font-family="Helvetica,sans-Serif" font-size="10.00">erpc</text>
</g>
<!-- Node0&#45;&gt;Node16 -->
<g id="edge17" class="edge"><title>Node0&#45;&gt;Node16</title>
<path fill="none" stroke="blueviolet" stroke-dasharray="5,2" d="M188.354,-320.867C200.605,-310.173 222.553,-292.777 244.661,-283.972 295.431,-263.752 359.419,-258.026 397.046,-256.47"/>
<text text-anchor="middle" x="308.484" y="-285.972" font-family="Helvetica,sans-Serif" font-size="10.00">erpc</text>
</g>
<!-- Node0&#45;&gt;Node7 -->
<g id="edge7" class="edge"><title>Node0&#45;&gt;Node7</title>
<path fill="none" stroke="blueviolet" stroke-dasharray="5,2" d="M182.511,-320.786C191.084,-302.644 212.86,-262.382 244.661,-243.972 296.733,-213.826 370.665,-214.335 406.969,-216.834"/>
<text text-anchor="middle" x="308.484" y="-245.972" font-family="Helvetica,sans-Serif" font-size="10.00">erpc</text>
</g>
<!-- Node0&#45;&gt;Node11 -->
<g id="edge11" class="edge"><title>Node0&#45;&gt;Node11</title>
<path fill="none" stroke="blueviolet" stroke-dasharray="5,2" d="M180.062,-320.835C184.896,-296.574 201.643,-230.382 244.661,-200.972 289.764,-170.137 356.167,-171.876 395.691,-176.524"/>
<text text-anchor="middle" x="308.484" y="-202.972" font-family="Helvetica,sans-Serif" font-size="10.00">erpc</text>
</g>
<!-- Node0&#45;&gt;Node9 -->
<g id="edge9" class="edge"><title>Node0&#45;&gt;Node9</title>
<path fill="none" stroke="blueviolet" stroke-dasharray="5,2" d="M178.786,-320.953C180.437,-291.79 189.959,-199.582 244.661,-158.972 267.379,-142.107 346.302,-141.842 393.129,-143.304"/>
<text text-anchor="middle" x="308.484" y="-160.972" font-family="Helvetica,sans-Serif" font-size="10.00">erpc</text>
</g>
<!-- Node0&#45;&gt;Node2 -->
<g id="edge2" class="edge"><title>Node0&#45;&gt;Node2</title>
<path fill="none" stroke="orange" stroke-dasharray="5,2" d="M178.298,-320.905C178.331,-288.729 183.124,-179.225 244.661,-127.972 266.104,-110.112 342.659,-104.974 390.046,-103.52"/>
<text text-anchor="middle" x="308.484" y="-129.972" font-family="Helvetica,sans-Serif" font-size="10.00">erpc::RPMsgRTOSTransport</text>
</g>
<!-- Node0&#45;&gt;Node2 -->
<g id="edge14" class="edge"><title>Node0&#45;&gt;Node2</title>
<path fill="none" stroke="blueviolet" stroke-dasharray="5,2" d="M179.532,-320.878C184.531,-280.944 206.631,-121.833 244.661,-92.972 292.99,-56.2954 370.669,-79.3968 407.764,-93.8736"/>
<text text-anchor="middle" x="308.484" y="-94.972" font-family="Helvetica,sans-Serif" font-size="10.00">erpc</text>
</g>
<!-- Node0&#45;&gt;Node4 -->
<g id="edge4" class="edge"><title>Node0&#45;&gt;Node4</title>
<path fill="none" stroke="blueviolet" stroke-dasharray="5,2" d="M179.213,-320.818C183.077,-277.471 201.843,-93.5571 244.661,-59.972 290.442,-24.0629 364.198,-39.2121 403.014,-50.9706"/>
<text text-anchor="middle" x="308.484" y="-61.972" font-family="Helvetica,sans-Serif" font-size="10.00">erpc</text>
</g>
<!-- Node13 -->
<g id="node20" class="node"><title>Node13</title>
<g id="a_node20"><a xlink:href="group__rpmsg__lite__transport.html" target="_top" xlink:title="RPMsg&#45;Lite transport. ">
<polygon fill="white" stroke="black" points="395.684,-13.972 395.684,-31.972 463.92,-31.972 463.92,-13.972 395.684,-13.972"/>
<text text-anchor="middle" x="429.802" y="-19.972" font-family="Helvetica,sans-Serif" font-size="10.00">RPMsg&#45;Lite</text>
</a>
</g>
</g>
<!-- Node0&#45;&gt;Node13 -->
<g id="edge13" class="edge"><title>Node0&#45;&gt;Node13</title>
<path fill="none" stroke="blueviolet" stroke-dasharray="5,2" d="M178.926,-320.853C181.619,-274.096 196.403,-61.9308 244.661,-22.972 290.057,13.6764 364.311,-1.92781 403.207,-13.909"/>
<text text-anchor="middle" x="308.484" y="-24.972" font-family="Helvetica,sans-Serif" font-size="10.00">erpc</text>
</g>
</g>
</svg>
