<?xml version="1.0" encoding="UTF-8" standalone="no"?>
<!DOCTYPE svg PUBLIC "-//W3C//DTD SVG 1.1//EN"
 "http://www.w3.org/Graphics/SVG/1.1/DTD/svg11.dtd">
<!-- Generated by graphviz version 2.38.0 (20140413.2041)
 -->
<!-- Title: Transport Layers Pages: 1 -->
<svg width="234pt" height="471pt"
 viewBox="0.00 0.00 233.66 471.00" xmlns="http://www.w3.org/2000/svg" xmlns:xlink="http://www.w3.org/1999/xlink">
<g id="graph0" class="graph" transform="scale(1 1) rotate(0) translate(4 467)">
<title>Transport Layers</title>
<polygon fill="white" stroke="none" points="-4,4 -4,-467 229.661,-467 229.661,4 -4,4"/>
<!-- Node0 -->
<g id="node1" class="node"><title>Node0</title>
<polygon fill="#bfbfbf" stroke="black" points="0,-222.5 0,-240.5 91.2197,-240.5 91.2197,-222.5 0,-222.5"/>
<text text-anchor="middle" x="45.6099" y="-228.5" font-family="Helvetica,sans-Serif" font-size="10.00">Transport Layers</text>
</g>
<!-- Node2 -->
<g id="node2" class="node"><title>Node2</title>
<g id="a_node2"><a xlink:href="group__dspi__slave__transport.html" target="_top" xlink:title="Kinetis SDK DSPI slave driver transport. ">
<polygon fill="white" stroke="black" points="142.874,-444.5 142.874,-462.5 210.007,-462.5 210.007,-444.5 142.874,-444.5"/>
<text text-anchor="middle" x="176.44" y="-450.5" font-family="Helvetica,sans-Serif" font-size="10.00">DSPI Slave</text>
</a>
</g>
</g>
<!-- Node0&#45;&gt;Node2 -->
<g id="edge2" class="edge"><title>Node0&#45;&gt;Node2</title>
<path fill="none" stroke="black" d="M48.9468,-250.631C54.798,-290.463 73.6652,-382.956 127.22,-435.5 131.557,-439.756 136.993,-443.02 142.637,-445.52"/>
<polygon fill="black" stroke="black" points="52.4078,-250.106 47.5985,-240.666 45.471,-251.045 52.4078,-250.106"/>
</g>
<!-- Node13 -->
<g id="node3" class="node"><title>Node13</title>
<g id="a_node3"><a xlink:href="group__tcp__transport.html" target="_top" xlink:title="Simple TCP/IP transport. ">
<polygon fill="white" stroke="black" points="152.327,-407.5 152.327,-425.5 200.554,-425.5 200.554,-407.5 152.327,-407.5"/>
<text text-anchor="middle" x="176.44" y="-413.5" font-family="Helvetica,sans-Serif" font-size="10.00">TCP/IP</text>
</a>
</g>
</g>
<!-- Node0&#45;&gt;Node13 -->
<g id="edge13" class="edge"><title>Node0&#45;&gt;Node13</title>
<path fill="none" stroke="black" d="M50.8436,-250.606C59.3967,-284.906 81.9033,-357.19 127.22,-398.5 134.088,-404.761 143.334,-408.905 151.892,-411.62"/>
<polygon fill="black" stroke="black" points="54.1689,-249.458 48.4651,-240.529 47.3561,-251.066 54.1689,-249.458"/>
</g>
<!-- Node12 -->
<g id="node4" class="node"><title>Node12</title>
<g id="a_node4"><a xlink:href="group__rpmsg__transport.html" target="_top" xlink:title="OpenAMP RPMsg transport. ">
<polygon fill="white" stroke="black" points="152.049,-370.5 152.049,-388.5 200.832,-388.5 200.832,-370.5 152.049,-370.5"/>
<text text-anchor="middle" x="176.44" y="-376.5" font-family="Helvetica,sans-Serif" font-size="10.00">RPMsg</text>
</a>
</g>
</g>
<!-- Node0&#45;&gt;Node12 -->
<g id="edge12" class="edge"><title>Node0&#45;&gt;Node12</title>
<path fill="none" stroke="black" d="M53.5931,-250.231C64.9257,-278.212 89.8821,-330.903 127.22,-361.5 134.27,-367.277 143.357,-371.308 151.739,-374.067"/>
<polygon fill="black" stroke="black" points="56.8146,-248.858 49.9194,-240.814 50.2933,-251.402 56.8146,-248.858"/>
</g>
<!-- Node8 -->
<g id="node5" class="node"><title>Node8</title>
<g id="a_node5"><a xlink:href="group__serial__transport.html" target="_top" xlink:title="POSIX and Win32 serial port transport. ">
<polygon fill="white" stroke="black" points="145.652,-333.5 145.652,-351.5 207.229,-351.5 207.229,-333.5 145.652,-333.5"/>
<text text-anchor="middle" x="176.44" y="-339.5" font-family="Helvetica,sans-Serif" font-size="10.00">Serial port</text>
</a>
</g>
</g>
<!-- Node0&#45;&gt;Node8 -->
<g id="edge8" class="edge"><title>Node0&#45;&gt;Node8</title>
<path fill="none" stroke="black" d="M57.9099,-249.249C71.8989,-269.93 97.5416,-303.892 127.22,-324.5 132.725,-328.323 139.143,-331.45 145.467,-333.962"/>
<polygon fill="black" stroke="black" points="60.7533,-247.203 52.3299,-240.777 54.9074,-251.053 60.7533,-247.203"/>
</g>
<!-- Node6 -->
<g id="node6" class="node"><title>Node6</title>
<g id="a_node6"><a xlink:href="group__lpuart__transport.html" target="_top" xlink:title="Kinetis SDK LPUART driver transport. ">
<polygon fill="white" stroke="black" points="148.802,-296.5 148.802,-314.5 204.079,-314.5 204.079,-296.5 148.802,-296.5"/>
<text text-anchor="middle" x="176.44" y="-302.5" font-family="Helvetica,sans-Serif" font-size="10.00">LPUART</text>
</a>
</g>
</g>
<!-- Node0&#45;&gt;Node6 -->
<g id="edge6" class="edge"><title>Node0&#45;&gt;Node6</title>
<path fill="none" stroke="black" d="M65.7252,-246.831C81.5338,-258.994 104.928,-275.832 127.22,-287.5 133.949,-291.022 141.526,-294.19 148.645,-296.85"/>
<polygon fill="black" stroke="black" points="67.812,-244.02 57.7783,-240.618 63.5004,-249.535 67.812,-244.02"/>
</g>
<!-- Node4 -->
<g id="node7" class="node"><title>Node4</title>
<g id="a_node7"><a xlink:href="group__spi__slave__transport.html" target="_top" xlink:title="Kinetis SDK SPI slave driver transport. ">
<polygon fill="white" stroke="black" points="146.485,-259.5 146.485,-277.5 206.396,-277.5 206.396,-259.5 146.485,-259.5"/>
<text text-anchor="middle" x="176.44" y="-265.5" font-family="Helvetica,sans-Serif" font-size="10.00">SPI Slave</text>
</a>
</g>
</g>
<!-- Node0&#45;&gt;Node4 -->
<g id="edge4" class="edge"><title>Node0&#45;&gt;Node4</title>
<path fill="none" stroke="black" d="M87.7866,-243.326C106.893,-248.813 129.148,-255.205 146.453,-260.175"/>
<polygon fill="black" stroke="black" points="88.703,-239.948 78.1254,-240.551 86.7707,-246.676 88.703,-239.948"/>
</g>
<!-- Node7 -->
<g id="node8" class="node"><title>Node7</title>
<g id="a_node8"><a xlink:href="group__uart__transport.html" target="_top" xlink:title="Kinetis SDK UART driver transport. ">
<polygon fill="white" stroke="black" points="154.917,-222.5 154.917,-240.5 197.963,-240.5 197.963,-222.5 154.917,-222.5"/>
<text text-anchor="middle" x="176.44" y="-228.5" font-family="Helvetica,sans-Serif" font-size="10.00">UART</text>
</a>
</g>
</g>
<!-- Node0&#45;&gt;Node7 -->
<g id="edge7" class="edge"><title>Node0&#45;&gt;Node7</title>
<path fill="none" stroke="black" d="M101.326,-231.5C120.184,-231.5 140.176,-231.5 154.639,-231.5"/>
<polygon fill="black" stroke="black" points="101.307,-228 91.307,-231.5 101.307,-235 101.307,-228"/>
</g>
<!-- Node3 -->
<g id="node9" class="node"><title>Node3</title>
<g id="a_node9"><a xlink:href="group__spi__master__transport.html" target="_top" xlink:title="Kinetis SDK SPI master driver transport. ">
<polygon fill="white" stroke="black" points="143.711,-185.5 143.711,-203.5 209.169,-203.5 209.169,-185.5 143.711,-185.5"/>
<text text-anchor="middle" x="176.44" y="-191.5" font-family="Helvetica,sans-Serif" font-size="10.00">SPI Master</text>
</a>
</g>
</g>
<!-- Node0&#45;&gt;Node3 -->
<g id="edge3" class="edge"><title>Node0&#45;&gt;Node3</title>
<path fill="none" stroke="black" d="M87.8617,-219.653C105.989,-214.446 126.94,-208.429 143.804,-203.586"/>
<polygon fill="black" stroke="black" points="86.7707,-216.324 78.1254,-222.449 88.703,-223.052 86.7707,-216.324"/>
</g>
<!-- Node5 -->
<g id="node10" class="node"><title>Node5</title>
<g id="a_node10"><a xlink:href="group__itbp__transport.html" target="_top" xlink:title="Simple inter&#45;thread communications transport. ">
<polygon fill="white" stroke="black" points="142.593,-148.5 142.593,-166.5 210.288,-166.5 210.288,-148.5 142.593,-148.5"/>
<text text-anchor="middle" x="176.44" y="-154.5" font-family="Helvetica,sans-Serif" font-size="10.00">Inter&#45;thread</text>
</a>
</g>
</g>
<!-- Node0&#45;&gt;Node5 -->
<g id="edge5" class="edge"><title>Node0&#45;&gt;Node5</title>
<path fill="none" stroke="black" d="M66.0974,-216.372C81.9581,-204.519 105.239,-188.141 127.22,-176.5 134.217,-172.794 142.102,-169.391 149.437,-166.52"/>
<polygon fill="black" stroke="black" points="63.9582,-213.602 58.1047,-222.433 68.1877,-219.179 63.9582,-213.602"/>
</g>
<!-- Node1 -->
<g id="node11" class="node"><title>Node1</title>
<g id="a_node11"><a xlink:href="group__dspi__master__transport.html" target="_top" xlink:title="Kinetis SDK DSPI master driver transport. ">
<polygon fill="white" stroke="black" points="140.101,-111.5 140.101,-129.5 212.78,-129.5 212.78,-111.5 140.101,-111.5"/>
<text text-anchor="middle" x="176.44" y="-117.5" font-family="Helvetica,sans-Serif" font-size="10.00">DSPI Master</text>
</a>
</g>
</g>
<!-- Node0&#45;&gt;Node1 -->
<g id="edge1" class="edge"><title>Node0&#45;&gt;Node1</title>
<path fill="none" stroke="black" d="M58.018,-214.04C72.1112,-193.675 97.8543,-160.169 127.22,-139.5 132.885,-135.512 139.505,-132.204 145.993,-129.528"/>
<polygon fill="black" stroke="black" points="55.0833,-212.131 52.3913,-222.379 60.886,-216.047 55.0833,-212.131"/>
</g>
<!-- Node11 -->
<g id="node12" class="node"><title>Node11</title>
<g id="a_node12"><a xlink:href="group__rpmsg__rtos__transport.html" target="_top" xlink:title="OpenAMP RPMsg RTOS layer transport. ">
<polygon fill="white" stroke="black" points="136.946,-74.5 136.946,-92.5 215.935,-92.5 215.935,-74.5 136.946,-74.5"/>
<text text-anchor="middle" x="176.44" y="-80.5" font-family="Helvetica,sans-Serif" font-size="10.00">RPMsg RTOS</text>
</a>
</g>
</g>
<!-- Node0&#45;&gt;Node11 -->
<g id="edge11" class="edge"><title>Node0&#45;&gt;Node11</title>
<path fill="none" stroke="black" d="M53.7017,-212.998C65.1754,-185.342 90.3126,-133.198 127.22,-102.5 132.131,-98.4146 138.028,-95.1339 143.985,-92.5257"/>
<polygon fill="black" stroke="black" points="50.4441,-211.718 49.9772,-222.303 56.9428,-214.319 50.4441,-211.718"/>
</g>
<!-- Node9 -->
<g id="node13" class="node"><title>Node9</title>
<g id="a_node13"><a xlink:href="group__rpmsg__lite__rtos__transport.html" target="_top" xlink:title="RPMsg&#45;Lite transport using RTOS API. ">
<polygon fill="white" stroke="black" points="127.22,-37.5 127.22,-55.5 225.661,-55.5 225.661,-37.5 127.22,-37.5"/>
<text text-anchor="middle" x="176.44" y="-43.5" font-family="Helvetica,sans-Serif" font-size="10.00">RPMsg&#45;Lite RTOS</text>
</a>
</g>
</g>
<!-- Node0&#45;&gt;Node9 -->
<g id="edge9" class="edge"><title>Node0&#45;&gt;Node9</title>
<path fill="none" stroke="black" d="M51.075,-212.104C59.8908,-177.943 82.6589,-106.767 127.22,-65.5 131.577,-61.4648 136.893,-58.2474 142.383,-55.6943"/>
<polygon fill="black" stroke="black" points="47.5883,-211.628 48.6089,-222.173 54.3874,-213.293 47.5883,-211.628"/>
</g>
<!-- Node10 -->
<g id="node14" class="node"><title>Node10</title>
<g id="a_node14"><a xlink:href="group__rpmsg__lite__transport.html" target="_top" xlink:title="RPMsg&#45;Lite transport. ">
<polygon fill="white" stroke="black" points="142.322,-0.5 142.322,-18.5 210.559,-18.5 210.559,-0.5 142.322,-0.5"/>
<text text-anchor="middle" x="176.44" y="-6.5" font-family="Helvetica,sans-Serif" font-size="10.00">RPMsg&#45;Lite</text>
</a>
</g>
</g>
<!-- Node0&#45;&gt;Node10 -->
<g id="edge10" class="edge"><title>Node0&#45;&gt;Node10</title>
<path fill="none" stroke="black" d="M49.0906,-212.283C55.1835,-172.649 74.4361,-81.1436 127.22,-28.5 131.425,-24.3063 136.666,-21.012 142.131,-18.4323"/>
<polygon fill="black" stroke="black" points="45.5923,-212.024 47.6513,-222.417 52.5228,-213.008 45.5923,-212.024"/>
</g>
</g>
</svg>
