<?xml version="1.0" encoding="UTF-8" standalone="no"?>
<!DOCTYPE svg PUBLIC "-//W3C//DTD SVG 1.1//EN"
 "http://www.w3.org/Graphics/SVG/1.1/DTD/svg11.dtd">
<!-- Generated by graphviz version 2.38.0 (20140413.2041)
 -->
<!-- Title: Server Pages: 1 -->
<svg width="319pt" height="656pt"
 viewBox="0.00 0.00 319.26 656.00" xmlns="http://www.w3.org/2000/svg" xmlns:xlink="http://www.w3.org/1999/xlink">
<g id="graph0" class="graph" transform="scale(1 1) rotate(0) translate(4 652)">
<title>Server</title>
<polygon fill="white" stroke="none" points="-4,4 -4,-652 315.259,-652 315.259,4 -4,4"/>
<!-- Node8 -->
<g id="node1" class="node"><title>Node8</title>
<g id="a_node1"><a xlink:href="group__dspi__slave__transport.html" target="_top" xlink:title="Kinetis SDK DSPI slave driver transport. ">
<polygon fill="white" stroke="black" points="228.472,-629.5 228.472,-647.5 295.604,-647.5 295.604,-629.5 228.472,-629.5"/>
<text text-anchor="middle" x="262.038" y="-635.5" font-family="Helvetica,sans-Serif" font-size="10.00">DSPI Slave</text>
</a>
</g>
</g>
<!-- Node6 -->
<g id="node2" class="node"><title>Node6</title>
<g id="a_node2"><a xlink:href="group__port__threads.html" target="_top" xlink:title="Threading model. ">
<polygon fill="white" stroke="black" points="235.696,-592.5 235.696,-610.5 288.38,-610.5 288.38,-592.5 235.696,-592.5"/>
<text text-anchor="middle" x="262.038" y="-598.5" font-family="Helvetica,sans-Serif" font-size="10.00">Threads</text>
</a>
</g>
</g>
<!-- Node18 -->
<g id="node3" class="node"><title>Node18</title>
<g id="a_node3"><a xlink:href="group__tcp__transport.html" target="_top" xlink:title="Simple TCP/IP transport. ">
<polygon fill="white" stroke="black" points="237.925,-555.5 237.925,-573.5 286.151,-573.5 286.151,-555.5 237.925,-555.5"/>
<text text-anchor="middle" x="262.038" y="-561.5" font-family="Helvetica,sans-Serif" font-size="10.00">TCP/IP</text>
</a>
</g>
</g>
<!-- Node14 -->
<g id="node4" class="node"><title>Node14</title>
<g id="a_node4"><a xlink:href="group__rpmsg__transport.html" target="_top" xlink:title="OpenAMP RPMsg transport. ">
<polygon fill="white" stroke="black" points="237.646,-518.5 237.646,-536.5 286.43,-536.5 286.43,-518.5 237.646,-518.5"/>
<text text-anchor="middle" x="262.038" y="-524.5" font-family="Helvetica,sans-Serif" font-size="10.00">RPMsg</text>
</a>
</g>
</g>
<!-- Node1 -->
<g id="node5" class="node"><title>Node1</title>
<g id="a_node5"><a xlink:href="group__infra.html" target="_top" xlink:title="C++ core. ">
<polygon fill="white" stroke="black" points="0,-314.5 0,-332.5 74.9111,-332.5 74.9111,-314.5 0,-314.5"/>
<text text-anchor="middle" x="37.4556" y="-320.5" font-family="Helvetica,sans-Serif" font-size="10.00">Infrastructure</text>
</a>
</g>
</g>
<!-- Node0 -->
<g id="node14" class="node"><title>Node0</title>
<polygon fill="#bfbfbf" stroke="black" points="111.911,-314.5 111.911,-332.5 157.364,-332.5 157.364,-314.5 111.911,-314.5"/>
<text text-anchor="middle" x="134.638" y="-320.5" font-family="Helvetica,sans-Serif" font-size="10.00">Server</text>
</g>
<!-- Node1&#45;&gt;Node0 -->
<g id="edge1" class="edge"><title>Node1&#45;&gt;Node0</title>
<path fill="none" stroke="black" d="M84.9986,-323.5C94.3099,-323.5 103.675,-323.5 111.667,-323.5"/>
<polygon fill="black" stroke="black" points="84.9833,-320 74.9832,-323.5 84.9832,-327 84.9833,-320"/>
</g>
<!-- Node2 -->
<g id="node6" class="node"><title>Node2</title>
<g id="a_node6"><a xlink:href="group__infra__client.html" target="_top" xlink:title="Client classes. ">
<polygon fill="white" stroke="black" points="241.255,-481.5 241.255,-499.5 282.821,-499.5 282.821,-481.5 241.255,-481.5"/>
<text text-anchor="middle" x="262.038" y="-487.5" font-family="Helvetica,sans-Serif" font-size="10.00">Client</text>
</a>
</g>
</g>
<!-- Node4 -->
<g id="node7" class="node"><title>Node4</title>
<g id="a_node7"><a xlink:href="group__infra__transport.html" target="_top" xlink:title="Superclasses for building transports. ">
<polygon fill="white" stroke="black" points="230.325,-444.5 230.325,-462.5 293.751,-462.5 293.751,-444.5 230.325,-444.5"/>
<text text-anchor="middle" x="262.038" y="-450.5" font-family="Helvetica,sans-Serif" font-size="10.00">Transports</text>
</a>
</g>
</g>
<!-- Node15 -->
<g id="node8" class="node"><title>Node15</title>
<g id="a_node8"><a xlink:href="group__serial__transport.html" target="_top" xlink:title="POSIX and Win32 serial port transport. ">
<polygon fill="white" stroke="black" points="231.25,-407.5 231.25,-425.5 292.826,-425.5 292.826,-407.5 231.25,-407.5"/>
<text text-anchor="middle" x="262.038" y="-413.5" font-family="Helvetica,sans-Serif" font-size="10.00">Serial port</text>
</a>
</g>
</g>
<!-- Node5 -->
<g id="node9" class="node"><title>Node5</title>
<g id="a_node9"><a xlink:href="group__infra__utility.html" target="_top" xlink:title="Utility code used by the infrastructure. ">
<polygon fill="white" stroke="black" points="237.925,-370.5 237.925,-388.5 286.151,-388.5 286.151,-370.5 237.925,-370.5"/>
<text text-anchor="middle" x="262.038" y="-376.5" font-family="Helvetica,sans-Serif" font-size="10.00">Utilities</text>
</a>
</g>
</g>
<!-- Node10 -->
<g id="node10" class="node"><title>Node10</title>
<g id="a_node10"><a xlink:href="group__lpuart__transport.html" target="_top" xlink:title="Kinetis SDK LPUART driver transport. ">
<polygon fill="white" stroke="black" points="234.399,-333.5 234.399,-351.5 289.677,-351.5 289.677,-333.5 234.399,-333.5"/>
<text text-anchor="middle" x="262.038" y="-339.5" font-family="Helvetica,sans-Serif" font-size="10.00">LPUART</text>
</a>
</g>
</g>
<!-- Node17 -->
<g id="node11" class="node"><title>Node17</title>
<g id="a_node11"><a xlink:href="group__spi__slave__transport.html" target="_top" xlink:title="Kinetis SDK SPI slave driver transport. ">
<polygon fill="white" stroke="black" points="232.083,-296.5 232.083,-314.5 291.994,-314.5 291.994,-296.5 232.083,-296.5"/>
<text text-anchor="middle" x="262.038" y="-302.5" font-family="Helvetica,sans-Serif" font-size="10.00">SPI Slave</text>
</a>
</g>
</g>
<!-- Node19 -->
<g id="node12" class="node"><title>Node19</title>
<g id="a_node12"><a xlink:href="group__uart__transport.html" target="_top" xlink:title="Kinetis SDK UART driver transport. ">
<polygon fill="white" stroke="black" points="240.515,-259.5 240.515,-277.5 283.561,-277.5 283.561,-259.5 240.515,-259.5"/>
<text text-anchor="middle" x="262.038" y="-265.5" font-family="Helvetica,sans-Serif" font-size="10.00">UART</text>
</a>
</g>
</g>
<!-- Node16 -->
<g id="node13" class="node"><title>Node16</title>
<g id="a_node13"><a xlink:href="group__spi__master__transport.html" target="_top" xlink:title="Kinetis SDK SPI master driver transport. ">
<polygon fill="white" stroke="black" points="229.309,-222.5 229.309,-240.5 294.767,-240.5 294.767,-222.5 229.309,-222.5"/>
<text text-anchor="middle" x="262.038" y="-228.5" font-family="Helvetica,sans-Serif" font-size="10.00">SPI Master</text>
</a>
</g>
</g>
<!-- Node0&#45;&gt;Node8 -->
<g id="edge8" class="edge"><title>Node0&#45;&gt;Node8</title>
<path fill="none" stroke="blueviolet" stroke-dasharray="5,2" d="M136.219,-332.621C138.945,-373.509 151.348,-539.912 175.364,-585.5 185.983,-605.657 193.447,-608.506 212.817,-620.5 218.439,-623.981 224.84,-626.954 231.1,-629.421"/>
<text text-anchor="middle" x="185.091" y="-610.5" font-family="Helvetica,sans-Serif" font-size="10.00">erpc</text>
</g>
<!-- Node0&#45;&gt;Node6 -->
<g id="edge6" class="edge"><title>Node0&#45;&gt;Node6</title>
<path fill="none" stroke="blueviolet" stroke-dasharray="5,2" d="M135.252,-332.747C134.316,-364.784 134.513,-473.186 175.364,-548.5 186.227,-568.527 193.447,-571.506 212.817,-583.5 219.807,-587.828 228.001,-591.37 235.63,-594.132"/>
<text text-anchor="middle" x="185.091" y="-573.5" font-family="Helvetica,sans-Serif" font-size="10.00">erpc</text>
</g>
<!-- Node0&#45;&gt;Node18 -->
<g id="edge18" class="edge"><title>Node0&#45;&gt;Node18</title>
<path fill="none" stroke="blueviolet" stroke-dasharray="5,2" d="M135.726,-332.723C136.371,-361.116 141.184,-448.998 175.364,-510.5 186.58,-530.681 193.273,-534.207 212.817,-546.5 220.382,-551.258 229.394,-555.045 237.569,-557.894"/>
<text text-anchor="middle" x="185.091" y="-536.5" font-family="Helvetica,sans-Serif" font-size="10.00">erpc</text>
</g>
<!-- Node0&#45;&gt;Node14 -->
<g id="edge14" class="edge"><title>Node0&#45;&gt;Node14</title>
<path fill="none" stroke="blueviolet" stroke-dasharray="5,2" d="M136.389,-332.519C138.738,-356.734 147.539,-424.574 175.364,-472.5 187.113,-492.736 193.096,-496.907 212.817,-509.5 220.349,-514.309 229.354,-518.108 237.533,-520.952"/>
<text text-anchor="middle" x="185.091" y="-498.5" font-family="Helvetica,sans-Serif" font-size="10.00">erpc</text>
</g>
<!-- Node0&#45;&gt;Node2 -->
<g id="edge2" class="edge"><title>Node0&#45;&gt;Node2</title>
<path fill="none" stroke="blueviolet" stroke-dasharray="5,2" d="M137.616,-332.518C142.139,-351.9 154.485,-398.523 175.364,-432.5 188.115,-453.25 192.55,-458.995 212.817,-472.5 221.295,-478.149 231.784,-482.336 240.813,-485.243"/>
<text text-anchor="middle" x="185.091" y="-460.5" font-family="Helvetica,sans-Serif" font-size="10.00">erpc</text>
</g>
<!-- Node0&#45;&gt;Node4 -->
<g id="edge4" class="edge"><title>Node0&#45;&gt;Node4</title>
<path fill="none" stroke="blueviolet" stroke-dasharray="5,2" d="M138.997,-332.596C147.558,-354.392 172.415,-409.701 212.817,-435.5 218.315,-439.011 224.599,-441.983 230.773,-444.438"/>
<text text-anchor="middle" x="185.091" y="-420.5" font-family="Helvetica,sans-Serif" font-size="10.00">erpc</text>
</g>
<!-- Node0&#45;&gt;Node15 -->
<g id="edge15" class="edge"><title>Node0&#45;&gt;Node15</title>
<path fill="none" stroke="blueviolet" stroke-dasharray="5,2" d="M142.449,-332.59C154.749,-348.367 182.249,-380.821 212.817,-398.5 218.774,-401.945 225.509,-404.946 232.017,-407.458"/>
<text text-anchor="middle" x="185.091" y="-386.5" font-family="Helvetica,sans-Serif" font-size="10.00">erpc</text>
</g>
<!-- Node0&#45;&gt;Node5 -->
<g id="edge5" class="edge"><title>Node0&#45;&gt;Node5</title>
<path fill="none" stroke="blueviolet" stroke-dasharray="5,2" d="M151.294,-332.654C158.529,-336.758 167.29,-341.552 175.364,-345.5 195.922,-355.551 220.246,-364.982 237.713,-371.35"/>
<text text-anchor="middle" x="185.091" y="-355.5" font-family="Helvetica,sans-Serif" font-size="10.00">erpc</text>
</g>
<!-- Node0&#45;&gt;Node10 -->
<g id="edge10" class="edge"><title>Node0&#45;&gt;Node10</title>
<path fill="none" stroke="blueviolet" stroke-dasharray="5,2" d="M157.481,-326.81C178.813,-330.042 211.321,-334.967 234.213,-338.436"/>
<text text-anchor="middle" x="185.091" y="-333.5" font-family="Helvetica,sans-Serif" font-size="10.00">erpc</text>
</g>
<!-- Node0&#45;&gt;Node17 -->
<g id="edge17" class="edge"><title>Node0&#45;&gt;Node17</title>
<path fill="none" stroke="blueviolet" stroke-dasharray="5,2" d="M157.645,-315.182C163.341,-313.34 169.518,-311.608 175.364,-310.5 193.955,-306.977 215.186,-305.719 231.861,-305.346"/>
<text text-anchor="middle" x="185.091" y="-312.5" font-family="Helvetica,sans-Serif" font-size="10.00">erpc</text>
</g>
<!-- Node0&#45;&gt;Node19 -->
<g id="edge19" class="edge"><title>Node0&#45;&gt;Node19</title>
<path fill="none" stroke="blueviolet" stroke-dasharray="5,2" d="M146.126,-314.319C153.788,-308.008 164.666,-299.835 175.364,-294.5 196.368,-284.025 222.401,-276.862 240.223,-272.747"/>
<text text-anchor="middle" x="185.091" y="-296.5" font-family="Helvetica,sans-Serif" font-size="10.00">erpc</text>
</g>
<!-- Node0&#45;&gt;Node16 -->
<g id="edge16" class="edge"><title>Node0&#45;&gt;Node16</title>
<path fill="none" stroke="blueviolet" stroke-dasharray="5,2" d="M141.593,-314.263C148.753,-303.617 161.542,-285.985 175.364,-273.5 192.082,-258.399 215.217,-247.489 233.232,-240.579"/>
<text text-anchor="middle" x="185.091" y="-275.5" font-family="Helvetica,sans-Serif" font-size="10.00">erpc</text>
</g>
<!-- Node9 -->
<g id="node15" class="node"><title>Node9</title>
<g id="a_node15"><a xlink:href="group__itbp__transport.html" target="_top" xlink:title="Simple inter&#45;thread communications transport. ">
<polygon fill="white" stroke="black" points="228.191,-185.5 228.191,-203.5 295.885,-203.5 295.885,-185.5 228.191,-185.5"/>
<text text-anchor="middle" x="262.038" y="-191.5" font-family="Helvetica,sans-Serif" font-size="10.00">Inter&#45;thread</text>
</a>
</g>
</g>
<!-- Node0&#45;&gt;Node9 -->
<g id="edge9" class="edge"><title>Node0&#45;&gt;Node9</title>
<path fill="none" stroke="blueviolet" stroke-dasharray="5,2" d="M139.101,-314.354C145.072,-299.282 158.321,-268.689 175.364,-246.5 189.059,-228.671 193.618,-224.197 212.817,-212.5 218.541,-209.013 225.049,-206.024 231.392,-203.541"/>
<text text-anchor="middle" x="185.091" y="-248.5" font-family="Helvetica,sans-Serif" font-size="10.00">erpc</text>
</g>
<!-- Node7 -->
<g id="node16" class="node"><title>Node7</title>
<g id="a_node16"><a xlink:href="group__dspi__master__transport.html" target="_top" xlink:title="Kinetis SDK DSPI master driver transport. ">
<polygon fill="white" stroke="black" points="225.698,-148.5 225.698,-166.5 298.378,-166.5 298.378,-148.5 225.698,-148.5"/>
<text text-anchor="middle" x="262.038" y="-154.5" font-family="Helvetica,sans-Serif" font-size="10.00">DSPI Master</text>
</a>
</g>
</g>
<!-- Node0&#45;&gt;Node7 -->
<g id="edge7" class="edge"><title>Node0&#45;&gt;Node7</title>
<path fill="none" stroke="blueviolet" stroke-dasharray="5,2" d="M137.358,-314.446C141.446,-294.54 153.105,-245.998 175.364,-211.5 187.882,-192.099 193.273,-187.793 212.817,-175.5 218.415,-171.979 224.805,-168.99 231.063,-166.519"/>
<text text-anchor="middle" x="185.091" y="-213.5" font-family="Helvetica,sans-Serif" font-size="10.00">erpc</text>
</g>
<!-- Node13 -->
<g id="node17" class="node"><title>Node13</title>
<g id="a_node17"><a xlink:href="group__rpmsg__rtos__transport.html" target="_top" xlink:title="OpenAMP RPMsg RTOS layer transport. ">
<polygon fill="white" stroke="black" points="222.544,-111.5 222.544,-129.5 301.532,-129.5 301.532,-111.5 222.544,-111.5"/>
<text text-anchor="middle" x="262.038" y="-117.5" font-family="Helvetica,sans-Serif" font-size="10.00">RPMsg RTOS</text>
</a>
</g>
</g>
<!-- Node0&#45;&gt;Node13 -->
<g id="edge13" class="edge"><title>Node0&#45;&gt;Node13</title>
<path fill="none" stroke="blueviolet" stroke-dasharray="5,2" d="M136.353,-314.46C138.613,-290.193 147.212,-222.234 175.364,-174.5 187.093,-154.613 193.273,-150.793 212.817,-138.5 218.415,-134.979 224.805,-131.99 231.063,-129.519"/>
<text text-anchor="middle" x="185.091" y="-176.5" font-family="Helvetica,sans-Serif" font-size="10.00">erpc</text>
</g>
<!-- Node3 -->
<g id="node18" class="node"><title>Node3</title>
<g id="a_node18"><a xlink:href="group__infra__codec.html" target="_top" xlink:title="Classes used for message serialization. ">
<polygon fill="white" stroke="black" points="226.802,-74.5 226.802,-92.5 297.274,-92.5 297.274,-74.5 226.802,-74.5"/>
<text text-anchor="middle" x="262.038" y="-80.5" font-family="Helvetica,sans-Serif" font-size="10.00">Serialization</text>
</a>
</g>
</g>
<!-- Node0&#45;&gt;Node3 -->
<g id="edge3" class="edge"><title>Node0&#45;&gt;Node3</title>
<path fill="none" stroke="blueviolet" stroke-dasharray="5,2" d="M135.738,-314.326C136.419,-286.084 141.325,-198.669 175.364,-137.5 186.591,-117.325 193.273,-113.793 212.817,-101.5 218.415,-97.9794 224.805,-94.9902 231.063,-92.5192"/>
<text text-anchor="middle" x="185.091" y="-139.5" font-family="Helvetica,sans-Serif" font-size="10.00">erpc</text>
</g>
<!-- Node11 -->
<g id="node19" class="node"><title>Node11</title>
<g id="a_node19"><a xlink:href="group__rpmsg__lite__rtos__transport.html" target="_top" xlink:title="RPMsg&#45;Lite transport using RTOS API. ">
<polygon fill="white" stroke="black" points="212.817,-37.5 212.817,-55.5 311.259,-55.5 311.259,-37.5 212.817,-37.5"/>
<text text-anchor="middle" x="262.038" y="-43.5" font-family="Helvetica,sans-Serif" font-size="10.00">RPMsg&#45;Lite RTOS</text>
</a>
</g>
</g>
<!-- Node0&#45;&gt;Node11 -->
<g id="edge11" class="edge"><title>Node0&#45;&gt;Node11</title>
<path fill="none" stroke="blueviolet" stroke-dasharray="5,2" d="M135.263,-314.294C134.362,-282.398 134.66,-174.474 175.364,-99.5 186.235,-79.4777 193.447,-76.4938 212.817,-64.5 218.439,-61.0189 224.84,-58.0463 231.1,-55.579"/>
<text text-anchor="middle" x="185.091" y="-101.5" font-family="Helvetica,sans-Serif" font-size="10.00">erpc</text>
</g>
<!-- Node12 -->
<g id="node20" class="node"><title>Node12</title>
<g id="a_node20"><a xlink:href="group__rpmsg__lite__transport.html" target="_top" xlink:title="RPMsg&#45;Lite transport. ">
<polygon fill="white" stroke="black" points="227.92,-0.5 227.92,-18.5 296.156,-18.5 296.156,-0.5 227.92,-0.5"/>
<text text-anchor="middle" x="262.038" y="-6.5" font-family="Helvetica,sans-Serif" font-size="10.00">RPMsg&#45;Lite</text>
</a>
</g>
</g>
<!-- Node0&#45;&gt;Node12 -->
<g id="edge12" class="edge"><title>Node0&#45;&gt;Node12</title>
<path fill="none" stroke="blueviolet" stroke-dasharray="5,2" d="M136.223,-314.414C138.964,-273.681 151.425,-107.911 175.364,-62.5 185.989,-42.3461 193.447,-39.4938 212.817,-27.5 218.439,-24.0189 224.84,-21.0463 231.1,-18.579"/>
<text text-anchor="middle" x="185.091" y="-64.5" font-family="Helvetica,sans-Serif" font-size="10.00">erpc</text>
</g>
</g>
</svg>
