<?xml version="1.0" encoding="UTF-8" standalone="no"?>
<!DOCTYPE svg PUBLIC "-//W3C//DTD SVG 1.1//EN"
 "http://www.w3.org/Graphics/SVG/1.1/DTD/svg11.dtd">
<!-- Generated by graphviz version 2.38.0 (20140413.2041)
 -->
<!-- Title: SPI Slave Pages: 1 -->
<svg width="350pt" height="656pt"
 viewBox="0.00 0.00 350.03 656.00" xmlns="http://www.w3.org/2000/svg" xmlns:xlink="http://www.w3.org/1999/xlink">
<g id="graph0" class="graph" transform="scale(1 1) rotate(0) translate(4 652)">
<title>SPI Slave</title>
<polygon fill="white" stroke="none" points="-4,4 -4,-652 346.025,-652 346.025,4 -4,4"/>
<!-- Node1 -->
<g id="node1" class="node"><title>Node1</title>
<g id="a_node1"><a xlink:href="group__transports.html" target="_top" xlink:title="Transport layer classes. ">
<polygon fill="white" stroke="black" points="0,-314.5 0,-332.5 91.2197,-332.5 91.2197,-314.5 0,-314.5"/>
<text text-anchor="middle" x="45.6099" y="-320.5" font-family="Helvetica,sans-Serif" font-size="10.00">Transport Layers</text>
</a>
</g>
</g>
<!-- Node0 -->
<g id="node11" class="node"><title>Node0</title>
<polygon fill="#bfbfbf" stroke="black" points="128.22,-314.5 128.22,-332.5 188.131,-332.5 188.131,-314.5 128.22,-314.5"/>
<text text-anchor="middle" x="158.175" y="-320.5" font-family="Helvetica,sans-Serif" font-size="10.00">SPI Slave</text>
</g>
<!-- Node1&#45;&gt;Node0 -->
<g id="edge1" class="edge"><title>Node1&#45;&gt;Node0</title>
<path fill="none" stroke="black" d="M101.502,-323.5C110.624,-323.5 119.76,-323.5 127.916,-323.5"/>
<polygon fill="black" stroke="black" points="101.262,-320 91.2624,-323.5 101.262,-327 101.262,-320"/>
</g>
<!-- Node9 -->
<g id="node2" class="node"><title>Node9</title>
<g id="a_node2"><a xlink:href="group__dspi__slave__transport.html" target="_top" xlink:title="Kinetis SDK DSPI slave driver transport. ">
<polygon fill="white" stroke="black" points="259.238,-629.5 259.238,-647.5 326.371,-647.5 326.371,-629.5 259.238,-629.5"/>
<text text-anchor="middle" x="292.805" y="-635.5" font-family="Helvetica,sans-Serif" font-size="10.00">DSPI Slave</text>
</a>
</g>
</g>
<!-- Node7 -->
<g id="node3" class="node"><title>Node7</title>
<g id="a_node3"><a xlink:href="group__port__threads.html" target="_top" xlink:title="Threading model. ">
<polygon fill="white" stroke="black" points="266.462,-592.5 266.462,-610.5 319.147,-610.5 319.147,-592.5 266.462,-592.5"/>
<text text-anchor="middle" x="292.805" y="-598.5" font-family="Helvetica,sans-Serif" font-size="10.00">Threads</text>
</a>
</g>
</g>
<!-- Node18 -->
<g id="node4" class="node"><title>Node18</title>
<g id="a_node4"><a xlink:href="group__tcp__transport.html" target="_top" xlink:title="Simple TCP/IP transport. ">
<polygon fill="white" stroke="black" points="268.691,-555.5 268.691,-573.5 316.918,-573.5 316.918,-555.5 268.691,-555.5"/>
<text text-anchor="middle" x="292.805" y="-561.5" font-family="Helvetica,sans-Serif" font-size="10.00">TCP/IP</text>
</a>
</g>
</g>
<!-- Node15 -->
<g id="node5" class="node"><title>Node15</title>
<g id="a_node5"><a xlink:href="group__rpmsg__transport.html" target="_top" xlink:title="OpenAMP RPMsg transport. ">
<polygon fill="white" stroke="black" points="268.413,-518.5 268.413,-536.5 317.196,-536.5 317.196,-518.5 268.413,-518.5"/>
<text text-anchor="middle" x="292.805" y="-524.5" font-family="Helvetica,sans-Serif" font-size="10.00">RPMsg</text>
</a>
</g>
</g>
<!-- Node2 -->
<g id="node6" class="node"><title>Node2</title>
<g id="a_node6"><a xlink:href="group__infra__client.html" target="_top" xlink:title="Client classes. ">
<polygon fill="white" stroke="black" points="272.021,-481.5 272.021,-499.5 313.588,-499.5 313.588,-481.5 272.021,-481.5"/>
<text text-anchor="middle" x="292.805" y="-487.5" font-family="Helvetica,sans-Serif" font-size="10.00">Client</text>
</a>
</g>
</g>
<!-- Node4 -->
<g id="node7" class="node"><title>Node4</title>
<g id="a_node7"><a xlink:href="group__infra__transport.html" target="_top" xlink:title="Superclasses for building transports. ">
<polygon fill="white" stroke="black" points="261.091,-444.5 261.091,-462.5 324.518,-462.5 324.518,-444.5 261.091,-444.5"/>
<text text-anchor="middle" x="292.805" y="-450.5" font-family="Helvetica,sans-Serif" font-size="10.00">Transports</text>
</a>
</g>
</g>
<!-- Node16 -->
<g id="node8" class="node"><title>Node16</title>
<g id="a_node8"><a xlink:href="group__serial__transport.html" target="_top" xlink:title="POSIX and Win32 serial port transport. ">
<polygon fill="white" stroke="black" points="262.017,-407.5 262.017,-425.5 323.593,-425.5 323.593,-407.5 262.017,-407.5"/>
<text text-anchor="middle" x="292.805" y="-413.5" font-family="Helvetica,sans-Serif" font-size="10.00">Serial port</text>
</a>
</g>
</g>
<!-- Node5 -->
<g id="node9" class="node"><title>Node5</title>
<g id="a_node9"><a xlink:href="group__infra__utility.html" target="_top" xlink:title="Utility code used by the infrastructure. ">
<polygon fill="white" stroke="black" points="268.691,-370.5 268.691,-388.5 316.918,-388.5 316.918,-370.5 268.691,-370.5"/>
<text text-anchor="middle" x="292.805" y="-376.5" font-family="Helvetica,sans-Serif" font-size="10.00">Utilities</text>
</a>
</g>
</g>
<!-- Node11 -->
<g id="node10" class="node"><title>Node11</title>
<g id="a_node10"><a xlink:href="group__lpuart__transport.html" target="_top" xlink:title="Kinetis SDK LPUART driver transport. ">
<polygon fill="white" stroke="black" points="265.166,-333.5 265.166,-351.5 320.443,-351.5 320.443,-333.5 265.166,-333.5"/>
<text text-anchor="middle" x="292.805" y="-339.5" font-family="Helvetica,sans-Serif" font-size="10.00">LPUART</text>
</a>
</g>
</g>
<!-- Node0&#45;&gt;Node9 -->
<g id="edge9" class="edge"><title>Node0&#45;&gt;Node9</title>
<path fill="none" stroke="blueviolet" stroke-dasharray="5,2" d="M158.803,-332.766C157.786,-368.065 157.764,-496.604 206.131,-585.5 217.019,-605.512 224.214,-608.506 243.584,-620.5 249.206,-623.981 255.607,-626.954 261.867,-629.421"/>
<text text-anchor="middle" x="215.857" y="-610.5" font-family="Helvetica,sans-Serif" font-size="10.00">erpc</text>
</g>
<!-- Node0&#45;&gt;Node7 -->
<g id="edge7" class="edge"><title>Node0&#45;&gt;Node7</title>
<path fill="none" stroke="blueviolet" stroke-dasharray="5,2" d="M159.161,-332.761C159.495,-364.845 163.866,-473.381 206.131,-548.5 217.302,-568.356 224.214,-571.506 243.584,-583.5 250.574,-587.828 258.767,-591.37 266.397,-594.132"/>
<text text-anchor="middle" x="215.857" y="-573.5" font-family="Helvetica,sans-Serif" font-size="10.00">erpc</text>
</g>
<!-- Node0&#45;&gt;Node18 -->
<g id="edge18" class="edge"><title>Node0&#45;&gt;Node18</title>
<path fill="none" stroke="blueviolet" stroke-dasharray="5,2" d="M159.704,-332.733C161.69,-361.156 170.527,-449.115 206.131,-510.5 217.715,-530.472 224.04,-534.207 243.584,-546.5 251.148,-551.258 260.161,-555.045 268.336,-557.894"/>
<text text-anchor="middle" x="215.857" y="-536.5" font-family="Helvetica,sans-Serif" font-size="10.00">erpc</text>
</g>
<!-- Node0&#45;&gt;Node15 -->
<g id="edge15" class="edge"><title>Node0&#45;&gt;Node15</title>
<path fill="none" stroke="blueviolet" stroke-dasharray="5,2" d="M160.41,-332.604C164.049,-357.04 176.401,-425.471 206.131,-473.5 218.283,-493.132 224.04,-497.207 243.584,-509.5 251.148,-514.258 260.161,-518.045 268.336,-520.894"/>
<text text-anchor="middle" x="215.857" y="-498.5" font-family="Helvetica,sans-Serif" font-size="10.00">erpc</text>
</g>
<!-- Node0&#45;&gt;Node2 -->
<g id="edge2" class="edge"><title>Node0&#45;&gt;Node2</title>
<path fill="none" stroke="blueviolet" stroke-dasharray="5,2" d="M161.628,-332.514C167.297,-352.341 182.64,-400.735 206.131,-435.5 219.231,-454.888 223.863,-459.907 243.584,-472.5 252.17,-477.983 262.671,-482.152 271.679,-485.09"/>
<text text-anchor="middle" x="215.857" y="-461.5" font-family="Helvetica,sans-Serif" font-size="10.00">erpc</text>
</g>
<!-- Node0&#45;&gt;Node4 -->
<g id="edge4" class="edge"><title>Node0&#45;&gt;Node4</title>
<path fill="none" stroke="blueviolet" stroke-dasharray="5,2" d="M163.127,-332.568C173.108,-354.3 201.561,-409.48 243.584,-435.5 249.206,-438.981 255.607,-441.954 261.867,-444.421"/>
<text text-anchor="middle" x="215.857" y="-423.5" font-family="Helvetica,sans-Serif" font-size="10.00">erpc</text>
</g>
<!-- Node0&#45;&gt;Node16 -->
<g id="edge16" class="edge"><title>Node0&#45;&gt;Node16</title>
<path fill="none" stroke="blueviolet" stroke-dasharray="5,2" d="M167.094,-332.713C181.035,-348.386 211.534,-380.306 243.584,-398.5 249.645,-401.941 256.49,-404.956 263.077,-407.485"/>
<text text-anchor="middle" x="215.857" y="-388.5" font-family="Helvetica,sans-Serif" font-size="10.00">erpc</text>
</g>
<!-- Node0&#45;&gt;Node5 -->
<g id="edge5" class="edge"><title>Node0&#45;&gt;Node5</title>
<path fill="none" stroke="blueviolet" stroke-dasharray="5,2" d="M176.866,-332.553C185.602,-336.923 196.343,-342.15 206.131,-346.5 222.517,-353.782 226.86,-355.031 243.584,-361.5 251.585,-364.595 260.366,-367.9 268.217,-370.822"/>
<text text-anchor="middle" x="215.857" y="-356.5" font-family="Helvetica,sans-Serif" font-size="10.00">erpc</text>
</g>
<!-- Node0&#45;&gt;Node11 -->
<g id="edge11" class="edge"><title>Node0&#45;&gt;Node11</title>
<path fill="none" stroke="blueviolet" stroke-dasharray="5,2" d="M188.281,-327.67C211.157,-330.947 242.767,-335.475 265.023,-338.663"/>
<text text-anchor="middle" x="215.857" y="-334.5" font-family="Helvetica,sans-Serif" font-size="10.00">erpc</text>
</g>
<!-- Node19 -->
<g id="node12" class="node"><title>Node19</title>
<g id="a_node12"><a xlink:href="group__uart__transport.html" target="_top" xlink:title="Kinetis SDK UART driver transport. ">
<polygon fill="white" stroke="black" points="271.282,-296.5 271.282,-314.5 314.328,-314.5 314.328,-296.5 271.282,-296.5"/>
<text text-anchor="middle" x="292.805" y="-302.5" font-family="Helvetica,sans-Serif" font-size="10.00">UART</text>
</a>
</g>
</g>
<!-- Node0&#45;&gt;Node19 -->
<g id="edge19" class="edge"><title>Node0&#45;&gt;Node19</title>
<path fill="none" stroke="blueviolet" stroke-dasharray="5,2" d="M188.016,-314.483C193.956,-312.919 200.206,-311.482 206.131,-310.5 228.179,-306.847 253.803,-305.758 271.243,-305.483"/>
<text text-anchor="middle" x="215.857" y="-312.5" font-family="Helvetica,sans-Serif" font-size="10.00">erpc</text>
</g>
<!-- Node17 -->
<g id="node13" class="node"><title>Node17</title>
<g id="a_node13"><a xlink:href="group__spi__master__transport.html" target="_top" xlink:title="Kinetis SDK SPI master driver transport. ">
<polygon fill="white" stroke="black" points="260.076,-259.5 260.076,-277.5 325.534,-277.5 325.534,-259.5 260.076,-259.5"/>
<text text-anchor="middle" x="292.805" y="-265.5" font-family="Helvetica,sans-Serif" font-size="10.00">SPI Master</text>
</a>
</g>
</g>
<!-- Node0&#45;&gt;Node17 -->
<g id="edge17" class="edge"><title>Node0&#45;&gt;Node17</title>
<path fill="none" stroke="blueviolet" stroke-dasharray="5,2" d="M171.376,-314.33C180.544,-307.788 193.623,-299.179 206.131,-293.5 223.202,-285.749 243.275,-279.74 259.699,-275.558"/>
<text text-anchor="middle" x="215.857" y="-295.5" font-family="Helvetica,sans-Serif" font-size="10.00">erpc</text>
</g>
<!-- Node6 -->
<g id="node14" class="node"><title>Node6</title>
<g id="a_node14"><a xlink:href="group__infra__server.html" target="_top" xlink:title="Server classes. ">
<polygon fill="white" stroke="black" points="270.078,-222.5 270.078,-240.5 315.531,-240.5 315.531,-222.5 270.078,-222.5"/>
<text text-anchor="middle" x="292.805" y="-228.5" font-family="Helvetica,sans-Serif" font-size="10.00">Server</text>
</a>
</g>
</g>
<!-- Node0&#45;&gt;Node6 -->
<g id="edge6" class="edge"><title>Node0&#45;&gt;Node6</title>
<path fill="none" stroke="blueviolet" stroke-dasharray="5,2" d="M166.041,-314.205C174.566,-303.098 189.97,-284.4 206.131,-271.5 221.046,-259.594 226.344,-258.683 243.584,-250.5 252.038,-246.487 261.581,-242.599 269.934,-239.396"/>
<text text-anchor="middle" x="215.857" y="-273.5" font-family="Helvetica,sans-Serif" font-size="10.00">erpc</text>
</g>
<!-- Node10 -->
<g id="node15" class="node"><title>Node10</title>
<g id="a_node15"><a xlink:href="group__itbp__transport.html" target="_top" xlink:title="Simple inter&#45;thread communications transport. ">
<polygon fill="white" stroke="black" points="258.958,-185.5 258.958,-203.5 326.652,-203.5 326.652,-185.5 258.958,-185.5"/>
<text text-anchor="middle" x="292.805" y="-191.5" font-family="Helvetica,sans-Serif" font-size="10.00">Inter&#45;thread</text>
</a>
</g>
</g>
<!-- Node0&#45;&gt;Node10 -->
<g id="edge10" class="edge"><title>Node0&#45;&gt;Node10</title>
<path fill="none" stroke="blueviolet" stroke-dasharray="5,2" d="M163.46,-314.068C170.791,-298.534 186.836,-267.047 206.131,-244.5 220.18,-228.083 224.977,-224.486 243.584,-213.5 250.092,-209.657 257.522,-206.29 264.566,-203.501"/>
<text text-anchor="middle" x="215.857" y="-246.5" font-family="Helvetica,sans-Serif" font-size="10.00">erpc</text>
</g>
<!-- Node8 -->
<g id="node16" class="node"><title>Node8</title>
<g id="a_node16"><a xlink:href="group__dspi__master__transport.html" target="_top" xlink:title="Kinetis SDK DSPI master driver transport. ">
<polygon fill="white" stroke="black" points="256.465,-148.5 256.465,-166.5 329.145,-166.5 329.145,-148.5 256.465,-148.5"/>
<text text-anchor="middle" x="292.805" y="-154.5" font-family="Helvetica,sans-Serif" font-size="10.00">DSPI Master</text>
</a>
</g>
</g>
<!-- Node0&#45;&gt;Node8 -->
<g id="edge8" class="edge"><title>Node0&#45;&gt;Node8</title>
<path fill="none" stroke="blueviolet" stroke-dasharray="5,2" d="M161.501,-314.329C166.915,-294.172 181.782,-245.06 206.131,-210.5 219.079,-192.121 224.491,-188.37 243.584,-176.5 249.85,-172.604 257.049,-169.255 263.941,-166.501"/>
<text text-anchor="middle" x="215.857" y="-212.5" font-family="Helvetica,sans-Serif" font-size="10.00">erpc</text>
</g>
<!-- Node14 -->
<g id="node17" class="node"><title>Node14</title>
<g id="a_node17"><a xlink:href="group__rpmsg__rtos__transport.html" target="_top" xlink:title="OpenAMP RPMsg RTOS layer transport. ">
<polygon fill="white" stroke="black" points="253.311,-111.5 253.311,-129.5 332.299,-129.5 332.299,-111.5 253.311,-111.5"/>
<text text-anchor="middle" x="292.805" y="-117.5" font-family="Helvetica,sans-Serif" font-size="10.00">RPMsg RTOS</text>
</a>
</g>
</g>
<!-- Node0&#45;&gt;Node14 -->
<g id="edge14" class="edge"><title>Node0&#45;&gt;Node14</title>
<path fill="none" stroke="blueviolet" stroke-dasharray="5,2" d="M160.335,-314.349C163.788,-289.795 175.719,-221.1 206.131,-173.5 218.235,-154.555 224.491,-151.37 243.584,-139.5 249.85,-135.604 257.049,-132.255 263.941,-129.501"/>
<text text-anchor="middle" x="215.857" y="-175.5" font-family="Helvetica,sans-Serif" font-size="10.00">erpc</text>
</g>
<!-- Node3 -->
<g id="node18" class="node"><title>Node3</title>
<g id="a_node18"><a xlink:href="group__infra__codec.html" target="_top" xlink:title="Classes used for message serialization. ">
<polygon fill="white" stroke="black" points="257.568,-74.5 257.568,-92.5 328.041,-92.5 328.041,-74.5 257.568,-74.5"/>
<text text-anchor="middle" x="292.805" y="-80.5" font-family="Helvetica,sans-Serif" font-size="10.00">Serialization</text>
</a>
</g>
</g>
<!-- Node0&#45;&gt;Node3 -->
<g id="edge3" class="edge"><title>Node0&#45;&gt;Node3</title>
<path fill="none" stroke="blueviolet" stroke-dasharray="5,2" d="M159.627,-314.221C161.391,-285.667 169.655,-197.371 206.131,-136.5 217.687,-117.215 224.491,-114.37 243.584,-102.5 249.85,-98.6043 257.049,-95.2549 263.941,-92.5015"/>
<text text-anchor="middle" x="215.857" y="-138.5" font-family="Helvetica,sans-Serif" font-size="10.00">erpc</text>
</g>
<!-- Node12 -->
<g id="node19" class="node"><title>Node12</title>
<g id="a_node19"><a xlink:href="group__rpmsg__lite__rtos__transport.html" target="_top" xlink:title="RPMsg&#45;Lite transport using RTOS API. ">
<polygon fill="white" stroke="black" points="243.584,-37.5 243.584,-55.5 342.025,-55.5 342.025,-37.5 243.584,-37.5"/>
<text text-anchor="middle" x="292.805" y="-43.5" font-family="Helvetica,sans-Serif" font-size="10.00">RPMsg&#45;Lite RTOS</text>
</a>
</g>
</g>
<!-- Node0&#45;&gt;Node12 -->
<g id="edge12" class="edge"><title>Node0&#45;&gt;Node12</title>
<path fill="none" stroke="blueviolet" stroke-dasharray="5,2" d="M159.132,-314.257C159.372,-282.242 163.474,-173.974 206.131,-99.5 218.649,-77.6455 244.192,-63.6078 264.146,-55.5079"/>
<text text-anchor="middle" x="215.857" y="-101.5" font-family="Helvetica,sans-Serif" font-size="10.00">erpc</text>
</g>
<!-- Node13 -->
<g id="node20" class="node"><title>Node13</title>
<g id="a_node20"><a xlink:href="group__rpmsg__lite__transport.html" target="_top" xlink:title="RPMsg&#45;Lite transport. ">
<polygon fill="white" stroke="black" points="258.687,-0.5 258.687,-18.5 326.923,-18.5 326.923,-0.5 258.687,-0.5"/>
<text text-anchor="middle" x="292.805" y="-6.5" font-family="Helvetica,sans-Serif" font-size="10.00">RPMsg&#45;Lite</text>
</a>
</g>
</g>
<!-- Node0&#45;&gt;Node13 -->
<g id="edge13" class="edge"><title>Node0&#45;&gt;Node13</title>
<path fill="none" stroke="blueviolet" stroke-dasharray="5,2" d="M158.773,-314.247C157.645,-279.002 157.275,-150.7 206.131,-62.5 218.25,-40.6215 243.562,-26.648 263.547,-18.5748"/>
<text text-anchor="middle" x="215.857" y="-64.5" font-family="Helvetica,sans-Serif" font-size="10.00">erpc</text>
</g>
</g>
</svg>
