<?xml version="1.0" encoding="UTF-8" standalone="no"?>
<!DOCTYPE svg PUBLIC "-//W3C//DTD SVG 1.1//EN"
 "http://www.w3.org/Graphics/SVG/1.1/DTD/svg11.dtd">
<!-- Generated by graphviz version 2.38.0 (20140413.2041)
 -->
<!-- Title: TCP/IP Pages: 1 -->
<svg width="338pt" height="656pt"
 viewBox="0.00 0.00 338.34 656.00" xmlns="http://www.w3.org/2000/svg" xmlns:xlink="http://www.w3.org/1999/xlink">
<g id="graph0" class="graph" transform="scale(1 1) rotate(0) translate(4 652)">
<title>TCP/IP</title>
<polygon fill="white" stroke="none" points="-4,4 -4,-652 334.341,-652 334.341,4 -4,4"/>
<!-- Node1 -->
<g id="node1" class="node"><title>Node1</title>
<g id="a_node1"><a xlink:href="group__transports.html" target="_top" xlink:title="Transport layer classes. ">
<polygon fill="white" stroke="black" points="0,-314.5 0,-332.5 91.2197,-332.5 91.2197,-314.5 0,-314.5"/>
<text text-anchor="middle" x="45.6099" y="-320.5" font-family="Helvetica,sans-Serif" font-size="10.00">Transport Layers</text>
</a>
</g>
</g>
<!-- Node0 -->
<g id="node4" class="node"><title>Node0</title>
<polygon fill="#bfbfbf" stroke="black" points="128.22,-314.5 128.22,-332.5 176.446,-332.5 176.446,-314.5 128.22,-314.5"/>
<text text-anchor="middle" x="152.333" y="-320.5" font-family="Helvetica,sans-Serif" font-size="10.00">TCP/IP</text>
</g>
<!-- Node1&#45;&gt;Node0 -->
<g id="edge1" class="edge"><title>Node1&#45;&gt;Node0</title>
<path fill="none" stroke="black" d="M101.498,-323.5C110.886,-323.5 120.166,-323.5 128.126,-323.5"/>
<polygon fill="black" stroke="black" points="101.326,-320 91.3257,-323.5 101.326,-327 101.326,-320"/>
</g>
<!-- Node9 -->
<g id="node2" class="node"><title>Node9</title>
<g id="a_node2"><a xlink:href="group__dspi__slave__transport.html" target="_top" xlink:title="Kinetis SDK DSPI slave driver transport. ">
<polygon fill="white" stroke="black" points="247.554,-629.5 247.554,-647.5 314.687,-647.5 314.687,-629.5 247.554,-629.5"/>
<text text-anchor="middle" x="281.12" y="-635.5" font-family="Helvetica,sans-Serif" font-size="10.00">DSPI Slave</text>
</a>
</g>
</g>
<!-- Node7 -->
<g id="node3" class="node"><title>Node7</title>
<g id="a_node3"><a xlink:href="group__port__threads.html" target="_top" xlink:title="Threading model. ">
<polygon fill="white" stroke="black" points="254.778,-592.5 254.778,-610.5 307.462,-610.5 307.462,-592.5 254.778,-592.5"/>
<text text-anchor="middle" x="281.12" y="-598.5" font-family="Helvetica,sans-Serif" font-size="10.00">Threads</text>
</a>
</g>
</g>
<!-- Node0&#45;&gt;Node9 -->
<g id="edge9" class="edge"><title>Node0&#45;&gt;Node9</title>
<path fill="none" stroke="blueviolet" stroke-dasharray="5,2" d="M153.967,-332.622C156.931,-373.516 170.293,-539.938 194.446,-585.5 205.117,-605.629 212.529,-608.506 231.899,-620.5 237.521,-623.981 243.922,-626.954 250.182,-629.421"/>
<text text-anchor="middle" x="204.173" y="-610.5" font-family="Helvetica,sans-Serif" font-size="10.00">erpc</text>
</g>
<!-- Node0&#45;&gt;Node7 -->
<g id="edge7" class="edge"><title>Node0&#45;&gt;Node7</title>
<path fill="none" stroke="blueviolet" stroke-dasharray="5,2" d="M153.019,-332.75C152.327,-364.797 153.326,-473.227 194.446,-548.5 205.369,-568.494 212.529,-571.506 231.899,-583.5 238.889,-587.828 247.083,-591.37 254.712,-594.132"/>
<text text-anchor="middle" x="204.173" y="-573.5" font-family="Helvetica,sans-Serif" font-size="10.00">erpc</text>
</g>
<!-- Node15 -->
<g id="node5" class="node"><title>Node15</title>
<g id="a_node5"><a xlink:href="group__rpmsg__transport.html" target="_top" xlink:title="OpenAMP RPMsg transport. ">
<polygon fill="white" stroke="black" points="256.729,-555.5 256.729,-573.5 305.512,-573.5 305.512,-555.5 256.729,-555.5"/>
<text text-anchor="middle" x="281.12" y="-561.5" font-family="Helvetica,sans-Serif" font-size="10.00">RPMsg</text>
</a>
</g>
</g>
<!-- Node0&#45;&gt;Node15 -->
<g id="edge15" class="edge"><title>Node0&#45;&gt;Node15</title>
<path fill="none" stroke="blueviolet" stroke-dasharray="5,2" d="M153.506,-332.725C154.409,-361.125 159.995,-449.025 194.446,-510.5 205.734,-530.641 212.355,-534.207 231.899,-546.5 239.464,-551.258 248.476,-555.045 256.651,-557.894"/>
<text text-anchor="middle" x="204.173" y="-536.5" font-family="Helvetica,sans-Serif" font-size="10.00">erpc</text>
</g>
<!-- Node2 -->
<g id="node6" class="node"><title>Node2</title>
<g id="a_node6"><a xlink:href="group__infra__client.html" target="_top" xlink:title="Client classes. ">
<polygon fill="white" stroke="black" points="260.337,-518.5 260.337,-536.5 301.903,-536.5 301.903,-518.5 260.337,-518.5"/>
<text text-anchor="middle" x="281.12" y="-524.5" font-family="Helvetica,sans-Serif" font-size="10.00">Client</text>
</a>
</g>
</g>
<!-- Node0&#45;&gt;Node2 -->
<g id="edge2" class="edge"><title>Node0&#45;&gt;Node2</title>
<path fill="none" stroke="blueviolet" stroke-dasharray="5,2" d="M154.187,-332.52C156.809,-356.737 166.348,-424.583 194.446,-472.5 206.282,-492.684 212.178,-496.907 231.899,-509.5 240.485,-514.983 250.987,-519.152 259.995,-522.09"/>
<text text-anchor="middle" x="204.173" y="-498.5" font-family="Helvetica,sans-Serif" font-size="10.00">erpc</text>
</g>
<!-- Node4 -->
<g id="node7" class="node"><title>Node4</title>
<g id="a_node7"><a xlink:href="group__infra__transport.html" target="_top" xlink:title="Superclasses for building transports. ">
<polygon fill="white" stroke="black" points="249.407,-481.5 249.407,-499.5 312.833,-499.5 312.833,-481.5 249.407,-481.5"/>
<text text-anchor="middle" x="281.12" y="-487.5" font-family="Helvetica,sans-Serif" font-size="10.00">Transports</text>
</a>
</g>
</g>
<!-- Node0&#45;&gt;Node4 -->
<g id="edge4" class="edge"><title>Node0&#45;&gt;Node4</title>
<path fill="none" stroke="blueviolet" stroke-dasharray="5,2" d="M155.45,-332.514C160.266,-351.889 173.29,-398.499 194.446,-432.5 207.313,-453.178 211.632,-458.995 231.899,-472.5 237.254,-476.068 243.41,-479.052 249.495,-481.5"/>
<text text-anchor="middle" x="204.173" y="-460.5" font-family="Helvetica,sans-Serif" font-size="10.00">erpc</text>
</g>
<!-- Node16 -->
<g id="node8" class="node"><title>Node16</title>
<g id="a_node8"><a xlink:href="group__serial__transport.html" target="_top" xlink:title="POSIX and Win32 serial port transport. ">
<polygon fill="white" stroke="black" points="250.332,-444.5 250.332,-462.5 311.908,-462.5 311.908,-444.5 250.332,-444.5"/>
<text text-anchor="middle" x="281.12" y="-450.5" font-family="Helvetica,sans-Serif" font-size="10.00">Serial port</text>
</a>
</g>
</g>
<!-- Node0&#45;&gt;Node16 -->
<g id="edge16" class="edge"><title>Node0&#45;&gt;Node16</title>
<path fill="none" stroke="blueviolet" stroke-dasharray="5,2" d="M156.816,-332.577C165.671,-354.33 191.262,-409.551 231.899,-435.5 237.473,-439.059 243.853,-442.064 250.108,-444.539"/>
<text text-anchor="middle" x="204.173" y="-420.5" font-family="Helvetica,sans-Serif" font-size="10.00">erpc</text>
</g>
<!-- Node5 -->
<g id="node9" class="node"><title>Node5</title>
<g id="a_node9"><a xlink:href="group__infra__utility.html" target="_top" xlink:title="Utility code used by the infrastructure. ">
<polygon fill="white" stroke="black" points="257.007,-407.5 257.007,-425.5 305.233,-425.5 305.233,-407.5 257.007,-407.5"/>
<text text-anchor="middle" x="281.12" y="-413.5" font-family="Helvetica,sans-Serif" font-size="10.00">Utilities</text>
</a>
</g>
</g>
<!-- Node0&#45;&gt;Node5 -->
<g id="edge5" class="edge"><title>Node0&#45;&gt;Node5</title>
<path fill="none" stroke="blueviolet" stroke-dasharray="5,2" d="M160.522,-332.807C173.225,-348.623 201.211,-380.752 231.899,-398.5 239.635,-402.974 248.685,-406.699 256.842,-409.578"/>
<text text-anchor="middle" x="204.173" y="-386.5" font-family="Helvetica,sans-Serif" font-size="10.00">erpc</text>
</g>
<!-- Node11 -->
<g id="node10" class="node"><title>Node11</title>
<g id="a_node10"><a xlink:href="group__lpuart__transport.html" target="_top" xlink:title="Kinetis SDK LPUART driver transport. ">
<polygon fill="white" stroke="black" points="253.481,-370.5 253.481,-388.5 308.759,-388.5 308.759,-370.5 253.481,-370.5"/>
<text text-anchor="middle" x="281.12" y="-376.5" font-family="Helvetica,sans-Serif" font-size="10.00">LPUART</text>
</a>
</g>
</g>
<!-- Node0&#45;&gt;Node11 -->
<g id="edge11" class="edge"><title>Node0&#45;&gt;Node11</title>
<path fill="none" stroke="blueviolet" stroke-dasharray="5,2" d="M169.569,-332.611C177.064,-336.707 186.126,-341.506 194.446,-345.5 214.21,-354.987 237.357,-364.057 254.606,-370.44"/>
<text text-anchor="middle" x="204.173" y="-355.5" font-family="Helvetica,sans-Serif" font-size="10.00">erpc</text>
</g>
<!-- Node18 -->
<g id="node11" class="node"><title>Node18</title>
<g id="a_node11"><a xlink:href="group__spi__slave__transport.html" target="_top" xlink:title="Kinetis SDK SPI slave driver transport. ">
<polygon fill="white" stroke="black" points="251.165,-333.5 251.165,-351.5 311.076,-351.5 311.076,-333.5 251.165,-333.5"/>
<text text-anchor="middle" x="281.12" y="-339.5" font-family="Helvetica,sans-Serif" font-size="10.00">SPI Slave</text>
</a>
</g>
</g>
<!-- Node0&#45;&gt;Node18 -->
<g id="edge18" class="edge"><title>Node0&#45;&gt;Node18</title>
<path fill="none" stroke="blueviolet" stroke-dasharray="5,2" d="M176.588,-326.985C197.463,-330.113 228.202,-334.72 250.764,-338.101"/>
<text text-anchor="middle" x="204.173" y="-333.5" font-family="Helvetica,sans-Serif" font-size="10.00">erpc</text>
</g>
<!-- Node19 -->
<g id="node12" class="node"><title>Node19</title>
<g id="a_node12"><a xlink:href="group__uart__transport.html" target="_top" xlink:title="Kinetis SDK UART driver transport. ">
<polygon fill="white" stroke="black" points="259.597,-296.5 259.597,-314.5 302.643,-314.5 302.643,-296.5 259.597,-296.5"/>
<text text-anchor="middle" x="281.12" y="-302.5" font-family="Helvetica,sans-Serif" font-size="10.00">UART</text>
</a>
</g>
</g>
<!-- Node0&#45;&gt;Node19 -->
<g id="edge19" class="edge"><title>Node0&#45;&gt;Node19</title>
<path fill="none" stroke="blueviolet" stroke-dasharray="5,2" d="M176.559,-315.054C182.333,-313.262 188.557,-311.586 194.446,-310.5 216.425,-306.449 242.061,-305.429 259.523,-305.278"/>
<text text-anchor="middle" x="204.173" y="-312.5" font-family="Helvetica,sans-Serif" font-size="10.00">erpc</text>
</g>
<!-- Node17 -->
<g id="node13" class="node"><title>Node17</title>
<g id="a_node13"><a xlink:href="group__spi__master__transport.html" target="_top" xlink:title="Kinetis SDK SPI master driver transport. ">
<polygon fill="white" stroke="black" points="248.391,-259.5 248.391,-277.5 313.849,-277.5 313.849,-259.5 248.391,-259.5"/>
<text text-anchor="middle" x="281.12" y="-265.5" font-family="Helvetica,sans-Serif" font-size="10.00">SPI Master</text>
</a>
</g>
</g>
<!-- Node0&#45;&gt;Node17 -->
<g id="edge17" class="edge"><title>Node0&#45;&gt;Node17</title>
<path fill="none" stroke="blueviolet" stroke-dasharray="5,2" d="M163.833,-314.246C171.769,-307.663 183.188,-299.038 194.446,-293.5 211.408,-285.156 231.661,-279.087 248.215,-275.02"/>
<text text-anchor="middle" x="204.173" y="-295.5" font-family="Helvetica,sans-Serif" font-size="10.00">erpc</text>
</g>
<!-- Node6 -->
<g id="node14" class="node"><title>Node6</title>
<g id="a_node14"><a xlink:href="group__infra__server.html" target="_top" xlink:title="Server classes. ">
<polygon fill="white" stroke="black" points="258.394,-222.5 258.394,-240.5 303.847,-240.5 303.847,-222.5 258.394,-222.5"/>
<text text-anchor="middle" x="281.12" y="-228.5" font-family="Helvetica,sans-Serif" font-size="10.00">Server</text>
</a>
</g>
</g>
<!-- Node0&#45;&gt;Node6 -->
<g id="edge6" class="edge"><title>Node0&#45;&gt;Node6</title>
<path fill="none" stroke="blueviolet" stroke-dasharray="5,2" d="M159.096,-314.137C166.317,-302.963 179.563,-284.199 194.446,-271.5 213.302,-255.411 239.721,-244.385 258.221,-238.047"/>
<text text-anchor="middle" x="204.173" y="-273.5" font-family="Helvetica,sans-Serif" font-size="10.00">erpc</text>
</g>
<!-- Node10 -->
<g id="node15" class="node"><title>Node10</title>
<g id="a_node15"><a xlink:href="group__itbp__transport.html" target="_top" xlink:title="Simple inter&#45;thread communications transport. ">
<polygon fill="white" stroke="black" points="247.273,-185.5 247.273,-203.5 314.967,-203.5 314.967,-185.5 247.273,-185.5"/>
<text text-anchor="middle" x="281.12" y="-191.5" font-family="Helvetica,sans-Serif" font-size="10.00">Inter&#45;thread</text>
</a>
</g>
</g>
<!-- Node0&#45;&gt;Node10 -->
<g id="edge10" class="edge"><title>Node0&#45;&gt;Node10</title>
<path fill="none" stroke="blueviolet" stroke-dasharray="5,2" d="M156.563,-314.377C162.405,-298.722 175.871,-266.233 194.446,-243.5 207.941,-226.985 213.448,-224.196 231.899,-213.5 238.439,-209.709 245.878,-206.361 252.923,-203.572"/>
<text text-anchor="middle" x="204.173" y="-245.5" font-family="Helvetica,sans-Serif" font-size="10.00">erpc</text>
</g>
<!-- Node8 -->
<g id="node16" class="node"><title>Node8</title>
<g id="a_node16"><a xlink:href="group__dspi__master__transport.html" target="_top" xlink:title="Kinetis SDK DSPI master driver transport. ">
<polygon fill="white" stroke="black" points="244.78,-148.5 244.78,-166.5 317.46,-166.5 317.46,-148.5 244.78,-148.5"/>
<text text-anchor="middle" x="281.12" y="-154.5" font-family="Helvetica,sans-Serif" font-size="10.00">DSPI Master</text>
</a>
</g>
</g>
<!-- Node0&#45;&gt;Node8 -->
<g id="edge8" class="edge"><title>Node0&#45;&gt;Node8</title>
<path fill="none" stroke="blueviolet" stroke-dasharray="5,2" d="M155.038,-314.211C159.117,-293.802 170.898,-244.119 194.446,-209.5 206.924,-191.156 212.972,-188.074 231.899,-176.5 238.194,-172.651 245.404,-169.318 252.297,-166.566"/>
<text text-anchor="middle" x="204.173" y="-211.5" font-family="Helvetica,sans-Serif" font-size="10.00">erpc</text>
</g>
<!-- Node14 -->
<g id="node17" class="node"><title>Node14</title>
<g id="a_node17"><a xlink:href="group__rpmsg__rtos__transport.html" target="_top" xlink:title="OpenAMP RPMsg RTOS layer transport. ">
<polygon fill="white" stroke="black" points="241.626,-111.5 241.626,-129.5 320.614,-129.5 320.614,-111.5 241.626,-111.5"/>
<text text-anchor="middle" x="281.12" y="-117.5" font-family="Helvetica,sans-Serif" font-size="10.00">RPMsg RTOS</text>
</a>
</g>
</g>
<!-- Node0&#45;&gt;Node14 -->
<g id="edge14" class="edge"><title>Node0&#45;&gt;Node14</title>
<path fill="none" stroke="blueviolet" stroke-dasharray="5,2" d="M154.061,-314.353C156.37,-289.808 165.202,-221.134 194.446,-173.5 206.209,-154.341 212.807,-151.37 231.899,-139.5 238.166,-135.604 245.365,-132.255 252.257,-129.501"/>
<text text-anchor="middle" x="204.173" y="-175.5" font-family="Helvetica,sans-Serif" font-size="10.00">erpc</text>
</g>
<!-- Node3 -->
<g id="node18" class="node"><title>Node3</title>
<g id="a_node18"><a xlink:href="group__infra__codec.html" target="_top" xlink:title="Classes used for message serialization. ">
<polygon fill="white" stroke="black" points="245.884,-74.5 245.884,-92.5 316.356,-92.5 316.356,-74.5 245.884,-74.5"/>
<text text-anchor="middle" x="281.12" y="-80.5" font-family="Helvetica,sans-Serif" font-size="10.00">Serialization</text>
</a>
</g>
</g>
<!-- Node0&#45;&gt;Node3 -->
<g id="edge3" class="edge"><title>Node0&#45;&gt;Node3</title>
<path fill="none" stroke="blueviolet" stroke-dasharray="5,2" d="M153.429,-314.23C154.109,-285.704 159.123,-197.478 194.446,-136.5 207.071,-114.707 232.6,-100.662 252.522,-92.5432"/>
<text text-anchor="middle" x="204.173" y="-138.5" font-family="Helvetica,sans-Serif" font-size="10.00">erpc</text>
</g>
<!-- Node12 -->
<g id="node19" class="node"><title>Node12</title>
<g id="a_node19"><a xlink:href="group__rpmsg__lite__rtos__transport.html" target="_top" xlink:title="RPMsg&#45;Lite transport using RTOS API. ">
<polygon fill="white" stroke="black" points="231.899,-37.5 231.899,-55.5 330.341,-55.5 330.341,-37.5 231.899,-37.5"/>
<text text-anchor="middle" x="281.12" y="-43.5" font-family="Helvetica,sans-Serif" font-size="10.00">RPMsg&#45;Lite RTOS</text>
</a>
</g>
</g>
<!-- Node0&#45;&gt;Node12 -->
<g id="edge12" class="edge"><title>Node0&#45;&gt;Node12</title>
<path fill="none" stroke="blueviolet" stroke-dasharray="5,2" d="M152.99,-314.269C152.204,-282.292 152.933,-174.135 194.446,-99.5 206.604,-77.6429 231.911,-63.6668 251.885,-55.5872"/>
<text text-anchor="middle" x="204.173" y="-101.5" font-family="Helvetica,sans-Serif" font-size="10.00">erpc</text>
</g>
<!-- Node13 -->
<g id="node20" class="node"><title>Node13</title>
<g id="a_node20"><a xlink:href="group__rpmsg__lite__transport.html" target="_top" xlink:title="RPMsg&#45;Lite transport. ">
<polygon fill="white" stroke="black" points="247.002,-0.5 247.002,-18.5 315.238,-18.5 315.238,-0.5 247.002,-0.5"/>
<text text-anchor="middle" x="281.12" y="-6.5" font-family="Helvetica,sans-Serif" font-size="10.00">RPMsg&#45;Lite</text>
</a>
</g>
</g>
<!-- Node0&#45;&gt;Node13 -->
<g id="edge13" class="edge"><title>Node0&#45;&gt;Node13</title>
<path fill="none" stroke="blueviolet" stroke-dasharray="5,2" d="M153.956,-314.404C156.868,-273.631 170.043,-107.71 194.446,-62.5 206.243,-40.6449 231.313,-26.7283 251.301,-18.6678"/>
<text text-anchor="middle" x="204.173" y="-64.5" font-family="Helvetica,sans-Serif" font-size="10.00">erpc</text>
</g>
</g>
</svg>
