<?xml version="1.0" encoding="UTF-8" standalone="no"?>
<!DOCTYPE svg PUBLIC "-//W3C//DTD SVG 1.1//EN"
 "http://www.w3.org/Graphics/SVG/1.1/DTD/svg11.dtd">
<!-- Generated by graphviz version 2.38.0 (20140413.2041)
 -->
<!-- Title: Client Pages: 1 -->
<svg width="315pt" height="656pt"
 viewBox="0.00 0.00 315.37 656.00" xmlns="http://www.w3.org/2000/svg" xmlns:xlink="http://www.w3.org/1999/xlink">
<g id="graph0" class="graph" transform="scale(1 1) rotate(0) translate(4 652)">
<title>Client</title>
<polygon fill="white" stroke="none" points="-4,4 -4,-652 311.372,-652 311.372,4 -4,4"/>
<!-- Node8 -->
<g id="node1" class="node"><title>Node8</title>
<g id="a_node1"><a xlink:href="group__dspi__slave__transport.html" target="_top" xlink:title="Kinetis SDK DSPI slave driver transport. ">
<polygon fill="white" stroke="black" points="224.585,-629.5 224.585,-647.5 291.718,-647.5 291.718,-629.5 224.585,-629.5"/>
<text text-anchor="middle" x="258.151" y="-635.5" font-family="Helvetica,sans-Serif" font-size="10.00">DSPI Slave</text>
</a>
</g>
</g>
<!-- Node6 -->
<g id="node2" class="node"><title>Node6</title>
<g id="a_node2"><a xlink:href="group__port__threads.html" target="_top" xlink:title="Threading model. ">
<polygon fill="white" stroke="black" points="231.809,-592.5 231.809,-610.5 284.494,-610.5 284.494,-592.5 231.809,-592.5"/>
<text text-anchor="middle" x="258.151" y="-598.5" font-family="Helvetica,sans-Serif" font-size="10.00">Threads</text>
</a>
</g>
</g>
<!-- Node18 -->
<g id="node3" class="node"><title>Node18</title>
<g id="a_node3"><a xlink:href="group__tcp__transport.html" target="_top" xlink:title="Simple TCP/IP transport. ">
<polygon fill="white" stroke="black" points="234.038,-555.5 234.038,-573.5 282.265,-573.5 282.265,-555.5 234.038,-555.5"/>
<text text-anchor="middle" x="258.151" y="-561.5" font-family="Helvetica,sans-Serif" font-size="10.00">TCP/IP</text>
</a>
</g>
</g>
<!-- Node14 -->
<g id="node4" class="node"><title>Node14</title>
<g id="a_node4"><a xlink:href="group__rpmsg__transport.html" target="_top" xlink:title="OpenAMP RPMsg transport. ">
<polygon fill="white" stroke="black" points="233.76,-518.5 233.76,-536.5 282.543,-536.5 282.543,-518.5 233.76,-518.5"/>
<text text-anchor="middle" x="258.151" y="-524.5" font-family="Helvetica,sans-Serif" font-size="10.00">RPMsg</text>
</a>
</g>
</g>
<!-- Node1 -->
<g id="node5" class="node"><title>Node1</title>
<g id="a_node5"><a xlink:href="group__infra.html" target="_top" xlink:title="C++ core. ">
<polygon fill="white" stroke="black" points="0,-314.5 0,-332.5 74.9111,-332.5 74.9111,-314.5 0,-314.5"/>
<text text-anchor="middle" x="37.4556" y="-320.5" font-family="Helvetica,sans-Serif" font-size="10.00">Infrastructure</text>
</a>
</g>
</g>
<!-- Node0 -->
<g id="node6" class="node"><title>Node0</title>
<polygon fill="#bfbfbf" stroke="black" points="111.911,-314.5 111.911,-332.5 153.478,-332.5 153.478,-314.5 111.911,-314.5"/>
<text text-anchor="middle" x="132.694" y="-320.5" font-family="Helvetica,sans-Serif" font-size="10.00">Client</text>
</g>
<!-- Node1&#45;&gt;Node0 -->
<g id="edge1" class="edge"><title>Node1&#45;&gt;Node0</title>
<path fill="none" stroke="black" d="M85.1826,-323.5C94.596,-323.5 104.004,-323.5 111.87,-323.5"/>
<polygon fill="black" stroke="black" points="85.0384,-320 75.0384,-323.5 85.0384,-327 85.0384,-320"/>
</g>
<!-- Node0&#45;&gt;Node8 -->
<g id="edge8" class="edge"><title>Node0&#45;&gt;Node8</title>
<path fill="none" stroke="blueviolet" stroke-dasharray="5,2" d="M134.201,-332.619C136.594,-373.5 147.653,-539.874 171.478,-585.5 182.023,-605.695 189.56,-608.506 208.931,-620.5 214.553,-623.981 220.954,-626.954 227.214,-629.421"/>
<text text-anchor="middle" x="181.204" y="-610.5" font-family="Helvetica,sans-Serif" font-size="10.00">erpc</text>
</g>
<!-- Node0&#45;&gt;Node6 -->
<g id="edge6" class="edge"><title>Node0&#45;&gt;Node6</title>
<path fill="none" stroke="blueviolet" stroke-dasharray="5,2" d="M133.209,-332.742C131.93,-364.764 131.001,-473.124 171.478,-548.5 182.256,-568.572 189.56,-571.506 208.931,-583.5 215.92,-587.828 224.114,-591.37 231.743,-594.132"/>
<text text-anchor="middle" x="181.204" y="-573.5" font-family="Helvetica,sans-Serif" font-size="10.00">erpc</text>
</g>
<!-- Node0&#45;&gt;Node18 -->
<g id="edge18" class="edge"><title>Node0&#45;&gt;Node18</title>
<path fill="none" stroke="blueviolet" stroke-dasharray="5,2" d="M133.663,-332.719C133.946,-361.101 137.674,-448.955 171.478,-510.5 182.593,-530.737 189.386,-534.207 208.931,-546.5 216.495,-551.258 225.507,-555.045 233.683,-557.894"/>
<text text-anchor="middle" x="181.204" y="-536.5" font-family="Helvetica,sans-Serif" font-size="10.00">erpc</text>
</g>
<!-- Node0&#45;&gt;Node14 -->
<g id="edge14" class="edge"><title>Node0&#45;&gt;Node14</title>
<path fill="none" stroke="blueviolet" stroke-dasharray="5,2" d="M134.301,-332.517C136.268,-356.727 144.033,-424.558 171.478,-472.5 183.102,-492.807 189.21,-496.907 208.931,-509.5 216.462,-514.309 225.467,-518.108 233.646,-520.952"/>
<text text-anchor="middle" x="181.204" y="-498.5" font-family="Helvetica,sans-Serif" font-size="10.00">erpc</text>
</g>
<!-- Node3 -->
<g id="node7" class="node"><title>Node3</title>
<g id="a_node7"><a xlink:href="group__infra__transport.html" target="_top" xlink:title="Superclasses for building transports. ">
<polygon fill="white" stroke="black" points="226.438,-481.5 226.438,-499.5 289.865,-499.5 289.865,-481.5 226.438,-481.5"/>
<text text-anchor="middle" x="258.151" y="-487.5" font-family="Helvetica,sans-Serif" font-size="10.00">Transports</text>
</a>
</g>
</g>
<!-- Node0&#45;&gt;Node3 -->
<g id="edge3" class="edge"><title>Node0&#45;&gt;Node3</title>
<path fill="none" stroke="blueviolet" stroke-dasharray="5,2" d="M135.426,-332.625C139.437,-352.234 150.648,-399.374 171.478,-433.5 183.998,-454.013 188.848,-459.301 208.931,-472.5 214.307,-476.034 220.474,-479.003 226.561,-481.447"/>
<text text-anchor="middle" x="181.204" y="-460.5" font-family="Helvetica,sans-Serif" font-size="10.00">erpc</text>
</g>
<!-- Node15 -->
<g id="node8" class="node"><title>Node15</title>
<g id="a_node8"><a xlink:href="group__serial__transport.html" target="_top" xlink:title="POSIX and Win32 serial port transport. ">
<polygon fill="white" stroke="black" points="227.363,-444.5 227.363,-462.5 288.939,-462.5 288.939,-444.5 227.363,-444.5"/>
<text text-anchor="middle" x="258.151" y="-450.5" font-family="Helvetica,sans-Serif" font-size="10.00">Serial port</text>
</a>
</g>
</g>
<!-- Node0&#45;&gt;Node15 -->
<g id="edge15" class="edge"><title>Node0&#45;&gt;Node15</title>
<path fill="none" stroke="blueviolet" stroke-dasharray="5,2" d="M136.88,-332.623C145.028,-354.478 168.853,-409.908 208.931,-435.5 214.504,-439.059 220.884,-442.064 227.139,-444.539"/>
<text text-anchor="middle" x="181.204" y="-421.5" font-family="Helvetica,sans-Serif" font-size="10.00">erpc</text>
</g>
<!-- Node4 -->
<g id="node9" class="node"><title>Node4</title>
<g id="a_node9"><a xlink:href="group__infra__utility.html" target="_top" xlink:title="Utility code used by the infrastructure. ">
<polygon fill="white" stroke="black" points="234.038,-407.5 234.038,-425.5 282.265,-425.5 282.265,-407.5 234.038,-407.5"/>
<text text-anchor="middle" x="258.151" y="-413.5" font-family="Helvetica,sans-Serif" font-size="10.00">Utilities</text>
</a>
</g>
</g>
<!-- Node0&#45;&gt;Node4 -->
<g id="edge4" class="edge"><title>Node0&#45;&gt;Node4</title>
<path fill="none" stroke="blueviolet" stroke-dasharray="5,2" d="M140.257,-332.637C152.128,-348.486 178.756,-381.049 208.931,-398.5 216.666,-402.974 225.716,-406.699 233.873,-409.578"/>
<text text-anchor="middle" x="181.204" y="-386.5" font-family="Helvetica,sans-Serif" font-size="10.00">erpc</text>
</g>
<!-- Node10 -->
<g id="node10" class="node"><title>Node10</title>
<g id="a_node10"><a xlink:href="group__lpuart__transport.html" target="_top" xlink:title="Kinetis SDK LPUART driver transport. ">
<polygon fill="white" stroke="black" points="230.513,-370.5 230.513,-388.5 285.79,-388.5 285.79,-370.5 230.513,-370.5"/>
<text text-anchor="middle" x="258.151" y="-376.5" font-family="Helvetica,sans-Serif" font-size="10.00">LPUART</text>
</a>
</g>
</g>
<!-- Node0&#45;&gt;Node10 -->
<g id="edge10" class="edge"><title>Node0&#45;&gt;Node10</title>
<path fill="none" stroke="blueviolet" stroke-dasharray="5,2" d="M148.536,-332.712C155.407,-336.828 163.745,-341.616 171.478,-345.5 190.782,-355.197 213.552,-364.122 230.763,-370.392"/>
<text text-anchor="middle" x="181.204" y="-355.5" font-family="Helvetica,sans-Serif" font-size="10.00">erpc</text>
</g>
<!-- Node17 -->
<g id="node11" class="node"><title>Node17</title>
<g id="a_node11"><a xlink:href="group__spi__slave__transport.html" target="_top" xlink:title="Kinetis SDK SPI slave driver transport. ">
<polygon fill="white" stroke="black" points="228.196,-333.5 228.196,-351.5 288.107,-351.5 288.107,-333.5 228.196,-333.5"/>
<text text-anchor="middle" x="258.151" y="-339.5" font-family="Helvetica,sans-Serif" font-size="10.00">SPI Slave</text>
</a>
</g>
</g>
<!-- Node0&#45;&gt;Node17 -->
<g id="edge17" class="edge"><title>Node0&#45;&gt;Node17</title>
<path fill="none" stroke="blueviolet" stroke-dasharray="5,2" d="M153.53,-326.553C173.706,-329.658 205.186,-334.503 228.157,-338.038"/>
<text text-anchor="middle" x="181.204" y="-333.5" font-family="Helvetica,sans-Serif" font-size="10.00">erpc</text>
</g>
<!-- Node19 -->
<g id="node12" class="node"><title>Node19</title>
<g id="a_node12"><a xlink:href="group__uart__transport.html" target="_top" xlink:title="Kinetis SDK UART driver transport. ">
<polygon fill="white" stroke="black" points="236.628,-296.5 236.628,-314.5 279.674,-314.5 279.674,-296.5 236.628,-296.5"/>
<text text-anchor="middle" x="258.151" y="-302.5" font-family="Helvetica,sans-Serif" font-size="10.00">UART</text>
</a>
</g>
</g>
<!-- Node0&#45;&gt;Node19 -->
<g id="edge19" class="edge"><title>Node0&#45;&gt;Node19</title>
<path fill="none" stroke="blueviolet" stroke-dasharray="5,2" d="M153.807,-315.444C159.44,-313.501 165.625,-311.655 171.478,-310.5 193.404,-306.173 219.049,-305.2 236.527,-305.136"/>
<text text-anchor="middle" x="181.204" y="-312.5" font-family="Helvetica,sans-Serif" font-size="10.00">erpc</text>
</g>
<!-- Node16 -->
<g id="node13" class="node"><title>Node16</title>
<g id="a_node13"><a xlink:href="group__spi__master__transport.html" target="_top" xlink:title="Kinetis SDK SPI master driver transport. ">
<polygon fill="white" stroke="black" points="225.422,-259.5 225.422,-277.5 290.88,-277.5 290.88,-259.5 225.422,-259.5"/>
<text text-anchor="middle" x="258.151" y="-265.5" font-family="Helvetica,sans-Serif" font-size="10.00">SPI Master</text>
</a>
</g>
</g>
<!-- Node0&#45;&gt;Node16 -->
<g id="edge16" class="edge"><title>Node0&#45;&gt;Node16</title>
<path fill="none" stroke="blueviolet" stroke-dasharray="5,2" d="M143.595,-314.292C150.846,-307.968 161.181,-299.791 171.478,-294.5 188.345,-285.833 208.593,-279.522 225.169,-275.29"/>
<text text-anchor="middle" x="181.204" y="-296.5" font-family="Helvetica,sans-Serif" font-size="10.00">erpc</text>
</g>
<!-- Node5 -->
<g id="node14" class="node"><title>Node5</title>
<g id="a_node14"><a xlink:href="group__infra__server.html" target="_top" xlink:title="Server classes. ">
<polygon fill="white" stroke="black" points="235.425,-222.5 235.425,-240.5 280.878,-240.5 280.878,-222.5 235.425,-222.5"/>
<text text-anchor="middle" x="258.151" y="-228.5" font-family="Helvetica,sans-Serif" font-size="10.00">Server</text>
</a>
</g>
</g>
<!-- Node0&#45;&gt;Node5 -->
<g id="edge5" class="edge"><title>Node0&#45;&gt;Node5</title>
<path fill="none" stroke="blueviolet" stroke-dasharray="5,2" d="M139.263,-314.239C145.983,-303.57 158.063,-285.916 171.478,-273.5 189.956,-256.396 216.695,-244.797 235.37,-238.195"/>
<text text-anchor="middle" x="181.204" y="-275.5" font-family="Helvetica,sans-Serif" font-size="10.00">erpc</text>
</g>
<!-- Node9 -->
<g id="node15" class="node"><title>Node9</title>
<g id="a_node15"><a xlink:href="group__itbp__transport.html" target="_top" xlink:title="Simple inter&#45;thread communications transport. ">
<polygon fill="white" stroke="black" points="224.304,-185.5 224.304,-203.5 291.999,-203.5 291.999,-185.5 224.304,-185.5"/>
<text text-anchor="middle" x="258.151" y="-191.5" font-family="Helvetica,sans-Serif" font-size="10.00">Inter&#45;thread</text>
</a>
</g>
</g>
<!-- Node0&#45;&gt;Node9 -->
<g id="edge9" class="edge"><title>Node0&#45;&gt;Node9</title>
<path fill="none" stroke="blueviolet" stroke-dasharray="5,2" d="M136.826,-314.192C142.272,-298.862 154.545,-267.783 171.478,-245.5 184.9,-227.836 189.899,-223.902 208.931,-212.5 214.756,-209.01 221.373,-206.005 227.798,-203.506"/>
<text text-anchor="middle" x="181.204" y="-247.5" font-family="Helvetica,sans-Serif" font-size="10.00">erpc</text>
</g>
<!-- Node7 -->
<g id="node16" class="node"><title>Node7</title>
<g id="a_node16"><a xlink:href="group__dspi__master__transport.html" target="_top" xlink:title="Kinetis SDK DSPI master driver transport. ">
<polygon fill="white" stroke="black" points="221.812,-148.5 221.812,-166.5 294.491,-166.5 294.491,-148.5 221.812,-148.5"/>
<text text-anchor="middle" x="258.151" y="-154.5" font-family="Helvetica,sans-Serif" font-size="10.00">DSPI Master</text>
</a>
</g>
</g>
<!-- Node0&#45;&gt;Node7 -->
<g id="edge7" class="edge"><title>Node0&#45;&gt;Node7</title>
<path fill="none" stroke="blueviolet" stroke-dasharray="5,2" d="M135.171,-314.34C138.74,-294.205 149.231,-245.135 171.478,-210.5 183.79,-191.331 189.56,-187.494 208.931,-175.5 214.553,-172.019 220.954,-169.046 227.214,-166.579"/>
<text text-anchor="middle" x="181.204" y="-212.5" font-family="Helvetica,sans-Serif" font-size="10.00">erpc</text>
</g>
<!-- Node13 -->
<g id="node17" class="node"><title>Node13</title>
<g id="a_node17"><a xlink:href="group__rpmsg__rtos__transport.html" target="_top" xlink:title="OpenAMP RPMsg RTOS layer transport. ">
<polygon fill="white" stroke="black" points="218.657,-111.5 218.657,-129.5 297.646,-129.5 297.646,-111.5 218.657,-111.5"/>
<text text-anchor="middle" x="258.151" y="-117.5" font-family="Helvetica,sans-Serif" font-size="10.00">RPMsg RTOS</text>
</a>
</g>
</g>
<!-- Node0&#45;&gt;Node13 -->
<g id="edge13" class="edge"><title>Node0&#45;&gt;Node13</title>
<path fill="none" stroke="blueviolet" stroke-dasharray="5,2" d="M134.213,-314.38C135.961,-289.902 143.231,-221.379 171.478,-173.5 183.054,-153.877 189.56,-150.494 208.931,-138.5 214.553,-135.019 220.954,-132.046 227.214,-129.579"/>
<text text-anchor="middle" x="181.204" y="-175.5" font-family="Helvetica,sans-Serif" font-size="10.00">erpc</text>
</g>
<!-- Node2 -->
<g id="node18" class="node"><title>Node2</title>
<g id="a_node18"><a xlink:href="group__infra__codec.html" target="_top" xlink:title="Classes used for message serialization. ">
<polygon fill="white" stroke="black" points="222.915,-74.5 222.915,-92.5 293.388,-92.5 293.388,-74.5 222.915,-74.5"/>
<text text-anchor="middle" x="258.151" y="-80.5" font-family="Helvetica,sans-Serif" font-size="10.00">Serialization</text>
</a>
</g>
</g>
<!-- Node0&#45;&gt;Node2 -->
<g id="edge2" class="edge"><title>Node0&#45;&gt;Node2</title>
<path fill="none" stroke="blueviolet" stroke-dasharray="5,2" d="M133.625,-314.26C133.798,-285.817 137.242,-197.806 171.478,-136.5 182.586,-116.609 189.56,-113.494 208.931,-101.5 214.553,-98.0189 220.954,-95.0463 227.214,-92.579"/>
<text text-anchor="middle" x="181.204" y="-138.5" font-family="Helvetica,sans-Serif" font-size="10.00">erpc</text>
</g>
<!-- Node11 -->
<g id="node19" class="node"><title>Node11</title>
<g id="a_node19"><a xlink:href="group__rpmsg__lite__rtos__transport.html" target="_top" xlink:title="RPMsg&#45;Lite transport using RTOS API. ">
<polygon fill="white" stroke="black" points="208.931,-37.5 208.931,-55.5 307.372,-55.5 307.372,-37.5 208.931,-37.5"/>
<text text-anchor="middle" x="258.151" y="-43.5" font-family="Helvetica,sans-Serif" font-size="10.00">RPMsg&#45;Lite RTOS</text>
</a>
</g>
</g>
<!-- Node0&#45;&gt;Node11 -->
<g id="edge11" class="edge"><title>Node0&#45;&gt;Node11</title>
<path fill="none" stroke="blueviolet" stroke-dasharray="5,2" d="M133.22,-314.298C131.976,-282.417 131.148,-174.535 171.478,-99.5 182.263,-79.432 189.56,-76.4938 208.931,-64.5 214.553,-61.0189 220.954,-58.0463 227.214,-55.579"/>
<text text-anchor="middle" x="181.204" y="-101.5" font-family="Helvetica,sans-Serif" font-size="10.00">erpc</text>
</g>
<!-- Node12 -->
<g id="node20" class="node"><title>Node12</title>
<g id="a_node20"><a xlink:href="group__rpmsg__lite__transport.html" target="_top" xlink:title="RPMsg&#45;Lite transport. ">
<polygon fill="white" stroke="black" points="224.033,-0.5 224.033,-18.5 292.27,-18.5 292.27,-0.5 224.033,-0.5"/>
<text text-anchor="middle" x="258.151" y="-6.5" font-family="Helvetica,sans-Serif" font-size="10.00">RPMsg&#45;Lite</text>
</a>
</g>
</g>
<!-- Node0&#45;&gt;Node12 -->
<g id="edge12" class="edge"><title>Node0&#45;&gt;Node12</title>
<path fill="none" stroke="blueviolet" stroke-dasharray="5,2" d="M134.205,-314.416C136.613,-273.69 147.73,-107.949 171.478,-62.5 182.029,-42.3076 189.56,-39.4938 208.931,-27.5 214.553,-24.0189 220.954,-21.0463 227.214,-18.579"/>
<text text-anchor="middle" x="181.204" y="-64.5" font-family="Helvetica,sans-Serif" font-size="10.00">erpc</text>
</g>
</g>
</svg>
