<?xml version="1.0" encoding="UTF-8" standalone="no"?>
<!DOCTYPE svg PUBLIC "-//W3C//DTD SVG 1.1//EN"
 "http://www.w3.org/Graphics/SVG/1.1/DTD/svg11.dtd">
<!-- Generated by graphviz version 2.38.0 (20140413.2041)
 -->
<!-- Title: Utilities Pages: 1 -->
<svg width="322pt" height="656pt"
 viewBox="0.00 0.00 322.03 656.00" xmlns="http://www.w3.org/2000/svg" xmlns:xlink="http://www.w3.org/1999/xlink">
<g id="graph0" class="graph" transform="scale(1 1) rotate(0) translate(4 652)">
<title>Utilities</title>
<polygon fill="white" stroke="none" points="-4,4 -4,-652 318.032,-652 318.032,4 -4,4"/>
<!-- Node8 -->
<g id="node1" class="node"><title>Node8</title>
<g id="a_node1"><a xlink:href="group__dspi__slave__transport.html" target="_top" xlink:title="Kinetis SDK DSPI slave driver transport. ">
<polygon fill="white" stroke="black" points="231.245,-629.5 231.245,-647.5 298.378,-647.5 298.378,-629.5 231.245,-629.5"/>
<text text-anchor="middle" x="264.812" y="-635.5" font-family="Helvetica,sans-Serif" font-size="10.00">DSPI Slave</text>
</a>
</g>
</g>
<!-- Node6 -->
<g id="node2" class="node"><title>Node6</title>
<g id="a_node2"><a xlink:href="group__port__threads.html" target="_top" xlink:title="Threading model. ">
<polygon fill="white" stroke="black" points="238.469,-592.5 238.469,-610.5 291.154,-610.5 291.154,-592.5 238.469,-592.5"/>
<text text-anchor="middle" x="264.812" y="-598.5" font-family="Helvetica,sans-Serif" font-size="10.00">Threads</text>
</a>
</g>
</g>
<!-- Node18 -->
<g id="node3" class="node"><title>Node18</title>
<g id="a_node3"><a xlink:href="group__tcp__transport.html" target="_top" xlink:title="Simple TCP/IP transport. ">
<polygon fill="white" stroke="black" points="240.698,-555.5 240.698,-573.5 288.925,-573.5 288.925,-555.5 240.698,-555.5"/>
<text text-anchor="middle" x="264.812" y="-561.5" font-family="Helvetica,sans-Serif" font-size="10.00">TCP/IP</text>
</a>
</g>
</g>
<!-- Node14 -->
<g id="node4" class="node"><title>Node14</title>
<g id="a_node4"><a xlink:href="group__rpmsg__transport.html" target="_top" xlink:title="OpenAMP RPMsg transport. ">
<polygon fill="white" stroke="black" points="240.42,-518.5 240.42,-536.5 289.203,-536.5 289.203,-518.5 240.42,-518.5"/>
<text text-anchor="middle" x="264.812" y="-524.5" font-family="Helvetica,sans-Serif" font-size="10.00">RPMsg</text>
</a>
</g>
</g>
<!-- Node1 -->
<g id="node5" class="node"><title>Node1</title>
<g id="a_node5"><a xlink:href="group__infra.html" target="_top" xlink:title="C++ core. ">
<polygon fill="white" stroke="black" points="0,-314.5 0,-332.5 74.9111,-332.5 74.9111,-314.5 0,-314.5"/>
<text text-anchor="middle" x="37.4556" y="-320.5" font-family="Helvetica,sans-Serif" font-size="10.00">Infrastructure</text>
</a>
</g>
</g>
<!-- Node0 -->
<g id="node9" class="node"><title>Node0</title>
<polygon fill="#bfbfbf" stroke="black" points="111.911,-314.5 111.911,-332.5 160.138,-332.5 160.138,-314.5 111.911,-314.5"/>
<text text-anchor="middle" x="136.024" y="-320.5" font-family="Helvetica,sans-Serif" font-size="10.00">Utilities</text>
</g>
<!-- Node1&#45;&gt;Node0 -->
<g id="edge1" class="edge"><title>Node1&#45;&gt;Node0</title>
<path fill="none" stroke="black" d="M85.0054,-323.5C94.3517,-323.5 103.785,-323.5 111.901,-323.5"/>
<polygon fill="black" stroke="black" points="84.9641,-320 74.9641,-323.5 84.9641,-327 84.9641,-320"/>
</g>
<!-- Node2 -->
<g id="node6" class="node"><title>Node2</title>
<g id="a_node6"><a xlink:href="group__infra__client.html" target="_top" xlink:title="Client classes. ">
<polygon fill="white" stroke="black" points="244.028,-481.5 244.028,-499.5 285.595,-499.5 285.595,-481.5 244.028,-481.5"/>
<text text-anchor="middle" x="264.812" y="-487.5" font-family="Helvetica,sans-Serif" font-size="10.00">Client</text>
</a>
</g>
</g>
<!-- Node4 -->
<g id="node7" class="node"><title>Node4</title>
<g id="a_node7"><a xlink:href="group__infra__transport.html" target="_top" xlink:title="Superclasses for building transports. ">
<polygon fill="white" stroke="black" points="233.098,-444.5 233.098,-462.5 296.525,-462.5 296.525,-444.5 233.098,-444.5"/>
<text text-anchor="middle" x="264.812" y="-450.5" font-family="Helvetica,sans-Serif" font-size="10.00">Transports</text>
</a>
</g>
</g>
<!-- Node15 -->
<g id="node8" class="node"><title>Node15</title>
<g id="a_node8"><a xlink:href="group__serial__transport.html" target="_top" xlink:title="POSIX and Win32 serial port transport. ">
<polygon fill="white" stroke="black" points="234.023,-407.5 234.023,-425.5 295.6,-425.5 295.6,-407.5 234.023,-407.5"/>
<text text-anchor="middle" x="264.812" y="-413.5" font-family="Helvetica,sans-Serif" font-size="10.00">Serial port</text>
</a>
</g>
</g>
<!-- Node0&#45;&gt;Node8 -->
<g id="edge8" class="edge"><title>Node0&#45;&gt;Node8</title>
<path fill="none" stroke="blueviolet" stroke-dasharray="5,2" d="M137.659,-332.622C140.622,-373.516 153.985,-539.938 178.138,-585.5 188.809,-605.629 196.221,-608.506 215.591,-620.5 221.213,-623.981 227.614,-626.954 233.874,-629.421"/>
<text text-anchor="middle" x="187.864" y="-610.5" font-family="Helvetica,sans-Serif" font-size="10.00">erpc</text>
</g>
<!-- Node0&#45;&gt;Node6 -->
<g id="edge6" class="edge"><title>Node0&#45;&gt;Node6</title>
<path fill="none" stroke="blueviolet" stroke-dasharray="5,2" d="M136.71,-332.75C136.018,-364.797 137.017,-473.227 178.138,-548.5 189.06,-568.494 196.221,-571.506 215.591,-583.5 222.58,-587.828 230.774,-591.37 238.403,-594.132"/>
<text text-anchor="middle" x="187.864" y="-573.5" font-family="Helvetica,sans-Serif" font-size="10.00">erpc</text>
</g>
<!-- Node0&#45;&gt;Node18 -->
<g id="edge18" class="edge"><title>Node0&#45;&gt;Node18</title>
<path fill="none" stroke="blueviolet" stroke-dasharray="5,2" d="M137.197,-332.725C138.1,-361.125 143.687,-449.025 178.138,-510.5 189.425,-530.641 196.047,-534.207 215.591,-546.5 223.155,-551.258 232.167,-555.045 240.343,-557.894"/>
<text text-anchor="middle" x="187.864" y="-536.5" font-family="Helvetica,sans-Serif" font-size="10.00">erpc</text>
</g>
<!-- Node0&#45;&gt;Node14 -->
<g id="edge14" class="edge"><title>Node0&#45;&gt;Node14</title>
<path fill="none" stroke="blueviolet" stroke-dasharray="5,2" d="M137.878,-332.52C140.5,-356.737 150.039,-424.583 178.138,-472.5 189.974,-492.684 195.87,-496.907 215.591,-509.5 223.122,-514.309 232.128,-518.108 240.306,-520.952"/>
<text text-anchor="middle" x="187.864" y="-498.5" font-family="Helvetica,sans-Serif" font-size="10.00">erpc</text>
</g>
<!-- Node0&#45;&gt;Node2 -->
<g id="edge2" class="edge"><title>Node0&#45;&gt;Node2</title>
<path fill="none" stroke="blueviolet" stroke-dasharray="5,2" d="M139.141,-332.514C143.957,-351.889 156.981,-398.499 178.138,-432.5 191.004,-453.178 195.324,-458.995 215.591,-472.5 224.068,-478.149 234.558,-482.336 243.586,-485.243"/>
<text text-anchor="middle" x="187.864" y="-460.5" font-family="Helvetica,sans-Serif" font-size="10.00">erpc</text>
</g>
<!-- Node0&#45;&gt;Node4 -->
<g id="edge4" class="edge"><title>Node0&#45;&gt;Node4</title>
<path fill="none" stroke="blueviolet" stroke-dasharray="5,2" d="M140.507,-332.577C149.362,-354.33 174.954,-409.551 215.591,-435.5 221.089,-439.011 227.372,-441.983 233.546,-444.438"/>
<text text-anchor="middle" x="187.864" y="-420.5" font-family="Helvetica,sans-Serif" font-size="10.00">erpc</text>
</g>
<!-- Node0&#45;&gt;Node15 -->
<g id="edge15" class="edge"><title>Node0&#45;&gt;Node15</title>
<path fill="none" stroke="blueviolet" stroke-dasharray="5,2" d="M144.214,-332.807C156.916,-348.623 184.902,-380.752 215.591,-398.5 221.547,-401.945 228.283,-404.946 234.79,-407.458"/>
<text text-anchor="middle" x="187.864" y="-386.5" font-family="Helvetica,sans-Serif" font-size="10.00">erpc</text>
</g>
<!-- Node10 -->
<g id="node10" class="node"><title>Node10</title>
<g id="a_node10"><a xlink:href="group__lpuart__transport.html" target="_top" xlink:title="Kinetis SDK LPUART driver transport. ">
<polygon fill="white" stroke="black" points="237.173,-370.5 237.173,-388.5 292.45,-388.5 292.45,-370.5 237.173,-370.5"/>
<text text-anchor="middle" x="264.812" y="-376.5" font-family="Helvetica,sans-Serif" font-size="10.00">LPUART</text>
</a>
</g>
</g>
<!-- Node0&#45;&gt;Node10 -->
<g id="edge10" class="edge"><title>Node0&#45;&gt;Node10</title>
<path fill="none" stroke="blueviolet" stroke-dasharray="5,2" d="M153.261,-332.611C160.755,-336.707 169.818,-341.506 178.138,-345.5 197.902,-354.987 221.049,-364.057 238.297,-370.44"/>
<text text-anchor="middle" x="187.864" y="-355.5" font-family="Helvetica,sans-Serif" font-size="10.00">erpc</text>
</g>
<!-- Node17 -->
<g id="node11" class="node"><title>Node17</title>
<g id="a_node11"><a xlink:href="group__spi__slave__transport.html" target="_top" xlink:title="Kinetis SDK SPI slave driver transport. ">
<polygon fill="white" stroke="black" points="234.856,-333.5 234.856,-351.5 294.767,-351.5 294.767,-333.5 234.856,-333.5"/>
<text text-anchor="middle" x="264.812" y="-339.5" font-family="Helvetica,sans-Serif" font-size="10.00">SPI Slave</text>
</a>
</g>
</g>
<!-- Node0&#45;&gt;Node17 -->
<g id="edge17" class="edge"><title>Node0&#45;&gt;Node17</title>
<path fill="none" stroke="blueviolet" stroke-dasharray="5,2" d="M160.279,-326.985C181.154,-330.113 211.893,-334.72 234.455,-338.101"/>
<text text-anchor="middle" x="187.864" y="-333.5" font-family="Helvetica,sans-Serif" font-size="10.00">erpc</text>
</g>
<!-- Node19 -->
<g id="node12" class="node"><title>Node19</title>
<g id="a_node12"><a xlink:href="group__uart__transport.html" target="_top" xlink:title="Kinetis SDK UART driver transport. ">
<polygon fill="white" stroke="black" points="243.289,-296.5 243.289,-314.5 286.334,-314.5 286.334,-296.5 243.289,-296.5"/>
<text text-anchor="middle" x="264.812" y="-302.5" font-family="Helvetica,sans-Serif" font-size="10.00">UART</text>
</a>
</g>
</g>
<!-- Node0&#45;&gt;Node19 -->
<g id="edge19" class="edge"><title>Node0&#45;&gt;Node19</title>
<path fill="none" stroke="blueviolet" stroke-dasharray="5,2" d="M160.251,-315.054C166.024,-313.262 172.248,-311.586 178.138,-310.5 200.116,-306.449 225.753,-305.429 243.214,-305.278"/>
<text text-anchor="middle" x="187.864" y="-312.5" font-family="Helvetica,sans-Serif" font-size="10.00">erpc</text>
</g>
<!-- Node16 -->
<g id="node13" class="node"><title>Node16</title>
<g id="a_node13"><a xlink:href="group__spi__master__transport.html" target="_top" xlink:title="Kinetis SDK SPI master driver transport. ">
<polygon fill="white" stroke="black" points="232.083,-259.5 232.083,-277.5 297.541,-277.5 297.541,-259.5 232.083,-259.5"/>
<text text-anchor="middle" x="264.812" y="-265.5" font-family="Helvetica,sans-Serif" font-size="10.00">SPI Master</text>
</a>
</g>
</g>
<!-- Node0&#45;&gt;Node16 -->
<g id="edge16" class="edge"><title>Node0&#45;&gt;Node16</title>
<path fill="none" stroke="blueviolet" stroke-dasharray="5,2" d="M147.931,-314.34C155.885,-308.038 167.15,-299.868 178.138,-294.5 195.176,-286.175 215.432,-279.88 231.97,-275.571"/>
<text text-anchor="middle" x="187.864" y="-296.5" font-family="Helvetica,sans-Serif" font-size="10.00">erpc</text>
</g>
<!-- Node5 -->
<g id="node14" class="node"><title>Node5</title>
<g id="a_node14"><a xlink:href="group__infra__server.html" target="_top" xlink:title="Server classes. ">
<polygon fill="white" stroke="black" points="242.085,-222.5 242.085,-240.5 287.538,-240.5 287.538,-222.5 242.085,-222.5"/>
<text text-anchor="middle" x="264.812" y="-228.5" font-family="Helvetica,sans-Serif" font-size="10.00">Server</text>
</a>
</g>
</g>
<!-- Node0&#45;&gt;Node5 -->
<g id="edge5" class="edge"><title>Node0&#45;&gt;Node5</title>
<path fill="none" stroke="blueviolet" stroke-dasharray="5,2" d="M143.255,-314.282C150.727,-303.653 164.021,-286.038 178.138,-273.5 192.919,-260.371 197.907,-258.34 215.591,-249.5 223.903,-245.345 233.42,-241.595 241.791,-238.607"/>
<text text-anchor="middle" x="187.864" y="-275.5" font-family="Helvetica,sans-Serif" font-size="10.00">erpc</text>
</g>
<!-- Node9 -->
<g id="node15" class="node"><title>Node9</title>
<g id="a_node15"><a xlink:href="group__itbp__transport.html" target="_top" xlink:title="Simple inter&#45;thread communications transport. ">
<polygon fill="white" stroke="black" points="230.964,-185.5 230.964,-203.5 298.659,-203.5 298.659,-185.5 230.964,-185.5"/>
<text text-anchor="middle" x="264.812" y="-191.5" font-family="Helvetica,sans-Serif" font-size="10.00">Inter&#45;thread</text>
</a>
</g>
</g>
<!-- Node0&#45;&gt;Node9 -->
<g id="edge9" class="edge"><title>Node0&#45;&gt;Node9</title>
<path fill="none" stroke="blueviolet" stroke-dasharray="5,2" d="M140.615,-314.212C146.804,-298.911 160.528,-267.874 178.138,-245.5 191.859,-228.067 196.56,-223.902 215.591,-212.5 221.417,-209.01 228.033,-206.005 234.458,-203.506"/>
<text text-anchor="middle" x="187.864" y="-247.5" font-family="Helvetica,sans-Serif" font-size="10.00">erpc</text>
</g>
<!-- Node7 -->
<g id="node16" class="node"><title>Node7</title>
<g id="a_node16"><a xlink:href="group__dspi__master__transport.html" target="_top" xlink:title="Kinetis SDK DSPI master driver transport. ">
<polygon fill="white" stroke="black" points="228.472,-148.5 228.472,-166.5 301.151,-166.5 301.151,-148.5 228.472,-148.5"/>
<text text-anchor="middle" x="264.812" y="-154.5" font-family="Helvetica,sans-Serif" font-size="10.00">DSPI Master</text>
</a>
</g>
</g>
<!-- Node0&#45;&gt;Node7 -->
<g id="edge7" class="edge"><title>Node0&#45;&gt;Node7</title>
<path fill="none" stroke="blueviolet" stroke-dasharray="5,2" d="M138.88,-314.448C143.258,-294.546 155.601,-246.012 178.138,-211.5 190.762,-192.168 196.047,-187.793 215.591,-175.5 221.188,-171.979 227.579,-168.99 233.836,-166.519"/>
<text text-anchor="middle" x="187.864" y="-213.5" font-family="Helvetica,sans-Serif" font-size="10.00">erpc</text>
</g>
<!-- Node13 -->
<g id="node17" class="node"><title>Node13</title>
<g id="a_node17"><a xlink:href="group__rpmsg__rtos__transport.html" target="_top" xlink:title="OpenAMP RPMsg RTOS layer transport. ">
<polygon fill="white" stroke="black" points="225.317,-111.5 225.317,-129.5 304.306,-129.5 304.306,-111.5 225.317,-111.5"/>
<text text-anchor="middle" x="264.812" y="-117.5" font-family="Helvetica,sans-Serif" font-size="10.00">RPMsg RTOS</text>
</a>
</g>
</g>
<!-- Node0&#45;&gt;Node13 -->
<g id="edge13" class="edge"><title>Node0&#45;&gt;Node13</title>
<path fill="none" stroke="blueviolet" stroke-dasharray="5,2" d="M137.842,-314.459C140.375,-290.189 149.712,-222.224 178.138,-174.5 189.953,-154.664 196.047,-150.793 215.591,-138.5 221.188,-134.979 227.579,-131.99 233.836,-129.519"/>
<text text-anchor="middle" x="187.864" y="-176.5" font-family="Helvetica,sans-Serif" font-size="10.00">erpc</text>
</g>
<!-- Node3 -->
<g id="node18" class="node"><title>Node3</title>
<g id="a_node18"><a xlink:href="group__infra__codec.html" target="_top" xlink:title="Classes used for message serialization. ">
<polygon fill="white" stroke="black" points="229.575,-74.5 229.575,-92.5 300.048,-92.5 300.048,-74.5 229.575,-74.5"/>
<text text-anchor="middle" x="264.812" y="-80.5" font-family="Helvetica,sans-Serif" font-size="10.00">Serialization</text>
</a>
</g>
</g>
<!-- Node0&#45;&gt;Node3 -->
<g id="edge3" class="edge"><title>Node0&#45;&gt;Node3</title>
<path fill="none" stroke="blueviolet" stroke-dasharray="5,2" d="M137.21,-314.323C138.149,-286.075 143.828,-198.642 178.138,-137.5 189.436,-117.365 196.047,-113.793 215.591,-101.5 221.188,-97.9794 227.579,-94.9902 233.836,-92.5192"/>
<text text-anchor="middle" x="187.864" y="-139.5" font-family="Helvetica,sans-Serif" font-size="10.00">erpc</text>
</g>
<!-- Node11 -->
<g id="node19" class="node"><title>Node11</title>
<g id="a_node19"><a xlink:href="group__rpmsg__lite__rtos__transport.html" target="_top" xlink:title="RPMsg&#45;Lite transport using RTOS API. ">
<polygon fill="white" stroke="black" points="215.591,-37.5 215.591,-55.5 314.032,-55.5 314.032,-37.5 215.591,-37.5"/>
<text text-anchor="middle" x="264.812" y="-43.5" font-family="Helvetica,sans-Serif" font-size="10.00">RPMsg&#45;Lite RTOS</text>
</a>
</g>
</g>
<!-- Node0&#45;&gt;Node11 -->
<g id="edge11" class="edge"><title>Node0&#45;&gt;Node11</title>
<path fill="none" stroke="blueviolet" stroke-dasharray="5,2" d="M136.721,-314.291C136.064,-282.385 137.165,-174.433 178.138,-99.5 189.068,-79.5103 196.221,-76.4938 215.591,-64.5 221.213,-61.0189 227.614,-58.0463 233.874,-55.579"/>
<text text-anchor="middle" x="187.864" y="-101.5" font-family="Helvetica,sans-Serif" font-size="10.00">erpc</text>
</g>
<!-- Node12 -->
<g id="node20" class="node"><title>Node12</title>
<g id="a_node20"><a xlink:href="group__rpmsg__lite__transport.html" target="_top" xlink:title="RPMsg&#45;Lite transport. ">
<polygon fill="white" stroke="black" points="230.693,-0.5 230.693,-18.5 298.93,-18.5 298.93,-0.5 230.693,-0.5"/>
<text text-anchor="middle" x="264.812" y="-6.5" font-family="Helvetica,sans-Serif" font-size="10.00">RPMsg&#45;Lite</text>
</a>
</g>
</g>
<!-- Node0&#45;&gt;Node12 -->
<g id="edge12" class="edge"><title>Node0&#45;&gt;Node12</title>
<path fill="none" stroke="blueviolet" stroke-dasharray="5,2" d="M137.662,-314.413C140.641,-273.674 154.061,-107.885 178.138,-62.5 188.814,-42.3738 196.221,-39.4938 215.591,-27.5 221.213,-24.0189 227.614,-21.0463 233.874,-18.579"/>
<text text-anchor="middle" x="187.864" y="-64.5" font-family="Helvetica,sans-Serif" font-size="10.00">erpc</text>
</g>
</g>
</svg>
