<?xml version="1.0" encoding="UTF-8" standalone="no"?>
<!DOCTYPE svg PUBLIC "-//W3C//DTD SVG 1.1//EN"
 "http://www.w3.org/Graphics/SVG/1.1/DTD/svg11.dtd">
<!-- Generated by graphviz version 2.38.0 (20140413.2041)
 -->
<!-- Title: DSPI Slave Pages: 1 -->
<svg width="357pt" height="656pt"
 viewBox="0.00 0.00 357.25 656.00" xmlns="http://www.w3.org/2000/svg" xmlns:xlink="http://www.w3.org/1999/xlink">
<g id="graph0" class="graph" transform="scale(1 1) rotate(0) translate(4 652)">
<title>DSPI Slave</title>
<polygon fill="white" stroke="none" points="-4,4 -4,-652 353.247,-652 353.247,4 -4,4"/>
<!-- Node1 -->
<g id="node1" class="node"><title>Node1</title>
<g id="a_node1"><a xlink:href="group__transports.html" target="_top" xlink:title="Transport layer classes. ">
<polygon fill="white" stroke="black" points="0,-314.5 0,-332.5 91.2197,-332.5 91.2197,-314.5 0,-314.5"/>
<text text-anchor="middle" x="45.6099" y="-320.5" font-family="Helvetica,sans-Serif" font-size="10.00">Transport Layers</text>
</a>
</g>
</g>
<!-- Node0 -->
<g id="node2" class="node"><title>Node0</title>
<polygon fill="#bfbfbf" stroke="black" points="128.22,-314.5 128.22,-332.5 195.353,-332.5 195.353,-314.5 128.22,-314.5"/>
<text text-anchor="middle" x="161.786" y="-320.5" font-family="Helvetica,sans-Serif" font-size="10.00">DSPI Slave</text>
</g>
<!-- Node1&#45;&gt;Node0 -->
<g id="edge1" class="edge"><title>Node1&#45;&gt;Node0</title>
<path fill="none" stroke="black" d="M101.581,-323.5C110.662,-323.5 119.815,-323.5 128.118,-323.5"/>
<polygon fill="black" stroke="black" points="101.408,-320 91.4076,-323.5 101.408,-327 101.408,-320"/>
</g>
<!-- Node7 -->
<g id="node3" class="node"><title>Node7</title>
<g id="a_node3"><a xlink:href="group__port__threads.html" target="_top" xlink:title="Threading model. ">
<polygon fill="white" stroke="black" points="273.684,-629.5 273.684,-647.5 326.369,-647.5 326.369,-629.5 273.684,-629.5"/>
<text text-anchor="middle" x="300.026" y="-635.5" font-family="Helvetica,sans-Serif" font-size="10.00">Threads</text>
</a>
</g>
</g>
<!-- Node0&#45;&gt;Node7 -->
<g id="edge7" class="edge"><title>Node0&#45;&gt;Node7</title>
<path fill="none" stroke="blueviolet" stroke-dasharray="5,2" d="M162.574,-332.773C162.16,-368.095 164.273,-496.709 213.353,-585.5 224.374,-605.44 231.435,-608.506 250.806,-620.5 257.795,-624.828 265.989,-628.37 273.618,-631.132"/>
<text text-anchor="middle" x="223.079" y="-610.5" font-family="Helvetica,sans-Serif" font-size="10.00">erpc</text>
</g>
<!-- Node18 -->
<g id="node4" class="node"><title>Node18</title>
<g id="a_node4"><a xlink:href="group__tcp__transport.html" target="_top" xlink:title="Simple TCP/IP transport. ">
<polygon fill="white" stroke="black" points="275.913,-592.5 275.913,-610.5 324.14,-610.5 324.14,-592.5 275.913,-592.5"/>
<text text-anchor="middle" x="300.026" y="-598.5" font-family="Helvetica,sans-Serif" font-size="10.00">TCP/IP</text>
</a>
</g>
</g>
<!-- Node0&#45;&gt;Node18 -->
<g id="edge18" class="edge"><title>Node0&#45;&gt;Node18</title>
<path fill="none" stroke="blueviolet" stroke-dasharray="5,2" d="M163.005,-332.704C164.132,-364.593 171.043,-472.497 213.353,-547.5 224.696,-567.61 231.261,-571.207 250.806,-583.5 258.37,-588.258 267.382,-592.045 275.558,-594.894"/>
<text text-anchor="middle" x="223.079" y="-573.5" font-family="Helvetica,sans-Serif" font-size="10.00">erpc</text>
</g>
<!-- Node14 -->
<g id="node5" class="node"><title>Node14</title>
<g id="a_node5"><a xlink:href="group__rpmsg__transport.html" target="_top" xlink:title="OpenAMP RPMsg transport. ">
<polygon fill="white" stroke="black" points="275.635,-555.5 275.635,-573.5 324.418,-573.5 324.418,-555.5 275.635,-555.5"/>
<text text-anchor="middle" x="300.026" y="-561.5" font-family="Helvetica,sans-Serif" font-size="10.00">RPMsg</text>
</a>
</g>
</g>
<!-- Node0&#45;&gt;Node14 -->
<g id="edge14" class="edge"><title>Node0&#45;&gt;Node14</title>
<path fill="none" stroke="blueviolet" stroke-dasharray="5,2" d="M163.534,-332.737C166.187,-361.168 177.024,-449.151 213.353,-510.5 225.117,-530.367 231.261,-534.207 250.806,-546.5 258.37,-551.258 267.382,-555.045 275.558,-557.894"/>
<text text-anchor="middle" x="223.079" y="-535.5" font-family="Helvetica,sans-Serif" font-size="10.00">erpc</text>
</g>
<!-- Node2 -->
<g id="node6" class="node"><title>Node2</title>
<g id="a_node6"><a xlink:href="group__infra__client.html" target="_top" xlink:title="Client classes. ">
<polygon fill="white" stroke="black" points="279.243,-518.5 279.243,-536.5 320.81,-536.5 320.81,-518.5 279.243,-518.5"/>
<text text-anchor="middle" x="300.026" y="-524.5" font-family="Helvetica,sans-Serif" font-size="10.00">Client</text>
</a>
</g>
</g>
<!-- Node0&#45;&gt;Node2 -->
<g id="edge2" class="edge"><title>Node0&#45;&gt;Node2</title>
<path fill="none" stroke="blueviolet" stroke-dasharray="5,2" d="M164.286,-332.602C168.628,-357.036 182.887,-425.459 213.353,-473.5 225.718,-492.998 231.261,-497.207 250.806,-509.5 259.429,-514.924 269.934,-519.086 278.936,-522.035"/>
<text text-anchor="middle" x="223.079" y="-498.5" font-family="Helvetica,sans-Serif" font-size="10.00">erpc</text>
</g>
<!-- Node4 -->
<g id="node7" class="node"><title>Node4</title>
<g id="a_node7"><a xlink:href="group__infra__transport.html" target="_top" xlink:title="Superclasses for building transports. ">
<polygon fill="white" stroke="black" points="268.313,-481.5 268.313,-499.5 331.74,-499.5 331.74,-481.5 268.313,-481.5"/>
<text text-anchor="middle" x="300.026" y="-487.5" font-family="Helvetica,sans-Serif" font-size="10.00">Transports</text>
</a>
</g>
</g>
<!-- Node0&#45;&gt;Node4 -->
<g id="edge4" class="edge"><title>Node0&#45;&gt;Node4</title>
<path fill="none" stroke="blueviolet" stroke-dasharray="5,2" d="M165.585,-332.501C172.001,-352.302 189.108,-400.648 213.353,-435.5 226.714,-454.708 231.085,-459.907 250.806,-472.5 256.304,-476.011 262.587,-478.983 268.761,-481.438"/>
<text text-anchor="middle" x="223.079" y="-461.5" font-family="Helvetica,sans-Serif" font-size="10.00">erpc</text>
</g>
<!-- Node15 -->
<g id="node8" class="node"><title>Node15</title>
<g id="a_node8"><a xlink:href="group__serial__transport.html" target="_top" xlink:title="POSIX and Win32 serial port transport. ">
<polygon fill="white" stroke="black" points="269.238,-444.5 269.238,-462.5 330.814,-462.5 330.814,-444.5 269.238,-444.5"/>
<text text-anchor="middle" x="300.026" y="-450.5" font-family="Helvetica,sans-Serif" font-size="10.00">Serial port</text>
</a>
</g>
</g>
<!-- Node0&#45;&gt;Node15 -->
<g id="edge15" class="edge"><title>Node0&#45;&gt;Node15</title>
<path fill="none" stroke="blueviolet" stroke-dasharray="5,2" d="M167.054,-332.516C177.786,-354.131 208.122,-409.071 250.806,-435.5 256.428,-438.981 262.829,-441.954 269.089,-444.421"/>
<text text-anchor="middle" x="223.079" y="-423.5" font-family="Helvetica,sans-Serif" font-size="10.00">erpc</text>
</g>
<!-- Node5 -->
<g id="node9" class="node"><title>Node5</title>
<g id="a_node9"><a xlink:href="group__infra__utility.html" target="_top" xlink:title="Utility code used by the infrastructure. ">
<polygon fill="white" stroke="black" points="275.913,-407.5 275.913,-425.5 324.14,-425.5 324.14,-407.5 275.913,-407.5"/>
<text text-anchor="middle" x="300.026" y="-413.5" font-family="Helvetica,sans-Serif" font-size="10.00">Utilities</text>
</a>
</g>
</g>
<!-- Node0&#45;&gt;Node5 -->
<g id="edge5" class="edge"><title>Node0&#45;&gt;Node5</title>
<path fill="none" stroke="blueviolet" stroke-dasharray="5,2" d="M171.17,-332.62C185.899,-348.153 217.982,-379.867 250.806,-398.5 258.577,-402.911 267.635,-406.623 275.788,-409.508"/>
<text text-anchor="middle" x="223.079" y="-388.5" font-family="Helvetica,sans-Serif" font-size="10.00">erpc</text>
</g>
<!-- Node10 -->
<g id="node10" class="node"><title>Node10</title>
<g id="a_node10"><a xlink:href="group__lpuart__transport.html" target="_top" xlink:title="Kinetis SDK LPUART driver transport. ">
<polygon fill="white" stroke="black" points="272.388,-370.5 272.388,-388.5 327.665,-388.5 327.665,-370.5 272.388,-370.5"/>
<text text-anchor="middle" x="300.026" y="-376.5" font-family="Helvetica,sans-Serif" font-size="10.00">LPUART</text>
</a>
</g>
</g>
<!-- Node0&#45;&gt;Node10 -->
<g id="edge10" class="edge"><title>Node0&#45;&gt;Node10</title>
<path fill="none" stroke="blueviolet" stroke-dasharray="5,2" d="M182.385,-332.668C191.718,-336.969 203.065,-342.103 213.353,-346.5 229.841,-353.547 234.082,-355.031 250.806,-361.5 258.473,-364.466 266.857,-367.625 274.453,-370.455"/>
<text text-anchor="middle" x="223.079" y="-356.5" font-family="Helvetica,sans-Serif" font-size="10.00">erpc</text>
</g>
<!-- Node17 -->
<g id="node11" class="node"><title>Node17</title>
<g id="a_node11"><a xlink:href="group__spi__slave__transport.html" target="_top" xlink:title="Kinetis SDK SPI slave driver transport. ">
<polygon fill="white" stroke="black" points="270.071,-333.5 270.071,-351.5 329.982,-351.5 329.982,-333.5 270.071,-333.5"/>
<text text-anchor="middle" x="300.026" y="-339.5" font-family="Helvetica,sans-Serif" font-size="10.00">SPI Slave</text>
</a>
</g>
</g>
<!-- Node0&#45;&gt;Node17 -->
<g id="edge17" class="edge"><title>Node0&#45;&gt;Node17</title>
<path fill="none" stroke="blueviolet" stroke-dasharray="5,2" d="M195.419,-328.051C218.091,-331.213 248.039,-335.389 269.904,-338.439"/>
<text text-anchor="middle" x="223.079" y="-334.5" font-family="Helvetica,sans-Serif" font-size="10.00">erpc</text>
</g>
<!-- Node19 -->
<g id="node12" class="node"><title>Node19</title>
<g id="a_node12"><a xlink:href="group__uart__transport.html" target="_top" xlink:title="Kinetis SDK UART driver transport. ">
<polygon fill="white" stroke="black" points="278.503,-296.5 278.503,-314.5 321.549,-314.5 321.549,-296.5 278.503,-296.5"/>
<text text-anchor="middle" x="300.026" y="-302.5" font-family="Helvetica,sans-Serif" font-size="10.00">UART</text>
</a>
</g>
</g>
<!-- Node0&#45;&gt;Node19 -->
<g id="edge19" class="edge"><title>Node0&#45;&gt;Node19</title>
<path fill="none" stroke="blueviolet" stroke-dasharray="5,2" d="M194.15,-314.435C200.462,-312.895 207.084,-311.479 213.353,-310.5 235.434,-307.051 261.052,-305.927 278.482,-305.588"/>
<text text-anchor="middle" x="223.079" y="-312.5" font-family="Helvetica,sans-Serif" font-size="10.00">erpc</text>
</g>
<!-- Node16 -->
<g id="node13" class="node"><title>Node16</title>
<g id="a_node13"><a xlink:href="group__spi__master__transport.html" target="_top" xlink:title="Kinetis SDK SPI master driver transport. ">
<polygon fill="white" stroke="black" points="267.297,-259.5 267.297,-277.5 332.755,-277.5 332.755,-259.5 267.297,-259.5"/>
<text text-anchor="middle" x="300.026" y="-265.5" font-family="Helvetica,sans-Serif" font-size="10.00">SPI Master</text>
</a>
</g>
</g>
<!-- Node0&#45;&gt;Node16 -->
<g id="edge16" class="edge"><title>Node0&#45;&gt;Node16</title>
<path fill="none" stroke="blueviolet" stroke-dasharray="5,2" d="M176.028,-314.386C185.953,-307.873 200.057,-299.274 213.353,-293.5 230.549,-286.032 250.629,-280.039 267.026,-275.794"/>
<text text-anchor="middle" x="223.079" y="-295.5" font-family="Helvetica,sans-Serif" font-size="10.00">erpc</text>
</g>
<!-- Node6 -->
<g id="node14" class="node"><title>Node6</title>
<g id="a_node14"><a xlink:href="group__infra__server.html" target="_top" xlink:title="Server classes. ">
<polygon fill="white" stroke="black" points="277.3,-222.5 277.3,-240.5 322.753,-240.5 322.753,-222.5 277.3,-222.5"/>
<text text-anchor="middle" x="300.026" y="-228.5" font-family="Helvetica,sans-Serif" font-size="10.00">Server</text>
</a>
</g>
</g>
<!-- Node0&#45;&gt;Node6 -->
<g id="edge6" class="edge"><title>Node0&#45;&gt;Node6</title>
<path fill="none" stroke="blueviolet" stroke-dasharray="5,2" d="M170.325,-314.254C179.649,-303.195 196.378,-284.544 213.353,-271.5 228.485,-259.872 233.565,-258.683 250.806,-250.5 259.26,-246.487 268.803,-242.599 277.155,-239.396"/>
<text text-anchor="middle" x="223.079" y="-273.5" font-family="Helvetica,sans-Serif" font-size="10.00">erpc</text>
</g>
<!-- Node9 -->
<g id="node15" class="node"><title>Node9</title>
<g id="a_node15"><a xlink:href="group__itbp__transport.html" target="_top" xlink:title="Simple inter&#45;thread communications transport. ">
<polygon fill="white" stroke="black" points="266.179,-185.5 266.179,-203.5 333.874,-203.5 333.874,-185.5 266.179,-185.5"/>
<text text-anchor="middle" x="300.026" y="-191.5" font-family="Helvetica,sans-Serif" font-size="10.00">Inter&#45;thread</text>
</a>
</g>
</g>
<!-- Node0&#45;&gt;Node9 -->
<g id="edge9" class="edge"><title>Node0&#45;&gt;Node9</title>
<path fill="none" stroke="blueviolet" stroke-dasharray="5,2" d="M167.559,-314.098C175.682,-298.609 193.281,-267.184 213.353,-244.5 227.672,-228.317 232.199,-224.486 250.806,-213.5 257.314,-209.657 264.743,-206.29 271.788,-203.501"/>
<text text-anchor="middle" x="223.079" y="-246.5" font-family="Helvetica,sans-Serif" font-size="10.00">erpc</text>
</g>
<!-- Node8 -->
<g id="node16" class="node"><title>Node8</title>
<g id="a_node16"><a xlink:href="group__dspi__master__transport.html" target="_top" xlink:title="Kinetis SDK DSPI master driver transport. ">
<polygon fill="white" stroke="black" points="263.687,-148.5 263.687,-166.5 336.366,-166.5 336.366,-148.5 263.687,-148.5"/>
<text text-anchor="middle" x="300.026" y="-154.5" font-family="Helvetica,sans-Serif" font-size="10.00">DSPI Master</text>
</a>
</g>
</g>
<!-- Node0&#45;&gt;Node8 -->
<g id="edge8" class="edge"><title>Node0&#45;&gt;Node8</title>
<path fill="none" stroke="blueviolet" stroke-dasharray="5,2" d="M165.457,-314.339C171.619,-294.203 188.25,-245.13 213.353,-210.5 226.547,-192.297 231.713,-188.37 250.806,-176.5 257.072,-172.604 264.271,-169.255 271.163,-166.501"/>
<text text-anchor="middle" x="223.079" y="-212.5" font-family="Helvetica,sans-Serif" font-size="10.00">erpc</text>
</g>
<!-- Node13 -->
<g id="node17" class="node"><title>Node13</title>
<g id="a_node17"><a xlink:href="group__rpmsg__rtos__transport.html" target="_top" xlink:title="OpenAMP RPMsg RTOS layer transport. ">
<polygon fill="white" stroke="black" points="260.532,-111.5 260.532,-129.5 339.521,-129.5 339.521,-111.5 260.532,-111.5"/>
<text text-anchor="middle" x="300.026" y="-117.5" font-family="Helvetica,sans-Serif" font-size="10.00">RPMsg RTOS</text>
</a>
</g>
</g>
<!-- Node0&#45;&gt;Node13 -->
<g id="edge13" class="edge"><title>Node0&#45;&gt;Node13</title>
<path fill="none" stroke="blueviolet" stroke-dasharray="5,2" d="M164.211,-314.349C168.367,-289.796 182.205,-221.102 213.353,-173.5 225.662,-154.688 231.713,-151.37 250.806,-139.5 257.072,-135.604 264.271,-132.255 271.163,-129.501"/>
<text text-anchor="middle" x="223.079" y="-175.5" font-family="Helvetica,sans-Serif" font-size="10.00">erpc</text>
</g>
<!-- Node3 -->
<g id="node18" class="node"><title>Node3</title>
<g id="a_node18"><a xlink:href="group__infra__codec.html" target="_top" xlink:title="Classes used for message serialization. ">
<polygon fill="white" stroke="black" points="264.79,-74.5 264.79,-92.5 335.263,-92.5 335.263,-74.5 264.79,-74.5"/>
<text text-anchor="middle" x="300.026" y="-80.5" font-family="Helvetica,sans-Serif" font-size="10.00">Serialization</text>
</a>
</g>
</g>
<!-- Node0&#45;&gt;Node3 -->
<g id="edge3" class="edge"><title>Node0&#45;&gt;Node3</title>
<path fill="none" stroke="blueviolet" stroke-dasharray="5,2" d="M163.457,-314.217C165.887,-285.651 176.153,-197.325 213.353,-136.5 225.082,-117.321 231.713,-114.37 250.806,-102.5 257.072,-98.6043 264.271,-95.2549 271.163,-92.5015"/>
<text text-anchor="middle" x="223.079" y="-138.5" font-family="Helvetica,sans-Serif" font-size="10.00">erpc</text>
</g>
<!-- Node11 -->
<g id="node19" class="node"><title>Node11</title>
<g id="a_node19"><a xlink:href="group__rpmsg__lite__rtos__transport.html" target="_top" xlink:title="RPMsg&#45;Lite transport using RTOS API. ">
<polygon fill="white" stroke="black" points="250.806,-37.5 250.806,-55.5 349.247,-55.5 349.247,-37.5 250.806,-37.5"/>
<text text-anchor="middle" x="300.026" y="-43.5" font-family="Helvetica,sans-Serif" font-size="10.00">RPMsg&#45;Lite RTOS</text>
</a>
</g>
</g>
<!-- Node0&#45;&gt;Node11 -->
<g id="edge11" class="edge"><title>Node0&#45;&gt;Node11</title>
<path fill="none" stroke="blueviolet" stroke-dasharray="5,2" d="M162.927,-314.251C163.799,-282.216 169.979,-173.893 213.353,-99.5 226.038,-77.7424 251.56,-63.6926 271.464,-55.5635"/>
<text text-anchor="middle" x="223.079" y="-101.5" font-family="Helvetica,sans-Serif" font-size="10.00">erpc</text>
</g>
<!-- Node12 -->
<g id="node20" class="node"><title>Node12</title>
<g id="a_node20"><a xlink:href="group__rpmsg__lite__transport.html" target="_top" xlink:title="RPMsg&#45;Lite transport. ">
<polygon fill="white" stroke="black" points="265.908,-0.5 265.908,-18.5 334.145,-18.5 334.145,-0.5 265.908,-0.5"/>
<text text-anchor="middle" x="300.026" y="-6.5" font-family="Helvetica,sans-Serif" font-size="10.00">RPMsg&#45;Lite</text>
</a>
</g>
</g>
<!-- Node0&#45;&gt;Node12 -->
<g id="edge12" class="edge"><title>Node0&#45;&gt;Node12</title>
<path fill="none" stroke="blueviolet" stroke-dasharray="5,2" d="M162.543,-314.24C162.019,-278.971 163.785,-150.592 213.353,-62.5 225.617,-40.703 250.913,-26.7199 270.854,-18.6224"/>
<text text-anchor="middle" x="223.079" y="-64.5" font-family="Helvetica,sans-Serif" font-size="10.00">erpc</text>
</g>
</g>
</svg>
