<?xml version="1.0" encoding="UTF-8" standalone="no"?>
<!DOCTYPE svg PUBLIC "-//W3C//DTD SVG 1.1//EN"
 "http://www.w3.org/Graphics/SVG/1.1/DTD/svg11.dtd">
<!-- Generated by graphviz version 2.38.0 (20140413.2041)
 -->
<!-- Title: UART Pages: 1 -->
<svg width="333pt" height="656pt"
 viewBox="0.00 0.00 333.16 656.00" xmlns="http://www.w3.org/2000/svg" xmlns:xlink="http://www.w3.org/1999/xlink">
<g id="graph0" class="graph" transform="scale(1 1) rotate(0) translate(4 652)">
<title>UART</title>
<polygon fill="white" stroke="none" points="-4,4 -4,-652 329.16,-652 329.16,4 -4,4"/>
<!-- Node1 -->
<g id="node1" class="node"><title>Node1</title>
<g id="a_node1"><a xlink:href="group__transports.html" target="_top" xlink:title="Transport layer classes. ">
<polygon fill="white" stroke="black" points="0,-314.5 0,-332.5 91.2197,-332.5 91.2197,-314.5 0,-314.5"/>
<text text-anchor="middle" x="45.6099" y="-320.5" font-family="Helvetica,sans-Serif" font-size="10.00">Transport Layers</text>
</a>
</g>
</g>
<!-- Node0 -->
<g id="node12" class="node"><title>Node0</title>
<polygon fill="#bfbfbf" stroke="black" points="128.22,-314.5 128.22,-332.5 171.266,-332.5 171.266,-314.5 128.22,-314.5"/>
<text text-anchor="middle" x="149.743" y="-320.5" font-family="Helvetica,sans-Serif" font-size="10.00">UART</text>
</g>
<!-- Node1&#45;&gt;Node0 -->
<g id="edge1" class="edge"><title>Node1&#45;&gt;Node0</title>
<path fill="none" stroke="black" d="M101.623,-323.5C111.029,-323.5 120.256,-323.5 128.016,-323.5"/>
<polygon fill="black" stroke="black" points="101.407,-320 91.4068,-323.5 101.407,-327 101.407,-320"/>
</g>
<!-- Node9 -->
<g id="node2" class="node"><title>Node9</title>
<g id="a_node2"><a xlink:href="group__dspi__slave__transport.html" target="_top" xlink:title="Kinetis SDK DSPI slave driver transport. ">
<polygon fill="white" stroke="black" points="242.373,-629.5 242.373,-647.5 309.506,-647.5 309.506,-629.5 242.373,-629.5"/>
<text text-anchor="middle" x="275.939" y="-635.5" font-family="Helvetica,sans-Serif" font-size="10.00">DSPI Slave</text>
</a>
</g>
</g>
<!-- Node7 -->
<g id="node3" class="node"><title>Node7</title>
<g id="a_node3"><a xlink:href="group__port__threads.html" target="_top" xlink:title="Threading model. ">
<polygon fill="white" stroke="black" points="249.597,-592.5 249.597,-610.5 302.282,-610.5 302.282,-592.5 249.597,-592.5"/>
<text text-anchor="middle" x="275.939" y="-598.5" font-family="Helvetica,sans-Serif" font-size="10.00">Threads</text>
</a>
</g>
</g>
<!-- Node19 -->
<g id="node4" class="node"><title>Node19</title>
<g id="a_node4"><a xlink:href="group__tcp__transport.html" target="_top" xlink:title="Simple TCP/IP transport. ">
<polygon fill="white" stroke="black" points="251.826,-555.5 251.826,-573.5 300.053,-573.5 300.053,-555.5 251.826,-555.5"/>
<text text-anchor="middle" x="275.939" y="-561.5" font-family="Helvetica,sans-Serif" font-size="10.00">TCP/IP</text>
</a>
</g>
</g>
<!-- Node15 -->
<g id="node5" class="node"><title>Node15</title>
<g id="a_node5"><a xlink:href="group__rpmsg__transport.html" target="_top" xlink:title="OpenAMP RPMsg transport. ">
<polygon fill="white" stroke="black" points="251.548,-518.5 251.548,-536.5 300.331,-536.5 300.331,-518.5 251.548,-518.5"/>
<text text-anchor="middle" x="275.939" y="-524.5" font-family="Helvetica,sans-Serif" font-size="10.00">RPMsg</text>
</a>
</g>
</g>
<!-- Node2 -->
<g id="node6" class="node"><title>Node2</title>
<g id="a_node6"><a xlink:href="group__infra__client.html" target="_top" xlink:title="Client classes. ">
<polygon fill="white" stroke="black" points="255.156,-481.5 255.156,-499.5 296.723,-499.5 296.723,-481.5 255.156,-481.5"/>
<text text-anchor="middle" x="275.939" y="-487.5" font-family="Helvetica,sans-Serif" font-size="10.00">Client</text>
</a>
</g>
</g>
<!-- Node4 -->
<g id="node7" class="node"><title>Node4</title>
<g id="a_node7"><a xlink:href="group__infra__transport.html" target="_top" xlink:title="Superclasses for building transports. ">
<polygon fill="white" stroke="black" points="244.226,-444.5 244.226,-462.5 307.653,-462.5 307.653,-444.5 244.226,-444.5"/>
<text text-anchor="middle" x="275.939" y="-450.5" font-family="Helvetica,sans-Serif" font-size="10.00">Transports</text>
</a>
</g>
</g>
<!-- Node16 -->
<g id="node8" class="node"><title>Node16</title>
<g id="a_node8"><a xlink:href="group__serial__transport.html" target="_top" xlink:title="POSIX and Win32 serial port transport. ">
<polygon fill="white" stroke="black" points="245.151,-407.5 245.151,-425.5 306.728,-425.5 306.728,-407.5 245.151,-407.5"/>
<text text-anchor="middle" x="275.939" y="-413.5" font-family="Helvetica,sans-Serif" font-size="10.00">Serial port</text>
</a>
</g>
</g>
<!-- Node5 -->
<g id="node9" class="node"><title>Node5</title>
<g id="a_node9"><a xlink:href="group__infra__utility.html" target="_top" xlink:title="Utility code used by the infrastructure. ">
<polygon fill="white" stroke="black" points="251.826,-370.5 251.826,-388.5 300.053,-388.5 300.053,-370.5 251.826,-370.5"/>
<text text-anchor="middle" x="275.939" y="-376.5" font-family="Helvetica,sans-Serif" font-size="10.00">Utilities</text>
</a>
</g>
</g>
<!-- Node11 -->
<g id="node10" class="node"><title>Node11</title>
<g id="a_node10"><a xlink:href="group__lpuart__transport.html" target="_top" xlink:title="Kinetis SDK LPUART driver transport. ">
<polygon fill="white" stroke="black" points="248.301,-333.5 248.301,-351.5 303.578,-351.5 303.578,-333.5 248.301,-333.5"/>
<text text-anchor="middle" x="275.939" y="-339.5" font-family="Helvetica,sans-Serif" font-size="10.00">LPUART</text>
</a>
</g>
</g>
<!-- Node18 -->
<g id="node11" class="node"><title>Node18</title>
<g id="a_node11"><a xlink:href="group__spi__slave__transport.html" target="_top" xlink:title="Kinetis SDK SPI slave driver transport. ">
<polygon fill="white" stroke="black" points="245.984,-296.5 245.984,-314.5 305.895,-314.5 305.895,-296.5 245.984,-296.5"/>
<text text-anchor="middle" x="275.939" y="-302.5" font-family="Helvetica,sans-Serif" font-size="10.00">SPI Slave</text>
</a>
</g>
</g>
<!-- Node0&#45;&gt;Node9 -->
<g id="edge9" class="edge"><title>Node0&#45;&gt;Node9</title>
<path fill="none" stroke="blueviolet" stroke-dasharray="5,2" d="M151.278,-332.62C153.797,-373.504 165.368,-539.889 189.266,-585.5 199.839,-605.681 207.348,-608.506 226.719,-620.5 232.341,-623.981 238.742,-626.954 245.002,-629.421"/>
<text text-anchor="middle" x="198.992" y="-610.5" font-family="Helvetica,sans-Serif" font-size="10.00">erpc</text>
</g>
<!-- Node0&#45;&gt;Node7 -->
<g id="edge7" class="edge"><title>Node0&#45;&gt;Node7</title>
<path fill="none" stroke="blueviolet" stroke-dasharray="5,2" d="M150.295,-332.744C149.147,-364.772 148.646,-473.148 189.266,-548.5 200.076,-568.555 207.348,-571.506 226.719,-583.5 233.708,-587.828 241.902,-591.37 249.531,-594.132"/>
<text text-anchor="middle" x="198.992" y="-573.5" font-family="Helvetica,sans-Serif" font-size="10.00">erpc</text>
</g>
<!-- Node0&#45;&gt;Node19 -->
<g id="edge19" class="edge"><title>Node0&#45;&gt;Node19</title>
<path fill="none" stroke="blueviolet" stroke-dasharray="5,2" d="M150.757,-332.721C151.178,-361.107 155.319,-448.972 189.266,-510.5 200.419,-530.716 207.175,-534.207 226.719,-546.5 234.283,-551.258 243.295,-555.045 251.471,-557.894"/>
<text text-anchor="middle" x="198.992" y="-536.5" font-family="Helvetica,sans-Serif" font-size="10.00">erpc</text>
</g>
<!-- Node0&#45;&gt;Node15 -->
<g id="edge15" class="edge"><title>Node0&#45;&gt;Node15</title>
<path fill="none" stroke="blueviolet" stroke-dasharray="5,2" d="M151.404,-332.518C153.517,-356.73 161.677,-424.565 189.266,-472.5 200.938,-492.78 206.998,-496.907 226.719,-509.5 234.25,-514.309 243.256,-518.108 251.434,-520.952"/>
<text text-anchor="middle" x="198.992" y="-498.5" font-family="Helvetica,sans-Serif" font-size="10.00">erpc</text>
</g>
<!-- Node0&#45;&gt;Node2 -->
<g id="edge2" class="edge"><title>Node0&#45;&gt;Node2</title>
<path fill="none" stroke="blueviolet" stroke-dasharray="5,2" d="M152.6,-332.52C156.868,-351.908 168.626,-398.54 189.266,-432.5 201.915,-453.312 206.452,-458.995 226.719,-472.5 235.196,-478.149 245.686,-482.336 254.714,-485.243"/>
<text text-anchor="middle" x="198.992" y="-460.5" font-family="Helvetica,sans-Serif" font-size="10.00">erpc</text>
</g>
<!-- Node0&#45;&gt;Node4 -->
<g id="edge4" class="edge"><title>Node0&#45;&gt;Node4</title>
<path fill="none" stroke="blueviolet" stroke-dasharray="5,2" d="M153.995,-332.613C162.3,-354.445 186.518,-409.83 226.719,-435.5 232.217,-439.011 238.5,-441.983 244.674,-444.438"/>
<text text-anchor="middle" x="198.992" y="-420.5" font-family="Helvetica,sans-Serif" font-size="10.00">erpc</text>
</g>
<!-- Node0&#45;&gt;Node16 -->
<g id="edge16" class="edge"><title>Node0&#45;&gt;Node16</title>
<path fill="none" stroke="blueviolet" stroke-dasharray="5,2" d="M157.4,-332.619C169.435,-348.441 196.395,-380.963 226.719,-398.5 232.675,-401.945 239.411,-404.946 245.918,-407.458"/>
<text text-anchor="middle" x="198.992" y="-386.5" font-family="Helvetica,sans-Serif" font-size="10.00">erpc</text>
</g>
<!-- Node0&#45;&gt;Node5 -->
<g id="edge5" class="edge"><title>Node0&#45;&gt;Node5</title>
<path fill="none" stroke="blueviolet" stroke-dasharray="5,2" d="M165.894,-332.69C172.904,-336.802 181.403,-341.592 189.266,-345.5 209.757,-355.686 234.088,-365.101 251.576,-371.428"/>
<text text-anchor="middle" x="198.992" y="-355.5" font-family="Helvetica,sans-Serif" font-size="10.00">erpc</text>
</g>
<!-- Node0&#45;&gt;Node11 -->
<g id="edge11" class="edge"><title>Node0&#45;&gt;Node11</title>
<path fill="none" stroke="blueviolet" stroke-dasharray="5,2" d="M171.53,-326.68C192.523,-329.892 225.043,-334.867 248,-338.379"/>
<text text-anchor="middle" x="198.992" y="-333.5" font-family="Helvetica,sans-Serif" font-size="10.00">erpc</text>
</g>
<!-- Node0&#45;&gt;Node18 -->
<g id="edge18" class="edge"><title>Node0&#45;&gt;Node18</title>
<path fill="none" stroke="blueviolet" stroke-dasharray="5,2" d="M171.662,-315.312C177.297,-313.419 183.445,-311.631 189.266,-310.5 207.84,-306.892 229.071,-305.633 245.75,-305.28"/>
<text text-anchor="middle" x="198.992" y="-312.5" font-family="Helvetica,sans-Serif" font-size="10.00">erpc</text>
</g>
<!-- Node17 -->
<g id="node13" class="node"><title>Node17</title>
<g id="a_node13"><a xlink:href="group__spi__master__transport.html" target="_top" xlink:title="Kinetis SDK SPI master driver transport. ">
<polygon fill="white" stroke="black" points="243.21,-259.5 243.21,-277.5 308.668,-277.5 308.668,-259.5 243.21,-259.5"/>
<text text-anchor="middle" x="275.939" y="-265.5" font-family="Helvetica,sans-Serif" font-size="10.00">SPI Master</text>
</a>
</g>
</g>
<!-- Node0&#45;&gt;Node17 -->
<g id="edge17" class="edge"><title>Node0&#45;&gt;Node17</title>
<path fill="none" stroke="blueviolet" stroke-dasharray="5,2" d="M160.171,-314.49C167.568,-307.856 178.398,-299.059 189.266,-293.5 206.095,-284.892 226.341,-278.811 242.926,-274.803"/>
<text text-anchor="middle" x="198.992" y="-295.5" font-family="Helvetica,sans-Serif" font-size="10.00">erpc</text>
</g>
<!-- Node6 -->
<g id="node14" class="node"><title>Node6</title>
<g id="a_node14"><a xlink:href="group__infra__server.html" target="_top" xlink:title="Server classes. ">
<polygon fill="white" stroke="black" points="253.213,-222.5 253.213,-240.5 298.666,-240.5 298.666,-222.5 253.213,-222.5"/>
<text text-anchor="middle" x="275.939" y="-228.5" font-family="Helvetica,sans-Serif" font-size="10.00">Server</text>
</a>
</g>
</g>
<!-- Node0&#45;&gt;Node6 -->
<g id="edge6" class="edge"><title>Node0&#45;&gt;Node6</title>
<path fill="none" stroke="blueviolet" stroke-dasharray="5,2" d="M156.012,-314.112C162.648,-302.913 174.933,-284.124 189.266,-271.5 207.866,-255.117 234.331,-244.144 252.912,-237.899"/>
<text text-anchor="middle" x="198.992" y="-273.5" font-family="Helvetica,sans-Serif" font-size="10.00">erpc</text>
</g>
<!-- Node10 -->
<g id="node15" class="node"><title>Node10</title>
<g id="a_node15"><a xlink:href="group__itbp__transport.html" target="_top" xlink:title="Simple inter&#45;thread communications transport. ">
<polygon fill="white" stroke="black" points="242.092,-185.5 242.092,-203.5 309.787,-203.5 309.787,-185.5 242.092,-185.5"/>
<text text-anchor="middle" x="275.939" y="-191.5" font-family="Helvetica,sans-Serif" font-size="10.00">Inter&#45;thread</text>
</a>
</g>
</g>
<!-- Node0&#45;&gt;Node10 -->
<g id="edge10" class="edge"><title>Node0&#45;&gt;Node10</title>
<path fill="none" stroke="blueviolet" stroke-dasharray="5,2" d="M153.633,-314.365C158.904,-298.692 171.221,-266.178 189.266,-243.5 202.545,-226.811 208.267,-224.196 226.719,-213.5 233.258,-209.709 240.697,-206.361 247.742,-203.572"/>
<text text-anchor="middle" x="198.992" y="-245.5" font-family="Helvetica,sans-Serif" font-size="10.00">erpc</text>
</g>
<!-- Node8 -->
<g id="node16" class="node"><title>Node8</title>
<g id="a_node16"><a xlink:href="group__dspi__master__transport.html" target="_top" xlink:title="Kinetis SDK DSPI master driver transport. ">
<polygon fill="white" stroke="black" points="239.6,-148.5 239.6,-166.5 312.279,-166.5 312.279,-148.5 239.6,-148.5"/>
<text text-anchor="middle" x="275.939" y="-154.5" font-family="Helvetica,sans-Serif" font-size="10.00">DSPI Master</text>
</a>
</g>
</g>
<!-- Node0&#45;&gt;Node8 -->
<g id="edge8" class="edge"><title>Node0&#45;&gt;Node8</title>
<path fill="none" stroke="blueviolet" stroke-dasharray="5,2" d="M152.196,-314.209C155.731,-293.798 166.233,-244.11 189.266,-209.5 201.557,-191.031 207.791,-188.074 226.719,-176.5 233.014,-172.651 240.223,-169.318 247.116,-166.566"/>
<text text-anchor="middle" x="198.992" y="-211.5" font-family="Helvetica,sans-Serif" font-size="10.00">erpc</text>
</g>
<!-- Node14 -->
<g id="node17" class="node"><title>Node14</title>
<g id="a_node17"><a xlink:href="group__rpmsg__rtos__transport.html" target="_top" xlink:title="OpenAMP RPMsg RTOS layer transport. ">
<polygon fill="white" stroke="black" points="236.445,-111.5 236.445,-129.5 315.434,-129.5 315.434,-111.5 236.445,-111.5"/>
<text text-anchor="middle" x="275.939" y="-117.5" font-family="Helvetica,sans-Serif" font-size="10.00">RPMsg RTOS</text>
</a>
</g>
</g>
<!-- Node0&#45;&gt;Node14 -->
<g id="edge14" class="edge"><title>Node0&#45;&gt;Node14</title>
<path fill="none" stroke="blueviolet" stroke-dasharray="5,2" d="M151.278,-314.356C153.078,-289.82 160.53,-221.164 189.266,-173.5 200.873,-154.247 207.626,-151.37 226.719,-139.5 232.985,-135.604 240.184,-132.255 247.076,-129.501"/>
<text text-anchor="middle" x="198.992" y="-175.5" font-family="Helvetica,sans-Serif" font-size="10.00">erpc</text>
</g>
<!-- Node3 -->
<g id="node18" class="node"><title>Node3</title>
<g id="a_node18"><a xlink:href="group__infra__codec.html" target="_top" xlink:title="Classes used for message serialization. ">
<polygon fill="white" stroke="black" points="240.703,-74.5 240.703,-92.5 311.176,-92.5 311.176,-74.5 240.703,-74.5"/>
<text text-anchor="middle" x="275.939" y="-80.5" font-family="Helvetica,sans-Serif" font-size="10.00">Serialization</text>
</a>
</g>
</g>
<!-- Node0&#45;&gt;Node3 -->
<g id="edge3" class="edge"><title>Node0&#45;&gt;Node3</title>
<path fill="none" stroke="blueviolet" stroke-dasharray="5,2" d="M150.68,-314.236C150.877,-285.725 154.445,-197.538 189.266,-136.5 201.659,-114.776 226.939,-100.784 246.842,-92.6649"/>
<text text-anchor="middle" x="198.992" y="-138.5" font-family="Helvetica,sans-Serif" font-size="10.00">erpc</text>
</g>
<!-- Node12 -->
<g id="node19" class="node"><title>Node12</title>
<g id="a_node19"><a xlink:href="group__rpmsg__lite__rtos__transport.html" target="_top" xlink:title="RPMsg&#45;Lite transport using RTOS API. ">
<polygon fill="white" stroke="black" points="226.719,-37.5 226.719,-55.5 325.16,-55.5 325.16,-37.5 226.719,-37.5"/>
<text text-anchor="middle" x="275.939" y="-43.5" font-family="Helvetica,sans-Serif" font-size="10.00">RPMsg&#45;Lite RTOS</text>
</a>
</g>
</g>
<!-- Node0&#45;&gt;Node12 -->
<g id="edge12" class="edge"><title>Node0&#45;&gt;Node12</title>
<path fill="none" stroke="blueviolet" stroke-dasharray="5,2" d="M150.266,-314.275C149.024,-282.318 148.253,-174.217 189.266,-99.5 201.3,-77.5751 226.622,-63.607 246.632,-55.5476"/>
<text text-anchor="middle" x="198.992" y="-101.5" font-family="Helvetica,sans-Serif" font-size="10.00">erpc</text>
</g>
<!-- Node13 -->
<g id="node20" class="node"><title>Node13</title>
<g id="a_node20"><a xlink:href="group__rpmsg__lite__transport.html" target="_top" xlink:title="RPMsg&#45;Lite transport. ">
<polygon fill="white" stroke="black" points="241.821,-0.5 241.821,-18.5 310.058,-18.5 310.058,-0.5 241.821,-0.5"/>
<text text-anchor="middle" x="275.939" y="-6.5" font-family="Helvetica,sans-Serif" font-size="10.00">RPMsg&#45;Lite</text>
</a>
</g>
</g>
<!-- Node0&#45;&gt;Node13 -->
<g id="edge13" class="edge"><title>Node0&#45;&gt;Node13</title>
<path fill="none" stroke="blueviolet" stroke-dasharray="5,2" d="M151.266,-314.407C153.734,-273.643 165.117,-107.761 189.266,-62.5 200.956,-40.5879 226.038,-26.6776 246.057,-18.634"/>
<text text-anchor="middle" x="198.992" y="-64.5" font-family="Helvetica,sans-Serif" font-size="10.00">erpc</text>
</g>
</g>
</svg>
