<?xml version="1.0" encoding="UTF-8" standalone="no"?>
<!DOCTYPE svg PUBLIC "-//W3C//DTD SVG 1.1//EN"
 "http://www.w3.org/Graphics/SVG/1.1/DTD/svg11.dtd">
<!-- Generated by graphviz version 2.38.0 (20140413.2041)
 -->
<!-- Title: Transports Pages: 1 -->
<svg width="337pt" height="656pt"
 viewBox="0.00 0.00 337.23 656.00" xmlns="http://www.w3.org/2000/svg" xmlns:xlink="http://www.w3.org/1999/xlink">
<g id="graph0" class="graph" transform="scale(1 1) rotate(0) translate(4 652)">
<title>Transports</title>
<polygon fill="white" stroke="none" points="-4,4 -4,-652 333.232,-652 333.232,4 -4,4"/>
<!-- Node8 -->
<g id="node1" class="node"><title>Node8</title>
<g id="a_node1"><a xlink:href="group__dspi__slave__transport.html" target="_top" xlink:title="Kinetis SDK DSPI slave driver transport. ">
<polygon fill="white" stroke="black" points="246.445,-629.5 246.445,-647.5 313.578,-647.5 313.578,-629.5 246.445,-629.5"/>
<text text-anchor="middle" x="280.012" y="-635.5" font-family="Helvetica,sans-Serif" font-size="10.00">DSPI Slave</text>
</a>
</g>
</g>
<!-- Node6 -->
<g id="node2" class="node"><title>Node6</title>
<g id="a_node2"><a xlink:href="group__port__threads.html" target="_top" xlink:title="Threading model. ">
<polygon fill="white" stroke="black" points="253.669,-592.5 253.669,-610.5 306.354,-610.5 306.354,-592.5 253.669,-592.5"/>
<text text-anchor="middle" x="280.012" y="-598.5" font-family="Helvetica,sans-Serif" font-size="10.00">Threads</text>
</a>
</g>
</g>
<!-- Node18 -->
<g id="node3" class="node"><title>Node18</title>
<g id="a_node3"><a xlink:href="group__tcp__transport.html" target="_top" xlink:title="Simple TCP/IP transport. ">
<polygon fill="white" stroke="black" points="255.898,-555.5 255.898,-573.5 304.125,-573.5 304.125,-555.5 255.898,-555.5"/>
<text text-anchor="middle" x="280.012" y="-561.5" font-family="Helvetica,sans-Serif" font-size="10.00">TCP/IP</text>
</a>
</g>
</g>
<!-- Node14 -->
<g id="node4" class="node"><title>Node14</title>
<g id="a_node4"><a xlink:href="group__rpmsg__transport.html" target="_top" xlink:title="OpenAMP RPMsg transport. ">
<polygon fill="white" stroke="black" points="255.62,-518.5 255.62,-536.5 304.403,-536.5 304.403,-518.5 255.62,-518.5"/>
<text text-anchor="middle" x="280.012" y="-524.5" font-family="Helvetica,sans-Serif" font-size="10.00">RPMsg</text>
</a>
</g>
</g>
<!-- Node1 -->
<g id="node5" class="node"><title>Node1</title>
<g id="a_node5"><a xlink:href="group__infra.html" target="_top" xlink:title="C++ core. ">
<polygon fill="white" stroke="black" points="0,-314.5 0,-332.5 74.9111,-332.5 74.9111,-314.5 0,-314.5"/>
<text text-anchor="middle" x="37.4556" y="-320.5" font-family="Helvetica,sans-Serif" font-size="10.00">Infrastructure</text>
</a>
</g>
</g>
<!-- Node0 -->
<g id="node7" class="node"><title>Node0</title>
<polygon fill="#bfbfbf" stroke="black" points="111.911,-314.5 111.911,-332.5 175.338,-332.5 175.338,-314.5 111.911,-314.5"/>
<text text-anchor="middle" x="143.625" y="-320.5" font-family="Helvetica,sans-Serif" font-size="10.00">Transports</text>
</g>
<!-- Node1&#45;&gt;Node0 -->
<g id="edge1" class="edge"><title>Node1&#45;&gt;Node0</title>
<path fill="none" stroke="black" d="M85.1916,-323.5C94.1899,-323.5 103.403,-323.5 111.743,-323.5"/>
<polygon fill="black" stroke="black" points="85.1817,-320 75.1816,-323.5 85.1816,-327 85.1817,-320"/>
</g>
<!-- Node2 -->
<g id="node6" class="node"><title>Node2</title>
<g id="a_node6"><a xlink:href="group__infra__client.html" target="_top" xlink:title="Client classes. ">
<polygon fill="white" stroke="black" points="259.229,-481.5 259.229,-499.5 300.795,-499.5 300.795,-481.5 259.229,-481.5"/>
<text text-anchor="middle" x="280.012" y="-487.5" font-family="Helvetica,sans-Serif" font-size="10.00">Client</text>
</a>
</g>
</g>
<!-- Node0&#45;&gt;Node8 -->
<g id="edge8" class="edge"><title>Node0&#45;&gt;Node8</title>
<path fill="none" stroke="blueviolet" stroke-dasharray="5,2" d="M144.33,-332.769C143.607,-368.08 144.625,-496.657 193.338,-585.5 204.291,-605.477 211.421,-608.506 230.791,-620.5 236.413,-623.981 242.814,-626.954 249.074,-629.421"/>
<text text-anchor="middle" x="203.064" y="-610.5" font-family="Helvetica,sans-Serif" font-size="10.00">erpc</text>
</g>
<!-- Node0&#45;&gt;Node6 -->
<g id="edge6" class="edge"><title>Node0&#45;&gt;Node6</title>
<path fill="none" stroke="blueviolet" stroke-dasharray="5,2" d="M144.749,-332.701C145.552,-364.582 151.398,-472.462 193.338,-547.5 204.602,-567.654 211.247,-571.207 230.791,-583.5 237.75,-587.877 245.935,-591.433 253.566,-594.192"/>
<text text-anchor="middle" x="203.064" y="-573.5" font-family="Helvetica,sans-Serif" font-size="10.00">erpc</text>
</g>
<!-- Node0&#45;&gt;Node18 -->
<g id="edge18" class="edge"><title>Node0&#45;&gt;Node18</title>
<path fill="none" stroke="blueviolet" stroke-dasharray="5,2" d="M145.26,-332.735C147.571,-361.163 157.382,-449.135 193.338,-510.5 205.01,-530.421 211.247,-534.207 230.791,-546.5 238.355,-551.258 247.368,-555.045 255.543,-557.894"/>
<text text-anchor="middle" x="203.064" y="-535.5" font-family="Helvetica,sans-Serif" font-size="10.00">erpc</text>
</g>
<!-- Node0&#45;&gt;Node14 -->
<g id="edge14" class="edge"><title>Node0&#45;&gt;Node14</title>
<path fill="none" stroke="blueviolet" stroke-dasharray="5,2" d="M145.989,-332.603C149.97,-357.039 163.251,-425.467 193.338,-473.5 205.594,-493.067 211.247,-497.207 230.791,-509.5 238.355,-514.258 247.368,-518.045 255.543,-520.894"/>
<text text-anchor="middle" x="203.064" y="-498.5" font-family="Helvetica,sans-Serif" font-size="10.00">erpc</text>
</g>
<!-- Node0&#45;&gt;Node2 -->
<g id="edge2" class="edge"><title>Node0&#45;&gt;Node2</title>
<path fill="none" stroke="blueviolet" stroke-dasharray="5,2" d="M147.246,-332.508C153.279,-352.323 169.482,-400.695 193.338,-435.5 206.567,-454.8 211.07,-459.907 230.791,-472.5 239.377,-477.983 249.878,-482.152 258.886,-485.09"/>
<text text-anchor="middle" x="203.064" y="-461.5" font-family="Helvetica,sans-Serif" font-size="10.00">erpc</text>
</g>
<!-- Node15 -->
<g id="node8" class="node"><title>Node15</title>
<g id="a_node8"><a xlink:href="group__serial__transport.html" target="_top" xlink:title="POSIX and Win32 serial port transport. ">
<polygon fill="white" stroke="black" points="249.224,-444.5 249.224,-462.5 310.8,-462.5 310.8,-444.5 249.224,-444.5"/>
<text text-anchor="middle" x="280.012" y="-450.5" font-family="Helvetica,sans-Serif" font-size="10.00">Serial port</text>
</a>
</g>
</g>
<!-- Node0&#45;&gt;Node15 -->
<g id="edge15" class="edge"><title>Node0&#45;&gt;Node15</title>
<path fill="none" stroke="blueviolet" stroke-dasharray="5,2" d="M148.73,-332.543C159.077,-354.219 188.449,-409.282 230.791,-435.5 236.413,-438.981 242.814,-441.954 249.074,-444.421"/>
<text text-anchor="middle" x="203.064" y="-423.5" font-family="Helvetica,sans-Serif" font-size="10.00">erpc</text>
</g>
<!-- Node4 -->
<g id="node9" class="node"><title>Node4</title>
<g id="a_node9"><a xlink:href="group__infra__utility.html" target="_top" xlink:title="Utility code used by the infrastructure. ">
<polygon fill="white" stroke="black" points="255.898,-407.5 255.898,-425.5 304.125,-425.5 304.125,-407.5 255.898,-407.5"/>
<text text-anchor="middle" x="280.012" y="-413.5" font-family="Helvetica,sans-Serif" font-size="10.00">Utilities</text>
</a>
</g>
</g>
<!-- Node0&#45;&gt;Node4 -->
<g id="edge4" class="edge"><title>Node0&#45;&gt;Node4</title>
<path fill="none" stroke="blueviolet" stroke-dasharray="5,2" d="M152.77,-332.668C167.095,-348.273 198.366,-380.093 230.791,-398.5 238.562,-402.911 247.62,-406.623 255.773,-409.508"/>
<text text-anchor="middle" x="203.064" y="-388.5" font-family="Helvetica,sans-Serif" font-size="10.00">erpc</text>
</g>
<!-- Node10 -->
<g id="node10" class="node"><title>Node10</title>
<g id="a_node10"><a xlink:href="group__lpuart__transport.html" target="_top" xlink:title="Kinetis SDK LPUART driver transport. ">
<polygon fill="white" stroke="black" points="252.373,-370.5 252.373,-388.5 307.65,-388.5 307.65,-370.5 252.373,-370.5"/>
<text text-anchor="middle" x="280.012" y="-376.5" font-family="Helvetica,sans-Serif" font-size="10.00">LPUART</text>
</a>
</g>
</g>
<!-- Node0&#45;&gt;Node10 -->
<g id="edge10" class="edge"><title>Node0&#45;&gt;Node10</title>
<path fill="none" stroke="blueviolet" stroke-dasharray="5,2" d="M163.01,-332.501C172.081,-336.859 183.221,-342.091 193.338,-346.5 209.776,-353.664 214.067,-355.031 230.791,-361.5 238.458,-364.466 246.843,-367.625 254.438,-370.455"/>
<text text-anchor="middle" x="203.064" y="-356.5" font-family="Helvetica,sans-Serif" font-size="10.00">erpc</text>
</g>
<!-- Node17 -->
<g id="node11" class="node"><title>Node17</title>
<g id="a_node11"><a xlink:href="group__spi__slave__transport.html" target="_top" xlink:title="Kinetis SDK SPI slave driver transport. ">
<polygon fill="white" stroke="black" points="250.056,-333.5 250.056,-351.5 309.967,-351.5 309.967,-333.5 250.056,-333.5"/>
<text text-anchor="middle" x="280.012" y="-339.5" font-family="Helvetica,sans-Serif" font-size="10.00">SPI Slave</text>
</a>
</g>
</g>
<!-- Node0&#45;&gt;Node17 -->
<g id="edge17" class="edge"><title>Node0&#45;&gt;Node17</title>
<path fill="none" stroke="blueviolet" stroke-dasharray="5,2" d="M175.456,-327.859C197.773,-331.014 227.749,-335.252 249.707,-338.357"/>
<text text-anchor="middle" x="203.064" y="-334.5" font-family="Helvetica,sans-Serif" font-size="10.00">erpc</text>
</g>
<!-- Node19 -->
<g id="node12" class="node"><title>Node19</title>
<g id="a_node12"><a xlink:href="group__uart__transport.html" target="_top" xlink:title="Kinetis SDK UART driver transport. ">
<polygon fill="white" stroke="black" points="258.489,-296.5 258.489,-314.5 301.535,-314.5 301.535,-296.5 258.489,-296.5"/>
<text text-anchor="middle" x="280.012" y="-302.5" font-family="Helvetica,sans-Serif" font-size="10.00">UART</text>
</a>
</g>
</g>
<!-- Node0&#45;&gt;Node19 -->
<g id="edge19" class="edge"><title>Node0&#45;&gt;Node19</title>
<path fill="none" stroke="blueviolet" stroke-dasharray="5,2" d="M174.562,-314.492C180.723,-312.927 187.202,-311.487 193.338,-310.5 215.403,-306.95 241.024,-305.843 258.459,-305.536"/>
<text text-anchor="middle" x="203.064" y="-312.5" font-family="Helvetica,sans-Serif" font-size="10.00">erpc</text>
</g>
<!-- Node16 -->
<g id="node13" class="node"><title>Node16</title>
<g id="a_node13"><a xlink:href="group__spi__master__transport.html" target="_top" xlink:title="Kinetis SDK SPI master driver transport. ">
<polygon fill="white" stroke="black" points="247.283,-259.5 247.283,-277.5 312.741,-277.5 312.741,-259.5 247.283,-259.5"/>
<text text-anchor="middle" x="280.012" y="-265.5" font-family="Helvetica,sans-Serif" font-size="10.00">SPI Master</text>
</a>
</g>
</g>
<!-- Node0&#45;&gt;Node16 -->
<g id="edge16" class="edge"><title>Node0&#45;&gt;Node16</title>
<path fill="none" stroke="blueviolet" stroke-dasharray="5,2" d="M157.802,-314.461C167.346,-308.217 180.733,-300.066 193.338,-294.5 210.543,-286.903 230.624,-280.679 247.018,-276.227"/>
<text text-anchor="middle" x="203.064" y="-296.5" font-family="Helvetica,sans-Serif" font-size="10.00">erpc</text>
</g>
<!-- Node5 -->
<g id="node14" class="node"><title>Node5</title>
<g id="a_node14"><a xlink:href="group__infra__server.html" target="_top" xlink:title="Server classes. ">
<polygon fill="white" stroke="black" points="257.285,-222.5 257.285,-240.5 302.738,-240.5 302.738,-222.5 257.285,-222.5"/>
<text text-anchor="middle" x="280.012" y="-228.5" font-family="Helvetica,sans-Serif" font-size="10.00">Server</text>
</a>
</g>
</g>
<!-- Node0&#45;&gt;Node5 -->
<g id="edge5" class="edge"><title>Node0&#45;&gt;Node5</title>
<path fill="none" stroke="blueviolet" stroke-dasharray="5,2" d="M152.342,-314.399C161.511,-303.88 177.56,-286.368 193.338,-273.5 208.659,-261.005 213.107,-258.34 230.791,-249.5 239.104,-245.345 248.62,-241.595 256.991,-238.607"/>
<text text-anchor="middle" x="203.064" y="-275.5" font-family="Helvetica,sans-Serif" font-size="10.00">erpc</text>
</g>
<!-- Node9 -->
<g id="node15" class="node"><title>Node9</title>
<g id="a_node15"><a xlink:href="group__itbp__transport.html" target="_top" xlink:title="Simple inter&#45;thread communications transport. ">
<polygon fill="white" stroke="black" points="246.165,-185.5 246.165,-203.5 313.859,-203.5 313.859,-185.5 246.165,-185.5"/>
<text text-anchor="middle" x="280.012" y="-191.5" font-family="Helvetica,sans-Serif" font-size="10.00">Inter&#45;thread</text>
</a>
</g>
</g>
<!-- Node0&#45;&gt;Node9 -->
<g id="edge9" class="edge"><title>Node0&#45;&gt;Node9</title>
<path fill="none" stroke="blueviolet" stroke-dasharray="5,2" d="M148.712,-314.47C159.019,-292.835 188.309,-237.952 230.791,-212.5 236.617,-209.01 243.233,-206.005 249.658,-203.506"/>
<text text-anchor="middle" x="203.064" y="-247.5" font-family="Helvetica,sans-Serif" font-size="10.00">erpc</text>
</g>
<!-- Node7 -->
<g id="node16" class="node"><title>Node7</title>
<g id="a_node16"><a xlink:href="group__dspi__master__transport.html" target="_top" xlink:title="Kinetis SDK DSPI master driver transport. ">
<polygon fill="white" stroke="black" points="243.672,-148.5 243.672,-166.5 316.352,-166.5 316.352,-148.5 243.672,-148.5"/>
<text text-anchor="middle" x="280.012" y="-154.5" font-family="Helvetica,sans-Serif" font-size="10.00">DSPI Master</text>
</a>
</g>
</g>
<!-- Node0&#45;&gt;Node7 -->
<g id="edge7" class="edge"><title>Node0&#45;&gt;Node7</title>
<path fill="none" stroke="blueviolet" stroke-dasharray="5,2" d="M147.356,-314.275C153.497,-294.457 169.723,-246.832 193.338,-212.5 206.598,-193.221 211.07,-188.093 230.791,-175.5 236.289,-171.989 242.572,-169.017 248.746,-166.562"/>
<text text-anchor="middle" x="203.064" y="-214.5" font-family="Helvetica,sans-Serif" font-size="10.00">erpc</text>
</g>
<!-- Node13 -->
<g id="node17" class="node"><title>Node13</title>
<g id="a_node17"><a xlink:href="group__rpmsg__rtos__transport.html" target="_top" xlink:title="OpenAMP RPMsg RTOS layer transport. ">
<polygon fill="white" stroke="black" points="240.518,-111.5 240.518,-129.5 319.506,-129.5 319.506,-111.5 240.518,-111.5"/>
<text text-anchor="middle" x="280.012" y="-117.5" font-family="Helvetica,sans-Serif" font-size="10.00">RPMsg RTOS</text>
</a>
</g>
</g>
<!-- Node0&#45;&gt;Node13 -->
<g id="edge13" class="edge"><title>Node0&#45;&gt;Node13</title>
<path fill="none" stroke="blueviolet" stroke-dasharray="5,2" d="M146.003,-314.457C150.022,-290.185 163.385,-222.214 193.338,-174.5 205.614,-154.945 211.247,-150.793 230.791,-138.5 236.388,-134.979 242.779,-131.99 249.037,-129.519"/>
<text text-anchor="middle" x="203.064" y="-176.5" font-family="Helvetica,sans-Serif" font-size="10.00">erpc</text>
</g>
<!-- Node3 -->
<g id="node18" class="node"><title>Node3</title>
<g id="a_node18"><a xlink:href="group__infra__codec.html" target="_top" xlink:title="Classes used for message serialization. ">
<polygon fill="white" stroke="black" points="244.775,-74.5 244.775,-92.5 315.248,-92.5 315.248,-74.5 244.775,-74.5"/>
<text text-anchor="middle" x="280.012" y="-80.5" font-family="Helvetica,sans-Serif" font-size="10.00">Serialization</text>
</a>
</g>
</g>
<!-- Node0&#45;&gt;Node3 -->
<g id="edge3" class="edge"><title>Node0&#45;&gt;Node3</title>
<path fill="none" stroke="blueviolet" stroke-dasharray="5,2" d="M145.273,-314.314C147.619,-286.038 157.522,-198.535 193.338,-137.5 205.023,-117.587 211.247,-113.793 230.791,-101.5 236.388,-97.9794 242.779,-94.9902 249.037,-92.5192"/>
<text text-anchor="middle" x="203.064" y="-139.5" font-family="Helvetica,sans-Serif" font-size="10.00">erpc</text>
</g>
<!-- Node11 -->
<g id="node19" class="node"><title>Node11</title>
<g id="a_node19"><a xlink:href="group__rpmsg__lite__rtos__transport.html" target="_top" xlink:title="RPMsg&#45;Lite transport using RTOS API. ">
<polygon fill="white" stroke="black" points="230.791,-37.5 230.791,-55.5 329.232,-55.5 329.232,-37.5 230.791,-37.5"/>
<text text-anchor="middle" x="280.012" y="-43.5" font-family="Helvetica,sans-Serif" font-size="10.00">RPMsg&#45;Lite RTOS</text>
</a>
</g>
</g>
<!-- Node0&#45;&gt;Node11 -->
<g id="edge11" class="edge"><title>Node0&#45;&gt;Node11</title>
<path fill="none" stroke="blueviolet" stroke-dasharray="5,2" d="M144.76,-314.339C145.597,-282.6 151.542,-175.199 193.338,-100.5 204.612,-80.3509 211.247,-76.7925 230.791,-64.5 236.388,-60.9794 242.779,-57.9902 249.037,-55.5192"/>
<text text-anchor="middle" x="203.064" y="-102.5" font-family="Helvetica,sans-Serif" font-size="10.00">erpc</text>
</g>
<!-- Node12 -->
<g id="node20" class="node"><title>Node12</title>
<g id="a_node20"><a xlink:href="group__rpmsg__lite__transport.html" target="_top" xlink:title="RPMsg&#45;Lite transport. ">
<polygon fill="white" stroke="black" points="245.894,-0.5 245.894,-18.5 314.13,-18.5 314.13,-0.5 245.894,-0.5"/>
<text text-anchor="middle" x="280.012" y="-6.5" font-family="Helvetica,sans-Serif" font-size="10.00">RPMsg&#45;Lite</text>
</a>
</g>
</g>
<!-- Node0&#45;&gt;Node12 -->
<g id="edge12" class="edge"><title>Node0&#45;&gt;Node12</title>
<path fill="none" stroke="blueviolet" stroke-dasharray="5,2" d="M144.34,-314.266C143.65,-279.089 144.774,-150.999 193.338,-62.5 204.298,-42.5267 211.421,-39.4938 230.791,-27.5 236.413,-24.0189 242.814,-21.0463 249.074,-18.579"/>
<text text-anchor="middle" x="203.064" y="-64.5" font-family="Helvetica,sans-Serif" font-size="10.00">erpc</text>
</g>
</g>
</svg>
