<?xml version="1.0" encoding="UTF-8" standalone="no"?>
<!DOCTYPE svg PUBLIC "-//W3C//DTD SVG 1.1//EN"
 "http://www.w3.org/Graphics/SVG/1.1/DTD/svg11.dtd">
<!-- Generated by graphviz version 2.38.0 (20140413.2041)
 -->
<!-- Title: Serialization Pages: 1 -->
<svg width="344pt" height="656pt"
 viewBox="0.00 0.00 344.28 656.00" xmlns="http://www.w3.org/2000/svg" xmlns:xlink="http://www.w3.org/1999/xlink">
<g id="graph0" class="graph" transform="scale(1 1) rotate(0) translate(4 652)">
<title>Serialization</title>
<polygon fill="white" stroke="none" points="-4,4 -4,-652 340.278,-652 340.278,4 -4,4"/>
<!-- Node8 -->
<g id="node1" class="node"><title>Node8</title>
<g id="a_node1"><a xlink:href="group__dspi__slave__transport.html" target="_top" xlink:title="Kinetis SDK DSPI slave driver transport. ">
<polygon fill="white" stroke="black" points="253.491,-629.5 253.491,-647.5 320.624,-647.5 320.624,-629.5 253.491,-629.5"/>
<text text-anchor="middle" x="287.058" y="-635.5" font-family="Helvetica,sans-Serif" font-size="10.00">DSPI Slave</text>
</a>
</g>
</g>
<!-- Node6 -->
<g id="node2" class="node"><title>Node6</title>
<g id="a_node2"><a xlink:href="group__port__threads.html" target="_top" xlink:title="Threading model. ">
<polygon fill="white" stroke="black" points="260.715,-592.5 260.715,-610.5 313.4,-610.5 313.4,-592.5 260.715,-592.5"/>
<text text-anchor="middle" x="287.058" y="-598.5" font-family="Helvetica,sans-Serif" font-size="10.00">Threads</text>
</a>
</g>
</g>
<!-- Node18 -->
<g id="node3" class="node"><title>Node18</title>
<g id="a_node3"><a xlink:href="group__tcp__transport.html" target="_top" xlink:title="Simple TCP/IP transport. ">
<polygon fill="white" stroke="black" points="262.944,-555.5 262.944,-573.5 311.171,-573.5 311.171,-555.5 262.944,-555.5"/>
<text text-anchor="middle" x="287.058" y="-561.5" font-family="Helvetica,sans-Serif" font-size="10.00">TCP/IP</text>
</a>
</g>
</g>
<!-- Node14 -->
<g id="node4" class="node"><title>Node14</title>
<g id="a_node4"><a xlink:href="group__rpmsg__transport.html" target="_top" xlink:title="OpenAMP RPMsg transport. ">
<polygon fill="white" stroke="black" points="262.666,-518.5 262.666,-536.5 311.449,-536.5 311.449,-518.5 262.666,-518.5"/>
<text text-anchor="middle" x="287.058" y="-524.5" font-family="Helvetica,sans-Serif" font-size="10.00">RPMsg</text>
</a>
</g>
</g>
<!-- Node1 -->
<g id="node5" class="node"><title>Node1</title>
<g id="a_node5"><a xlink:href="group__infra.html" target="_top" xlink:title="C++ core. ">
<polygon fill="white" stroke="black" points="0,-314.5 0,-332.5 74.9111,-332.5 74.9111,-314.5 0,-314.5"/>
<text text-anchor="middle" x="37.4556" y="-320.5" font-family="Helvetica,sans-Serif" font-size="10.00">Infrastructure</text>
</a>
</g>
</g>
<!-- Node0 -->
<g id="node18" class="node"><title>Node0</title>
<polygon fill="#bfbfbf" stroke="black" points="111.911,-314.5 111.911,-332.5 182.384,-332.5 182.384,-314.5 111.911,-314.5"/>
<text text-anchor="middle" x="147.147" y="-320.5" font-family="Helvetica,sans-Serif" font-size="10.00">Serialization</text>
</g>
<!-- Node1&#45;&gt;Node0 -->
<g id="edge1" class="edge"><title>Node1&#45;&gt;Node0</title>
<path fill="none" stroke="black" d="M84.9577,-323.5C94.0081,-323.5 103.341,-323.5 111.907,-323.5"/>
<polygon fill="black" stroke="black" points="84.9152,-320 74.9151,-323.5 84.9151,-327 84.9152,-320"/>
</g>
<!-- Node2 -->
<g id="node6" class="node"><title>Node2</title>
<g id="a_node6"><a xlink:href="group__infra__client.html" target="_top" xlink:title="Client classes. ">
<polygon fill="white" stroke="black" points="266.274,-481.5 266.274,-499.5 307.841,-499.5 307.841,-481.5 266.274,-481.5"/>
<text text-anchor="middle" x="287.058" y="-487.5" font-family="Helvetica,sans-Serif" font-size="10.00">Client</text>
</a>
</g>
</g>
<!-- Node3 -->
<g id="node7" class="node"><title>Node3</title>
<g id="a_node7"><a xlink:href="group__infra__transport.html" target="_top" xlink:title="Superclasses for building transports. ">
<polygon fill="white" stroke="black" points="255.344,-444.5 255.344,-462.5 318.771,-462.5 318.771,-444.5 255.344,-444.5"/>
<text text-anchor="middle" x="287.058" y="-450.5" font-family="Helvetica,sans-Serif" font-size="10.00">Transports</text>
</a>
</g>
</g>
<!-- Node15 -->
<g id="node8" class="node"><title>Node15</title>
<g id="a_node8"><a xlink:href="group__serial__transport.html" target="_top" xlink:title="POSIX and Win32 serial port transport. ">
<polygon fill="white" stroke="black" points="256.27,-407.5 256.27,-425.5 317.846,-425.5 317.846,-407.5 256.27,-407.5"/>
<text text-anchor="middle" x="287.058" y="-413.5" font-family="Helvetica,sans-Serif" font-size="10.00">Serial port</text>
</a>
</g>
</g>
<!-- Node4 -->
<g id="node9" class="node"><title>Node4</title>
<g id="a_node9"><a xlink:href="group__infra__utility.html" target="_top" xlink:title="Utility code used by the infrastructure. ">
<polygon fill="white" stroke="black" points="262.944,-370.5 262.944,-388.5 311.171,-388.5 311.171,-370.5 262.944,-370.5"/>
<text text-anchor="middle" x="287.058" y="-376.5" font-family="Helvetica,sans-Serif" font-size="10.00">Utilities</text>
</a>
</g>
</g>
<!-- Node10 -->
<g id="node10" class="node"><title>Node10</title>
<g id="a_node10"><a xlink:href="group__lpuart__transport.html" target="_top" xlink:title="Kinetis SDK LPUART driver transport. ">
<polygon fill="white" stroke="black" points="259.419,-333.5 259.419,-351.5 314.696,-351.5 314.696,-333.5 259.419,-333.5"/>
<text text-anchor="middle" x="287.058" y="-339.5" font-family="Helvetica,sans-Serif" font-size="10.00">LPUART</text>
</a>
</g>
</g>
<!-- Node17 -->
<g id="node11" class="node"><title>Node17</title>
<g id="a_node11"><a xlink:href="group__spi__slave__transport.html" target="_top" xlink:title="Kinetis SDK SPI slave driver transport. ">
<polygon fill="white" stroke="black" points="257.102,-296.5 257.102,-314.5 317.013,-314.5 317.013,-296.5 257.102,-296.5"/>
<text text-anchor="middle" x="287.058" y="-302.5" font-family="Helvetica,sans-Serif" font-size="10.00">SPI Slave</text>
</a>
</g>
</g>
<!-- Node19 -->
<g id="node12" class="node"><title>Node19</title>
<g id="a_node12"><a xlink:href="group__uart__transport.html" target="_top" xlink:title="Kinetis SDK UART driver transport. ">
<polygon fill="white" stroke="black" points="265.535,-259.5 265.535,-277.5 308.581,-277.5 308.581,-259.5 265.535,-259.5"/>
<text text-anchor="middle" x="287.058" y="-265.5" font-family="Helvetica,sans-Serif" font-size="10.00">UART</text>
</a>
</g>
</g>
<!-- Node16 -->
<g id="node13" class="node"><title>Node16</title>
<g id="a_node13"><a xlink:href="group__spi__master__transport.html" target="_top" xlink:title="Kinetis SDK SPI master driver transport. ">
<polygon fill="white" stroke="black" points="254.329,-222.5 254.329,-240.5 319.787,-240.5 319.787,-222.5 254.329,-222.5"/>
<text text-anchor="middle" x="287.058" y="-228.5" font-family="Helvetica,sans-Serif" font-size="10.00">SPI Master</text>
</a>
</g>
</g>
<!-- Node5 -->
<g id="node14" class="node"><title>Node5</title>
<g id="a_node14"><a xlink:href="group__infra__server.html" target="_top" xlink:title="Server classes. ">
<polygon fill="white" stroke="black" points="264.331,-185.5 264.331,-203.5 309.784,-203.5 309.784,-185.5 264.331,-185.5"/>
<text text-anchor="middle" x="287.058" y="-191.5" font-family="Helvetica,sans-Serif" font-size="10.00">Server</text>
</a>
</g>
</g>
<!-- Node9 -->
<g id="node15" class="node"><title>Node9</title>
<g id="a_node15"><a xlink:href="group__itbp__transport.html" target="_top" xlink:title="Simple inter&#45;thread communications transport. ">
<polygon fill="white" stroke="black" points="253.21,-148.5 253.21,-166.5 320.905,-166.5 320.905,-148.5 253.21,-148.5"/>
<text text-anchor="middle" x="287.058" y="-154.5" font-family="Helvetica,sans-Serif" font-size="10.00">Inter&#45;thread</text>
</a>
</g>
</g>
<!-- Node7 -->
<g id="node16" class="node"><title>Node7</title>
<g id="a_node16"><a xlink:href="group__dspi__master__transport.html" target="_top" xlink:title="Kinetis SDK DSPI master driver transport. ">
<polygon fill="white" stroke="black" points="250.718,-111.5 250.718,-129.5 323.397,-129.5 323.397,-111.5 250.718,-111.5"/>
<text text-anchor="middle" x="287.058" y="-117.5" font-family="Helvetica,sans-Serif" font-size="10.00">DSPI Master</text>
</a>
</g>
</g>
<!-- Node13 -->
<g id="node17" class="node"><title>Node13</title>
<g id="a_node17"><a xlink:href="group__rpmsg__rtos__transport.html" target="_top" xlink:title="OpenAMP RPMsg RTOS layer transport. ">
<polygon fill="white" stroke="black" points="247.563,-74.5 247.563,-92.5 326.552,-92.5 326.552,-74.5 247.563,-74.5"/>
<text text-anchor="middle" x="287.058" y="-80.5" font-family="Helvetica,sans-Serif" font-size="10.00">RPMsg RTOS</text>
</a>
</g>
</g>
<!-- Node0&#45;&gt;Node8 -->
<g id="edge8" class="edge"><title>Node0&#45;&gt;Node8</title>
<path fill="none" stroke="blueviolet" stroke-dasharray="5,2" d="M148.009,-332.775C147.873,-368.108 150.973,-496.753 200.384,-585.5 211.466,-605.406 218.467,-608.506 237.837,-620.5 243.459,-623.981 249.86,-626.954 256.12,-629.421"/>
<text text-anchor="middle" x="210.11" y="-610.5" font-family="Helvetica,sans-Serif" font-size="10.00">erpc</text>
</g>
<!-- Node0&#45;&gt;Node6 -->
<g id="edge6" class="edge"><title>Node0&#45;&gt;Node6</title>
<path fill="none" stroke="blueviolet" stroke-dasharray="5,2" d="M148.452,-332.706C149.87,-364.602 157.74,-472.525 200.384,-547.5 211.799,-567.569 218.293,-571.207 237.837,-583.5 244.796,-587.877 252.981,-591.433 260.612,-594.192"/>
<text text-anchor="middle" x="210.11" y="-573.5" font-family="Helvetica,sans-Serif" font-size="10.00">erpc</text>
</g>
<!-- Node0&#45;&gt;Node18 -->
<g id="edge18" class="edge"><title>Node0&#45;&gt;Node18</title>
<path fill="none" stroke="blueviolet" stroke-dasharray="5,2" d="M148.997,-332.738C151.957,-361.172 163.717,-449.163 200.384,-510.5 212.23,-530.318 218.293,-534.207 237.837,-546.5 245.401,-551.258 254.414,-555.045 262.589,-557.894"/>
<text text-anchor="middle" x="210.11" y="-535.5" font-family="Helvetica,sans-Serif" font-size="10.00">erpc</text>
</g>
<!-- Node0&#45;&gt;Node14 -->
<g id="edge14" class="edge"><title>Node0&#45;&gt;Node14</title>
<path fill="none" stroke="blueviolet" stroke-dasharray="5,2" d="M149.77,-332.601C154.436,-357.031 169.574,-425.448 200.384,-473.5 212.846,-492.937 218.293,-497.207 237.837,-509.5 245.401,-514.258 254.414,-518.045 262.589,-520.894"/>
<text text-anchor="middle" x="210.11" y="-498.5" font-family="Helvetica,sans-Serif" font-size="10.00">erpc</text>
</g>
<!-- Node0&#45;&gt;Node2 -->
<g id="edge2" class="edge"><title>Node0&#45;&gt;Node2</title>
<path fill="none" stroke="blueviolet" stroke-dasharray="5,2" d="M151.208,-332.795C158.046,-352.767 175.91,-400.776 200.384,-435.5 213.864,-454.626 218.116,-459.907 237.837,-472.5 246.423,-477.983 256.924,-482.152 265.932,-485.09"/>
<text text-anchor="middle" x="210.11" y="-461.5" font-family="Helvetica,sans-Serif" font-size="10.00">erpc</text>
</g>
<!-- Node0&#45;&gt;Node3 -->
<g id="edge3" class="edge"><title>Node0&#45;&gt;Node3</title>
<path fill="none" stroke="blueviolet" stroke-dasharray="5,2" d="M152.75,-332.772C164.025,-354.464 195.242,-408.709 237.837,-435.5 243.434,-439.021 249.825,-442.01 256.082,-444.481"/>
<text text-anchor="middle" x="210.11" y="-423.5" font-family="Helvetica,sans-Serif" font-size="10.00">erpc</text>
</g>
<!-- Node0&#45;&gt;Node15 -->
<g id="edge15" class="edge"><title>Node0&#45;&gt;Node15</title>
<path fill="none" stroke="blueviolet" stroke-dasharray="5,2" d="M156.778,-332.52C171.918,-347.903 204.804,-379.396 237.837,-398.5 243.793,-401.945 250.529,-404.946 257.036,-407.458"/>
<text text-anchor="middle" x="210.11" y="-387.5" font-family="Helvetica,sans-Serif" font-size="10.00">erpc</text>
</g>
<!-- Node0&#45;&gt;Node4 -->
<g id="edge4" class="edge"><title>Node0&#45;&gt;Node4</title>
<path fill="none" stroke="blueviolet" stroke-dasharray="5,2" d="M168.42,-332.617C178.068,-336.907 189.787,-342.047 200.384,-346.5 216.914,-353.447 221.113,-355.031 237.837,-361.5 245.838,-364.595 254.619,-367.9 262.47,-370.822"/>
<text text-anchor="middle" x="210.11" y="-355.5" font-family="Helvetica,sans-Serif" font-size="10.00">erpc</text>
</g>
<!-- Node0&#45;&gt;Node10 -->
<g id="edge10" class="edge"><title>Node0&#45;&gt;Node10</title>
<path fill="none" stroke="blueviolet" stroke-dasharray="5,2" d="M182.592,-328.245C206.367,-331.521 237.516,-335.812 259.402,-338.828"/>
<text text-anchor="middle" x="210.11" y="-334.5" font-family="Helvetica,sans-Serif" font-size="10.00">erpc</text>
</g>
<!-- Node0&#45;&gt;Node17 -->
<g id="edge17" class="edge"><title>Node0&#45;&gt;Node17</title>
<path fill="none" stroke="blueviolet" stroke-dasharray="5,2" d="M180.561,-314.444C187.08,-312.903 193.917,-311.485 200.384,-310.5 219.09,-307.652 240.321,-306.399 256.969,-305.86"/>
<text text-anchor="middle" x="210.11" y="-312.5" font-family="Helvetica,sans-Serif" font-size="10.00">erpc</text>
</g>
<!-- Node0&#45;&gt;Node19 -->
<g id="edge19" class="edge"><title>Node0&#45;&gt;Node19</title>
<path fill="none" stroke="blueviolet" stroke-dasharray="5,2" d="M162.81,-314.255C173.054,-308.075 187.204,-300.084 200.384,-294.5 221.852,-285.405 247.576,-278.042 265.198,-273.503"/>
<text text-anchor="middle" x="210.11" y="-296.5" font-family="Helvetica,sans-Serif" font-size="10.00">erpc</text>
</g>
<!-- Node0&#45;&gt;Node16 -->
<g id="edge16" class="edge"><title>Node0&#45;&gt;Node16</title>
<path fill="none" stroke="blueviolet" stroke-dasharray="5,2" d="M156.546,-314.461C166.493,-304 183.81,-286.542 200.384,-273.5 215.92,-261.274 220.153,-258.34 237.837,-249.5 244.471,-246.184 251.872,-243.126 258.846,-240.507"/>
<text text-anchor="middle" x="210.11" y="-275.5" font-family="Helvetica,sans-Serif" font-size="10.00">erpc</text>
</g>
<!-- Node0&#45;&gt;Node5 -->
<g id="edge5" class="edge"><title>Node0&#45;&gt;Node5</title>
<path fill="none" stroke="blueviolet" stroke-dasharray="5,2" d="M152.705,-314.2C163.883,-292.462 194.906,-238.221 237.837,-212.5 245.962,-207.632 255.626,-203.709 264.161,-200.784"/>
<text text-anchor="middle" x="210.11" y="-244.5" font-family="Helvetica,sans-Serif" font-size="10.00">erpc</text>
</g>
<!-- Node0&#45;&gt;Node9 -->
<g id="edge9" class="edge"><title>Node0&#45;&gt;Node9</title>
<path fill="none" stroke="blueviolet" stroke-dasharray="5,2" d="M151.226,-314.29C158.101,-294.501 176.03,-246.927 200.384,-212.5 213.897,-193.397 218.116,-188.093 237.837,-175.5 243.335,-171.989 249.618,-169.017 255.792,-166.562"/>
<text text-anchor="middle" x="210.11" y="-214.5" font-family="Helvetica,sans-Serif" font-size="10.00">erpc</text>
</g>
<!-- Node0&#45;&gt;Node7 -->
<g id="edge7" class="edge"><title>Node0&#45;&gt;Node7</title>
<path fill="none" stroke="blueviolet" stroke-dasharray="5,2" d="M149.784,-314.46C154.487,-290.193 169.707,-222.235 200.384,-174.5 212.866,-155.076 218.293,-150.793 237.837,-138.5 243.434,-134.979 249.825,-131.99 256.082,-129.519"/>
<text text-anchor="middle" x="210.11" y="-176.5" font-family="Helvetica,sans-Serif" font-size="10.00">erpc</text>
</g>
<!-- Node0&#45;&gt;Node13 -->
<g id="edge13" class="edge"><title>Node0&#45;&gt;Node13</title>
<path fill="none" stroke="blueviolet" stroke-dasharray="5,2" d="M149.009,-314.312C152.004,-286.029 163.857,-198.508 200.384,-137.5 212.244,-117.691 218.293,-113.793 237.837,-101.5 243.434,-97.9794 249.825,-94.9902 256.082,-92.5192"/>
<text text-anchor="middle" x="210.11" y="-139.5" font-family="Helvetica,sans-Serif" font-size="10.00">erpc</text>
</g>
<!-- Node11 -->
<g id="node19" class="node"><title>Node11</title>
<g id="a_node19"><a xlink:href="group__rpmsg__lite__rtos__transport.html" target="_top" xlink:title="RPMsg&#45;Lite transport using RTOS API. ">
<polygon fill="white" stroke="black" points="237.837,-37.5 237.837,-55.5 336.278,-55.5 336.278,-37.5 237.837,-37.5"/>
<text text-anchor="middle" x="287.058" y="-43.5" font-family="Helvetica,sans-Serif" font-size="10.00">RPMsg&#45;Lite RTOS</text>
</a>
</g>
</g>
<!-- Node0&#45;&gt;Node11 -->
<g id="edge11" class="edge"><title>Node0&#45;&gt;Node11</title>
<path fill="none" stroke="blueviolet" stroke-dasharray="5,2" d="M148.462,-314.335C149.915,-282.581 157.884,-175.136 200.384,-100.5 211.809,-80.4362 218.293,-76.7925 237.837,-64.5 243.434,-60.9794 249.825,-57.9902 256.082,-55.5192"/>
<text text-anchor="middle" x="210.11" y="-102.5" font-family="Helvetica,sans-Serif" font-size="10.00">erpc</text>
</g>
<!-- Node12 -->
<g id="node20" class="node"><title>Node12</title>
<g id="a_node20"><a xlink:href="group__rpmsg__lite__transport.html" target="_top" xlink:title="RPMsg&#45;Lite transport. ">
<polygon fill="white" stroke="black" points="252.939,-0.5 252.939,-18.5 321.176,-18.5 321.176,-0.5 252.939,-0.5"/>
<text text-anchor="middle" x="287.058" y="-6.5" font-family="Helvetica,sans-Serif" font-size="10.00">RPMsg&#45;Lite</text>
</a>
</g>
</g>
<!-- Node0&#45;&gt;Node12 -->
<g id="edge12" class="edge"><title>Node0&#45;&gt;Node12</title>
<path fill="none" stroke="blueviolet" stroke-dasharray="5,2" d="M148.018,-314.26C147.916,-279.061 151.122,-150.903 200.384,-62.5 211.474,-42.5985 218.467,-39.4938 237.837,-27.5 243.459,-24.0189 249.86,-21.0463 256.12,-18.579"/>
<text text-anchor="middle" x="210.11" y="-64.5" font-family="Helvetica,sans-Serif" font-size="10.00">erpc</text>
</g>
</g>
</svg>
