<?xml version="1.0" encoding="UTF-8" standalone="no"?>
<!DOCTYPE svg PUBLIC "-//W3C//DTD SVG 1.1//EN"
 "http://www.w3.org/Graphics/SVG/1.1/DTD/svg11.dtd">
<!-- Generated by graphviz version 2.38.0 (20140413.2041)
 -->
<!-- Title: Inter&#45;thread Pages: 1 -->
<svg width="358pt" height="656pt"
 viewBox="0.00 0.00 357.81 656.00" xmlns="http://www.w3.org/2000/svg" xmlns:xlink="http://www.w3.org/1999/xlink">
<g id="graph0" class="graph" transform="scale(1 1) rotate(0) translate(4 652)">
<title>Inter&#45;thread</title>
<polygon fill="white" stroke="none" points="-4,4 -4,-652 353.809,-652 353.809,4 -4,4"/>
<!-- Node1 -->
<g id="node1" class="node"><title>Node1</title>
<g id="a_node1"><a xlink:href="group__transports.html" target="_top" xlink:title="Transport layer classes. ">
<polygon fill="white" stroke="black" points="0,-314.5 0,-332.5 91.2197,-332.5 91.2197,-314.5 0,-314.5"/>
<text text-anchor="middle" x="45.6099" y="-320.5" font-family="Helvetica,sans-Serif" font-size="10.00">Transport Layers</text>
</a>
</g>
</g>
<!-- Node0 -->
<g id="node15" class="node"><title>Node0</title>
<polygon fill="#bfbfbf" stroke="black" points="128.22,-314.5 128.22,-332.5 195.914,-332.5 195.914,-314.5 128.22,-314.5"/>
<text text-anchor="middle" x="162.067" y="-320.5" font-family="Helvetica,sans-Serif" font-size="10.00">Inter&#45;thread</text>
</g>
<!-- Node1&#45;&gt;Node0 -->
<g id="edge1" class="edge"><title>Node1&#45;&gt;Node0</title>
<path fill="none" stroke="black" d="M101.611,-323.5C110.621,-323.5 119.705,-323.5 127.967,-323.5"/>
<polygon fill="black" stroke="black" points="101.518,-320 91.5178,-323.5 101.518,-327 101.518,-320"/>
</g>
<!-- Node9 -->
<g id="node2" class="node"><title>Node9</title>
<g id="a_node2"><a xlink:href="group__dspi__slave__transport.html" target="_top" xlink:title="Kinetis SDK DSPI slave driver transport. ">
<polygon fill="white" stroke="black" points="267.021,-629.5 267.021,-647.5 334.154,-647.5 334.154,-629.5 267.021,-629.5"/>
<text text-anchor="middle" x="300.588" y="-635.5" font-family="Helvetica,sans-Serif" font-size="10.00">DSPI Slave</text>
</a>
</g>
</g>
<!-- Node7 -->
<g id="node3" class="node"><title>Node7</title>
<g id="a_node3"><a xlink:href="group__port__threads.html" target="_top" xlink:title="Threading model. ">
<polygon fill="white" stroke="black" points="274.246,-592.5 274.246,-610.5 326.93,-610.5 326.93,-592.5 274.246,-592.5"/>
<text text-anchor="middle" x="300.588" y="-598.5" font-family="Helvetica,sans-Serif" font-size="10.00">Threads</text>
</a>
</g>
</g>
<!-- Node18 -->
<g id="node4" class="node"><title>Node18</title>
<g id="a_node4"><a xlink:href="group__tcp__transport.html" target="_top" xlink:title="Simple TCP/IP transport. ">
<polygon fill="white" stroke="black" points="276.475,-555.5 276.475,-573.5 324.701,-573.5 324.701,-555.5 276.475,-555.5"/>
<text text-anchor="middle" x="300.588" y="-561.5" font-family="Helvetica,sans-Serif" font-size="10.00">TCP/IP</text>
</a>
</g>
</g>
<!-- Node14 -->
<g id="node5" class="node"><title>Node14</title>
<g id="a_node5"><a xlink:href="group__rpmsg__transport.html" target="_top" xlink:title="OpenAMP RPMsg transport. ">
<polygon fill="white" stroke="black" points="276.196,-518.5 276.196,-536.5 324.979,-536.5 324.979,-518.5 276.196,-518.5"/>
<text text-anchor="middle" x="300.588" y="-524.5" font-family="Helvetica,sans-Serif" font-size="10.00">RPMsg</text>
</a>
</g>
</g>
<!-- Node2 -->
<g id="node6" class="node"><title>Node2</title>
<g id="a_node6"><a xlink:href="group__infra__client.html" target="_top" xlink:title="Client classes. ">
<polygon fill="white" stroke="black" points="279.805,-481.5 279.805,-499.5 321.371,-499.5 321.371,-481.5 279.805,-481.5"/>
<text text-anchor="middle" x="300.588" y="-487.5" font-family="Helvetica,sans-Serif" font-size="10.00">Client</text>
</a>
</g>
</g>
<!-- Node4 -->
<g id="node7" class="node"><title>Node4</title>
<g id="a_node7"><a xlink:href="group__infra__transport.html" target="_top" xlink:title="Superclasses for building transports. ">
<polygon fill="white" stroke="black" points="268.875,-444.5 268.875,-462.5 332.301,-462.5 332.301,-444.5 268.875,-444.5"/>
<text text-anchor="middle" x="300.588" y="-450.5" font-family="Helvetica,sans-Serif" font-size="10.00">Transports</text>
</a>
</g>
</g>
<!-- Node15 -->
<g id="node8" class="node"><title>Node15</title>
<g id="a_node8"><a xlink:href="group__serial__transport.html" target="_top" xlink:title="POSIX and Win32 serial port transport. ">
<polygon fill="white" stroke="black" points="269.8,-407.5 269.8,-425.5 331.376,-425.5 331.376,-407.5 269.8,-407.5"/>
<text text-anchor="middle" x="300.588" y="-413.5" font-family="Helvetica,sans-Serif" font-size="10.00">Serial port</text>
</a>
</g>
</g>
<!-- Node5 -->
<g id="node9" class="node"><title>Node5</title>
<g id="a_node9"><a xlink:href="group__infra__utility.html" target="_top" xlink:title="Utility code used by the infrastructure. ">
<polygon fill="white" stroke="black" points="276.475,-370.5 276.475,-388.5 324.701,-388.5 324.701,-370.5 276.475,-370.5"/>
<text text-anchor="middle" x="300.588" y="-376.5" font-family="Helvetica,sans-Serif" font-size="10.00">Utilities</text>
</a>
</g>
</g>
<!-- Node10 -->
<g id="node10" class="node"><title>Node10</title>
<g id="a_node10"><a xlink:href="group__lpuart__transport.html" target="_top" xlink:title="Kinetis SDK LPUART driver transport. ">
<polygon fill="white" stroke="black" points="272.949,-333.5 272.949,-351.5 328.227,-351.5 328.227,-333.5 272.949,-333.5"/>
<text text-anchor="middle" x="300.588" y="-339.5" font-family="Helvetica,sans-Serif" font-size="10.00">LPUART</text>
</a>
</g>
</g>
<!-- Node17 -->
<g id="node11" class="node"><title>Node17</title>
<g id="a_node11"><a xlink:href="group__spi__slave__transport.html" target="_top" xlink:title="Kinetis SDK SPI slave driver transport. ">
<polygon fill="white" stroke="black" points="270.632,-296.5 270.632,-314.5 330.543,-314.5 330.543,-296.5 270.632,-296.5"/>
<text text-anchor="middle" x="300.588" y="-302.5" font-family="Helvetica,sans-Serif" font-size="10.00">SPI Slave</text>
</a>
</g>
</g>
<!-- Node19 -->
<g id="node12" class="node"><title>Node19</title>
<g id="a_node12"><a xlink:href="group__uart__transport.html" target="_top" xlink:title="Kinetis SDK UART driver transport. ">
<polygon fill="white" stroke="black" points="279.065,-259.5 279.065,-277.5 322.111,-277.5 322.111,-259.5 279.065,-259.5"/>
<text text-anchor="middle" x="300.588" y="-265.5" font-family="Helvetica,sans-Serif" font-size="10.00">UART</text>
</a>
</g>
</g>
<!-- Node16 -->
<g id="node13" class="node"><title>Node16</title>
<g id="a_node13"><a xlink:href="group__spi__master__transport.html" target="_top" xlink:title="Kinetis SDK SPI master driver transport. ">
<polygon fill="white" stroke="black" points="267.859,-222.5 267.859,-240.5 333.317,-240.5 333.317,-222.5 267.859,-222.5"/>
<text text-anchor="middle" x="300.588" y="-228.5" font-family="Helvetica,sans-Serif" font-size="10.00">SPI Master</text>
</a>
</g>
</g>
<!-- Node6 -->
<g id="node14" class="node"><title>Node6</title>
<g id="a_node14"><a xlink:href="group__infra__server.html" target="_top" xlink:title="Server classes. ">
<polygon fill="white" stroke="black" points="277.861,-185.5 277.861,-203.5 323.314,-203.5 323.314,-185.5 277.861,-185.5"/>
<text text-anchor="middle" x="300.588" y="-191.5" font-family="Helvetica,sans-Serif" font-size="10.00">Server</text>
</a>
</g>
</g>
<!-- Node0&#45;&gt;Node9 -->
<g id="edge9" class="edge"><title>Node0&#45;&gt;Node9</title>
<path fill="none" stroke="blueviolet" stroke-dasharray="5,2" d="M162.867,-332.773C162.5,-368.097 164.779,-496.716 213.914,-585.5 224.946,-605.434 231.997,-608.506 251.367,-620.5 256.989,-623.981 263.39,-626.954 269.65,-629.421"/>
<text text-anchor="middle" x="223.641" y="-610.5" font-family="Helvetica,sans-Serif" font-size="10.00">erpc</text>
</g>
<!-- Node0&#45;&gt;Node7 -->
<g id="edge7" class="edge"><title>Node0&#45;&gt;Node7</title>
<path fill="none" stroke="blueviolet" stroke-dasharray="5,2" d="M163.3,-332.704C164.476,-364.594 171.549,-472.502 213.914,-547.5 225.27,-567.603 231.823,-571.207 251.367,-583.5 258.326,-587.877 266.511,-591.433 274.142,-594.192"/>
<text text-anchor="middle" x="223.641" y="-573.5" font-family="Helvetica,sans-Serif" font-size="10.00">erpc</text>
</g>
<!-- Node0&#45;&gt;Node18 -->
<g id="edge18" class="edge"><title>Node0&#45;&gt;Node18</title>
<path fill="none" stroke="blueviolet" stroke-dasharray="5,2" d="M163.832,-332.737C166.536,-361.169 177.529,-449.153 213.914,-510.5 225.692,-530.358 231.823,-534.207 251.367,-546.5 258.931,-551.258 267.944,-555.045 276.119,-557.894"/>
<text text-anchor="middle" x="223.641" y="-535.5" font-family="Helvetica,sans-Serif" font-size="10.00">erpc</text>
</g>
<!-- Node0&#45;&gt;Node14 -->
<g id="edge14" class="edge"><title>Node0&#45;&gt;Node14</title>
<path fill="none" stroke="blueviolet" stroke-dasharray="5,2" d="M164.588,-332.602C168.984,-357.035 183.39,-425.457 213.914,-473.5 226.296,-492.988 231.823,-497.207 251.367,-509.5 258.931,-514.258 267.944,-518.045 276.119,-520.894"/>
<text text-anchor="middle" x="223.641" y="-498.5" font-family="Helvetica,sans-Serif" font-size="10.00">erpc</text>
</g>
<!-- Node0&#45;&gt;Node2 -->
<g id="edge2" class="edge"><title>Node0&#45;&gt;Node2</title>
<path fill="none" stroke="blueviolet" stroke-dasharray="5,2" d="M165.892,-332.5C172.366,-352.299 189.611,-400.64 213.914,-435.5 227.296,-454.694 231.646,-459.907 251.367,-472.5 259.953,-477.983 270.454,-482.152 279.463,-485.09"/>
<text text-anchor="middle" x="223.641" y="-461.5" font-family="Helvetica,sans-Serif" font-size="10.00">erpc</text>
</g>
<!-- Node0&#45;&gt;Node4 -->
<g id="edge4" class="edge"><title>Node0&#45;&gt;Node4</title>
<path fill="none" stroke="blueviolet" stroke-dasharray="5,2" d="M167.359,-332.511C178.149,-354.118 208.632,-409.039 251.367,-435.5 256.989,-438.981 263.39,-441.954 269.65,-444.421"/>
<text text-anchor="middle" x="223.641" y="-423.5" font-family="Helvetica,sans-Serif" font-size="10.00">erpc</text>
</g>
<!-- Node0&#45;&gt;Node15 -->
<g id="edge15" class="edge"><title>Node0&#45;&gt;Node15</title>
<path fill="none" stroke="blueviolet" stroke-dasharray="5,2" d="M171.487,-332.613C186.277,-348.135 218.483,-379.833 251.367,-398.5 257.429,-401.941 264.273,-404.956 270.86,-407.485"/>
<text text-anchor="middle" x="223.641" y="-388.5" font-family="Helvetica,sans-Serif" font-size="10.00">erpc</text>
</g>
<!-- Node0&#45;&gt;Node5 -->
<g id="edge5" class="edge"><title>Node0&#45;&gt;Node5</title>
<path fill="none" stroke="blueviolet" stroke-dasharray="5,2" d="M182.779,-332.659C192.166,-336.958 203.575,-342.094 213.914,-346.5 230.41,-353.53 234.644,-355.031 251.367,-361.5 259.368,-364.595 268.149,-367.9 276,-370.822"/>
<text text-anchor="middle" x="223.641" y="-356.5" font-family="Helvetica,sans-Serif" font-size="10.00">erpc</text>
</g>
<!-- Node0&#45;&gt;Node10 -->
<g id="edge10" class="edge"><title>Node0&#45;&gt;Node10</title>
<path fill="none" stroke="blueviolet" stroke-dasharray="5,2" d="M196.115,-328.099C219.631,-331.372 250.826,-335.714 272.794,-338.771"/>
<text text-anchor="middle" x="223.641" y="-334.5" font-family="Helvetica,sans-Serif" font-size="10.00">erpc</text>
</g>
<!-- Node0&#45;&gt;Node17 -->
<g id="edge17" class="edge"><title>Node0&#45;&gt;Node17</title>
<path fill="none" stroke="blueviolet" stroke-dasharray="5,2" d="M194.607,-314.437C200.954,-312.896 207.612,-311.48 213.914,-310.5 232.611,-307.592 253.842,-306.339 270.492,-305.814"/>
<text text-anchor="middle" x="223.641" y="-312.5" font-family="Helvetica,sans-Serif" font-size="10.00">erpc</text>
</g>
<!-- Node0&#45;&gt;Node19 -->
<g id="edge19" class="edge"><title>Node0&#45;&gt;Node19</title>
<path fill="none" stroke="blueviolet" stroke-dasharray="5,2" d="M176.39,-314.39C186.373,-307.879 200.557,-299.281 213.914,-293.5 235.385,-284.207 261.335,-277.179 279.009,-272.977"/>
<text text-anchor="middle" x="223.641" y="-295.5" font-family="Helvetica,sans-Serif" font-size="10.00">erpc</text>
</g>
<!-- Node0&#45;&gt;Node16 -->
<g id="edge16" class="edge"><title>Node0&#45;&gt;Node16</title>
<path fill="none" stroke="blueviolet" stroke-dasharray="5,2" d="M170.658,-314.258C180.044,-303.203 196.876,-284.555 213.914,-271.5 229.062,-259.893 234.127,-258.683 251.367,-250.5 258.846,-246.95 267.177,-243.498 274.782,-240.532"/>
<text text-anchor="middle" x="223.641" y="-273.5" font-family="Helvetica,sans-Serif" font-size="10.00">erpc</text>
</g>
<!-- Node0&#45;&gt;Node6 -->
<g id="edge6" class="edge"><title>Node0&#45;&gt;Node6</title>
<path fill="none" stroke="blueviolet" stroke-dasharray="5,2" d="M167.877,-314.101C176.062,-298.615 193.782,-267.195 213.914,-244.5 228.254,-228.335 232.761,-224.486 251.367,-213.5 259.58,-208.651 269.259,-204.559 277.782,-201.43"/>
<text text-anchor="middle" x="223.641" y="-246.5" font-family="Helvetica,sans-Serif" font-size="10.00">erpc</text>
</g>
<!-- Node8 -->
<g id="node16" class="node"><title>Node8</title>
<g id="a_node16"><a xlink:href="group__dspi__master__transport.html" target="_top" xlink:title="Kinetis SDK DSPI master driver transport. ">
<polygon fill="white" stroke="black" points="264.248,-148.5 264.248,-166.5 336.928,-166.5 336.928,-148.5 264.248,-148.5"/>
<text text-anchor="middle" x="300.588" y="-154.5" font-family="Helvetica,sans-Serif" font-size="10.00">DSPI Master</text>
</a>
</g>
</g>
<!-- Node0&#45;&gt;Node8 -->
<g id="edge8" class="edge"><title>Node0&#45;&gt;Node8</title>
<path fill="none" stroke="blueviolet" stroke-dasharray="5,2" d="M165.765,-314.34C171.984,-294.205 188.753,-245.136 213.914,-210.5 227.127,-192.311 232.274,-188.37 251.367,-176.5 257.633,-172.604 264.833,-169.255 271.724,-166.501"/>
<text text-anchor="middle" x="223.641" y="-212.5" font-family="Helvetica,sans-Serif" font-size="10.00">erpc</text>
</g>
<!-- Node13 -->
<g id="node17" class="node"><title>Node13</title>
<g id="a_node17"><a xlink:href="group__rpmsg__rtos__transport.html" target="_top" xlink:title="OpenAMP RPMsg RTOS layer transport. ">
<polygon fill="white" stroke="black" points="261.094,-111.5 261.094,-129.5 340.082,-129.5 340.082,-111.5 261.094,-111.5"/>
<text text-anchor="middle" x="300.588" y="-117.5" font-family="Helvetica,sans-Serif" font-size="10.00">RPMsg RTOS</text>
</a>
</g>
</g>
<!-- Node0&#45;&gt;Node13 -->
<g id="edge13" class="edge"><title>Node0&#45;&gt;Node13</title>
<path fill="none" stroke="blueviolet" stroke-dasharray="5,2" d="M164.513,-314.349C168.723,-289.797 182.709,-221.103 213.914,-173.5 226.239,-154.698 232.274,-151.37 251.367,-139.5 257.633,-135.604 264.833,-132.255 271.724,-129.501"/>
<text text-anchor="middle" x="223.641" y="-175.5" font-family="Helvetica,sans-Serif" font-size="10.00">erpc</text>
</g>
<!-- Node3 -->
<g id="node18" class="node"><title>Node3</title>
<g id="a_node18"><a xlink:href="group__infra__codec.html" target="_top" xlink:title="Classes used for message serialization. ">
<polygon fill="white" stroke="black" points="265.352,-74.5 265.352,-92.5 335.824,-92.5 335.824,-74.5 265.352,-74.5"/>
<text text-anchor="middle" x="300.588" y="-80.5" font-family="Helvetica,sans-Serif" font-size="10.00">Serialization</text>
</a>
</g>
</g>
<!-- Node0&#45;&gt;Node3 -->
<g id="edge3" class="edge"><title>Node0&#45;&gt;Node3</title>
<path fill="none" stroke="blueviolet" stroke-dasharray="5,2" d="M163.755,-314.217C166.237,-285.65 176.658,-197.322 213.914,-136.5 225.657,-117.329 232.274,-114.37 251.367,-102.5 257.633,-98.6043 264.833,-95.2549 271.724,-92.5015"/>
<text text-anchor="middle" x="223.641" y="-138.5" font-family="Helvetica,sans-Serif" font-size="10.00">erpc</text>
</g>
<!-- Node11 -->
<g id="node19" class="node"><title>Node11</title>
<g id="a_node19"><a xlink:href="group__rpmsg__lite__rtos__transport.html" target="_top" xlink:title="RPMsg&#45;Lite transport using RTOS API. ">
<polygon fill="white" stroke="black" points="251.367,-37.5 251.367,-55.5 349.809,-55.5 349.809,-37.5 251.367,-37.5"/>
<text text-anchor="middle" x="300.588" y="-43.5" font-family="Helvetica,sans-Serif" font-size="10.00">RPMsg&#45;Lite RTOS</text>
</a>
</g>
</g>
<!-- Node0&#45;&gt;Node11 -->
<g id="edge11" class="edge"><title>Node0&#45;&gt;Node11</title>
<path fill="none" stroke="blueviolet" stroke-dasharray="5,2" d="M163.222,-314.251C164.143,-282.215 170.484,-173.887 213.914,-99.5 226.613,-77.75 252.133,-63.6992 272.033,-55.5679"/>
<text text-anchor="middle" x="223.641" y="-101.5" font-family="Helvetica,sans-Serif" font-size="10.00">erpc</text>
</g>
<!-- Node12 -->
<g id="node20" class="node"><title>Node12</title>
<g id="a_node20"><a xlink:href="group__rpmsg__lite__transport.html" target="_top" xlink:title="RPMsg&#45;Lite transport. ">
<polygon fill="white" stroke="black" points="266.47,-0.5 266.47,-18.5 334.706,-18.5 334.706,-0.5 266.47,-0.5"/>
<text text-anchor="middle" x="300.588" y="-6.5" font-family="Helvetica,sans-Serif" font-size="10.00">RPMsg&#45;Lite</text>
</a>
</g>
</g>
<!-- Node0&#45;&gt;Node12 -->
<g id="edge12" class="edge"><title>Node0&#45;&gt;Node12</title>
<path fill="none" stroke="blueviolet" stroke-dasharray="5,2" d="M162.837,-314.24C162.358,-278.968 164.291,-150.584 213.914,-62.5 226.19,-40.7094 251.484,-26.7255 271.422,-18.6261"/>
<text text-anchor="middle" x="223.641" y="-64.5" font-family="Helvetica,sans-Serif" font-size="10.00">erpc</text>
</g>
</g>
</svg>
