<?xml version="1.0" encoding="UTF-8" standalone="no"?>
<!DOCTYPE svg PUBLIC "-//W3C//DTD SVG 1.1//EN"
 "http://www.w3.org/Graphics/SVG/1.1/DTD/svg11.dtd">
<!-- Generated by graphviz version 2.38.0 (20140413.2041)
 -->
<!-- Title: LPUART Pages: 1 -->
<svg width="345pt" height="656pt"
 viewBox="0.00 0.00 345.39 656.00" xmlns="http://www.w3.org/2000/svg" xmlns:xlink="http://www.w3.org/1999/xlink">
<g id="graph0" class="graph" transform="scale(1 1) rotate(0) translate(4 652)">
<title>LPUART</title>
<polygon fill="white" stroke="none" points="-4,4 -4,-652 341.392,-652 341.392,4 -4,4"/>
<!-- Node1 -->
<g id="node1" class="node"><title>Node1</title>
<g id="a_node1"><a xlink:href="group__transports.html" target="_top" xlink:title="Transport layer classes. ">
<polygon fill="white" stroke="black" points="0,-314.5 0,-332.5 91.2197,-332.5 91.2197,-314.5 0,-314.5"/>
<text text-anchor="middle" x="45.6099" y="-320.5" font-family="Helvetica,sans-Serif" font-size="10.00">Transport Layers</text>
</a>
</g>
</g>
<!-- Node0 -->
<g id="node10" class="node"><title>Node0</title>
<polygon fill="#bfbfbf" stroke="black" points="128.22,-314.5 128.22,-332.5 183.497,-332.5 183.497,-314.5 128.22,-314.5"/>
<text text-anchor="middle" x="155.858" y="-320.5" font-family="Helvetica,sans-Serif" font-size="10.00">LPUART</text>
</g>
<!-- Node1&#45;&gt;Node0 -->
<g id="edge1" class="edge"><title>Node1&#45;&gt;Node0</title>
<path fill="none" stroke="black" d="M101.29,-323.5C110.57,-323.5 119.827,-323.5 127.972,-323.5"/>
<polygon fill="black" stroke="black" points="101.264,-320 91.2637,-323.5 101.264,-327 101.264,-320"/>
</g>
<!-- Node9 -->
<g id="node2" class="node"><title>Node9</title>
<g id="a_node2"><a xlink:href="group__dspi__slave__transport.html" target="_top" xlink:title="Kinetis SDK DSPI slave driver transport. ">
<polygon fill="white" stroke="black" points="254.604,-629.5 254.604,-647.5 321.737,-647.5 321.737,-629.5 254.604,-629.5"/>
<text text-anchor="middle" x="288.171" y="-635.5" font-family="Helvetica,sans-Serif" font-size="10.00">DSPI Slave</text>
</a>
</g>
</g>
<!-- Node7 -->
<g id="node3" class="node"><title>Node7</title>
<g id="a_node3"><a xlink:href="group__port__threads.html" target="_top" xlink:title="Threading model. ">
<polygon fill="white" stroke="black" points="261.829,-592.5 261.829,-610.5 314.513,-610.5 314.513,-592.5 261.829,-592.5"/>
<text text-anchor="middle" x="288.171" y="-598.5" font-family="Helvetica,sans-Serif" font-size="10.00">Threads</text>
</a>
</g>
</g>
<!-- Node18 -->
<g id="node4" class="node"><title>Node18</title>
<g id="a_node4"><a xlink:href="group__tcp__transport.html" target="_top" xlink:title="Simple TCP/IP transport. ">
<polygon fill="white" stroke="black" points="264.058,-555.5 264.058,-573.5 312.284,-573.5 312.284,-555.5 264.058,-555.5"/>
<text text-anchor="middle" x="288.171" y="-561.5" font-family="Helvetica,sans-Serif" font-size="10.00">TCP/IP</text>
</a>
</g>
</g>
<!-- Node14 -->
<g id="node5" class="node"><title>Node14</title>
<g id="a_node5"><a xlink:href="group__rpmsg__transport.html" target="_top" xlink:title="OpenAMP RPMsg transport. ">
<polygon fill="white" stroke="black" points="263.779,-518.5 263.779,-536.5 312.562,-536.5 312.562,-518.5 263.779,-518.5"/>
<text text-anchor="middle" x="288.171" y="-524.5" font-family="Helvetica,sans-Serif" font-size="10.00">RPMsg</text>
</a>
</g>
</g>
<!-- Node2 -->
<g id="node6" class="node"><title>Node2</title>
<g id="a_node6"><a xlink:href="group__infra__client.html" target="_top" xlink:title="Client classes. ">
<polygon fill="white" stroke="black" points="267.388,-481.5 267.388,-499.5 308.954,-499.5 308.954,-481.5 267.388,-481.5"/>
<text text-anchor="middle" x="288.171" y="-487.5" font-family="Helvetica,sans-Serif" font-size="10.00">Client</text>
</a>
</g>
</g>
<!-- Node4 -->
<g id="node7" class="node"><title>Node4</title>
<g id="a_node7"><a xlink:href="group__infra__transport.html" target="_top" xlink:title="Superclasses for building transports. ">
<polygon fill="white" stroke="black" points="256.458,-444.5 256.458,-462.5 319.884,-462.5 319.884,-444.5 256.458,-444.5"/>
<text text-anchor="middle" x="288.171" y="-450.5" font-family="Helvetica,sans-Serif" font-size="10.00">Transports</text>
</a>
</g>
</g>
<!-- Node15 -->
<g id="node8" class="node"><title>Node15</title>
<g id="a_node8"><a xlink:href="group__serial__transport.html" target="_top" xlink:title="POSIX and Win32 serial port transport. ">
<polygon fill="white" stroke="black" points="257.383,-407.5 257.383,-425.5 318.959,-425.5 318.959,-407.5 257.383,-407.5"/>
<text text-anchor="middle" x="288.171" y="-413.5" font-family="Helvetica,sans-Serif" font-size="10.00">Serial port</text>
</a>
</g>
</g>
<!-- Node5 -->
<g id="node9" class="node"><title>Node5</title>
<g id="a_node9"><a xlink:href="group__infra__utility.html" target="_top" xlink:title="Utility code used by the infrastructure. ">
<polygon fill="white" stroke="black" points="264.058,-370.5 264.058,-388.5 312.284,-388.5 312.284,-370.5 264.058,-370.5"/>
<text text-anchor="middle" x="288.171" y="-376.5" font-family="Helvetica,sans-Serif" font-size="10.00">Utilities</text>
</a>
</g>
</g>
<!-- Node0&#45;&gt;Node9 -->
<g id="edge9" class="edge"><title>Node0&#45;&gt;Node9</title>
<path fill="none" stroke="blueviolet" stroke-dasharray="5,2" d="M156.384,-332.761C154.979,-368.044 153.584,-496.531 201.497,-585.5 212.3,-605.559 219.58,-608.506 238.95,-620.5 244.572,-623.981 250.973,-626.954 257.233,-629.421"/>
<text text-anchor="middle" x="211.224" y="-610.5" font-family="Helvetica,sans-Serif" font-size="10.00">erpc</text>
</g>
<!-- Node0&#45;&gt;Node7 -->
<g id="edge7" class="edge"><title>Node0&#45;&gt;Node7</title>
<path fill="none" stroke="blueviolet" stroke-dasharray="5,2" d="M156.725,-332.757C156.653,-364.827 159.689,-473.324 201.497,-548.5 212.57,-568.411 219.58,-571.506 238.95,-583.5 245.94,-587.828 254.133,-591.37 261.763,-594.132"/>
<text text-anchor="middle" x="211.224" y="-573.5" font-family="Helvetica,sans-Serif" font-size="10.00">erpc</text>
</g>
<!-- Node0&#45;&gt;Node18 -->
<g id="edge18" class="edge"><title>Node0&#45;&gt;Node18</title>
<path fill="none" stroke="blueviolet" stroke-dasharray="5,2" d="M157.247,-332.731C158.804,-361.145 166.353,-449.084 201.497,-510.5 212.964,-530.54 219.406,-534.207 238.95,-546.5 246.514,-551.258 255.527,-555.045 263.702,-557.894"/>
<text text-anchor="middle" x="211.224" y="-536.5" font-family="Helvetica,sans-Serif" font-size="10.00">erpc</text>
</g>
<!-- Node0&#45;&gt;Node14 -->
<g id="edge14" class="edge"><title>Node0&#45;&gt;Node14</title>
<path fill="none" stroke="blueviolet" stroke-dasharray="5,2" d="M157.922,-332.604C161.109,-357.04 172.234,-425.47 201.497,-473.5 213.51,-493.217 219.406,-497.207 238.95,-509.5 246.514,-514.258 255.527,-518.045 263.702,-520.894"/>
<text text-anchor="middle" x="211.224" y="-498.5" font-family="Helvetica,sans-Serif" font-size="10.00">erpc</text>
</g>
<!-- Node0&#45;&gt;Node2 -->
<g id="edge2" class="edge"><title>Node0&#45;&gt;Node2</title>
<path fill="none" stroke="blueviolet" stroke-dasharray="5,2" d="M159.089,-332.521C164.275,-352.362 178.482,-400.781 201.497,-435.5 214.425,-455.003 219.229,-459.907 238.95,-472.5 247.536,-477.983 258.037,-482.152 267.046,-485.09"/>
<text text-anchor="middle" x="211.224" y="-461.5" font-family="Helvetica,sans-Serif" font-size="10.00">erpc</text>
</g>
<!-- Node0&#45;&gt;Node4 -->
<g id="edge4" class="edge"><title>Node0&#45;&gt;Node4</title>
<path fill="none" stroke="blueviolet" stroke-dasharray="5,2" d="M160.607,-332.601C170.102,-354.407 197.341,-409.736 238.95,-435.5 244.572,-438.981 250.973,-441.954 257.233,-444.421"/>
<text text-anchor="middle" x="211.224" y="-423.5" font-family="Helvetica,sans-Serif" font-size="10.00">erpc</text>
</g>
<!-- Node0&#45;&gt;Node15 -->
<g id="edge15" class="edge"><title>Node0&#45;&gt;Node15</title>
<path fill="none" stroke="blueviolet" stroke-dasharray="5,2" d="M164.508,-332.718C177.987,-348.4 207.533,-380.331 238.95,-398.5 244.906,-401.945 251.642,-404.946 258.15,-407.458"/>
<text text-anchor="middle" x="211.224" y="-388.5" font-family="Helvetica,sans-Serif" font-size="10.00">erpc</text>
</g>
<!-- Node0&#45;&gt;Node5 -->
<g id="edge5" class="edge"><title>Node0&#45;&gt;Node5</title>
<path fill="none" stroke="blueviolet" stroke-dasharray="5,2" d="M174.564,-332.501C182.717,-336.574 192.548,-341.387 201.497,-345.5 217.944,-353.059 222.144,-354.778 238.95,-361.5 247.081,-364.752 256.053,-368.152 264.031,-371.11"/>
<text text-anchor="middle" x="211.224" y="-355.5" font-family="Helvetica,sans-Serif" font-size="10.00">erpc</text>
</g>
<!-- Node17 -->
<g id="node11" class="node"><title>Node17</title>
<g id="a_node11"><a xlink:href="group__spi__slave__transport.html" target="_top" xlink:title="Kinetis SDK SPI slave driver transport. ">
<polygon fill="white" stroke="black" points="258.215,-333.5 258.215,-351.5 318.126,-351.5 318.126,-333.5 258.215,-333.5"/>
<text text-anchor="middle" x="288.171" y="-339.5" font-family="Helvetica,sans-Serif" font-size="10.00">SPI Slave</text>
</a>
</g>
</g>
<!-- Node0&#45;&gt;Node17 -->
<g id="edge17" class="edge"><title>Node0&#45;&gt;Node17</title>
<path fill="none" stroke="blueviolet" stroke-dasharray="5,2" d="M183.544,-327.391C205.138,-330.539 235.515,-334.968 257.798,-338.217"/>
<text text-anchor="middle" x="211.224" y="-333.5" font-family="Helvetica,sans-Serif" font-size="10.00">erpc</text>
</g>
<!-- Node19 -->
<g id="node12" class="node"><title>Node19</title>
<g id="a_node12"><a xlink:href="group__uart__transport.html" target="_top" xlink:title="Kinetis SDK UART driver transport. ">
<polygon fill="white" stroke="black" points="266.648,-296.5 266.648,-314.5 309.694,-314.5 309.694,-296.5 266.648,-296.5"/>
<text text-anchor="middle" x="288.171" y="-302.5" font-family="Helvetica,sans-Serif" font-size="10.00">UART</text>
</a>
</g>
</g>
<!-- Node0&#45;&gt;Node19 -->
<g id="edge19" class="edge"><title>Node0&#45;&gt;Node19</title>
<path fill="none" stroke="blueviolet" stroke-dasharray="5,2" d="M183.539,-314.671C189.398,-313.03 195.611,-311.515 201.497,-310.5 223.521,-306.7 249.149,-305.637 266.597,-305.408"/>
<text text-anchor="middle" x="211.224" y="-312.5" font-family="Helvetica,sans-Serif" font-size="10.00">erpc</text>
</g>
<!-- Node16 -->
<g id="node13" class="node"><title>Node16</title>
<g id="a_node13"><a xlink:href="group__spi__master__transport.html" target="_top" xlink:title="Kinetis SDK SPI master driver transport. ">
<polygon fill="white" stroke="black" points="255.442,-259.5 255.442,-277.5 320.9,-277.5 320.9,-259.5 255.442,-259.5"/>
<text text-anchor="middle" x="288.171" y="-265.5" font-family="Helvetica,sans-Serif" font-size="10.00">SPI Master</text>
</a>
</g>
</g>
<!-- Node0&#45;&gt;Node16 -->
<g id="edge16" class="edge"><title>Node0&#45;&gt;Node16</title>
<path fill="none" stroke="blueviolet" stroke-dasharray="5,2" d="M168.387,-314.295C177.068,-307.737 189.489,-299.121 201.497,-293.5 218.617,-285.486 238.877,-279.432 255.396,-275.291"/>
<text text-anchor="middle" x="211.224" y="-295.5" font-family="Helvetica,sans-Serif" font-size="10.00">erpc</text>
</g>
<!-- Node6 -->
<g id="node14" class="node"><title>Node6</title>
<g id="a_node14"><a xlink:href="group__infra__server.html" target="_top" xlink:title="Server classes. ">
<polygon fill="white" stroke="black" points="265.444,-222.5 265.444,-240.5 310.897,-240.5 310.897,-222.5 265.444,-222.5"/>
<text text-anchor="middle" x="288.171" y="-228.5" font-family="Helvetica,sans-Serif" font-size="10.00">Server</text>
</a>
</g>
</g>
<!-- Node0&#45;&gt;Node6 -->
<g id="edge6" class="edge"><title>Node0&#45;&gt;Node6</title>
<path fill="none" stroke="blueviolet" stroke-dasharray="5,2" d="M163.289,-314.177C171.299,-303.042 185.849,-284.316 201.497,-271.5 220.673,-255.794 247.035,-244.7 265.434,-238.241"/>
<text text-anchor="middle" x="211.224" y="-273.5" font-family="Helvetica,sans-Serif" font-size="10.00">erpc</text>
</g>
<!-- Node10 -->
<g id="node15" class="node"><title>Node10</title>
<g id="a_node15"><a xlink:href="group__itbp__transport.html" target="_top" xlink:title="Simple inter&#45;thread communications transport. ">
<polygon fill="white" stroke="black" points="254.324,-185.5 254.324,-203.5 322.018,-203.5 322.018,-185.5 254.324,-185.5"/>
<text text-anchor="middle" x="288.171" y="-191.5" font-family="Helvetica,sans-Serif" font-size="10.00">Inter&#45;thread</text>
</a>
</g>
</g>
<!-- Node0&#45;&gt;Node10 -->
<g id="edge10" class="edge"><title>Node0&#45;&gt;Node10</title>
<path fill="none" stroke="blueviolet" stroke-dasharray="5,2" d="M160.546,-314.397C167.163,-298.771 182.184,-266.327 201.497,-243.5 215.272,-227.218 220.499,-224.196 238.95,-213.5 245.489,-209.709 252.929,-206.361 259.974,-203.572"/>
<text text-anchor="middle" x="211.224" y="-245.5" font-family="Helvetica,sans-Serif" font-size="10.00">erpc</text>
</g>
<!-- Node8 -->
<g id="node16" class="node"><title>Node8</title>
<g id="a_node16"><a xlink:href="group__dspi__master__transport.html" target="_top" xlink:title="Kinetis SDK DSPI master driver transport. ">
<polygon fill="white" stroke="black" points="251.831,-148.5 251.831,-166.5 324.511,-166.5 324.511,-148.5 251.831,-148.5"/>
<text text-anchor="middle" x="288.171" y="-154.5" font-family="Helvetica,sans-Serif" font-size="10.00">DSPI Master</text>
</a>
</g>
</g>
<!-- Node0&#45;&gt;Node8 -->
<g id="edge8" class="edge"><title>Node0&#45;&gt;Node8</title>
<path fill="none" stroke="blueviolet" stroke-dasharray="5,2" d="M158.904,-314.215C163.72,-293.815 177.236,-244.148 201.497,-209.5 214.222,-191.327 220.023,-188.074 238.95,-176.5 245.245,-172.651 252.455,-169.318 259.347,-166.566"/>
<text text-anchor="middle" x="211.224" y="-211.5" font-family="Helvetica,sans-Serif" font-size="10.00">erpc</text>
</g>
<!-- Node13 -->
<g id="node17" class="node"><title>Node13</title>
<g id="a_node17"><a xlink:href="group__rpmsg__rtos__transport.html" target="_top" xlink:title="OpenAMP RPMsg RTOS layer transport. ">
<polygon fill="white" stroke="black" points="248.677,-111.5 248.677,-129.5 327.665,-129.5 327.665,-111.5 248.677,-111.5"/>
<text text-anchor="middle" x="288.171" y="-117.5" font-family="Helvetica,sans-Serif" font-size="10.00">RPMsg RTOS</text>
</a>
</g>
</g>
<!-- Node0&#45;&gt;Node13 -->
<g id="edge13" class="edge"><title>Node0&#45;&gt;Node13</title>
<path fill="none" stroke="blueviolet" stroke-dasharray="5,2" d="M157.847,-314.35C160.848,-289.799 171.552,-221.108 201.497,-173.5 213.467,-154.47 219.857,-151.37 238.95,-139.5 245.216,-135.604 252.416,-132.255 259.308,-129.501"/>
<text text-anchor="middle" x="211.224" y="-175.5" font-family="Helvetica,sans-Serif" font-size="10.00">erpc</text>
</g>
<!-- Node3 -->
<g id="node18" class="node"><title>Node3</title>
<g id="a_node18"><a xlink:href="group__infra__codec.html" target="_top" xlink:title="Classes used for message serialization. ">
<polygon fill="white" stroke="black" points="252.935,-74.5 252.935,-92.5 323.407,-92.5 323.407,-74.5 252.935,-74.5"/>
<text text-anchor="middle" x="288.171" y="-80.5" font-family="Helvetica,sans-Serif" font-size="10.00">Serialization</text>
</a>
</g>
</g>
<!-- Node0&#45;&gt;Node3 -->
<g id="edge3" class="edge"><title>Node0&#45;&gt;Node3</title>
<path fill="none" stroke="blueviolet" stroke-dasharray="5,2" d="M157.169,-314.224C158.504,-285.68 165.481,-197.409 201.497,-136.5 212.94,-117.148 219.857,-114.37 238.95,-102.5 245.216,-98.6043 252.416,-95.2549 259.308,-92.5015"/>
<text text-anchor="middle" x="211.224" y="-138.5" font-family="Helvetica,sans-Serif" font-size="10.00">erpc</text>
</g>
<!-- Node11 -->
<g id="node19" class="node"><title>Node11</title>
<g id="a_node19"><a xlink:href="group__rpmsg__lite__rtos__transport.html" target="_top" xlink:title="RPMsg&#45;Lite transport using RTOS API. ">
<polygon fill="white" stroke="black" points="238.95,-37.5 238.95,-55.5 337.392,-55.5 337.392,-37.5 238.95,-37.5"/>
<text text-anchor="middle" x="288.171" y="-43.5" font-family="Helvetica,sans-Serif" font-size="10.00">RPMsg&#45;Lite RTOS</text>
</a>
</g>
</g>
<!-- Node0&#45;&gt;Node11 -->
<g id="edge11" class="edge"><title>Node0&#45;&gt;Node11</title>
<path fill="none" stroke="blueviolet" stroke-dasharray="5,2" d="M156.696,-314.262C156.53,-282.261 159.296,-174.034 201.497,-99.5 213.82,-77.7358 239.108,-63.7489 259.032,-55.6415"/>
<text text-anchor="middle" x="211.224" y="-101.5" font-family="Helvetica,sans-Serif" font-size="10.00">erpc</text>
</g>
<!-- Node12 -->
<g id="node20" class="node"><title>Node12</title>
<g id="a_node20"><a xlink:href="group__rpmsg__lite__transport.html" target="_top" xlink:title="RPMsg&#45;Lite transport. ">
<polygon fill="white" stroke="black" points="254.053,-0.5 254.053,-18.5 322.289,-18.5 322.289,-0.5 254.053,-0.5"/>
<text text-anchor="middle" x="288.171" y="-6.5" font-family="Helvetica,sans-Serif" font-size="10.00">RPMsg&#45;Lite</text>
</a>
</g>
</g>
<!-- Node0&#45;&gt;Node12 -->
<g id="edge12" class="edge"><title>Node0&#45;&gt;Node12</title>
<path fill="none" stroke="blueviolet" stroke-dasharray="5,2" d="M157.616,-314.401C161.132,-273.615 176.743,-107.646 201.497,-62.5 213.522,-40.5696 238.845,-26.6021 258.858,-18.5444"/>
<text text-anchor="middle" x="211.224" y="-64.5" font-family="Helvetica,sans-Serif" font-size="10.00">erpc</text>
</g>
</g>
</svg>
