<?xml version="1.0" encoding="UTF-8" standalone="no"?>
<!DOCTYPE svg PUBLIC "-//W3C//DTD SVG 1.1//EN"
 "http://www.w3.org/Graphics/SVG/1.1/DTD/svg11.dtd">
<!-- Generated by graphviz version 2.38.0 (20140413.2041)
 -->
<!-- Title: inter_thread_buffer_transport.h Pages: 1 -->
<svg width="448pt" height="202pt"
 viewBox="0.00 0.00 447.54 202.00" xmlns="http://www.w3.org/2000/svg" xmlns:xlink="http://www.w3.org/1999/xlink">
<g id="graph0" class="graph" transform="scale(1 1) rotate(0) translate(4 198)">
<title>inter_thread_buffer_transport.h</title>
<polygon fill="white" stroke="none" points="-4,4 -4,-198 443.541,-198 443.541,4 -4,4"/>
<!-- Node1 -->
<g id="node1" class="node"><title>Node1</title>
<polygon fill="#bfbfbf" stroke="black" points="139.178,-165.5 139.178,-193.5 239.505,-193.5 239.505,-165.5 139.178,-165.5"/>
<text text-anchor="start" x="147.178" y="-181.5" font-family="Helvetica,sans-Serif" font-size="10.00">inter_thread_buffer</text>
<text text-anchor="middle" x="189.341" y="-171.5" font-family="Helvetica,sans-Serif" font-size="10.00">_transport.h</text>
</g>
<!-- Node2 -->
<g id="node2" class="node"><title>Node2</title>
<g id="a_node2"><a xlink:href="transport_8h.html" target="_top" xlink:title="transport.h">
<polygon fill="white" stroke="black" points="33.4401,-110.5 33.4401,-128.5 97.2428,-128.5 97.2428,-110.5 33.4401,-110.5"/>
<text text-anchor="middle" x="65.3414" y="-116.5" font-family="Helvetica,sans-Serif" font-size="10.00">transport.h</text>
</a>
</g>
</g>
<!-- Node1&#45;&gt;Node2 -->
<g id="edge1" class="edge"><title>Node1&#45;&gt;Node2</title>
<path fill="none" stroke="midnightblue" d="M161.513,-165.484C140.678,-155.738 112.356,-142.491 91.8468,-132.898"/>
<polygon fill="midnightblue" stroke="midnightblue" points="93.2925,-129.71 82.7515,-128.643 90.3267,-136.051 93.2925,-129.71"/>
</g>
<!-- Node6 -->
<g id="node6" class="node"><title>Node6</title>
<g id="a_node6"><a xlink:href="message__buffer_8h.html" target="_top" xlink:title="message_buffer.h">
<polygon fill="white" stroke="black" points="141.678,-110.5 141.678,-128.5 237.005,-128.5 237.005,-110.5 141.678,-110.5"/>
<text text-anchor="middle" x="189.341" y="-116.5" font-family="Helvetica,sans-Serif" font-size="10.00">message_buffer.h</text>
</a>
</g>
</g>
<!-- Node1&#45;&gt;Node6 -->
<g id="edge6" class="edge"><title>Node1&#45;&gt;Node6</title>
<path fill="none" stroke="midnightblue" d="M189.341,-165.339C189.341,-157.531 189.341,-147.512 189.341,-138.927"/>
<polygon fill="midnightblue" stroke="midnightblue" points="192.842,-138.771 189.341,-128.771 185.842,-138.772 192.842,-138.771"/>
</g>
<!-- Node8 -->
<g id="node8" class="node"><title>Node8</title>
<g id="a_node8"><a xlink:href="erpc__threading_8h.html" target="_top" xlink:title="erpc_threading.h">
<polygon fill="white" stroke="black" points="254.815,-110.5 254.815,-128.5 345.868,-128.5 345.868,-110.5 254.815,-110.5"/>
<text text-anchor="middle" x="300.341" y="-116.5" font-family="Helvetica,sans-Serif" font-size="10.00">erpc_threading.h</text>
</a>
</g>
</g>
<!-- Node1&#45;&gt;Node8 -->
<g id="edge10" class="edge"><title>Node1&#45;&gt;Node8</title>
<path fill="none" stroke="midnightblue" d="M214.252,-165.484C232.65,-155.87 257.569,-142.85 275.863,-133.29"/>
<polygon fill="midnightblue" stroke="midnightblue" points="277.515,-136.377 284.757,-128.643 274.273,-130.173 277.515,-136.377"/>
</g>
<!-- Node3 -->
<g id="node3" class="node"><title>Node3</title>
<polygon fill="white" stroke="#bfbfbf" points="133.221,-0.5 133.221,-18.5 181.462,-18.5 181.462,-0.5 133.221,-0.5"/>
<text text-anchor="middle" x="157.341" y="-6.5" font-family="Helvetica,sans-Serif" font-size="10.00">stdint.h</text>
</g>
<!-- Node2&#45;&gt;Node3 -->
<g id="edge2" class="edge"><title>Node2&#45;&gt;Node3</title>
<path fill="none" stroke="midnightblue" d="M47.2543,-110.468C23.8786,-98.9611 -11.9932,-76.7624 4.34143,-55 18.5867,-36.0212 82.4564,-22.4941 123.038,-15.6356"/>
<polygon fill="midnightblue" stroke="midnightblue" points="123.754,-19.065 133.058,-13.9969 122.624,-12.1568 123.754,-19.065"/>
</g>
<!-- Node4 -->
<g id="node4" class="node"><title>Node4</title>
<polygon fill="white" stroke="#bfbfbf" points="13.6149,-55.5 13.6149,-73.5 59.068,-73.5 59.068,-55.5 13.6149,-55.5"/>
<text text-anchor="middle" x="36.3414" y="-61.5" font-family="Helvetica,sans-Serif" font-size="10.00">cstring</text>
</g>
<!-- Node2&#45;&gt;Node4 -->
<g id="edge3" class="edge"><title>Node2&#45;&gt;Node4</title>
<path fill="none" stroke="midnightblue" d="M60.8102,-110.219C56.743,-102.786 50.6477,-91.646 45.5583,-82.3446"/>
<polygon fill="midnightblue" stroke="midnightblue" points="48.6165,-80.6421 40.7459,-73.5496 42.4756,-84.0023 48.6165,-80.6421"/>
</g>
<!-- Node5 -->
<g id="node5" class="node"><title>Node5</title>
<g id="a_node5"><a xlink:href="erpc__common_8h_source.html" target="_top" xlink:title="erpc_common.h">
<polygon fill="white" stroke="black" points="77.4918,-55.5 77.4918,-73.5 165.191,-73.5 165.191,-55.5 77.4918,-55.5"/>
<text text-anchor="middle" x="121.341" y="-61.5" font-family="Helvetica,sans-Serif" font-size="10.00">erpc_common.h</text>
</a>
</g>
</g>
<!-- Node2&#45;&gt;Node5 -->
<g id="edge4" class="edge"><title>Node2&#45;&gt;Node5</title>
<path fill="none" stroke="midnightblue" d="M74.0914,-110.219C82.4413,-102.316 95.2179,-90.2241 105.381,-80.6057"/>
<polygon fill="midnightblue" stroke="midnightblue" points="107.979,-82.9655 112.836,-73.5496 103.167,-77.8814 107.979,-82.9655"/>
</g>
<!-- Node5&#45;&gt;Node3 -->
<g id="edge5" class="edge"><title>Node5&#45;&gt;Node3</title>
<path fill="none" stroke="midnightblue" d="M126.966,-55.2188C132.068,-47.7074 139.741,-36.411 146.099,-27.0515"/>
<polygon fill="midnightblue" stroke="midnightblue" points="149.15,-28.7883 151.874,-18.5496 143.36,-24.8551 149.15,-28.7883"/>
</g>
<!-- Node6&#45;&gt;Node3 -->
<g id="edge8" class="edge"><title>Node6&#45;&gt;Node3</title>
<path fill="none" stroke="midnightblue" d="M187.745,-110.186C185.317,-97.9648 180.337,-74.4886 174.341,-55 171.569,-45.9862 167.893,-36.1732 164.669,-28.0614"/>
<polygon fill="midnightblue" stroke="midnightblue" points="167.823,-26.5255 160.805,-18.588 161.341,-29.1693 167.823,-26.5255"/>
</g>
<!-- Node6&#45;&gt;Node5 -->
<g id="edge7" class="edge"><title>Node6&#45;&gt;Node5</title>
<path fill="none" stroke="midnightblue" d="M179.014,-110.45C168.629,-102.357 152.396,-89.7042 139.794,-79.8822"/>
<polygon fill="midnightblue" stroke="midnightblue" points="141.805,-77.0122 131.766,-73.6253 137.502,-82.5333 141.805,-77.0122"/>
</g>
<!-- Node7 -->
<g id="node7" class="node"><title>Node7</title>
<polygon fill="white" stroke="#bfbfbf" points="221.221,-55.5 221.221,-73.5 269.462,-73.5 269.462,-55.5 221.221,-55.5"/>
<text text-anchor="middle" x="245.341" y="-61.5" font-family="Helvetica,sans-Serif" font-size="10.00">cstddef</text>
</g>
<!-- Node6&#45;&gt;Node7 -->
<g id="edge9" class="edge"><title>Node6&#45;&gt;Node7</title>
<path fill="none" stroke="midnightblue" d="M198.091,-110.219C206.441,-102.316 219.218,-90.2241 229.381,-80.6057"/>
<polygon fill="midnightblue" stroke="midnightblue" points="231.979,-82.9655 236.836,-73.5496 227.167,-77.8814 231.979,-82.9655"/>
</g>
<!-- Node8&#45;&gt;Node3 -->
<g id="edge13" class="edge"><title>Node8&#45;&gt;Node3</title>
<path fill="none" stroke="midnightblue" d="M299.716,-110.327C298.267,-96.9919 293.541,-70.4892 278.341,-55 255.23,-31.4471 218.607,-20.2635 191.701,-15.0139"/>
<polygon fill="midnightblue" stroke="midnightblue" points="192.01,-11.5144 181.554,-13.2219 190.793,-18.4077 192.01,-11.5144"/>
</g>
<!-- Node9 -->
<g id="node9" class="node"><title>Node9</title>
<g id="a_node9"><a xlink:href="erpc__config__internal_8h_source.html" target="_top" xlink:title="erpc_config_internal.h">
<polygon fill="white" stroke="black" points="325.142,-55.5 325.142,-73.5 439.541,-73.5 439.541,-55.5 325.142,-55.5"/>
<text text-anchor="middle" x="382.341" y="-61.5" font-family="Helvetica,sans-Serif" font-size="10.00">erpc_config_internal.h</text>
</a>
</g>
</g>
<!-- Node8&#45;&gt;Node9 -->
<g id="edge11" class="edge"><title>Node8&#45;&gt;Node9</title>
<path fill="none" stroke="midnightblue" d="M312.795,-110.45C325.559,-102.201 345.649,-89.2158 360.962,-79.3187"/>
<polygon fill="midnightblue" stroke="midnightblue" points="363.272,-81.9931 369.77,-73.6253 359.472,-76.1142 363.272,-81.9931"/>
</g>
<!-- Node10 -->
<g id="node10" class="node"><title>Node10</title>
<g id="a_node10"><a xlink:href="erpc__config_8h.html" target="_top" xlink:title="erpc_config.h">
<polygon fill="white" stroke="black" points="344.322,-0.5 344.322,-18.5 420.361,-18.5 420.361,-0.5 344.322,-0.5"/>
<text text-anchor="middle" x="382.341" y="-6.5" font-family="Helvetica,sans-Serif" font-size="10.00">erpc_config.h</text>
</a>
</g>
</g>
<!-- Node9&#45;&gt;Node10 -->
<g id="edge12" class="edge"><title>Node9&#45;&gt;Node10</title>
<path fill="none" stroke="midnightblue" d="M382.341,-55.2188C382.341,-48.1769 382.341,-37.8083 382.341,-28.8277"/>
<polygon fill="midnightblue" stroke="midnightblue" points="385.842,-28.5495 382.341,-18.5496 378.842,-28.5496 385.842,-28.5495"/>
</g>
</g>
</svg>
