<?xml version="1.0" encoding="UTF-8" standalone="no"?>
<!DOCTYPE svg PUBLIC "-//W3C//DTD SVG 1.1//EN"
 "http://www.w3.org/Graphics/SVG/1.1/DTD/svg11.dtd">
<!-- Generated by graphviz version 2.38.0 (20140413.2041)
 -->
<!-- Title: message_buffer.h Pages: 1 -->
<svg width="1561pt" height="202pt"
 viewBox="0.00 0.00 1560.56 202.00" xmlns="http://www.w3.org/2000/svg" xmlns:xlink="http://www.w3.org/1999/xlink">
<g id="graph0" class="graph" transform="scale(1 1) rotate(0) translate(4 198)">
<title>message_buffer.h</title>
<polygon fill="white" stroke="none" points="-4,4 -4,-198 1556.56,-198 1556.56,4 -4,4"/>
<!-- Node1 -->
<g id="node1" class="node"><title>Node1</title>
<polygon fill="#bfbfbf" stroke="black" points="1050.32,-175.5 1050.32,-193.5 1145.65,-193.5 1145.65,-175.5 1050.32,-175.5"/>
<text text-anchor="middle" x="1097.99" y="-181.5" font-family="Helvetica,sans-Serif" font-size="10.00">message_buffer.h</text>
</g>
<!-- Node2 -->
<g id="node2" class="node"><title>Node2</title>
<g id="a_node2"><a xlink:href="codec_8h.html" target="_top" xlink:title="codec.h">
<polygon fill="white" stroke="black" points="254.475,-115.5 254.475,-133.5 305.5,-133.5 305.5,-115.5 254.475,-115.5"/>
<text text-anchor="middle" x="279.987" y="-121.5" font-family="Helvetica,sans-Serif" font-size="10.00">codec.h</text>
</a>
</g>
</g>
<!-- Node1&#45;&gt;Node2 -->
<g id="edge1" class="edge"><title>Node1&#45;&gt;Node2</title>
<path fill="none" stroke="midnightblue" d="M1039.85,-179.378C876.633,-167.805 418.681,-135.334 305.517,-127.31"/>
<polygon fill="midnightblue" stroke="midnightblue" points="1039.95,-182.894 1050.17,-180.11 1040.45,-175.911 1039.95,-182.894"/>
</g>
<!-- Node9 -->
<g id="node9" class="node"><title>Node9</title>
<g id="a_node9"><a xlink:href="framed__transport_8h.html" target="_top" xlink:title="framed_transport.h">
<polygon fill="white" stroke="black" points="792.744,-115.5 792.744,-133.5 893.231,-133.5 893.231,-115.5 792.744,-115.5"/>
<text text-anchor="middle" x="842.987" y="-121.5" font-family="Helvetica,sans-Serif" font-size="10.00">framed_transport.h</text>
</a>
</g>
</g>
<!-- Node1&#45;&gt;Node9 -->
<g id="edge9" class="edge"><title>Node1&#45;&gt;Node9</title>
<path fill="none" stroke="midnightblue" d="M1052.66,-173.232C1012.93,-164.227 953.627,-150.77 901.987,-139 894.201,-137.225 885.838,-135.315 877.927,-133.505"/>
<polygon fill="midnightblue" stroke="midnightblue" points="1052.05,-176.682 1062.58,-175.479 1053.6,-169.855 1052.05,-176.682"/>
</g>
<!-- Node18 -->
<g id="node18" class="node"><title>Node18</title>
<g id="a_node18"><a xlink:href="inter__thread__buffer__transport_8h.html" target="_top" xlink:title="inter_thread_buffer\l_transport.h">
<polygon fill="white" stroke="black" points="910.824,-110.5 910.824,-138.5 1011.15,-138.5 1011.15,-110.5 910.824,-110.5"/>
<text text-anchor="start" x="918.824" y="-126.5" font-family="Helvetica,sans-Serif" font-size="10.00">inter_thread_buffer</text>
<text text-anchor="middle" x="960.987" y="-116.5" font-family="Helvetica,sans-Serif" font-size="10.00">_transport.h</text>
</a>
</g>
</g>
<!-- Node1&#45;&gt;Node18 -->
<g id="edge18" class="edge"><title>Node1&#45;&gt;Node18</title>
<path fill="none" stroke="midnightblue" d="M1069.5,-171.44C1046.78,-161.82 1015.01,-148.371 991.717,-138.51"/>
<polygon fill="midnightblue" stroke="midnightblue" points="1068.36,-174.76 1078.94,-175.435 1071.09,-168.314 1068.36,-174.76"/>
</g>
<!-- Node19 -->
<g id="node19" class="node"><title>Node19</title>
<g id="a_node19"><a xlink:href="rpmsg__lite__rtos__transport_8h.html" target="_top" xlink:title="rpmsg_lite_rtos_transport.h">
<polygon fill="white" stroke="black" points="1029.13,-115.5 1029.13,-133.5 1166.85,-133.5 1166.85,-115.5 1029.13,-115.5"/>
<text text-anchor="middle" x="1097.99" y="-121.5" font-family="Helvetica,sans-Serif" font-size="10.00">rpmsg_lite_rtos_transport.h</text>
</a>
</g>
</g>
<!-- Node1&#45;&gt;Node19 -->
<g id="edge19" class="edge"><title>Node1&#45;&gt;Node19</title>
<path fill="none" stroke="midnightblue" d="M1097.99,-165.214C1097.99,-154.714 1097.99,-142.033 1097.99,-133.872"/>
<polygon fill="midnightblue" stroke="midnightblue" points="1094.49,-165.435 1097.99,-175.435 1101.49,-165.435 1094.49,-165.435"/>
</g>
<!-- Node20 -->
<g id="node20" class="node"><title>Node20</title>
<g id="a_node20"><a xlink:href="rpmsg__lite__transport_8h.html" target="_top" xlink:title="rpmsg_lite_transport.h">
<polygon fill="white" stroke="black" points="1185.24,-115.5 1185.24,-133.5 1300.73,-133.5 1300.73,-115.5 1185.24,-115.5"/>
<text text-anchor="middle" x="1242.99" y="-121.5" font-family="Helvetica,sans-Serif" font-size="10.00">rpmsg_lite_transport.h</text>
</a>
</g>
</g>
<!-- Node1&#45;&gt;Node20 -->
<g id="edge20" class="edge"><title>Node1&#45;&gt;Node20</title>
<path fill="none" stroke="midnightblue" d="M1127.53,-171.681C1155.82,-160.366 1197.75,-143.595 1222.53,-133.683"/>
<polygon fill="midnightblue" stroke="midnightblue" points="1126.13,-168.472 1118.15,-175.435 1128.73,-174.971 1126.13,-168.472"/>
</g>
<!-- Node21 -->
<g id="node21" class="node"><title>Node21</title>
<g id="a_node21"><a xlink:href="rpmsg__rtos__transport_8h.html" target="_top" xlink:title="rpmsg_rtos_transport.h">
<polygon fill="white" stroke="black" points="1318.3,-115.5 1318.3,-133.5 1437.68,-133.5 1437.68,-115.5 1318.3,-115.5"/>
<text text-anchor="middle" x="1377.99" y="-121.5" font-family="Helvetica,sans-Serif" font-size="10.00">rpmsg_rtos_transport.h</text>
</a>
</g>
</g>
<!-- Node1&#45;&gt;Node21 -->
<g id="edge21" class="edge"><title>Node1&#45;&gt;Node21</title>
<path fill="none" stroke="midnightblue" d="M1146.43,-173.465C1201.12,-162.137 1288.99,-143.935 1339.3,-133.515"/>
<polygon fill="midnightblue" stroke="midnightblue" points="1145.71,-170.041 1136.63,-175.496 1147.13,-176.895 1145.71,-170.041"/>
</g>
<!-- Node22 -->
<g id="node22" class="node"><title>Node22</title>
<g id="a_node22"><a xlink:href="rpmsg__transport_8h.html" target="_top" xlink:title="rpmsg_transport.h">
<polygon fill="white" stroke="black" points="1455.41,-115.5 1455.41,-133.5 1552.56,-133.5 1552.56,-115.5 1455.41,-115.5"/>
<text text-anchor="middle" x="1503.99" y="-121.5" font-family="Helvetica,sans-Serif" font-size="10.00">rpmsg_transport.h</text>
</a>
</g>
</g>
<!-- Node1&#45;&gt;Node22 -->
<g id="edge22" class="edge"><title>Node1&#45;&gt;Node22</title>
<path fill="none" stroke="midnightblue" d="M1156.24,-177.976C1225.76,-170.944 1345.38,-157.457 1446.99,-139 1455.39,-137.473 1464.42,-135.495 1472.75,-133.526"/>
<polygon fill="midnightblue" stroke="midnightblue" points="1155.54,-174.528 1145.93,-179.008 1156.23,-181.494 1155.54,-174.528"/>
</g>
<!-- Node3 -->
<g id="node3" class="node"><title>Node3</title>
<g id="a_node3"><a xlink:href="client__manager_8h.html" target="_top" xlink:title="client_manager.h">
<polygon fill="white" stroke="black" points="91.9038,-55.5 91.9038,-73.5 184.071,-73.5 184.071,-55.5 91.9038,-55.5"/>
<text text-anchor="middle" x="137.987" y="-61.5" font-family="Helvetica,sans-Serif" font-size="10.00">client_manager.h</text>
</a>
</g>
</g>
<!-- Node2&#45;&gt;Node3 -->
<g id="edge2" class="edge"><title>Node2&#45;&gt;Node3</title>
<path fill="none" stroke="midnightblue" d="M250.687,-111.532C222.991,-100.22 182.182,-83.5515 158.022,-73.6831"/>
<polygon fill="midnightblue" stroke="midnightblue" points="249.662,-114.894 260.243,-115.435 252.309,-108.414 249.662,-114.894"/>
</g>
<!-- Node5 -->
<g id="node5" class="node"><title>Node5</title>
<g id="a_node5"><a xlink:href="transport__arbitrator_8h.html" target="_top" xlink:title="transport_arbitrator.h">
<polygon fill="white" stroke="black" points="157.571,-0.5 157.571,-18.5 266.403,-18.5 266.403,-0.5 157.571,-0.5"/>
<text text-anchor="middle" x="211.987" y="-6.5" font-family="Helvetica,sans-Serif" font-size="10.00">transport_arbitrator.h</text>
</a>
</g>
</g>
<!-- Node2&#45;&gt;Node5 -->
<g id="edge5" class="edge"><title>Node2&#45;&gt;Node5</title>
<path fill="none" stroke="midnightblue" d="M261.37,-108.697C251.103,-99.6528 238.875,-87.2932 230.987,-74 220.3,-55.9889 215.206,-31.4924 213.153,-18.8353"/>
<polygon fill="midnightblue" stroke="midnightblue" points="259.164,-111.416 269.063,-115.194 263.681,-106.067 259.164,-111.416"/>
</g>
<!-- Node6 -->
<g id="node6" class="node"><title>Node6</title>
<g id="a_node6"><a xlink:href="basic__codec_8h.html" target="_top" xlink:title="basic_codec.h">
<polygon fill="white" stroke="black" points="240.022,-55.5 240.022,-73.5 319.953,-73.5 319.953,-55.5 240.022,-55.5"/>
<text text-anchor="middle" x="279.987" y="-61.5" font-family="Helvetica,sans-Serif" font-size="10.00">basic_codec.h</text>
</a>
</g>
</g>
<!-- Node2&#45;&gt;Node6 -->
<g id="edge6" class="edge"><title>Node2&#45;&gt;Node6</title>
<path fill="none" stroke="midnightblue" d="M279.987,-105.214C279.987,-94.7141 279.987,-82.0332 279.987,-73.8718"/>
<polygon fill="midnightblue" stroke="midnightblue" points="276.487,-105.435 279.987,-115.435 283.487,-105.435 276.487,-105.435"/>
</g>
<!-- Node7 -->
<g id="node7" class="node"><title>Node7</title>
<g id="a_node7"><a xlink:href="server_8h.html" target="_top" xlink:title="server.h">
<polygon fill="white" stroke="black" points="338.199,-55.5 338.199,-73.5 389.775,-73.5 389.775,-55.5 338.199,-55.5"/>
<text text-anchor="middle" x="363.987" y="-61.5" font-family="Helvetica,sans-Serif" font-size="10.00">server.h</text>
</a>
</g>
</g>
<!-- Node2&#45;&gt;Node7 -->
<g id="edge7" class="edge"><title>Node2&#45;&gt;Node7</title>
<path fill="none" stroke="midnightblue" d="M299.968,-109.704C316.217,-98.4842 338.596,-83.0322 352.136,-73.6831"/>
<polygon fill="midnightblue" stroke="midnightblue" points="297.907,-106.873 291.667,-115.435 301.885,-112.634 297.907,-106.873"/>
</g>
<!-- Node4 -->
<g id="node4" class="node"><title>Node4</title>
<g id="a_node4"><a xlink:href="arbitrated__client__manager_8h.html" target="_top" xlink:title="arbitrated_client_manager.h">
<polygon fill="white" stroke="black" points="0,-0.5 0,-18.5 139.975,-18.5 139.975,-0.5 0,-0.5"/>
<text text-anchor="middle" x="69.9873" y="-6.5" font-family="Helvetica,sans-Serif" font-size="10.00">arbitrated_client_manager.h</text>
</a>
</g>
</g>
<!-- Node3&#45;&gt;Node4 -->
<g id="edge3" class="edge"><title>Node3&#45;&gt;Node4</title>
<path fill="none" stroke="midnightblue" d="M119.652,-49.2095C107.073,-39.4052 90.8331,-26.7474 80.4122,-18.6253"/>
<polygon fill="midnightblue" stroke="midnightblue" points="117.621,-52.0635 127.66,-55.4504 121.924,-46.5424 117.621,-52.0635"/>
</g>
<!-- Node3&#45;&gt;Node5 -->
<g id="edge4" class="edge"><title>Node3&#45;&gt;Node5</title>
<path fill="none" stroke="midnightblue" d="M157.546,-49.4916C171.289,-39.6491 189.193,-26.8255 200.643,-18.6253"/>
<polygon fill="midnightblue" stroke="midnightblue" points="155.318,-46.7822 149.226,-55.4504 159.394,-52.4731 155.318,-46.7822"/>
</g>
<!-- Node8 -->
<g id="node8" class="node"><title>Node8</title>
<g id="a_node8"><a xlink:href="simple__server_8h.html" target="_top" xlink:title="simple_server.h">
<polygon fill="white" stroke="black" points="320.97,-0.5 320.97,-18.5 407.004,-18.5 407.004,-0.5 320.97,-0.5"/>
<text text-anchor="middle" x="363.987" y="-6.5" font-family="Helvetica,sans-Serif" font-size="10.00">simple_server.h</text>
</a>
</g>
</g>
<!-- Node7&#45;&gt;Node8 -->
<g id="edge8" class="edge"><title>Node7&#45;&gt;Node8</title>
<path fill="none" stroke="midnightblue" d="M363.987,-45.1746C363.987,-36.0945 363.987,-25.5949 363.987,-18.5496"/>
<polygon fill="midnightblue" stroke="midnightblue" points="360.487,-45.2187 363.987,-55.2188 367.487,-45.2188 360.487,-45.2187"/>
</g>
<!-- Node10 -->
<g id="node10" class="node"><title>Node10</title>
<g id="a_node10"><a xlink:href="dspi__master__transport_8h.html" target="_top" xlink:title="dspi_master_transport.h">
<polygon fill="white" stroke="black" points="408.071,-55.5 408.071,-73.5 531.903,-73.5 531.903,-55.5 408.071,-55.5"/>
<text text-anchor="middle" x="469.987" y="-61.5" font-family="Helvetica,sans-Serif" font-size="10.00">dspi_master_transport.h</text>
</a>
</g>
</g>
<!-- Node9&#45;&gt;Node10 -->
<g id="edge10" class="edge"><title>Node9&#45;&gt;Node10</title>
<path fill="none" stroke="midnightblue" d="M782.79,-114.14C710.351,-102.876 589.957,-84.1549 521.587,-73.5235"/>
<polygon fill="midnightblue" stroke="midnightblue" points="782.264,-117.6 792.683,-115.678 783.339,-110.683 782.264,-117.6"/>
</g>
<!-- Node11 -->
<g id="node11" class="node"><title>Node11</title>
<g id="a_node11"><a xlink:href="dspi__slave__transport_8h.html" target="_top" xlink:title="dspi_slave_transport.h">
<polygon fill="white" stroke="black" points="549.68,-55.5 549.68,-73.5 666.295,-73.5 666.295,-55.5 549.68,-55.5"/>
<text text-anchor="middle" x="607.987" y="-61.5" font-family="Helvetica,sans-Serif" font-size="10.00">dspi_slave_transport.h</text>
</a>
</g>
</g>
<!-- Node9&#45;&gt;Node11 -->
<g id="edge11" class="edge"><title>Node9&#45;&gt;Node11</title>
<path fill="none" stroke="midnightblue" d="M800.37,-112.982C754.471,-101.653 682.436,-83.8745 640.763,-73.5894"/>
<polygon fill="midnightblue" stroke="midnightblue" points="799.764,-116.437 810.312,-115.435 801.442,-109.641 799.764,-116.437"/>
</g>
<!-- Node12 -->
<g id="node12" class="node"><title>Node12</title>
<g id="a_node12"><a xlink:href="lpuart__transport_8h.html" target="_top" xlink:title="lpuart_transport.h">
<polygon fill="white" stroke="black" points="683.798,-55.5 683.798,-73.5 778.177,-73.5 778.177,-55.5 683.798,-55.5"/>
<text text-anchor="middle" x="730.987" y="-61.5" font-family="Helvetica,sans-Serif" font-size="10.00">lpuart_transport.h</text>
</a>
</g>
</g>
<!-- Node9&#45;&gt;Node12 -->
<g id="edge12" class="edge"><title>Node9&#45;&gt;Node12</title>
<path fill="none" stroke="midnightblue" d="M818.426,-110.781C796.627,-99.4922 765.428,-83.3351 746.789,-73.6831"/>
<polygon fill="midnightblue" stroke="midnightblue" points="816.925,-113.945 827.414,-115.435 820.144,-107.729 816.925,-113.945"/>
</g>
<!-- Node13 -->
<g id="node13" class="node"><title>Node13</title>
<g id="a_node13"><a xlink:href="serial__transport_8h.html" target="_top" xlink:title="serial_transport.h">
<polygon fill="white" stroke="black" points="796.357,-55.5 796.357,-73.5 889.618,-73.5 889.618,-55.5 796.357,-55.5"/>
<text text-anchor="middle" x="842.987" y="-61.5" font-family="Helvetica,sans-Serif" font-size="10.00">serial_transport.h</text>
</a>
</g>
</g>
<!-- Node9&#45;&gt;Node13 -->
<g id="edge13" class="edge"><title>Node9&#45;&gt;Node13</title>
<path fill="none" stroke="midnightblue" d="M842.987,-105.214C842.987,-94.7141 842.987,-82.0332 842.987,-73.8718"/>
<polygon fill="midnightblue" stroke="midnightblue" points="839.487,-105.435 842.987,-115.435 846.487,-105.435 839.487,-105.435"/>
</g>
<!-- Node14 -->
<g id="node14" class="node"><title>Node14</title>
<g id="a_node14"><a xlink:href="spi__master__transport_8h.html" target="_top" xlink:title="spi_master_transport.h">
<polygon fill="white" stroke="black" points="907.852,-55.5 907.852,-73.5 1026.12,-73.5 1026.12,-55.5 907.852,-55.5"/>
<text text-anchor="middle" x="966.987" y="-61.5" font-family="Helvetica,sans-Serif" font-size="10.00">spi_master_transport.h</text>
</a>
</g>
</g>
<!-- Node9&#45;&gt;Node14 -->
<g id="edge14" class="edge"><title>Node9&#45;&gt;Node14</title>
<path fill="none" stroke="midnightblue" d="M869.534,-111.083C893.694,-99.7825 928.672,-83.4217 949.492,-73.6831"/>
<polygon fill="midnightblue" stroke="midnightblue" points="867.804,-108.028 860.229,-115.435 870.77,-114.369 867.804,-108.028"/>
</g>
<!-- Node15 -->
<g id="node15" class="node"><title>Node15</title>
<g id="a_node15"><a xlink:href="spi__slave__transport_8h.html" target="_top" xlink:title="spi_slave_transport.h">
<polygon fill="white" stroke="black" points="1044.46,-55.5 1044.46,-73.5 1155.51,-73.5 1155.51,-55.5 1044.46,-55.5"/>
<text text-anchor="middle" x="1099.99" y="-61.5" font-family="Helvetica,sans-Serif" font-size="10.00">spi_slave_transport.h</text>
</a>
</g>
</g>
<!-- Node9&#45;&gt;Node15 -->
<g id="edge15" class="edge"><title>Node9&#45;&gt;Node15</title>
<path fill="none" stroke="midnightblue" d="M887.721,-113.245C892.536,-112.147 897.363,-111.049 901.987,-110 958.51,-97.1819 1024.15,-82.4627 1063.85,-73.5783"/>
<polygon fill="midnightblue" stroke="midnightblue" points="886.894,-109.844 877.924,-115.483 888.452,-116.668 886.894,-109.844"/>
</g>
<!-- Node16 -->
<g id="node16" class="node"><title>Node16</title>
<g id="a_node16"><a xlink:href="tcp__transport_8h.html" target="_top" xlink:title="tcp_transport.h">
<polygon fill="white" stroke="black" points="1173.64,-55.5 1173.64,-73.5 1256.34,-73.5 1256.34,-55.5 1173.64,-55.5"/>
<text text-anchor="middle" x="1214.99" y="-61.5" font-family="Helvetica,sans-Serif" font-size="10.00">tcp_transport.h</text>
</a>
</g>
</g>
<!-- Node9&#45;&gt;Node16 -->
<g id="edge16" class="edge"><title>Node9&#45;&gt;Node16</title>
<path fill="none" stroke="midnightblue" d="M885.473,-113.305C891.013,-112.115 896.625,-110.978 901.987,-110 1018.05,-88.8215 1048.37,-91.8887 1164.99,-74 1167.77,-73.5728 1170.64,-73.1195 1173.53,-72.6535"/>
<polygon fill="midnightblue" stroke="midnightblue" points="884.654,-109.901 875.648,-115.482 886.169,-116.735 884.654,-109.901"/>
</g>
<!-- Node17 -->
<g id="node17" class="node"><title>Node17</title>
<g id="a_node17"><a xlink:href="uart__transport_8h.html" target="_top" xlink:title="uart_transport.h">
<polygon fill="white" stroke="black" points="1274.69,-55.5 1274.69,-73.5 1361.29,-73.5 1361.29,-55.5 1274.69,-55.5"/>
<text text-anchor="middle" x="1317.99" y="-61.5" font-family="Helvetica,sans-Serif" font-size="10.00">uart_transport.h</text>
</a>
</g>
</g>
<!-- Node9&#45;&gt;Node17 -->
<g id="edge17" class="edge"><title>Node9&#45;&gt;Node17</title>
<path fill="none" stroke="midnightblue" d="M884.839,-113.24C890.579,-112.034 896.413,-110.91 901.987,-110 1061.99,-83.8672 1104.21,-94.846 1264.99,-74 1268.13,-73.5926 1271.37,-73.1435 1274.63,-72.6709"/>
<polygon fill="midnightblue" stroke="midnightblue" points="883.701,-109.907 874.687,-115.474 885.206,-116.743 883.701,-109.907"/>
</g>
</g>
</svg>
