<?xml version="1.0" encoding="UTF-8" standalone="no"?>
<!DOCTYPE svg PUBLIC "-//W3C//DTD SVG 1.1//EN"
 "http://www.w3.org/Graphics/SVG/1.1/DTD/svg11.dtd">
<!-- Generated by graphviz version 2.38.0 (20140413.2041)
 -->
<!-- Title: rpmsg_lite_transport.h Pages: 1 -->
<svg width="373pt" height="192pt"
 viewBox="0.00 0.00 372.76 192.00" xmlns="http://www.w3.org/2000/svg" xmlns:xlink="http://www.w3.org/1999/xlink">
<g id="graph0" class="graph" transform="scale(1 1) rotate(0) translate(4 188)">
<title>rpmsg_lite_transport.h</title>
<polygon fill="white" stroke="none" points="-4,4 -4,-188 368.758,-188 368.758,4 -4,4"/>
<!-- Node1 -->
<g id="node1" class="node"><title>Node1</title>
<polygon fill="#bfbfbf" stroke="black" points="121.778,-165.5 121.778,-183.5 237.271,-183.5 237.271,-165.5 121.778,-165.5"/>
<text text-anchor="middle" x="179.524" y="-171.5" font-family="Helvetica,sans-Serif" font-size="10.00">rpmsg_lite_transport.h</text>
</g>
<!-- Node2 -->
<g id="node2" class="node"><title>Node2</title>
<g id="a_node2"><a xlink:href="transport_8h.html" target="_top" xlink:title="transport.h">
<polygon fill="white" stroke="black" points="98.623,-110.5 98.623,-128.5 162.426,-128.5 162.426,-110.5 98.623,-110.5"/>
<text text-anchor="middle" x="130.524" y="-116.5" font-family="Helvetica,sans-Serif" font-size="10.00">transport.h</text>
</a>
</g>
</g>
<!-- Node1&#45;&gt;Node2 -->
<g id="edge1" class="edge"><title>Node1&#45;&gt;Node2</title>
<path fill="none" stroke="midnightblue" d="M171.868,-165.219C164.707,-157.473 153.824,-145.701 145.021,-136.18"/>
<polygon fill="midnightblue" stroke="midnightblue" points="147.325,-133.516 137.966,-128.55 142.185,-138.268 147.325,-133.516"/>
</g>
<!-- Node6 -->
<g id="node6" class="node"><title>Node6</title>
<g id="a_node6"><a xlink:href="message__buffer_8h.html" target="_top" xlink:title="message_buffer.h">
<polygon fill="white" stroke="black" points="180.861,-110.5 180.861,-128.5 276.188,-128.5 276.188,-110.5 180.861,-110.5"/>
<text text-anchor="middle" x="228.524" y="-116.5" font-family="Helvetica,sans-Serif" font-size="10.00">message_buffer.h</text>
</a>
</g>
</g>
<!-- Node1&#45;&gt;Node6 -->
<g id="edge6" class="edge"><title>Node1&#45;&gt;Node6</title>
<path fill="none" stroke="midnightblue" d="M187.181,-165.219C194.342,-157.473 205.225,-145.701 214.028,-136.18"/>
<polygon fill="midnightblue" stroke="midnightblue" points="216.864,-138.268 221.082,-128.55 211.724,-133.516 216.864,-138.268"/>
</g>
<!-- Node8 -->
<g id="node8" class="node"><title>Node8</title>
<g id="a_node8"><a xlink:href="static__queue_8h.html" target="_top" xlink:title="static_queue.h">
<polygon fill="white" stroke="black" points="0,-110.5 0,-128.5 81.0488,-128.5 81.0488,-110.5 0,-110.5"/>
<text text-anchor="middle" x="40.5244" y="-116.5" font-family="Helvetica,sans-Serif" font-size="10.00">static_queue.h</text>
</a>
</g>
</g>
<!-- Node1&#45;&gt;Node8 -->
<g id="edge10" class="edge"><title>Node1&#45;&gt;Node8</title>
<path fill="none" stroke="midnightblue" d="M158.413,-165.45C135.247,-156.617 97.8412,-142.355 71.3851,-132.267"/>
<polygon fill="midnightblue" stroke="midnightblue" points="72.425,-128.918 61.8342,-128.625 69.931,-135.458 72.425,-128.918"/>
</g>
<!-- Node9 -->
<g id="node9" class="node"><title>Node9</title>
<polygon fill="white" stroke="#bfbfbf" points="294.291,-110.5 294.291,-128.5 364.758,-128.5 364.758,-110.5 294.291,-110.5"/>
<text text-anchor="middle" x="329.524" y="-116.5" font-family="Helvetica,sans-Serif" font-size="10.00">rpmsg_lite.h</text>
</g>
<!-- Node1&#45;&gt;Node9 -->
<g id="edge12" class="edge"><title>Node1&#45;&gt;Node9</title>
<path fill="none" stroke="midnightblue" d="M202.306,-165.45C227.526,-156.539 268.384,-142.103 296.973,-132.001"/>
<polygon fill="midnightblue" stroke="midnightblue" points="298.266,-135.257 306.528,-128.625 295.933,-128.657 298.266,-135.257"/>
</g>
<!-- Node3 -->
<g id="node3" class="node"><title>Node3</title>
<polygon fill="white" stroke="#bfbfbf" points="139.404,-0.5 139.404,-18.5 187.645,-18.5 187.645,-0.5 139.404,-0.5"/>
<text text-anchor="middle" x="163.524" y="-6.5" font-family="Helvetica,sans-Serif" font-size="10.00">stdint.h</text>
</g>
<!-- Node2&#45;&gt;Node3 -->
<g id="edge2" class="edge"><title>Node2&#45;&gt;Node3</title>
<path fill="none" stroke="midnightblue" d="M124.249,-110.429C115.495,-98.1177 101.637,-74.0664 110.524,-55 116.572,-42.025 128.471,-31.4882 139.465,-23.9306"/>
<polygon fill="midnightblue" stroke="midnightblue" points="141.406,-26.8442 147.958,-18.5187 137.644,-20.9408 141.406,-26.8442"/>
</g>
<!-- Node4 -->
<g id="node4" class="node"><title>Node4</title>
<polygon fill="white" stroke="#bfbfbf" points="17.7979,-55.5 17.7979,-73.5 63.251,-73.5 63.251,-55.5 17.7979,-55.5"/>
<text text-anchor="middle" x="40.5244" y="-61.5" font-family="Helvetica,sans-Serif" font-size="10.00">cstring</text>
</g>
<!-- Node2&#45;&gt;Node4 -->
<g id="edge3" class="edge"><title>Node2&#45;&gt;Node4</title>
<path fill="none" stroke="midnightblue" d="M116.855,-110.45C102.583,-102.045 79.9616,-88.7241 63.0445,-78.7618"/>
<polygon fill="midnightblue" stroke="midnightblue" points="64.7151,-75.6838 54.3221,-73.6253 61.163,-81.7157 64.7151,-75.6838"/>
</g>
<!-- Node5 -->
<g id="node5" class="node"><title>Node5</title>
<g id="a_node5"><a xlink:href="erpc__common_8h_source.html" target="_top" xlink:title="erpc_common.h">
<polygon fill="white" stroke="black" points="119.675,-55.5 119.675,-73.5 207.374,-73.5 207.374,-55.5 119.675,-55.5"/>
<text text-anchor="middle" x="163.524" y="-61.5" font-family="Helvetica,sans-Serif" font-size="10.00">erpc_common.h</text>
</a>
</g>
</g>
<!-- Node2&#45;&gt;Node5 -->
<g id="edge4" class="edge"><title>Node2&#45;&gt;Node5</title>
<path fill="none" stroke="midnightblue" d="M135.681,-110.219C140.358,-102.707 147.391,-91.411 153.219,-82.0515"/>
<polygon fill="midnightblue" stroke="midnightblue" points="156.198,-83.8885 158.512,-73.5496 150.256,-80.1886 156.198,-83.8885"/>
</g>
<!-- Node5&#45;&gt;Node3 -->
<g id="edge5" class="edge"><title>Node5&#45;&gt;Node3</title>
<path fill="none" stroke="midnightblue" d="M163.524,-55.2188C163.524,-48.1769 163.524,-37.8083 163.524,-28.8277"/>
<polygon fill="midnightblue" stroke="midnightblue" points="167.025,-28.5495 163.524,-18.5496 160.025,-28.5496 167.025,-28.5495"/>
</g>
<!-- Node6&#45;&gt;Node3 -->
<g id="edge8" class="edge"><title>Node6&#45;&gt;Node3</title>
<path fill="none" stroke="midnightblue" d="M228.685,-110.484C228.59,-97.8258 226.953,-72.8161 216.524,-55 209.317,-42.6869 197.392,-32.2218 186.677,-24.5399"/>
<polygon fill="midnightblue" stroke="midnightblue" points="188.341,-21.4413 178.091,-18.7621 184.433,-27.2488 188.341,-21.4413"/>
</g>
<!-- Node6&#45;&gt;Node5 -->
<g id="edge7" class="edge"><title>Node6&#45;&gt;Node5</title>
<path fill="none" stroke="midnightblue" d="M218.652,-110.45C208.821,-102.434 193.507,-89.9471 181.511,-80.1663"/>
<polygon fill="midnightblue" stroke="midnightblue" points="183.451,-77.2322 173.489,-73.6253 179.028,-82.6573 183.451,-77.2322"/>
</g>
<!-- Node7 -->
<g id="node7" class="node"><title>Node7</title>
<polygon fill="white" stroke="#bfbfbf" points="263.404,-55.5 263.404,-73.5 311.645,-73.5 311.645,-55.5 263.404,-55.5"/>
<text text-anchor="middle" x="287.524" y="-61.5" font-family="Helvetica,sans-Serif" font-size="10.00">cstddef</text>
</g>
<!-- Node6&#45;&gt;Node7 -->
<g id="edge9" class="edge"><title>Node6&#45;&gt;Node7</title>
<path fill="none" stroke="midnightblue" d="M237.485,-110.45C246.322,-102.512 260.04,-90.1891 270.88,-80.4519"/>
<polygon fill="midnightblue" stroke="midnightblue" points="273.379,-82.9118 278.479,-73.6253 268.701,-77.7043 273.379,-82.9118"/>
</g>
<!-- Node8&#45;&gt;Node4 -->
<g id="edge11" class="edge"><title>Node8&#45;&gt;Node4</title>
<path fill="none" stroke="midnightblue" d="M40.5244,-110.219C40.5244,-103.177 40.5244,-92.8083 40.5244,-83.8277"/>
<polygon fill="midnightblue" stroke="midnightblue" points="44.0245,-83.5495 40.5244,-73.5496 37.0245,-83.5496 44.0245,-83.5495"/>
</g>
</g>
</svg>
