<?xml version="1.0" encoding="UTF-8" standalone="no"?>
<!DOCTYPE svg PUBLIC "-//W3C//DTD SVG 1.1//EN"
 "http://www.w3.org/Graphics/SVG/1.1/DTD/svg11.dtd">
<!-- Generated by graphviz version 2.38.0 (20140413.2041)
 -->
<!-- Title: rpmsg_lite_rtos_transport.h Pages: 1 -->
<svg width="426pt" height="192pt"
 viewBox="0.00 0.00 425.61 192.00" xmlns="http://www.w3.org/2000/svg" xmlns:xlink="http://www.w3.org/1999/xlink">
<g id="graph0" class="graph" transform="scale(1 1) rotate(0) translate(4 188)">
<title>rpmsg_lite_rtos_transport.h</title>
<polygon fill="white" stroke="none" points="-4,4 -4,-188 421.607,-188 421.607,4 -4,4"/>
<!-- Node1 -->
<g id="node1" class="node"><title>Node1</title>
<polygon fill="#bfbfbf" stroke="black" points="158.999,-165.5 158.999,-183.5 296.723,-183.5 296.723,-165.5 158.999,-165.5"/>
<text text-anchor="middle" x="227.861" y="-171.5" font-family="Helvetica,sans-Serif" font-size="10.00">rpmsg_lite_rtos_transport.h</text>
</g>
<!-- Node2 -->
<g id="node2" class="node"><title>Node2</title>
<g id="a_node2"><a xlink:href="transport_8h.html" target="_top" xlink:title="transport.h">
<polygon fill="white" stroke="black" points="18.9598,-110.5 18.9598,-128.5 82.7625,-128.5 82.7625,-110.5 18.9598,-110.5"/>
<text text-anchor="middle" x="50.8612" y="-116.5" font-family="Helvetica,sans-Serif" font-size="10.00">transport.h</text>
</a>
</g>
</g>
<!-- Node1&#45;&gt;Node2 -->
<g id="edge1" class="edge"><title>Node1&#45;&gt;Node2</title>
<path fill="none" stroke="midnightblue" d="M200.979,-165.45C170.742,-156.396 121.455,-141.638 87.6588,-131.519"/>
<polygon fill="midnightblue" stroke="midnightblue" points="88.2898,-128.054 77.7061,-128.538 86.2818,-134.76 88.2898,-128.054"/>
</g>
<!-- Node6 -->
<g id="node6" class="node"><title>Node6</title>
<g id="a_node6"><a xlink:href="message__buffer_8h.html" target="_top" xlink:title="message_buffer.h">
<polygon fill="white" stroke="black" points="130.198,-110.5 130.198,-128.5 225.524,-128.5 225.524,-110.5 130.198,-110.5"/>
<text text-anchor="middle" x="177.861" y="-116.5" font-family="Helvetica,sans-Serif" font-size="10.00">message_buffer.h</text>
</a>
</g>
</g>
<!-- Node1&#45;&gt;Node6 -->
<g id="edge6" class="edge"><title>Node1&#45;&gt;Node6</title>
<path fill="none" stroke="midnightblue" d="M220.049,-165.219C212.667,-157.394 201.411,-145.463 192.382,-135.892"/>
<polygon fill="midnightblue" stroke="midnightblue" points="194.863,-133.422 185.455,-128.55 189.771,-138.225 194.863,-133.422"/>
</g>
<!-- Node8 -->
<g id="node8" class="node"><title>Node8</title>
<polygon fill="white" stroke="#bfbfbf" points="243.627,-110.5 243.627,-128.5 314.095,-128.5 314.095,-110.5 243.627,-110.5"/>
<text text-anchor="middle" x="278.861" y="-116.5" font-family="Helvetica,sans-Serif" font-size="10.00">rpmsg_lite.h</text>
</g>
<!-- Node1&#45;&gt;Node8 -->
<g id="edge10" class="edge"><title>Node1&#45;&gt;Node8</title>
<path fill="none" stroke="midnightblue" d="M235.83,-165.219C243.359,-157.394 254.84,-145.463 264.05,-135.892"/>
<polygon fill="midnightblue" stroke="midnightblue" points="266.704,-138.182 271.115,-128.55 261.66,-133.328 266.704,-138.182"/>
</g>
<!-- Node9 -->
<g id="node9" class="node"><title>Node9</title>
<polygon fill="white" stroke="#bfbfbf" points="332.115,-110.5 332.115,-128.5 417.607,-128.5 417.607,-110.5 332.115,-110.5"/>
<text text-anchor="middle" x="374.861" y="-116.5" font-family="Helvetica,sans-Serif" font-size="10.00">rpmsg_queue.h</text>
</g>
<!-- Node1&#45;&gt;Node9 -->
<g id="edge11" class="edge"><title>Node1&#45;&gt;Node9</title>
<path fill="none" stroke="midnightblue" d="M250.187,-165.45C274.795,-156.578 314.594,-142.229 342.593,-132.134"/>
<polygon fill="midnightblue" stroke="midnightblue" points="344.105,-135.31 352.325,-128.625 341.731,-128.725 344.105,-135.31"/>
</g>
<!-- Node3 -->
<g id="node3" class="node"><title>Node3</title>
<polygon fill="white" stroke="#bfbfbf" points="96.7406,-0.5 96.7406,-18.5 144.982,-18.5 144.982,-0.5 96.7406,-0.5"/>
<text text-anchor="middle" x="120.861" y="-6.5" font-family="Helvetica,sans-Serif" font-size="10.00">stdint.h</text>
</g>
<!-- Node2&#45;&gt;Node3 -->
<g id="edge2" class="edge"><title>Node2&#45;&gt;Node3</title>
<path fill="none" stroke="midnightblue" d="M37.1881,-110.407C18.776,-98.4611 -10.1535,-75.3245 3.86116,-55 22.3484,-28.1893 59.2832,-17.5187 86.7332,-13.2792"/>
<polygon fill="midnightblue" stroke="midnightblue" points="87.2801,-16.7374 96.7311,-11.949 86.3568,-9.79851 87.2801,-16.7374"/>
</g>
<!-- Node4 -->
<g id="node4" class="node"><title>Node4</title>
<polygon fill="white" stroke="#bfbfbf" points="13.1346,-55.5 13.1346,-73.5 58.5877,-73.5 58.5877,-55.5 13.1346,-55.5"/>
<text text-anchor="middle" x="35.8612" y="-61.5" font-family="Helvetica,sans-Serif" font-size="10.00">cstring</text>
</g>
<!-- Node2&#45;&gt;Node4 -->
<g id="edge3" class="edge"><title>Node2&#45;&gt;Node4</title>
<path fill="none" stroke="midnightblue" d="M48.5174,-110.219C46.4801,-103.02 43.459,-92.3458 40.8794,-83.2311"/>
<polygon fill="midnightblue" stroke="midnightblue" points="44.2304,-82.2185 38.1393,-73.5496 37.4949,-84.1248 44.2304,-82.2185"/>
</g>
<!-- Node5 -->
<g id="node5" class="node"><title>Node5</title>
<g id="a_node5"><a xlink:href="erpc__common_8h_source.html" target="_top" xlink:title="erpc_common.h">
<polygon fill="white" stroke="black" points="77.0115,-55.5 77.0115,-73.5 164.711,-73.5 164.711,-55.5 77.0115,-55.5"/>
<text text-anchor="middle" x="120.861" y="-61.5" font-family="Helvetica,sans-Serif" font-size="10.00">erpc_common.h</text>
</a>
</g>
</g>
<!-- Node2&#45;&gt;Node5 -->
<g id="edge4" class="edge"><title>Node2&#45;&gt;Node5</title>
<path fill="none" stroke="midnightblue" d="M61.4927,-110.45C72.1826,-102.357 88.8934,-89.7042 101.866,-79.8822"/>
<polygon fill="midnightblue" stroke="midnightblue" points="104.27,-82.4521 110.13,-73.6253 100.044,-76.8713 104.27,-82.4521"/>
</g>
<!-- Node5&#45;&gt;Node3 -->
<g id="edge5" class="edge"><title>Node5&#45;&gt;Node3</title>
<path fill="none" stroke="midnightblue" d="M120.861,-55.2188C120.861,-48.1769 120.861,-37.8083 120.861,-28.8277"/>
<polygon fill="midnightblue" stroke="midnightblue" points="124.361,-28.5495 120.861,-18.5496 117.361,-28.5496 124.361,-28.5495"/>
</g>
<!-- Node6&#45;&gt;Node3 -->
<g id="edge8" class="edge"><title>Node6&#45;&gt;Node3</title>
<path fill="none" stroke="midnightblue" d="M179.323,-110.148C181.122,-97.4697 182.924,-72.9456 173.861,-55 167.408,-42.2216 155.481,-31.6984 144.573,-24.0992"/>
<polygon fill="midnightblue" stroke="midnightblue" points="146.462,-21.1524 136.168,-18.6444 142.651,-27.0242 146.462,-21.1524"/>
</g>
<!-- Node6&#45;&gt;Node5 -->
<g id="edge7" class="edge"><title>Node6&#45;&gt;Node5</title>
<path fill="none" stroke="midnightblue" d="M168.955,-110.219C160.456,-102.316 147.451,-90.2241 137.107,-80.6057"/>
<polygon fill="midnightblue" stroke="midnightblue" points="139.225,-77.7958 129.518,-73.5496 134.458,-82.9222 139.225,-77.7958"/>
</g>
<!-- Node7 -->
<g id="node7" class="node"><title>Node7</title>
<polygon fill="white" stroke="#bfbfbf" points="220.741,-55.5 220.741,-73.5 268.982,-73.5 268.982,-55.5 220.741,-55.5"/>
<text text-anchor="middle" x="244.861" y="-61.5" font-family="Helvetica,sans-Serif" font-size="10.00">cstddef</text>
</g>
<!-- Node6&#45;&gt;Node7 -->
<g id="edge9" class="edge"><title>Node6&#45;&gt;Node7</title>
<path fill="none" stroke="midnightblue" d="M188.037,-110.45C198.269,-102.357 214.263,-89.7042 226.68,-79.8822"/>
<polygon fill="midnightblue" stroke="midnightblue" points="228.918,-82.5744 234.59,-73.6253 224.575,-77.0844 228.918,-82.5744"/>
</g>
</g>
</svg>
