<?xml version="1.0" encoding="UTF-8" standalone="no"?>
<!DOCTYPE svg PUBLIC "-//W3C//DTD SVG 1.1//EN"
 "http://www.w3.org/Graphics/SVG/1.1/DTD/svg11.dtd">
<!-- Generated by graphviz version 2.38.0 (20140413.2041)
 -->
<!-- Title: serial.h Pages: 1 -->
<svg width="451pt" height="82pt"
 viewBox="0.00 0.00 450.63 82.00" xmlns="http://www.w3.org/2000/svg" xmlns:xlink="http://www.w3.org/1999/xlink">
<g id="graph0" class="graph" transform="scale(1 1) rotate(0) translate(4 78)">
<title>serial.h</title>
<polygon fill="white" stroke="none" points="-4,4 -4,-78 446.625,-78 446.625,4 -4,4"/>
<!-- Node1 -->
<g id="node1" class="node"><title>Node1</title>
<polygon fill="#bfbfbf" stroke="black" points="180.002,-55.5 180.002,-73.5 228.239,-73.5 228.239,-55.5 180.002,-55.5"/>
<text text-anchor="middle" x="204.121" y="-61.5" font-family="Helvetica,sans-Serif" font-size="10.00">serial.h</text>
</g>
<!-- Node2 -->
<g id="node2" class="node"><title>Node2</title>
<polygon fill="white" stroke="#bfbfbf" points="0,-0.5 0,-18.5 48.2412,-18.5 48.2412,-0.5 0,-0.5"/>
<text text-anchor="middle" x="24.1206" y="-6.5" font-family="Helvetica,sans-Serif" font-size="10.00">stdint.h</text>
</g>
<!-- Node1&#45;&gt;Node2 -->
<g id="edge1" class="edge"><title>Node1&#45;&gt;Node2</title>
<path fill="none" stroke="midnightblue" d="M179.845,-56.3522C148.49,-47.1199 93.7333,-30.9971 58.2137,-20.5385"/>
<polygon fill="midnightblue" stroke="midnightblue" points="58.8798,-17.0861 48.2984,-17.619 56.9026,-23.8011 58.8798,-17.0861"/>
</g>
<!-- Node3 -->
<g id="node3" class="node"><title>Node3</title>
<polygon fill="white" stroke="#bfbfbf" points="66.6084,-0.5 66.6084,-18.5 117.633,-18.5 117.633,-0.5 66.6084,-0.5"/>
<text text-anchor="middle" x="92.1206" y="-6.5" font-family="Helvetica,sans-Serif" font-size="10.00">unistd.h</text>
</g>
<!-- Node1&#45;&gt;Node3 -->
<g id="edge2" class="edge"><title>Node1&#45;&gt;Node3</title>
<path fill="none" stroke="midnightblue" d="M187.11,-55.4504C168.855,-46.8119 139.626,-32.9803 118.408,-22.9396"/>
<polygon fill="midnightblue" stroke="midnightblue" points="119.827,-19.7391 109.291,-18.6253 116.833,-26.0664 119.827,-19.7391"/>
</g>
<!-- Node4 -->
<g id="node4" class="node"><title>Node4</title>
<polygon fill="white" stroke="#bfbfbf" points="135.559,-0.5 135.559,-18.5 192.682,-18.5 192.682,-0.5 135.559,-0.5"/>
<text text-anchor="middle" x="164.121" y="-6.5" font-family="Helvetica,sans-Serif" font-size="10.00">termios.h</text>
</g>
<!-- Node1&#45;&gt;Node4 -->
<g id="edge3" class="edge"><title>Node1&#45;&gt;Node4</title>
<path fill="none" stroke="midnightblue" d="M197.871,-55.2188C192.143,-47.6292 183.498,-36.1753 176.392,-26.7597"/>
<polygon fill="midnightblue" stroke="midnightblue" points="179.014,-24.423 170.196,-18.5496 173.426,-28.6399 179.014,-24.423"/>
</g>
<!-- Node5 -->
<g id="node5" class="node"><title>Node5</title>
<polygon fill="white" stroke="#bfbfbf" points="211,-0.5 211,-18.5 279.241,-18.5 279.241,-0.5 211,-0.5"/>
<text text-anchor="middle" x="245.121" y="-6.5" font-family="Helvetica,sans-Serif" font-size="10.00">sys/select.h</text>
</g>
<!-- Node1&#45;&gt;Node5 -->
<g id="edge4" class="edge"><title>Node1&#45;&gt;Node5</title>
<path fill="none" stroke="midnightblue" d="M210.527,-55.2188C216.459,-47.5509 225.442,-35.9387 232.767,-26.4691"/>
<polygon fill="midnightblue" stroke="midnightblue" points="235.543,-28.6007 238.894,-18.5496 230.006,-24.3176 235.543,-28.6007"/>
</g>
<!-- Node6 -->
<g id="node6" class="node"><title>Node6</title>
<polygon fill="white" stroke="#bfbfbf" points="297.111,-0.5 297.111,-18.5 363.13,-18.5 363.13,-0.5 297.111,-0.5"/>
<text text-anchor="middle" x="330.121" y="-6.5" font-family="Helvetica,sans-Serif" font-size="10.00">sys/types.h</text>
</g>
<!-- Node1&#45;&gt;Node6 -->
<g id="edge5" class="edge"><title>Node1&#45;&gt;Node6</title>
<path fill="none" stroke="midnightblue" d="M223.257,-55.4504C244.072,-46.6951 277.568,-32.6055 301.51,-22.5346"/>
<polygon fill="midnightblue" stroke="midnightblue" points="302.943,-25.7289 310.804,-18.6253 300.229,-19.2765 302.943,-25.7289"/>
</g>
<!-- Node7 -->
<g id="node7" class="node"><title>Node7</title>
<polygon fill="white" stroke="#bfbfbf" points="381.616,-0.5 381.616,-18.5 442.625,-18.5 442.625,-0.5 381.616,-0.5"/>
<text text-anchor="middle" x="412.121" y="-6.5" font-family="Helvetica,sans-Serif" font-size="10.00">sys/time.h</text>
</g>
<!-- Node1&#45;&gt;Node7 -->
<g id="edge6" class="edge"><title>Node1&#45;&gt;Node7</title>
<path fill="none" stroke="midnightblue" d="M228.388,-57.3165C263.509,-48.3675 328.947,-31.6934 371.501,-20.8502"/>
<polygon fill="midnightblue" stroke="midnightblue" points="372.441,-24.2227 381.267,-18.3618 370.712,-17.4394 372.441,-24.2227"/>
</g>
</g>
</svg>
