<?xml version="1.0" encoding="UTF-8" standalone="no"?>
<!DOCTYPE svg PUBLIC "-//W3C//DTD SVG 1.1//EN"
 "http://www.w3.org/Graphics/SVG/1.1/DTD/svg11.dtd">
<!-- Generated by graphviz version 2.38.0 (20140413.2041)
 -->
<!-- Title: spi_master_transport.h Pages: 1 -->
<svg width="580pt" height="247pt"
 viewBox="0.00 0.00 580.04 247.00" xmlns="http://www.w3.org/2000/svg" xmlns:xlink="http://www.w3.org/1999/xlink">
<g id="graph0" class="graph" transform="scale(1 1) rotate(0) translate(4 243)">
<title>spi_master_transport.h</title>
<polygon fill="white" stroke="none" points="-4,4 -4,-243 576.042,-243 576.042,4 -4,4"/>
<!-- Node1 -->
<g id="node1" class="node"><title>Node1</title>
<polygon fill="#bfbfbf" stroke="black" points="82.707,-220.5 82.707,-238.5 200.978,-238.5 200.978,-220.5 82.707,-220.5"/>
<text text-anchor="middle" x="141.842" y="-226.5" font-family="Helvetica,sans-Serif" font-size="10.00">spi_master_transport.h</text>
</g>
<!-- Node2 -->
<g id="node2" class="node"><title>Node2</title>
<polygon fill="white" stroke="#bfbfbf" points="0,-165.5 0,-183.5 47.6846,-183.5 47.6846,-165.5 0,-165.5"/>
<text text-anchor="middle" x="23.8423" y="-171.5" font-family="Helvetica,sans-Serif" font-size="10.00">stdlib.h</text>
</g>
<!-- Node1&#45;&gt;Node2 -->
<g id="edge1" class="edge"><title>Node1&#45;&gt;Node2</title>
<path fill="none" stroke="midnightblue" d="M123.921,-220.45C104.601,-211.773 73.6151,-197.856 51.2364,-187.804"/>
<polygon fill="midnightblue" stroke="midnightblue" points="52.4888,-184.53 41.9326,-183.625 49.6207,-190.915 52.4888,-184.53"/>
</g>
<!-- Node3 -->
<g id="node3" class="node"><title>Node3</title>
<polygon fill="white" stroke="#bfbfbf" points="65.5493,-165.5 65.5493,-183.5 122.135,-183.5 122.135,-165.5 65.5493,-165.5"/>
<text text-anchor="middle" x="93.8423" y="-171.5" font-family="Helvetica,sans-Serif" font-size="10.00">stdbool.h</text>
</g>
<!-- Node1&#45;&gt;Node3 -->
<g id="edge2" class="edge"><title>Node1&#45;&gt;Node3</title>
<path fill="none" stroke="midnightblue" d="M134.342,-220.219C127.327,-212.473 116.666,-200.701 108.043,-191.18"/>
<polygon fill="midnightblue" stroke="midnightblue" points="110.44,-188.612 101.132,-183.55 105.251,-193.311 110.44,-188.612"/>
</g>
<!-- Node4 -->
<g id="node4" class="node"><title>Node4</title>
<g id="a_node4"><a xlink:href="framed__transport_8h.html" target="_top" xlink:title="framed_transport.h">
<polygon fill="white" stroke="black" points="140.599,-165.5 140.599,-183.5 241.086,-183.5 241.086,-165.5 140.599,-165.5"/>
<text text-anchor="middle" x="190.842" y="-171.5" font-family="Helvetica,sans-Serif" font-size="10.00">framed_transport.h</text>
</a>
</g>
</g>
<!-- Node1&#45;&gt;Node4 -->
<g id="edge3" class="edge"><title>Node1&#45;&gt;Node4</title>
<path fill="none" stroke="midnightblue" d="M149.499,-220.219C156.66,-212.473 167.543,-200.701 176.346,-191.18"/>
<polygon fill="midnightblue" stroke="midnightblue" points="179.182,-193.268 183.4,-183.55 174.042,-188.516 179.182,-193.268"/>
</g>
<!-- Node14 -->
<g id="node14" class="node"><title>Node14</title>
<polygon fill="white" stroke="#bfbfbf" points="259.5,-165.5 259.5,-183.5 312.185,-183.5 312.185,-165.5 259.5,-165.5"/>
<text text-anchor="middle" x="285.842" y="-171.5" font-family="Helvetica,sans-Serif" font-size="10.00">fsl_spi.h</text>
</g>
<!-- Node1&#45;&gt;Node14 -->
<g id="edge19" class="edge"><title>Node1&#45;&gt;Node14</title>
<path fill="none" stroke="midnightblue" d="M163.713,-220.45C187.818,-211.578 226.805,-197.229 254.233,-187.134"/>
<polygon fill="midnightblue" stroke="midnightblue" points="255.59,-190.364 263.766,-183.625 253.172,-183.795 255.59,-190.364"/>
</g>
<!-- Node5 -->
<g id="node5" class="node"><title>Node5</title>
<polygon fill="white" stroke="#bfbfbf" points="229.722,-0.5 229.722,-18.5 277.963,-18.5 277.963,-0.5 229.722,-0.5"/>
<text text-anchor="middle" x="253.842" y="-6.5" font-family="Helvetica,sans-Serif" font-size="10.00">stdint.h</text>
</g>
<!-- Node4&#45;&gt;Node5 -->
<g id="edge4" class="edge"><title>Node4&#45;&gt;Node5</title>
<path fill="none" stroke="midnightblue" d="M175.566,-165.231C142.023,-146.019 67.3434,-96.8145 98.8423,-55 113.362,-35.725 178.614,-22.2303 219.688,-15.4715"/>
<polygon fill="midnightblue" stroke="midnightblue" points="220.239,-18.928 229.564,-13.8989 219.138,-12.0151 220.239,-18.928"/>
</g>
<!-- Node6 -->
<g id="node6" class="node"><title>Node6</title>
<polygon fill="white" stroke="#bfbfbf" points="108.116,-55.5 108.116,-73.5 153.569,-73.5 153.569,-55.5 108.116,-55.5"/>
<text text-anchor="middle" x="130.842" y="-61.5" font-family="Helvetica,sans-Serif" font-size="10.00">cstring</text>
</g>
<!-- Node4&#45;&gt;Node6 -->
<g id="edge5" class="edge"><title>Node4&#45;&gt;Node6</title>
<path fill="none" stroke="midnightblue" d="M181.028,-165.27C171.748,-156.994 158.055,-143.424 149.842,-129 141.827,-114.924 136.882,-97.1282 134.054,-83.9596"/>
<polygon fill="midnightblue" stroke="midnightblue" points="137.422,-82.943 132.09,-73.788 130.549,-84.2703 137.422,-82.943"/>
</g>
<!-- Node7 -->
<g id="node7" class="node"><title>Node7</title>
<g id="a_node7"><a xlink:href="transport_8h.html" target="_top" xlink:title="transport.h">
<polygon fill="white" stroke="black" points="158.941,-110.5 158.941,-128.5 222.744,-128.5 222.744,-110.5 158.941,-110.5"/>
<text text-anchor="middle" x="190.842" y="-116.5" font-family="Helvetica,sans-Serif" font-size="10.00">transport.h</text>
</a>
</g>
</g>
<!-- Node4&#45;&gt;Node7 -->
<g id="edge6" class="edge"><title>Node4&#45;&gt;Node7</title>
<path fill="none" stroke="midnightblue" d="M190.842,-165.219C190.842,-158.177 190.842,-147.808 190.842,-138.828"/>
<polygon fill="midnightblue" stroke="midnightblue" points="194.342,-138.55 190.842,-128.55 187.342,-138.55 194.342,-138.55"/>
</g>
<!-- Node9 -->
<g id="node9" class="node"><title>Node9</title>
<g id="a_node9"><a xlink:href="message__buffer_8h.html" target="_top" xlink:title="message_buffer.h">
<polygon fill="white" stroke="black" points="256.179,-110.5 256.179,-128.5 351.505,-128.5 351.505,-110.5 256.179,-110.5"/>
<text text-anchor="middle" x="303.842" y="-116.5" font-family="Helvetica,sans-Serif" font-size="10.00">message_buffer.h</text>
</a>
</g>
</g>
<!-- Node4&#45;&gt;Node9 -->
<g id="edge11" class="edge"><title>Node4&#45;&gt;Node9</title>
<path fill="none" stroke="midnightblue" d="M208.005,-165.45C226.423,-156.812 255.913,-142.98 277.32,-132.94"/>
<polygon fill="midnightblue" stroke="midnightblue" points="278.951,-136.041 286.519,-128.625 275.979,-129.703 278.951,-136.041"/>
</g>
<!-- Node11 -->
<g id="node11" class="node"><title>Node11</title>
<g id="a_node11"><a xlink:href="erpc__threading_8h.html" target="_top" xlink:title="erpc_threading.h">
<polygon fill="white" stroke="black" points="384.315,-110.5 384.315,-128.5 475.369,-128.5 475.369,-110.5 384.315,-110.5"/>
<text text-anchor="middle" x="429.842" y="-116.5" font-family="Helvetica,sans-Serif" font-size="10.00">erpc_threading.h</text>
</a>
</g>
</g>
<!-- Node4&#45;&gt;Node11 -->
<g id="edge15" class="edge"><title>Node4&#45;&gt;Node11</title>
<path fill="none" stroke="midnightblue" d="M227.141,-165.45C269.025,-156.162 337.981,-140.871 383.653,-130.743"/>
<polygon fill="midnightblue" stroke="midnightblue" points="384.589,-134.12 393.594,-128.538 383.073,-127.286 384.589,-134.12"/>
</g>
<!-- Node7&#45;&gt;Node5 -->
<g id="edge7" class="edge"><title>Node7&#45;&gt;Node5</title>
<path fill="none" stroke="midnightblue" d="M190.373,-110.499C189.994,-97.8609 190.741,-72.8785 200.842,-55 207.861,-42.5781 219.772,-32.1052 230.527,-24.4461"/>
<polygon fill="midnightblue" stroke="midnightblue" points="232.777,-27.1524 239.156,-18.6931 228.894,-21.3281 232.777,-27.1524"/>
</g>
<!-- Node7&#45;&gt;Node6 -->
<g id="edge8" class="edge"><title>Node7&#45;&gt;Node6</title>
<path fill="none" stroke="midnightblue" d="M181.73,-110.45C172.743,-102.512 158.792,-90.1891 147.769,-80.4519"/>
<polygon fill="midnightblue" stroke="midnightblue" points="149.853,-77.6225 140.041,-73.6253 145.218,-82.8689 149.853,-77.6225"/>
</g>
<!-- Node8 -->
<g id="node8" class="node"><title>Node8</title>
<g id="a_node8"><a xlink:href="erpc__common_8h_source.html" target="_top" xlink:title="erpc_common.h">
<polygon fill="white" stroke="black" points="209.993,-55.5 209.993,-73.5 297.692,-73.5 297.692,-55.5 209.993,-55.5"/>
<text text-anchor="middle" x="253.842" y="-61.5" font-family="Helvetica,sans-Serif" font-size="10.00">erpc_common.h</text>
</a>
</g>
</g>
<!-- Node7&#45;&gt;Node8 -->
<g id="edge9" class="edge"><title>Node7&#45;&gt;Node8</title>
<path fill="none" stroke="midnightblue" d="M200.411,-110.45C209.939,-102.434 224.783,-89.9471 236.409,-80.1663"/>
<polygon fill="midnightblue" stroke="midnightblue" points="238.785,-82.7413 244.184,-73.6253 234.278,-77.3847 238.785,-82.7413"/>
</g>
<!-- Node8&#45;&gt;Node5 -->
<g id="edge10" class="edge"><title>Node8&#45;&gt;Node5</title>
<path fill="none" stroke="midnightblue" d="M253.842,-55.2188C253.842,-48.1769 253.842,-37.8083 253.842,-28.8277"/>
<polygon fill="midnightblue" stroke="midnightblue" points="257.342,-28.5495 253.842,-18.5496 250.342,-28.5496 257.342,-28.5495"/>
</g>
<!-- Node9&#45;&gt;Node5 -->
<g id="edge13" class="edge"><title>Node9&#45;&gt;Node5</title>
<path fill="none" stroke="midnightblue" d="M306.577,-110.214C310.232,-97.6203 315.328,-73.206 306.842,-55 300.794,-42.025 288.895,-31.4882 277.902,-23.9306"/>
<polygon fill="midnightblue" stroke="midnightblue" points="279.723,-20.9408 269.408,-18.5187 275.961,-26.8442 279.723,-20.9408"/>
</g>
<!-- Node9&#45;&gt;Node8 -->
<g id="edge12" class="edge"><title>Node9&#45;&gt;Node8</title>
<path fill="none" stroke="midnightblue" d="M296.03,-110.219C288.648,-102.394 277.392,-90.4631 268.363,-80.8921"/>
<polygon fill="midnightblue" stroke="midnightblue" points="270.844,-78.4217 261.436,-73.5496 265.753,-83.2253 270.844,-78.4217"/>
</g>
<!-- Node10 -->
<g id="node10" class="node"><title>Node10</title>
<polygon fill="white" stroke="#bfbfbf" points="353.722,-55.5 353.722,-73.5 401.963,-73.5 401.963,-55.5 353.722,-55.5"/>
<text text-anchor="middle" x="377.842" y="-61.5" font-family="Helvetica,sans-Serif" font-size="10.00">cstddef</text>
</g>
<!-- Node9&#45;&gt;Node10 -->
<g id="edge14" class="edge"><title>Node9&#45;&gt;Node10</title>
<path fill="none" stroke="midnightblue" d="M315.081,-110.45C326.491,-102.279 344.388,-89.4604 358.156,-79.5996"/>
<polygon fill="midnightblue" stroke="midnightblue" points="360.406,-82.2936 366.498,-73.6253 356.33,-76.6027 360.406,-82.2936"/>
</g>
<!-- Node11&#45;&gt;Node5 -->
<g id="edge18" class="edge"><title>Node11&#45;&gt;Node5</title>
<path fill="none" stroke="midnightblue" d="M429.777,-110.223C429.209,-96.7375 426.086,-70.0241 410.842,-55 378.11,-22.7401 323.82,-13.496 288.436,-11.0525"/>
<polygon fill="midnightblue" stroke="midnightblue" points="288.28,-7.53906 278.106,-10.4945 287.903,-14.5289 288.28,-7.53906"/>
</g>
<!-- Node12 -->
<g id="node12" class="node"><title>Node12</title>
<g id="a_node12"><a xlink:href="erpc__config__internal_8h_source.html" target="_top" xlink:title="erpc_config_internal.h">
<polygon fill="white" stroke="black" points="457.643,-55.5 457.643,-73.5 572.042,-73.5 572.042,-55.5 457.643,-55.5"/>
<text text-anchor="middle" x="514.842" y="-61.5" font-family="Helvetica,sans-Serif" font-size="10.00">erpc_config_internal.h</text>
</a>
</g>
</g>
<!-- Node11&#45;&gt;Node12 -->
<g id="edge16" class="edge"><title>Node11&#45;&gt;Node12</title>
<path fill="none" stroke="midnightblue" d="M442.752,-110.45C456.107,-102.123 477.201,-88.9704 493.128,-79.0394"/>
<polygon fill="midnightblue" stroke="midnightblue" points="495.177,-81.8863 501.811,-73.6253 491.474,-75.9464 495.177,-81.8863"/>
</g>
<!-- Node13 -->
<g id="node13" class="node"><title>Node13</title>
<g id="a_node13"><a xlink:href="erpc__config_8h.html" target="_top" xlink:title="erpc_config.h">
<polygon fill="white" stroke="black" points="476.823,-0.5 476.823,-18.5 552.862,-18.5 552.862,-0.5 476.823,-0.5"/>
<text text-anchor="middle" x="514.842" y="-6.5" font-family="Helvetica,sans-Serif" font-size="10.00">erpc_config.h</text>
</a>
</g>
</g>
<!-- Node12&#45;&gt;Node13 -->
<g id="edge17" class="edge"><title>Node12&#45;&gt;Node13</title>
<path fill="none" stroke="midnightblue" d="M514.842,-55.2188C514.842,-48.1769 514.842,-37.8083 514.842,-28.8277"/>
<polygon fill="midnightblue" stroke="midnightblue" points="518.342,-28.5495 514.842,-18.5496 511.342,-28.5496 518.342,-28.5495"/>
</g>
</g>
</svg>
