<?xml version="1.0" encoding="UTF-8" standalone="no"?>
<!DOCTYPE svg PUBLIC "-//W3C//DTD SVG 1.1//EN"
 "http://www.w3.org/Graphics/SVG/1.1/DTD/svg11.dtd">
<!-- Generated by graphviz version 2.38.0 (20140413.2041)
 -->
<!-- Title: erpc::TransportArbitrator::PendingClientInfo Pages: 1 -->
<svg width="292pt" height="252pt"
 viewBox="0.00 0.00 292.40 252.00" xmlns="http://www.w3.org/2000/svg" xmlns:xlink="http://www.w3.org/1999/xlink">
<g id="graph0" class="graph" transform="scale(1 1) rotate(0) translate(4 248)">
<title>erpc::TransportArbitrator::PendingClientInfo</title>
<polygon fill="white" stroke="none" points="-4,4 -4,-248 288.399,-248 288.399,4 -4,4"/>
<!-- Node1 -->
<g id="node1" class="node"><title>Node1</title>
<polygon fill="#bfbfbf" stroke="black" points="29.0747,-0.5 29.0747,-28.5 153.634,-28.5 153.634,-0.5 29.0747,-0.5"/>
<text text-anchor="start" x="37.0747" y="-16.5" font-family="Helvetica,sans-Serif" font-size="10.00">erpc::TransportArbitrator</text>
<text text-anchor="middle" x="91.3545" y="-6.5" font-family="Helvetica,sans-Serif" font-size="10.00">::PendingClientInfo</text>
</g>
<!-- Node1&#45;&gt;Node1 -->
<g id="edge2" class="edge"><title>Node1&#45;&gt;Node1</title>
<path fill="none" stroke="#9a32cd" stroke-dasharray="5,2" d="M164.148,-19.2743C168.816,-18.1569 171.634,-16.5654 171.634,-14.5 171.634,-11.1953 164.418,-9.10406 153.961,-8.22626"/>
<polygon fill="#9a32cd" stroke="#9a32cd" points="163.345,-15.8548 153.961,-20.7737 164.364,-22.7802 163.345,-15.8548"/>
<text text-anchor="middle" x="189.42" y="-11.5" font-family="Helvetica,sans-Serif" font-size="10.00"> m_next</text>
</g>
<!-- Node2 -->
<g id="node2" class="node"><title>Node2</title>
<g id="a_node2"><a xlink:href="classerpc_1_1_semaphore.html" target="_top" xlink:title="Simple semaphore class. ">
<polygon fill="white" stroke="black" points="0,-75.5 0,-93.5 92.709,-93.5 92.709,-75.5 0,-75.5"/>
<text text-anchor="middle" x="46.3545" y="-81.5" font-family="Helvetica,sans-Serif" font-size="10.00">erpc::Semaphore</text>
</a>
</g>
</g>
<!-- Node2&#45;&gt;Node1 -->
<g id="edge1" class="edge"><title>Node2&#45;&gt;Node1</title>
<path fill="none" stroke="#9a32cd" stroke-dasharray="5,2" d="M57.2848,-66.983C65.0697,-55.2193 75.393,-39.6196 82.628,-28.6867"/>
<polygon fill="#9a32cd" stroke="#9a32cd" points="54.2932,-65.1616 51.6933,-75.4325 60.1308,-69.0247 54.2932,-65.1616"/>
<text text-anchor="middle" x="88.1353" y="-49" font-family="Helvetica,sans-Serif" font-size="10.00"> m_sem</text>
</g>
<!-- Node3 -->
<g id="node3" class="node"><title>Node3</title>
<g id="a_node3"><a xlink:href="classerpc_1_1_request_context.html" target="_top" xlink:title="Encapsulates all information about a request. ">
<polygon fill="white" stroke="black" points="110.995,-75.5 110.995,-93.5 223.714,-93.5 223.714,-75.5 110.995,-75.5"/>
<text text-anchor="middle" x="167.354" y="-81.5" font-family="Helvetica,sans-Serif" font-size="10.00">erpc::RequestContext</text>
</a>
</g>
</g>
<!-- Node3&#45;&gt;Node1 -->
<g id="edge3" class="edge"><title>Node3&#45;&gt;Node1</title>
<path fill="none" stroke="#9a32cd" stroke-dasharray="5,2" d="M150.814,-68.7009C137.486,-56.7753 118.917,-40.1609 106.093,-28.6867"/>
<polygon fill="#9a32cd" stroke="#9a32cd" points="148.552,-71.3728 158.338,-75.4325 153.219,-66.1561 148.552,-71.3728"/>
<text text-anchor="middle" x="160.367" y="-49" font-family="Helvetica,sans-Serif" font-size="10.00"> m_request</text>
</g>
<!-- Node4 -->
<g id="node4" class="node"><title>Node4</title>
<g id="a_node4"><a xlink:href="classerpc_1_1_codec.html" target="_top" xlink:title="Abstract serialization encoder/decoder interface. ">
<polygon fill="white" stroke="black" points="132.396,-150.5 132.396,-168.5 202.312,-168.5 202.312,-150.5 132.396,-150.5"/>
<text text-anchor="middle" x="167.354" y="-156.5" font-family="Helvetica,sans-Serif" font-size="10.00">erpc::Codec</text>
</a>
</g>
</g>
<!-- Node4&#45;&gt;Node3 -->
<g id="edge4" class="edge"><title>Node4&#45;&gt;Node3</title>
<path fill="none" stroke="#9a32cd" stroke-dasharray="5,2" d="M167.354,-140.349C167.354,-125.479 167.354,-105.117 167.354,-93.8518"/>
<polygon fill="#9a32cd" stroke="#9a32cd" points="163.855,-140.409 167.354,-150.409 170.855,-140.409 163.855,-140.409"/>
<text text-anchor="middle" x="182.64" y="-124" font-family="Helvetica,sans-Serif" font-size="10.00"> m_out</text>
<text text-anchor="middle" x="182.64" y="-114" font-family="Helvetica,sans-Serif" font-size="10.00">m_in</text>
</g>
<!-- Node5 -->
<g id="node5" class="node"><title>Node5</title>
<g id="a_node5"><a xlink:href="classerpc_1_1_message_buffer_1_1_cursor.html" target="_top" xlink:title="Cursor within a MessageBuffer. ">
<polygon fill="white" stroke="black" points="50.3096,-215.5 50.3096,-243.5 158.399,-243.5 158.399,-215.5 50.3096,-215.5"/>
<text text-anchor="start" x="58.3096" y="-231.5" font-family="Helvetica,sans-Serif" font-size="10.00">erpc::MessageBuffer</text>
<text text-anchor="middle" x="104.354" y="-221.5" font-family="Helvetica,sans-Serif" font-size="10.00">::Cursor</text>
</a>
</g>
</g>
<!-- Node5&#45;&gt;Node4 -->
<g id="edge5" class="edge"><title>Node5&#45;&gt;Node4</title>
<path fill="none" stroke="#9a32cd" stroke-dasharray="5,2" d="M123.595,-207.732C135.711,-194.654 150.695,-178.482 159.614,-168.855"/>
<polygon fill="#9a32cd" stroke="#9a32cd" points="120.73,-205.675 116.502,-215.389 125.865,-210.432 120.73,-205.675"/>
<text text-anchor="middle" x="163.581" y="-189" font-family="Helvetica,sans-Serif" font-size="10.00"> m_cursor</text>
</g>
<!-- Node6 -->
<g id="node6" class="node"><title>Node6</title>
<g id="a_node6"><a xlink:href="classerpc_1_1_message_buffer.html" target="_top" xlink:title="Represents a memory buffer containing a message. ">
<polygon fill="white" stroke="black" points="176.31,-220.5 176.31,-238.5 284.399,-238.5 284.399,-220.5 176.31,-220.5"/>
<text text-anchor="middle" x="230.354" y="-226.5" font-family="Helvetica,sans-Serif" font-size="10.00">erpc::MessageBuffer</text>
</a>
</g>
</g>
<!-- Node6&#45;&gt;Node4 -->
<g id="edge6" class="edge"><title>Node6&#45;&gt;Node4</title>
<path fill="none" stroke="#9a32cd" stroke-dasharray="5,2" d="M216.072,-213.084C203.255,-199.25 184.95,-179.491 174.819,-168.557"/>
<polygon fill="#9a32cd" stroke="#9a32cd" points="213.516,-215.476 222.88,-220.432 218.651,-210.718 213.516,-215.476"/>
<text text-anchor="middle" x="221.387" y="-189" font-family="Helvetica,sans-Serif" font-size="10.00"> m_buffer</text>
</g>
</g>
</svg>
