<?xml version="1.0" encoding="UTF-8" standalone="no"?>
<!DOCTYPE svg PUBLIC "-//W3C//DTD SVG 1.1//EN"
 "http://www.w3.org/Graphics/SVG/1.1/DTD/svg11.dtd">
<!-- Generated by graphviz version 2.38.0 (20140413.2041)
 -->
<!-- Title: tcp_transport.h Pages: 1 -->
<svg width="490pt" height="247pt"
 viewBox="0.00 0.00 489.95 247.00" xmlns="http://www.w3.org/2000/svg" xmlns:xlink="http://www.w3.org/1999/xlink">
<g id="graph0" class="graph" transform="scale(1 1) rotate(0) translate(4 243)">
<title>tcp_transport.h</title>
<polygon fill="white" stroke="none" points="-4,4 -4,-243 485.953,-243 485.953,4 -4,4"/>
<!-- Node1 -->
<g id="node1" class="node"><title>Node1</title>
<polygon fill="#bfbfbf" stroke="black" points="185.401,-220.5 185.401,-238.5 268.106,-238.5 268.106,-220.5 185.401,-220.5"/>
<text text-anchor="middle" x="226.753" y="-226.5" font-family="Helvetica,sans-Serif" font-size="10.00">tcp_transport.h</text>
</g>
<!-- Node2 -->
<g id="node2" class="node"><title>Node2</title>
<g id="a_node2"><a xlink:href="framed__transport_8h.html" target="_top" xlink:title="framed_transport.h">
<polygon fill="white" stroke="black" points="105.51,-165.5 105.51,-183.5 205.997,-183.5 205.997,-165.5 105.51,-165.5"/>
<text text-anchor="middle" x="155.753" y="-171.5" font-family="Helvetica,sans-Serif" font-size="10.00">framed_transport.h</text>
</a>
</g>
</g>
<!-- Node1&#45;&gt;Node2 -->
<g id="edge1" class="edge"><title>Node1&#45;&gt;Node2</title>
<path fill="none" stroke="midnightblue" d="M215.97,-220.45C205.127,-212.357 188.178,-199.704 175.02,-189.882"/>
<polygon fill="midnightblue" stroke="midnightblue" points="176.746,-186.803 166.638,-183.625 172.558,-192.412 176.746,-186.803"/>
</g>
<!-- Node9 -->
<g id="node9" class="node"><title>Node9</title>
<g id="a_node9"><a xlink:href="erpc__threading_8h.html" target="_top" xlink:title="erpc_threading.h">
<polygon fill="white" stroke="black" points="292.227,-110.5 292.227,-128.5 383.28,-128.5 383.28,-110.5 292.227,-110.5"/>
<text text-anchor="middle" x="337.753" y="-116.5" font-family="Helvetica,sans-Serif" font-size="10.00">erpc_threading.h</text>
</a>
</g>
</g>
<!-- Node1&#45;&gt;Node9 -->
<g id="edge17" class="edge"><title>Node1&#45;&gt;Node9</title>
<path fill="none" stroke="midnightblue" d="M235.097,-220.382C253.578,-202.4 298.215,-158.969 322.083,-135.747"/>
<polygon fill="midnightblue" stroke="midnightblue" points="324.587,-138.194 329.314,-128.712 319.706,-133.177 324.587,-138.194"/>
</g>
<!-- Node3 -->
<g id="node3" class="node"><title>Node3</title>
<polygon fill="white" stroke="#bfbfbf" points="139.633,-0.5 139.633,-18.5 187.874,-18.5 187.874,-0.5 139.633,-0.5"/>
<text text-anchor="middle" x="163.753" y="-6.5" font-family="Helvetica,sans-Serif" font-size="10.00">stdint.h</text>
</g>
<!-- Node2&#45;&gt;Node3 -->
<g id="edge2" class="edge"><title>Node2&#45;&gt;Node3</title>
<path fill="none" stroke="midnightblue" d="M128.943,-165.48C76.8012,-148.518 -29.9046,-106.318 8.75346,-55 23.2733,-35.725 88.5254,-22.2303 129.599,-15.4715"/>
<polygon fill="midnightblue" stroke="midnightblue" points="130.15,-18.928 139.475,-13.8989 129.049,-12.0151 130.15,-18.928"/>
</g>
<!-- Node4 -->
<g id="node4" class="node"><title>Node4</title>
<polygon fill="white" stroke="#bfbfbf" points="18.0269,-55.5 18.0269,-73.5 63.48,-73.5 63.48,-55.5 18.0269,-55.5"/>
<text text-anchor="middle" x="40.7535" y="-61.5" font-family="Helvetica,sans-Serif" font-size="10.00">cstring</text>
</g>
<!-- Node2&#45;&gt;Node4 -->
<g id="edge3" class="edge"><title>Node2&#45;&gt;Node4</title>
<path fill="none" stroke="midnightblue" d="M134.591,-165.357C117.399,-157.92 93.3614,-145.562 76.7535,-129 63.5963,-115.879 53.7011,-96.9573 47.6474,-83.1839"/>
<polygon fill="midnightblue" stroke="midnightblue" points="50.8362,-81.7362 43.7765,-73.8361 44.3688,-84.4144 50.8362,-81.7362"/>
</g>
<!-- Node5 -->
<g id="node5" class="node"><title>Node5</title>
<g id="a_node5"><a xlink:href="transport_8h.html" target="_top" xlink:title="transport.h">
<polygon fill="white" stroke="black" points="85.8521,-110.5 85.8521,-128.5 149.655,-128.5 149.655,-110.5 85.8521,-110.5"/>
<text text-anchor="middle" x="117.753" y="-116.5" font-family="Helvetica,sans-Serif" font-size="10.00">transport.h</text>
</a>
</g>
</g>
<!-- Node2&#45;&gt;Node5 -->
<g id="edge4" class="edge"><title>Node2&#45;&gt;Node5</title>
<path fill="none" stroke="midnightblue" d="M149.816,-165.219C144.374,-157.629 136.162,-146.175 129.411,-136.76"/>
<polygon fill="midnightblue" stroke="midnightblue" points="132.196,-134.637 123.525,-128.55 126.507,-138.716 132.196,-134.637"/>
</g>
<!-- Node7 -->
<g id="node7" class="node"><title>Node7</title>
<g id="a_node7"><a xlink:href="message__buffer_8h.html" target="_top" xlink:title="message_buffer.h">
<polygon fill="white" stroke="black" points="175.09,-110.5 175.09,-128.5 270.417,-128.5 270.417,-110.5 175.09,-110.5"/>
<text text-anchor="middle" x="222.753" y="-116.5" font-family="Helvetica,sans-Serif" font-size="10.00">message_buffer.h</text>
</a>
</g>
</g>
<!-- Node2&#45;&gt;Node7 -->
<g id="edge9" class="edge"><title>Node2&#45;&gt;Node7</title>
<path fill="none" stroke="midnightblue" d="M165.929,-165.45C176.161,-157.357 192.156,-144.704 204.572,-134.882"/>
<polygon fill="midnightblue" stroke="midnightblue" points="206.81,-137.574 212.482,-128.625 202.468,-132.084 206.81,-137.574"/>
</g>
<!-- Node2&#45;&gt;Node9 -->
<g id="edge13" class="edge"><title>Node2&#45;&gt;Node9</title>
<path fill="none" stroke="midnightblue" d="M183.395,-165.45C214.62,-156.357 265.603,-141.511 300.365,-131.388"/>
<polygon fill="midnightblue" stroke="midnightblue" points="301.528,-134.695 310.15,-128.538 299.57,-127.974 301.528,-134.695"/>
</g>
<!-- Node5&#45;&gt;Node3 -->
<g id="edge5" class="edge"><title>Node5&#45;&gt;Node3</title>
<path fill="none" stroke="midnightblue" d="M114.199,-110.236C109.361,-97.6722 102.225,-73.2958 110.753,-55 116.801,-42.025 128.7,-31.4882 139.694,-23.9306"/>
<polygon fill="midnightblue" stroke="midnightblue" points="141.635,-26.8442 148.187,-18.5187 137.873,-20.9408 141.635,-26.8442"/>
</g>
<!-- Node5&#45;&gt;Node4 -->
<g id="edge6" class="edge"><title>Node5&#45;&gt;Node4</title>
<path fill="none" stroke="midnightblue" d="M106.059,-110.45C94.0738,-102.201 75.2085,-89.2158 60.8297,-79.3187"/>
<polygon fill="midnightblue" stroke="midnightblue" points="62.7799,-76.4121 52.5582,-73.6253 58.811,-82.1782 62.7799,-76.4121"/>
</g>
<!-- Node6 -->
<g id="node6" class="node"><title>Node6</title>
<g id="a_node6"><a xlink:href="erpc__common_8h_source.html" target="_top" xlink:title="erpc_common.h">
<polygon fill="white" stroke="black" points="119.904,-55.5 119.904,-73.5 207.603,-73.5 207.603,-55.5 119.904,-55.5"/>
<text text-anchor="middle" x="163.753" y="-61.5" font-family="Helvetica,sans-Serif" font-size="10.00">erpc_common.h</text>
</a>
</g>
</g>
<!-- Node5&#45;&gt;Node6 -->
<g id="edge7" class="edge"><title>Node5&#45;&gt;Node6</title>
<path fill="none" stroke="midnightblue" d="M124.941,-110.219C131.664,-102.473 141.881,-90.7013 150.144,-81.1799"/>
<polygon fill="midnightblue" stroke="midnightblue" points="152.856,-83.3959 156.767,-73.5496 147.569,-78.8076 152.856,-83.3959"/>
</g>
<!-- Node6&#45;&gt;Node3 -->
<g id="edge8" class="edge"><title>Node6&#45;&gt;Node3</title>
<path fill="none" stroke="midnightblue" d="M163.753,-55.2188C163.753,-48.1769 163.753,-37.8083 163.753,-28.8277"/>
<polygon fill="midnightblue" stroke="midnightblue" points="167.254,-28.5495 163.753,-18.5496 160.254,-28.5496 167.254,-28.5495"/>
</g>
<!-- Node7&#45;&gt;Node3 -->
<g id="edge11" class="edge"><title>Node7&#45;&gt;Node3</title>
<path fill="none" stroke="midnightblue" d="M223.887,-110.123C225.2,-97.4119 226.119,-72.8455 216.753,-55 210.057,-42.2403 198.002,-31.6689 187.079,-24.0361"/>
<polygon fill="midnightblue" stroke="midnightblue" points="188.973,-21.0929 178.686,-18.5591 185.148,-26.9552 188.973,-21.0929"/>
</g>
<!-- Node7&#45;&gt;Node6 -->
<g id="edge10" class="edge"><title>Node7&#45;&gt;Node6</title>
<path fill="none" stroke="midnightblue" d="M213.793,-110.45C204.956,-102.512 191.238,-90.1891 180.398,-80.4519"/>
<polygon fill="midnightblue" stroke="midnightblue" points="182.577,-77.7043 172.799,-73.6253 177.899,-82.9118 182.577,-77.7043"/>
</g>
<!-- Node8 -->
<g id="node8" class="node"><title>Node8</title>
<polygon fill="white" stroke="#bfbfbf" points="263.633,-55.5 263.633,-73.5 311.874,-73.5 311.874,-55.5 263.633,-55.5"/>
<text text-anchor="middle" x="287.753" y="-61.5" font-family="Helvetica,sans-Serif" font-size="10.00">cstddef</text>
</g>
<!-- Node7&#45;&gt;Node8 -->
<g id="edge12" class="edge"><title>Node7&#45;&gt;Node8</title>
<path fill="none" stroke="midnightblue" d="M232.626,-110.45C242.456,-102.434 257.771,-89.9471 269.767,-80.1663"/>
<polygon fill="midnightblue" stroke="midnightblue" points="272.25,-82.6573 277.788,-73.6253 267.826,-77.2322 272.25,-82.6573"/>
</g>
<!-- Node9&#45;&gt;Node3 -->
<g id="edge16" class="edge"><title>Node9&#45;&gt;Node3</title>
<path fill="none" stroke="midnightblue" d="M337.978,-110.244C337.876,-96.7895 335.653,-70.1193 320.753,-55 288.495,-22.2664 234.078,-13.149 198.537,-10.8618"/>
<polygon fill="midnightblue" stroke="midnightblue" points="198.319,-7.34691 188.159,-10.3526 197.976,-14.3385 198.319,-7.34691"/>
</g>
<!-- Node10 -->
<g id="node10" class="node"><title>Node10</title>
<g id="a_node10"><a xlink:href="erpc__config__internal_8h_source.html" target="_top" xlink:title="erpc_config_internal.h">
<polygon fill="white" stroke="black" points="367.554,-55.5 367.554,-73.5 481.953,-73.5 481.953,-55.5 367.554,-55.5"/>
<text text-anchor="middle" x="424.753" y="-61.5" font-family="Helvetica,sans-Serif" font-size="10.00">erpc_config_internal.h</text>
</a>
</g>
</g>
<!-- Node9&#45;&gt;Node10 -->
<g id="edge14" class="edge"><title>Node9&#45;&gt;Node10</title>
<path fill="none" stroke="midnightblue" d="M350.967,-110.45C364.636,-102.123 386.227,-88.9704 402.528,-79.0394"/>
<polygon fill="midnightblue" stroke="midnightblue" points="404.696,-81.817 411.416,-73.6253 401.055,-75.8389 404.696,-81.817"/>
</g>
<!-- Node11 -->
<g id="node11" class="node"><title>Node11</title>
<g id="a_node11"><a xlink:href="erpc__config_8h.html" target="_top" xlink:title="erpc_config.h">
<polygon fill="white" stroke="black" points="386.734,-0.5 386.734,-18.5 462.773,-18.5 462.773,-0.5 386.734,-0.5"/>
<text text-anchor="middle" x="424.753" y="-6.5" font-family="Helvetica,sans-Serif" font-size="10.00">erpc_config.h</text>
</a>
</g>
</g>
<!-- Node10&#45;&gt;Node11 -->
<g id="edge15" class="edge"><title>Node10&#45;&gt;Node11</title>
<path fill="none" stroke="midnightblue" d="M424.753,-55.2188C424.753,-48.1769 424.753,-37.8083 424.753,-28.8277"/>
<polygon fill="midnightblue" stroke="midnightblue" points="428.254,-28.5495 424.753,-18.5496 421.254,-28.5496 428.254,-28.5495"/>
</g>
</g>
</svg>
