<?xml version="1.0" encoding="UTF-8" standalone="no"?>
<!DOCTYPE svg PUBLIC "-//W3C//DTD SVG 1.1//EN"
 "http://www.w3.org/Graphics/SVG/1.1/DTD/svg11.dtd">
<!-- Generated by graphviz version 2.38.0 (20140413.2041)
 -->
<!-- Title: transport.h Pages: 1 -->
<svg width="1412pt" height="202pt"
 viewBox="0.00 0.00 1411.99 202.00" xmlns="http://www.w3.org/2000/svg" xmlns:xlink="http://www.w3.org/1999/xlink">
<g id="graph0" class="graph" transform="scale(1 1) rotate(0) translate(4 198)">
<title>transport.h</title>
<polygon fill="white" stroke="none" points="-4,4 -4,-198 1407.99,-198 1407.99,4 -4,4"/>
<!-- Node1 -->
<g id="node1" class="node"><title>Node1</title>
<polygon fill="#bfbfbf" stroke="black" points="848.515,-175.5 848.515,-193.5 912.317,-193.5 912.317,-175.5 848.515,-175.5"/>
<text text-anchor="middle" x="880.416" y="-181.5" font-family="Helvetica,sans-Serif" font-size="10.00">transport.h</text>
</g>
<!-- Node2 -->
<g id="node2" class="node"><title>Node2</title>
<g id="a_node2"><a xlink:href="codec_8h.html" target="_top" xlink:title="codec.h">
<polygon fill="white" stroke="black" points="200.904,-115.5 200.904,-133.5 251.928,-133.5 251.928,-115.5 200.904,-115.5"/>
<text text-anchor="middle" x="226.416" y="-121.5" font-family="Helvetica,sans-Serif" font-size="10.00">codec.h</text>
</a>
</g>
</g>
<!-- Node1&#45;&gt;Node2 -->
<g id="edge1" class="edge"><title>Node1&#45;&gt;Node2</title>
<path fill="none" stroke="midnightblue" d="M838.179,-179.754C713.879,-168.731 351.832,-136.623 252.108,-127.779"/>
<polygon fill="midnightblue" stroke="midnightblue" points="838.159,-183.266 848.43,-180.663 838.778,-176.293 838.159,-183.266"/>
</g>
<!-- Node5 -->
<g id="node5" class="node"><title>Node5</title>
<g id="a_node5"><a xlink:href="transport__arbitrator_8h.html" target="_top" xlink:title="transport_arbitrator.h">
<polygon fill="white" stroke="black" points="0,-0.5 0,-18.5 108.832,-18.5 108.832,-0.5 0,-0.5"/>
<text text-anchor="middle" x="54.416" y="-6.5" font-family="Helvetica,sans-Serif" font-size="10.00">transport_arbitrator.h</text>
</a>
</g>
</g>
<!-- Node1&#45;&gt;Node5 -->
<g id="edge9" class="edge"><title>Node1&#45;&gt;Node5</title>
<path fill="none" stroke="midnightblue" d="M837.757,-182.907C707.184,-180.751 314.383,-171.651 191.416,-139 127.827,-122.115 94.9965,-128.686 58.416,-74 47.1154,-57.1062 49.993,-31.6931 52.5056,-18.7345"/>
<polygon fill="midnightblue" stroke="midnightblue" points="838.081,-186.412 848.135,-183.072 838.193,-179.413 838.081,-186.412"/>
</g>
<!-- Node9 -->
<g id="node9" class="node"><title>Node9</title>
<g id="a_node9"><a xlink:href="framed__transport_8h.html" target="_top" xlink:title="framed_transport.h">
<polygon fill="white" stroke="black" points="644.172,-115.5 644.172,-133.5 744.66,-133.5 744.66,-115.5 644.172,-115.5"/>
<text text-anchor="middle" x="694.416" y="-121.5" font-family="Helvetica,sans-Serif" font-size="10.00">framed_transport.h</text>
</a>
</g>
</g>
<!-- Node1&#45;&gt;Node9 -->
<g id="edge10" class="edge"><title>Node1&#45;&gt;Node9</title>
<path fill="none" stroke="midnightblue" d="M844.836,-172.405C808.446,-161.058 752.787,-143.702 720.358,-133.589"/>
<polygon fill="midnightblue" stroke="midnightblue" points="843.965,-175.8 854.554,-175.435 846.049,-169.117 843.965,-175.8"/>
</g>
<!-- Node18 -->
<g id="node18" class="node"><title>Node18</title>
<g id="a_node18"><a xlink:href="inter__thread__buffer__transport_8h.html" target="_top" xlink:title="inter_thread_buffer\l_transport.h">
<polygon fill="white" stroke="black" points="762.253,-110.5 762.253,-138.5 862.579,-138.5 862.579,-110.5 762.253,-110.5"/>
<text text-anchor="start" x="770.253" y="-126.5" font-family="Helvetica,sans-Serif" font-size="10.00">inter_thread_buffer</text>
<text text-anchor="middle" x="812.416" y="-116.5" font-family="Helvetica,sans-Serif" font-size="10.00">_transport.h</text>
</a>
</g>
</g>
<!-- Node1&#45;&gt;Node18 -->
<g id="edge19" class="edge"><title>Node1&#45;&gt;Node18</title>
<path fill="none" stroke="midnightblue" d="M863.329,-168.926C852.41,-159.613 838.369,-147.636 827.798,-138.62"/>
<polygon fill="midnightblue" stroke="midnightblue" points="861.081,-171.609 870.961,-175.435 865.624,-166.283 861.081,-171.609"/>
</g>
<!-- Node19 -->
<g id="node19" class="node"><title>Node19</title>
<g id="a_node19"><a xlink:href="rpmsg__lite__rtos__transport_8h.html" target="_top" xlink:title="rpmsg_lite_rtos_transport.h">
<polygon fill="white" stroke="black" points="880.554,-115.5 880.554,-133.5 1018.28,-133.5 1018.28,-115.5 880.554,-115.5"/>
<text text-anchor="middle" x="949.416" y="-121.5" font-family="Helvetica,sans-Serif" font-size="10.00">rpmsg_lite_rtos_transport.h</text>
</a>
</g>
</g>
<!-- Node1&#45;&gt;Node19 -->
<g id="edge20" class="edge"><title>Node1&#45;&gt;Node19</title>
<path fill="none" stroke="midnightblue" d="M897.904,-168.8C911.057,-157.744 928.611,-142.988 939.457,-133.872"/>
<polygon fill="midnightblue" stroke="midnightblue" points="895.413,-166.322 890.01,-175.435 899.917,-171.68 895.413,-166.322"/>
</g>
<!-- Node20 -->
<g id="node20" class="node"><title>Node20</title>
<g id="a_node20"><a xlink:href="rpmsg__lite__transport_8h.html" target="_top" xlink:title="rpmsg_lite_transport.h">
<polygon fill="white" stroke="black" points="1036.67,-115.5 1036.67,-133.5 1152.16,-133.5 1152.16,-115.5 1036.67,-115.5"/>
<text text-anchor="middle" x="1094.42" y="-121.5" font-family="Helvetica,sans-Serif" font-size="10.00">rpmsg_lite_transport.h</text>
</a>
</g>
</g>
<!-- Node1&#45;&gt;Node20 -->
<g id="edge21" class="edge"><title>Node1&#45;&gt;Node20</title>
<path fill="none" stroke="midnightblue" d="M920.018,-172.767C961.849,-161.43 1026.86,-143.81 1064.57,-133.589"/>
<polygon fill="midnightblue" stroke="midnightblue" points="918.908,-169.441 910.172,-175.435 920.739,-176.197 918.908,-169.441"/>
</g>
<!-- Node21 -->
<g id="node21" class="node"><title>Node21</title>
<g id="a_node21"><a xlink:href="rpmsg__rtos__transport_8h.html" target="_top" xlink:title="rpmsg_rtos_transport.h">
<polygon fill="white" stroke="black" points="1169.73,-115.5 1169.73,-133.5 1289.11,-133.5 1289.11,-115.5 1169.73,-115.5"/>
<text text-anchor="middle" x="1229.42" y="-121.5" font-family="Helvetica,sans-Serif" font-size="10.00">rpmsg_rtos_transport.h</text>
</a>
</g>
</g>
<!-- Node1&#45;&gt;Node21 -->
<g id="edge22" class="edge"><title>Node1&#45;&gt;Node21</title>
<path fill="none" stroke="midnightblue" d="M922.587,-177.345C977.629,-169.191 1076.91,-154.075 1161.42,-139 1170.78,-137.33 1180.84,-135.405 1190.27,-133.542"/>
<polygon fill="midnightblue" stroke="midnightblue" points="921.893,-173.909 912.512,-178.833 922.916,-180.834 921.893,-173.909"/>
</g>
<!-- Node22 -->
<g id="node22" class="node"><title>Node22</title>
<g id="a_node22"><a xlink:href="rpmsg__transport_8h.html" target="_top" xlink:title="rpmsg_transport.h">
<polygon fill="white" stroke="black" points="1306.84,-115.5 1306.84,-133.5 1403.99,-133.5 1403.99,-115.5 1306.84,-115.5"/>
<text text-anchor="middle" x="1355.42" y="-121.5" font-family="Helvetica,sans-Serif" font-size="10.00">rpmsg_transport.h</text>
</a>
</g>
</g>
<!-- Node1&#45;&gt;Node22 -->
<g id="edge23" class="edge"><title>Node1&#45;&gt;Node22</title>
<path fill="none" stroke="midnightblue" d="M922.399,-180.796C997.997,-175.535 1161.87,-162.343 1298.42,-139 1307.04,-137.526 1316.3,-135.519 1324.8,-133.503"/>
<polygon fill="midnightblue" stroke="midnightblue" points="922.067,-177.31 912.33,-181.486 922.546,-184.294 922.067,-177.31"/>
</g>
<!-- Node3 -->
<g id="node3" class="node"><title>Node3</title>
<g id="a_node3"><a xlink:href="client__manager_8h.html" target="_top" xlink:title="client_manager.h">
<polygon fill="white" stroke="black" points="180.333,-55.5 180.333,-73.5 272.5,-73.5 272.5,-55.5 180.333,-55.5"/>
<text text-anchor="middle" x="226.416" y="-61.5" font-family="Helvetica,sans-Serif" font-size="10.00">client_manager.h</text>
</a>
</g>
</g>
<!-- Node2&#45;&gt;Node3 -->
<g id="edge2" class="edge"><title>Node2&#45;&gt;Node3</title>
<path fill="none" stroke="midnightblue" d="M226.416,-105.214C226.416,-94.7141 226.416,-82.0332 226.416,-73.8718"/>
<polygon fill="midnightblue" stroke="midnightblue" points="222.916,-105.435 226.416,-115.435 229.916,-105.435 222.916,-105.435"/>
</g>
<!-- Node2&#45;&gt;Node5 -->
<g id="edge5" class="edge"><title>Node2&#45;&gt;Node5</title>
<path fill="none" stroke="midnightblue" d="M190.563,-121.237C155.989,-117.15 104.464,-105.744 73.416,-74 58.4502,-58.6987 55.2016,-32.1109 54.544,-18.7147"/>
<polygon fill="midnightblue" stroke="midnightblue" points="190.4,-124.739 200.707,-122.285 191.12,-117.776 190.4,-124.739"/>
</g>
<!-- Node6 -->
<g id="node6" class="node"><title>Node6</title>
<g id="a_node6"><a xlink:href="basic__codec_8h.html" target="_top" xlink:title="basic_codec.h">
<polygon fill="white" stroke="black" points="82.4507,-55.5 82.4507,-73.5 162.381,-73.5 162.381,-55.5 82.4507,-55.5"/>
<text text-anchor="middle" x="122.416" y="-61.5" font-family="Helvetica,sans-Serif" font-size="10.00">basic_codec.h</text>
</a>
</g>
</g>
<!-- Node2&#45;&gt;Node6 -->
<g id="edge6" class="edge"><title>Node2&#45;&gt;Node6</title>
<path fill="none" stroke="midnightblue" d="M203.062,-110.476C182.849,-99.2029 154.241,-83.2486 137.089,-73.6831"/>
<polygon fill="midnightblue" stroke="midnightblue" points="201.517,-113.621 211.955,-115.435 204.926,-107.508 201.517,-113.621"/>
</g>
<!-- Node7 -->
<g id="node7" class="node"><title>Node7</title>
<g id="a_node7"><a xlink:href="server_8h.html" target="_top" xlink:title="server.h">
<polygon fill="white" stroke="black" points="290.628,-55.5 290.628,-73.5 342.204,-73.5 342.204,-55.5 290.628,-55.5"/>
<text text-anchor="middle" x="316.416" y="-61.5" font-family="Helvetica,sans-Serif" font-size="10.00">server.h</text>
</a>
</g>
</g>
<!-- Node2&#45;&gt;Node7 -->
<g id="edge7" class="edge"><title>Node2&#45;&gt;Node7</title>
<path fill="none" stroke="midnightblue" d="M247.342,-110.014C264.789,-98.7709 289.077,-83.1187 303.718,-73.6831"/>
<polygon fill="midnightblue" stroke="midnightblue" points="245.44,-107.076 238.93,-115.435 249.232,-112.96 245.44,-107.076"/>
</g>
<!-- Node4 -->
<g id="node4" class="node"><title>Node4</title>
<g id="a_node4"><a xlink:href="arbitrated__client__manager_8h.html" target="_top" xlink:title="arbitrated_client_manager.h">
<polygon fill="white" stroke="black" points="141.429,-0.5 141.429,-18.5 281.403,-18.5 281.403,-0.5 141.429,-0.5"/>
<text text-anchor="middle" x="211.416" y="-6.5" font-family="Helvetica,sans-Serif" font-size="10.00">arbitrated_client_manager.h</text>
</a>
</g>
</g>
<!-- Node3&#45;&gt;Node4 -->
<g id="edge3" class="edge"><title>Node3&#45;&gt;Node4</title>
<path fill="none" stroke="midnightblue" d="M221.314,-45.4734C218.725,-36.3257 215.71,-25.6724 213.694,-18.5496"/>
<polygon fill="midnightblue" stroke="midnightblue" points="217.981,-46.5498 224.072,-55.2188 224.717,-44.6435 217.981,-46.5498"/>
</g>
<!-- Node3&#45;&gt;Node5 -->
<g id="edge4" class="edge"><title>Node3&#45;&gt;Node5</title>
<path fill="none" stroke="midnightblue" d="M190.617,-52.4689C157.763,-42.3454 109.87,-27.5875 80.5026,-18.5383"/>
<polygon fill="midnightblue" stroke="midnightblue" points="189.706,-55.8504 200.293,-55.4504 191.767,-49.1608 189.706,-55.8504"/>
</g>
<!-- Node8 -->
<g id="node8" class="node"><title>Node8</title>
<g id="a_node8"><a xlink:href="simple__server_8h.html" target="_top" xlink:title="simple_server.h">
<polygon fill="white" stroke="black" points="299.399,-0.5 299.399,-18.5 385.433,-18.5 385.433,-0.5 299.399,-0.5"/>
<text text-anchor="middle" x="342.416" y="-6.5" font-family="Helvetica,sans-Serif" font-size="10.00">simple_server.h</text>
</a>
</g>
</g>
<!-- Node7&#45;&gt;Node8 -->
<g id="edge8" class="edge"><title>Node7&#45;&gt;Node8</title>
<path fill="none" stroke="midnightblue" d="M324.968,-46.0678C329.519,-36.7905 334.897,-25.8272 338.467,-18.5496"/>
<polygon fill="midnightblue" stroke="midnightblue" points="321.741,-44.6993 320.479,-55.2188 328.025,-47.7824 321.741,-44.6993"/>
</g>
<!-- Node10 -->
<g id="node10" class="node"><title>Node10</title>
<g id="a_node10"><a xlink:href="dspi__master__transport_8h.html" target="_top" xlink:title="dspi_master_transport.h">
<polygon fill="white" stroke="black" points="694.5,-55.5 694.5,-73.5 818.332,-73.5 818.332,-55.5 694.5,-55.5"/>
<text text-anchor="middle" x="756.416" y="-61.5" font-family="Helvetica,sans-Serif" font-size="10.00">dspi_master_transport.h</text>
</a>
</g>
</g>
<!-- Node9&#45;&gt;Node10 -->
<g id="edge11" class="edge"><title>Node9&#45;&gt;Node10</title>
<path fill="none" stroke="midnightblue" d="M710.468,-108.483C722.248,-97.4633 737.814,-82.9015 747.467,-73.8718"/>
<polygon fill="midnightblue" stroke="midnightblue" points="707.949,-106.048 703.037,-115.435 712.731,-111.16 707.949,-106.048"/>
</g>
<!-- Node11 -->
<g id="node11" class="node"><title>Node11</title>
<g id="a_node11"><a xlink:href="dspi__slave__transport_8h.html" target="_top" xlink:title="dspi_slave_transport.h">
<polygon fill="white" stroke="black" points="836.108,-55.5 836.108,-73.5 952.724,-73.5 952.724,-55.5 836.108,-55.5"/>
<text text-anchor="middle" x="894.416" y="-61.5" font-family="Helvetica,sans-Serif" font-size="10.00">dspi_slave_transport.h</text>
</a>
</g>
</g>
<!-- Node9&#45;&gt;Node11 -->
<g id="edge12" class="edge"><title>Node9&#45;&gt;Node11</title>
<path fill="none" stroke="midnightblue" d="M731.924,-112.623C771.035,-101.281 831.428,-83.7665 866.521,-73.5894"/>
<polygon fill="midnightblue" stroke="midnightblue" points="730.855,-109.289 722.225,-115.435 732.804,-116.012 730.855,-109.289"/>
</g>
<!-- Node12 -->
<g id="node12" class="node"><title>Node12</title>
<g id="a_node12"><a xlink:href="lpuart__transport_8h.html" target="_top" xlink:title="lpuart_transport.h">
<polygon fill="white" stroke="black" points="970.227,-55.5 970.227,-73.5 1064.61,-73.5 1064.61,-55.5 970.227,-55.5"/>
<text text-anchor="middle" x="1017.42" y="-61.5" font-family="Helvetica,sans-Serif" font-size="10.00">lpuart_transport.h</text>
</a>
</g>
</g>
<!-- Node9&#45;&gt;Node12 -->
<g id="edge13" class="edge"><title>Node9&#45;&gt;Node12</title>
<path fill="none" stroke="midnightblue" d="M737.933,-113.243C743.141,-112.105 748.392,-110.997 753.416,-110 793.991,-101.945 905.775,-83.5777 970.126,-73.1327"/>
<polygon fill="midnightblue" stroke="midnightblue" points="737.037,-109.857 728.04,-115.452 738.563,-116.689 737.037,-109.857"/>
</g>
<!-- Node13 -->
<g id="node13" class="node"><title>Node13</title>
<g id="a_node13"><a xlink:href="serial__transport_8h.html" target="_top" xlink:title="serial_transport.h">
<polygon fill="white" stroke="black" points="1082.79,-55.5 1082.79,-73.5 1176.05,-73.5 1176.05,-55.5 1082.79,-55.5"/>
<text text-anchor="middle" x="1129.42" y="-61.5" font-family="Helvetica,sans-Serif" font-size="10.00">serial_transport.h</text>
</a>
</g>
</g>
<!-- Node9&#45;&gt;Node13 -->
<g id="edge14" class="edge"><title>Node9&#45;&gt;Node13</title>
<path fill="none" stroke="midnightblue" d="M736.48,-113.266C742.153,-112.065 747.913,-110.936 753.416,-110 894.509,-86.0004 931.529,-92.7422 1073.42,-74 1076.44,-73.6008 1079.55,-73.1736 1082.68,-72.7311"/>
<polygon fill="midnightblue" stroke="midnightblue" points="735.448,-109.91 726.436,-115.481 736.955,-116.746 735.448,-109.91"/>
</g>
<!-- Node14 -->
<g id="node14" class="node"><title>Node14</title>
<g id="a_node14"><a xlink:href="spi__master__transport_8h.html" target="_top" xlink:title="spi_master_transport.h">
<polygon fill="white" stroke="black" points="1194.28,-55.5 1194.28,-73.5 1312.55,-73.5 1312.55,-55.5 1194.28,-55.5"/>
<text text-anchor="middle" x="1253.42" y="-61.5" font-family="Helvetica,sans-Serif" font-size="10.00">spi_master_transport.h</text>
</a>
</g>
</g>
<!-- Node9&#45;&gt;Node14 -->
<g id="edge15" class="edge"><title>Node9&#45;&gt;Node14</title>
<path fill="none" stroke="midnightblue" d="M735.619,-113.291C741.565,-112.046 747.629,-110.899 753.416,-110 943.8,-80.4388 993.786,-93.9528 1185.42,-74 1188.26,-73.7043 1191.16,-73.3893 1194.09,-73.0613"/>
<polygon fill="midnightblue" stroke="midnightblue" points="734.809,-109.885 725.795,-115.452 736.313,-116.722 734.809,-109.885"/>
</g>
<!-- Node15 -->
<g id="node15" class="node"><title>Node15</title>
<g id="a_node15"><a xlink:href="spi__slave__transport_8h.html" target="_top" xlink:title="spi_slave_transport.h">
<polygon fill="white" stroke="black" points="359.889,-55.5 359.889,-73.5 470.943,-73.5 470.943,-55.5 359.889,-55.5"/>
<text text-anchor="middle" x="415.416" y="-61.5" font-family="Helvetica,sans-Serif" font-size="10.00">spi_slave_transport.h</text>
</a>
</g>
</g>
<!-- Node9&#45;&gt;Node15 -->
<g id="edge16" class="edge"><title>Node9&#45;&gt;Node15</title>
<path fill="none" stroke="midnightblue" d="M645.803,-113.394C591.29,-102.062 503.991,-83.9133 453.969,-73.5147"/>
<polygon fill="midnightblue" stroke="midnightblue" points="645.412,-116.888 655.915,-115.496 646.837,-110.034 645.412,-116.888"/>
</g>
<!-- Node16 -->
<g id="node16" class="node"><title>Node16</title>
<g id="a_node16"><a xlink:href="tcp__transport_8h.html" target="_top" xlink:title="tcp_transport.h">
<polygon fill="white" stroke="black" points="489.064,-55.5 489.064,-73.5 571.768,-73.5 571.768,-55.5 489.064,-55.5"/>
<text text-anchor="middle" x="530.416" y="-61.5" font-family="Helvetica,sans-Serif" font-size="10.00">tcp_transport.h</text>
</a>
</g>
</g>
<!-- Node9&#45;&gt;Node16 -->
<g id="edge17" class="edge"><title>Node9&#45;&gt;Node16</title>
<path fill="none" stroke="midnightblue" d="M661.802,-111.966C629.704,-100.614 581.516,-83.572 553.29,-73.5894"/>
<polygon fill="midnightblue" stroke="midnightblue" points="661.018,-115.401 671.613,-115.435 663.352,-108.801 661.018,-115.401"/>
</g>
<!-- Node17 -->
<g id="node17" class="node"><title>Node17</title>
<g id="a_node17"><a xlink:href="uart__transport_8h.html" target="_top" xlink:title="uart_transport.h">
<polygon fill="white" stroke="black" points="590.118,-55.5 590.118,-73.5 676.714,-73.5 676.714,-55.5 590.118,-55.5"/>
<text text-anchor="middle" x="633.416" y="-61.5" font-family="Helvetica,sans-Serif" font-size="10.00">uart_transport.h</text>
</a>
</g>
</g>
<!-- Node9&#45;&gt;Node17 -->
<g id="edge18" class="edge"><title>Node9&#45;&gt;Node17</title>
<path fill="none" stroke="midnightblue" d="M678.623,-108.483C667.033,-97.4633 651.718,-82.9015 642.221,-73.8718"/>
<polygon fill="midnightblue" stroke="midnightblue" points="676.275,-111.081 685.934,-115.435 681.099,-106.008 676.275,-111.081"/>
</g>
</g>
</svg>
