<?xml version="1.0" encoding="UTF-8" standalone="no"?>
<!DOCTYPE svg PUBLIC "-//W3C//DTD SVG 1.1//EN"
 "http://www.w3.org/Graphics/SVG/1.1/DTD/svg11.dtd">
<!-- Generated by graphviz version 2.38.0 (20140413.2041)
 -->
<!-- Title: transport.h Pages: 1 -->
<svg width="172pt" height="137pt"
 viewBox="0.00 0.00 171.57 137.00" xmlns="http://www.w3.org/2000/svg" xmlns:xlink="http://www.w3.org/1999/xlink">
<g id="graph0" class="graph" transform="scale(1 1) rotate(0) translate(4 133)">
<title>transport.h</title>
<polygon fill="white" stroke="none" points="-4,4 -4,-133 167.568,-133 167.568,4 -4,4"/>
<!-- Node1 -->
<g id="node1" class="node"><title>Node1</title>
<polygon fill="#bfbfbf" stroke="black" points="2.81669,-110.5 2.81669,-128.5 66.6194,-128.5 66.6194,-110.5 2.81669,-110.5"/>
<text text-anchor="middle" x="34.7181" y="-116.5" font-family="Helvetica,sans-Serif" font-size="10.00">transport.h</text>
</g>
<!-- Node2 -->
<g id="node2" class="node"><title>Node2</title>
<polygon fill="white" stroke="#bfbfbf" points="27.5975,-0.5 27.5975,-18.5 75.8387,-18.5 75.8387,-0.5 27.5975,-0.5"/>
<text text-anchor="middle" x="51.7181" y="-6.5" font-family="Helvetica,sans-Serif" font-size="10.00">stdint.h</text>
</g>
<!-- Node1&#45;&gt;Node2 -->
<g id="edge1" class="edge"><title>Node1&#45;&gt;Node2</title>
<path fill="none" stroke="midnightblue" d="M25.5534,-110.406C13.1977,-98.4579 -6.27671,-75.3192 2.71806,-55 8.24183,-42.5218 19.1845,-32.0449 29.3301,-24.3975"/>
<polygon fill="midnightblue" stroke="midnightblue" points="31.3442,-27.26 37.5286,-18.6575 27.3294,-21.5258 31.3442,-27.26"/>
</g>
<!-- Node3 -->
<g id="node3" class="node"><title>Node3</title>
<polygon fill="white" stroke="#bfbfbf" points="11.9915,-55.5 11.9915,-73.5 57.4446,-73.5 57.4446,-55.5 11.9915,-55.5"/>
<text text-anchor="middle" x="34.7181" y="-61.5" font-family="Helvetica,sans-Serif" font-size="10.00">cstring</text>
</g>
<!-- Node1&#45;&gt;Node3 -->
<g id="edge2" class="edge"><title>Node1&#45;&gt;Node3</title>
<path fill="none" stroke="midnightblue" d="M34.7181,-110.219C34.7181,-103.177 34.7181,-92.8083 34.7181,-83.8277"/>
<polygon fill="midnightblue" stroke="midnightblue" points="38.2182,-83.5495 34.7181,-73.5496 31.2182,-83.5496 38.2182,-83.5495"/>
</g>
<!-- Node4 -->
<g id="node4" class="node"><title>Node4</title>
<g id="a_node4"><a xlink:href="erpc__common_8h_source.html" target="_top" xlink:title="erpc_common.h">
<polygon fill="white" stroke="black" points="75.8684,-55.5 75.8684,-73.5 163.568,-73.5 163.568,-55.5 75.8684,-55.5"/>
<text text-anchor="middle" x="119.718" y="-61.5" font-family="Helvetica,sans-Serif" font-size="10.00">erpc_common.h</text>
</a>
</g>
</g>
<!-- Node1&#45;&gt;Node4 -->
<g id="edge3" class="edge"><title>Node1&#45;&gt;Node4</title>
<path fill="none" stroke="midnightblue" d="M47.6277,-110.45C60.9828,-102.123 82.0768,-88.9704 98.0039,-79.0394"/>
<polygon fill="midnightblue" stroke="midnightblue" points="100.053,-81.8863 106.687,-73.6253 96.3494,-75.9464 100.053,-81.8863"/>
</g>
<!-- Node4&#45;&gt;Node2 -->
<g id="edge4" class="edge"><title>Node4&#45;&gt;Node2</title>
<path fill="none" stroke="midnightblue" d="M109.39,-55.4504C99.0058,-47.3566 82.7724,-34.7042 70.1706,-24.8822"/>
<polygon fill="midnightblue" stroke="midnightblue" points="72.1819,-22.0122 62.143,-18.6253 67.8787,-27.5333 72.1819,-22.0122"/>
</g>
</g>
</svg>
