<?xml version="1.0" encoding="UTF-8" standalone="no"?>
<!DOCTYPE svg PUBLIC "-//W3C//DTD SVG 1.1//EN"
 "http://www.w3.org/Graphics/SVG/1.1/DTD/svg11.dtd">
<!-- Generated by graphviz version 2.38.0 (20140413.2041)
 -->
<!-- Title: transport_arbitrator.h Pages: 1 -->
<svg width="466pt" height="302pt"
 viewBox="0.00 0.00 465.73 302.00" xmlns="http://www.w3.org/2000/svg" xmlns:xlink="http://www.w3.org/1999/xlink">
<g id="graph0" class="graph" transform="scale(1 1) rotate(0) translate(4 298)">
<title>transport_arbitrator.h</title>
<polygon fill="white" stroke="none" points="-4,4 -4,-298 461.732,-298 461.732,4 -4,4"/>
<!-- Node1 -->
<g id="node1" class="node"><title>Node1</title>
<polygon fill="#bfbfbf" stroke="black" points="78.1167,-275.5 78.1167,-293.5 186.949,-293.5 186.949,-275.5 78.1167,-275.5"/>
<text text-anchor="middle" x="132.533" y="-281.5" font-family="Helvetica,sans-Serif" font-size="10.00">transport_arbitrator.h</text>
</g>
<!-- Node2 -->
<g id="node2" class="node"><title>Node2</title>
<g id="a_node2"><a xlink:href="transport_8h.html" target="_top" xlink:title="transport.h">
<polygon fill="white" stroke="black" points="11.6314,-110.5 11.6314,-128.5 75.4341,-128.5 75.4341,-110.5 11.6314,-110.5"/>
<text text-anchor="middle" x="43.5328" y="-116.5" font-family="Helvetica,sans-Serif" font-size="10.00">transport.h</text>
</a>
</g>
</g>
<!-- Node1&#45;&gt;Node2 -->
<g id="edge1" class="edge"><title>Node1&#45;&gt;Node2</title>
<path fill="none" stroke="midnightblue" d="M126.473,-275.316C114.367,-258.72 86.7902,-219.648 68.5328,-184 60.8534,-169.006 53.9923,-151.079 49.4095,-138.102"/>
<polygon fill="midnightblue" stroke="midnightblue" points="52.6843,-136.862 46.1279,-128.539 46.0633,-139.134 52.6843,-136.862"/>
</g>
<!-- Node6 -->
<g id="node6" class="node"><title>Node6</title>
<g id="a_node6"><a xlink:href="codec_8h.html" target="_top" xlink:title="codec.h">
<polygon fill="white" stroke="black" points="78.0205,-165.5 78.0205,-183.5 129.045,-183.5 129.045,-165.5 78.0205,-165.5"/>
<text text-anchor="middle" x="103.533" y="-171.5" font-family="Helvetica,sans-Serif" font-size="10.00">codec.h</text>
</a>
</g>
</g>
<!-- Node1&#45;&gt;Node6 -->
<g id="edge6" class="edge"><title>Node1&#45;&gt;Node6</title>
<path fill="none" stroke="midnightblue" d="M128.683,-275.481C124.615,-266.709 118.283,-252.143 114.533,-239 110.302,-224.173 107.439,-206.907 105.696,-194.125"/>
<polygon fill="midnightblue" stroke="midnightblue" points="109.124,-193.332 104.404,-183.846 102.179,-194.205 109.124,-193.332"/>
</g>
<!-- Node9 -->
<g id="node9" class="node"><title>Node9</title>
<g id="a_node9"><a xlink:href="client__manager_8h.html" target="_top" xlink:title="client_manager.h">
<polygon fill="white" stroke="black" points="123.449,-220.5 123.449,-238.5 215.616,-238.5 215.616,-220.5 123.449,-220.5"/>
<text text-anchor="middle" x="169.533" y="-226.5" font-family="Helvetica,sans-Serif" font-size="10.00">client_manager.h</text>
</a>
</g>
</g>
<!-- Node1&#45;&gt;Node9 -->
<g id="edge15" class="edge"><title>Node1&#45;&gt;Node9</title>
<path fill="none" stroke="midnightblue" d="M138.314,-275.219C143.612,-267.629 151.609,-256.175 158.182,-246.76"/>
<polygon fill="midnightblue" stroke="midnightblue" points="161.059,-248.753 163.913,-238.55 155.319,-244.746 161.059,-248.753"/>
</g>
<!-- Node10 -->
<g id="node10" class="node"><title>Node10</title>
<g id="a_node10"><a xlink:href="erpc__threading_8h.html" target="_top" xlink:title="erpc_threading.h">
<polygon fill="white" stroke="black" points="270.006,-220.5 270.006,-238.5 361.06,-238.5 361.06,-220.5 270.006,-220.5"/>
<text text-anchor="middle" x="315.533" y="-226.5" font-family="Helvetica,sans-Serif" font-size="10.00">erpc_threading.h</text>
</a>
</g>
</g>
<!-- Node1&#45;&gt;Node10 -->
<g id="edge17" class="edge"><title>Node1&#45;&gt;Node10</title>
<path fill="none" stroke="midnightblue" d="M160.327,-275.45C191.723,-266.357 242.986,-251.511 277.939,-241.388"/>
<polygon fill="midnightblue" stroke="midnightblue" points="279.146,-244.682 287.778,-238.538 277.199,-237.958 279.146,-244.682"/>
</g>
<!-- Node3 -->
<g id="node3" class="node"><title>Node3</title>
<polygon fill="white" stroke="#bfbfbf" points="115.412,-0.5 115.412,-18.5 163.653,-18.5 163.653,-0.5 115.412,-0.5"/>
<text text-anchor="middle" x="139.533" y="-6.5" font-family="Helvetica,sans-Serif" font-size="10.00">stdint.h</text>
</g>
<!-- Node2&#45;&gt;Node3 -->
<g id="edge2" class="edge"><title>Node2&#45;&gt;Node3</title>
<path fill="none" stroke="midnightblue" d="M36.6056,-110.431C26.5592,-97.698 10.4043,-72.589 22.5328,-55 41.02,-28.1893 77.9548,-17.5187 105.405,-13.2792"/>
<polygon fill="midnightblue" stroke="midnightblue" points="105.952,-16.7374 115.403,-11.949 105.028,-9.79851 105.952,-16.7374"/>
</g>
<!-- Node4 -->
<g id="node4" class="node"><title>Node4</title>
<polygon fill="white" stroke="#bfbfbf" points="31.8062,-55.5 31.8062,-73.5 77.2593,-73.5 77.2593,-55.5 31.8062,-55.5"/>
<text text-anchor="middle" x="54.5328" y="-61.5" font-family="Helvetica,sans-Serif" font-size="10.00">cstring</text>
</g>
<!-- Node2&#45;&gt;Node4 -->
<g id="edge3" class="edge"><title>Node2&#45;&gt;Node4</title>
<path fill="none" stroke="midnightblue" d="M45.2515,-110.219C46.7293,-103.099 48.9129,-92.5775 50.7909,-83.5289"/>
<polygon fill="midnightblue" stroke="midnightblue" points="54.2568,-84.0522 52.8621,-73.5496 47.4029,-82.6296 54.2568,-84.0522"/>
</g>
<!-- Node5 -->
<g id="node5" class="node"><title>Node5</title>
<g id="a_node5"><a xlink:href="erpc__common_8h_source.html" target="_top" xlink:title="erpc_common.h">
<polygon fill="white" stroke="black" points="95.6831,-55.5 95.6831,-73.5 183.382,-73.5 183.382,-55.5 95.6831,-55.5"/>
<text text-anchor="middle" x="139.533" y="-61.5" font-family="Helvetica,sans-Serif" font-size="10.00">erpc_common.h</text>
</a>
</g>
</g>
<!-- Node2&#45;&gt;Node5 -->
<g id="edge4" class="edge"><title>Node2&#45;&gt;Node5</title>
<path fill="none" stroke="midnightblue" d="M58.1131,-110.45C73.4784,-101.968 97.914,-88.477 116.011,-78.486"/>
<polygon fill="midnightblue" stroke="midnightblue" points="117.752,-81.5226 124.815,-73.6253 114.369,-75.3945 117.752,-81.5226"/>
</g>
<!-- Node5&#45;&gt;Node3 -->
<g id="edge5" class="edge"><title>Node5&#45;&gt;Node3</title>
<path fill="none" stroke="midnightblue" d="M139.533,-55.2188C139.533,-48.1769 139.533,-37.8083 139.533,-28.8277"/>
<polygon fill="midnightblue" stroke="midnightblue" points="143.033,-28.5495 139.533,-18.5496 136.033,-28.5496 143.033,-28.5495"/>
</g>
<!-- Node6&#45;&gt;Node2 -->
<g id="edge10" class="edge"><title>Node6&#45;&gt;Node2</title>
<path fill="none" stroke="midnightblue" d="M94.42,-165.45C85.4335,-157.512 71.4827,-145.189 60.4594,-135.452"/>
<polygon fill="midnightblue" stroke="midnightblue" points="62.5431,-132.623 52.7312,-128.625 57.9088,-137.869 62.5431,-132.623"/>
</g>
<!-- Node6&#45;&gt;Node3 -->
<g id="edge7" class="edge"><title>Node6&#45;&gt;Node3</title>
<path fill="none" stroke="midnightblue" d="M77.7323,-170.078C53.6676,-165.366 19.0707,-154.359 2.53276,-129 -2.08013,-121.927 1.6275,-118.396 2.53276,-110 5.21488,-85.1247 -1.99856,-73.7801 14.5328,-55 37.5097,-28.8975 76.855,-18.1056 105.274,-13.644"/>
<polygon fill="midnightblue" stroke="midnightblue" points="105.774,-17.1083 115.2,-12.27 104.814,-10.1744 105.774,-17.1083"/>
</g>
<!-- Node6&#45;&gt;Node4 -->
<g id="edge8" class="edge"><title>Node6&#45;&gt;Node4</title>
<path fill="none" stroke="midnightblue" d="M101.933,-165.395C99.3145,-153.039 93.4902,-128.931 84.5328,-110 79.8422,-100.087 73.123,-89.8823 67.2322,-81.7499"/>
<polygon fill="midnightblue" stroke="midnightblue" points="69.8925,-79.4642 61.0855,-73.5746 64.2975,-83.6708 69.8925,-79.4642"/>
</g>
<!-- Node6&#45;&gt;Node5 -->
<g id="edge9" class="edge"><title>Node6&#45;&gt;Node5</title>
<path fill="none" stroke="midnightblue" d="M106.239,-165.382C112.024,-148.026 125.713,-106.96 133.619,-83.2413"/>
<polygon fill="midnightblue" stroke="midnightblue" points="136.954,-84.3054 136.796,-73.7118 130.313,-82.0918 136.954,-84.3054"/>
</g>
<!-- Node7 -->
<g id="node7" class="node"><title>Node7</title>
<g id="a_node7"><a xlink:href="message__buffer_8h.html" target="_top" xlink:title="message_buffer.h">
<polygon fill="white" stroke="black" points="172.87,-110.5 172.87,-128.5 268.196,-128.5 268.196,-110.5 172.87,-110.5"/>
<text text-anchor="middle" x="220.533" y="-116.5" font-family="Helvetica,sans-Serif" font-size="10.00">message_buffer.h</text>
</a>
</g>
</g>
<!-- Node6&#45;&gt;Node7 -->
<g id="edge11" class="edge"><title>Node6&#45;&gt;Node7</title>
<path fill="none" stroke="midnightblue" d="M121.303,-165.45C140.459,-156.773 171.182,-142.856 193.371,-132.804"/>
<polygon fill="midnightblue" stroke="midnightblue" points="194.931,-135.94 202.596,-128.625 192.043,-129.564 194.931,-135.94"/>
</g>
<!-- Node7&#45;&gt;Node3 -->
<g id="edge13" class="edge"><title>Node7&#45;&gt;Node3</title>
<path fill="none" stroke="midnightblue" d="M231.563,-110.466C247.031,-98.2022 271.86,-74.2125 258.533,-55 239.693,-27.8411 202.133,-17.2299 174.225,-13.0996"/>
<polygon fill="midnightblue" stroke="midnightblue" points="174.421,-9.59659 164.061,-11.813 173.542,-16.5412 174.421,-9.59659"/>
</g>
<!-- Node7&#45;&gt;Node5 -->
<g id="edge12" class="edge"><title>Node7&#45;&gt;Node5</title>
<path fill="none" stroke="midnightblue" d="M208.231,-110.45C195.623,-102.201 175.778,-89.2158 160.652,-79.3187"/>
<polygon fill="midnightblue" stroke="midnightblue" points="162.235,-76.1719 151.951,-73.6253 158.402,-82.0294 162.235,-76.1719"/>
</g>
<!-- Node8 -->
<g id="node8" class="node"><title>Node8</title>
<polygon fill="white" stroke="#bfbfbf" points="201.412,-55.5 201.412,-73.5 249.653,-73.5 249.653,-55.5 201.412,-55.5"/>
<text text-anchor="middle" x="225.533" y="-61.5" font-family="Helvetica,sans-Serif" font-size="10.00">cstddef</text>
</g>
<!-- Node7&#45;&gt;Node8 -->
<g id="edge14" class="edge"><title>Node7&#45;&gt;Node8</title>
<path fill="none" stroke="midnightblue" d="M221.314,-110.219C221.986,-103.099 222.978,-92.5775 223.832,-83.5289"/>
<polygon fill="midnightblue" stroke="midnightblue" points="227.319,-83.8341 224.773,-73.5496 220.35,-83.1766 227.319,-83.8341"/>
</g>
<!-- Node9&#45;&gt;Node6 -->
<g id="edge16" class="edge"><title>Node9&#45;&gt;Node6</title>
<path fill="none" stroke="midnightblue" d="M159.509,-220.45C149.527,-212.434 133.976,-199.947 121.796,-190.166"/>
<polygon fill="midnightblue" stroke="midnightblue" points="123.64,-187.158 113.651,-183.625 119.257,-192.616 123.64,-187.158"/>
</g>
<!-- Node10&#45;&gt;Node3 -->
<g id="edge20" class="edge"><title>Node10&#45;&gt;Node3</title>
<path fill="none" stroke="midnightblue" d="M316.176,-220.348C317.859,-193.085 319.512,-104.042 274.533,-55 248.719,-26.855 204.782,-16.4761 174.065,-12.6689"/>
<polygon fill="midnightblue" stroke="midnightblue" points="174.117,-9.15475 163.803,-11.5779 173.377,-16.1155 174.117,-9.15475"/>
</g>
<!-- Node11 -->
<g id="node11" class="node"><title>Node11</title>
<g id="a_node11"><a xlink:href="erpc__config__internal_8h_source.html" target="_top" xlink:title="erpc_config_internal.h">
<polygon fill="white" stroke="black" points="343.334,-165.5 343.334,-183.5 457.732,-183.5 457.732,-165.5 343.334,-165.5"/>
<text text-anchor="middle" x="400.533" y="-171.5" font-family="Helvetica,sans-Serif" font-size="10.00">erpc_config_internal.h</text>
</a>
</g>
</g>
<!-- Node10&#45;&gt;Node11 -->
<g id="edge18" class="edge"><title>Node10&#45;&gt;Node11</title>
<path fill="none" stroke="midnightblue" d="M328.442,-220.45C341.798,-212.123 362.892,-198.97 378.819,-189.039"/>
<polygon fill="midnightblue" stroke="midnightblue" points="380.868,-191.886 387.502,-183.625 377.164,-185.946 380.868,-191.886"/>
</g>
<!-- Node12 -->
<g id="node12" class="node"><title>Node12</title>
<g id="a_node12"><a xlink:href="erpc__config_8h.html" target="_top" xlink:title="erpc_config.h">
<polygon fill="white" stroke="black" points="362.513,-110.5 362.513,-128.5 438.552,-128.5 438.552,-110.5 362.513,-110.5"/>
<text text-anchor="middle" x="400.533" y="-116.5" font-family="Helvetica,sans-Serif" font-size="10.00">erpc_config.h</text>
</a>
</g>
</g>
<!-- Node11&#45;&gt;Node12 -->
<g id="edge19" class="edge"><title>Node11&#45;&gt;Node12</title>
<path fill="none" stroke="midnightblue" d="M400.533,-165.219C400.533,-158.177 400.533,-147.808 400.533,-138.828"/>
<polygon fill="midnightblue" stroke="midnightblue" points="404.033,-138.55 400.533,-128.55 397.033,-138.55 404.033,-138.55"/>
</g>
</g>
</svg>
